<svg width="24" height="24" viewBox="0 0 24 24" fill="none" xmlns="http://www.w3.org/2000/svg">
<path fill-rule="evenodd" clip-rule="evenodd" d="M11 13.4142V8H13V12.5858L15.9798 15.5656L14.5656 16.9798L11 13.4142ZM12 20C15.866 20 19 16.866 19 13C19 9.13401 15.866 6 12 6C8.13401 6 5 9.13401 5 13C5 16.866 8.13401 20 12 20ZM12 22C16.9706 22 21 17.9706 21 13C21 8.02944 16.9706 4 12 4C7.02944 4 3 8.02944 3 13C3 17.9706 7.02944 22 12 22Z" fill="#E55608"/>
<path d="M4.98535 1.98285C2.77621 1.98285 0.985352 3.77371 0.985352 5.98285C0.985352 6.97096 1.32351 7.88187 1.91725 8.57979C2.45965 7.23697 4.36335 4.21992 7.55849 2.92022C6.86295 2.33524 5.9653 1.98285 4.98535 1.98285Z" fill="#E55608"/>
<path d="M23.0002 6C23.0002 3.79086 21.2093 2 19.0002 2C18.0261 2 17.1333 2.3482 16.4395 2.92693C17.724 3.42184 20.649 5.24153 22.0729 8.56107C22.6519 7.86723 23.0002 6.97429 23.0002 6Z" fill="#E55608"/>
</svg>
