<svg width="87" height="239" viewBox="0 0 87 239" fill="none" xmlns="http://www.w3.org/2000/svg">
<path d="M83.7485 5.14484C83.7485 5.14484 84.3502 5.26096 84.143 5.5309C84.0296 6.12883 83.4932 6.49018 82.9285 7.00103C82.7498 7.12149 82.3269 6.88492 82.534 6.61498L83.7485 5.14484ZM82.4601 5.36107C82.4601 5.36107 81.9805 5.42348 82.0742 5.75147C82.1679 6.07946 82.6759 5.86757 82.4601 5.36107ZM20.2889 113.61C20.2889 113.61 20.2605 113.759 20.2321 113.909C20.6181 113.518 20.8252 113.248 21.004 113.128L20.6095 112.742C20.6095 112.742 20.4677 113.489 20.4393 113.639L20.2889 113.61ZM49.6792 35.14C49.6792 35.14 49.1996 35.2024 49.1145 35.6509C49.001 36.2488 49.9516 35.3476 49.6792 35.14ZM50.3462 35.7336L50.647 35.7917C50.8825 35.3722 50.2525 35.4056 50.1957 35.7046L50.1674 35.8541L50.3462 35.7336ZM27.7667 84.0616C27.7667 84.0616 27.9171 84.0906 27.7667 84.0616V84.0616ZM49.6199 37.9178L49.5632 38.2168C49.7136 38.2458 49.6483 37.7683 49.6199 37.9178ZM48.1019 41.8087C47.4066 41.3646 47.2364 42.2615 48.0452 42.1077C48.1956 42.1367 48.0736 41.9582 48.1019 41.8087ZM55.2256 45.3528C56.3919 44.958 56.8543 43.3427 57.2884 41.8769C56.6953 42.5373 56.2811 43.0772 56.3748 43.4052L55.2256 45.3528ZM60.0578 37.1428C60.0578 37.1428 60.1712 36.5449 60.35 36.4245C61.7802 35.4608 61.6693 33.5799 62.4696 32.6496C62.6767 32.3797 62.583 32.0517 62.6397 31.7528C61.1046 34.0908 60.0775 36.2169 59.5498 37.3547C59.5498 37.3547 59.7002 37.3838 59.7286 37.2343L60.0578 37.1428ZM21.4458 104.226C21.4458 104.226 21.3324 104.824 21.2473 105.272L21.4458 104.226ZM59.2008 38.3721C59.2008 38.3721 59.2576 38.0731 59.2859 37.9237L59.2008 38.3721ZM40.3658 237.886C39.2107 236.578 38.1406 234.822 37.4933 233.302C37.0137 233.365 36.2049 233.519 36.0262 233.639L35.7907 234.058C35.6686 233.88 35.189 233.942 35.1237 233.465C35.1237 233.465 34.8228 233.407 34.6441 233.527C33.8722 234.308 32.8958 232.88 32.595 232.822L29.8506 231.673C29.8506 231.673 29.4561 231.286 29.2773 231.407C28.9198 231.648 28.5252 231.262 28.3748 231.233C28.3748 231.233 28.2811 230.905 28.074 231.175L27.7731 231.117C27.8299 230.818 26.7856 231.391 27.4354 230.432C27.878 229.742 27.8213 230.041 28.0851 229.472L28.0568 229.622L28.5081 229.709C28.5081 229.709 29.2429 228.301 28.9137 228.393C28.7349 228.513 28.6129 228.335 28.1135 229.323L28.0568 229.622C28.0568 229.622 27.5772 229.684 27.3701 229.954C26.9558 230.494 26.6549 230.436 26.6549 230.436C25.8831 231.217 24.4554 229.702 24.183 229.494C24.183 229.494 23.0364 228.963 22.6505 229.353C22.6505 229.353 22.0488 229.237 22.0772 229.088C22.0772 229.088 21.7764 229.03 21.4756 228.972C21.2968 229.092 21.5607 228.523 21.2031 228.764C20.9306 228.557 21.1661 228.137 20.7716 227.751C20.4708 227.693 20.292 227.813 20.255 227.187C20.255 227.187 19.6817 226.921 19.5313 226.892C17.8484 226.722 17.0224 225.323 17.0224 225.323C17.0224 225.323 16.7783 224.966 16.5712 225.236C16.5712 225.236 16.3271 224.879 16.3555 224.729C16.3838 224.58 16.3838 224.58 16.0546 224.671C15.8759 224.792 15.7452 223.837 15.802 223.538C15.887 223.09 15.9154 222.94 15.9154 222.94C15.9438 222.791 15.7083 223.21 15.6146 222.882C15.6146 222.882 15.6429 222.733 15.6713 222.583C15.728 222.284 15.8501 222.463 16.0572 222.193L16.114 221.894C16.114 221.894 15.7847 221.985 15.5209 222.554C15.5492 222.405 15.5776 222.255 15.5776 222.255L15.0413 222.616C15.0413 222.616 15.0696 222.467 14.7404 222.558C14.7121 222.708 13.9033 222.862 13.7528 222.833C13.452 222.775 13.1314 223.642 13.0291 222.538C13.0575 222.389 12.626 221.376 12.3905 221.795C11.9763 222.335 12.2401 221.766 12.0897 221.737C12.0897 221.737 12.0897 221.737 12.1464 221.438C12.2599 220.84 12.3166 220.541 12.0244 221.259C11.7322 221.978 11.2809 221.891 11.366 221.442C11.366 221.442 10.3131 221.239 10.5117 220.193L10.54 220.043C10.3896 220.014 10.2959 219.686 10.1455 219.657C10.1455 219.657 10.1455 219.657 10.2306 219.209L10.259 219.059C10.259 219.059 10.2873 218.91 10.9371 217.95C10.9371 217.95 11.3514 217.411 11.2293 217.232C11.2861 216.933 10.693 217.593 10.4292 218.162C10.3724 218.461 10.222 218.432 10.0716 218.403C10.0716 218.403 10.1283 218.104 9.77078 218.345C9.77078 218.345 9.71405 218.644 9.68569 218.794C9.39345 219.512 9.32815 219.035 9.23446 218.707C9.2061 218.856 8.74624 217.993 8.8597 217.395C8.91643 217.096 9.30234 216.705 9.53784 216.286C9.74499 216.016 9.62294 215.837 9.6513 215.688C9.6513 215.688 9.62295 215.837 9.41581 216.107C9.35908 216.406 9.05825 216.348 9.05825 216.348L8.29757 215.427C8.29757 215.427 8.26924 215.576 8.14718 215.398C8.14718 215.398 8.2039 215.099 8.26063 214.8C8.67492 214.26 8.55286 214.081 8.91042 213.84C8.91042 213.84 8.91042 213.84 8.85369 214.139C8.79696 214.438 8.41102 214.829 8.41102 214.829L8.56147 214.858C8.56147 214.858 8.76859 214.588 8.79696 214.438C8.88205 213.99 9.26797 213.6 9.26797 213.6C9.26797 213.6 9.26797 213.6 9.3247 213.301C9.38143 213.002 9.38143 213.002 9.3247 213.301C8.93878 213.691 9.17428 213.272 9.02387 213.242C9.05223 213.093 9.05223 213.093 9.02387 213.242C8.9955 213.392 8.87345 213.213 8.63794 213.633C8.58121 213.932 8.60961 213.782 8.78839 213.662C8.78839 213.662 8.7033 214.11 8.76003 213.811C8.76003 213.811 8.76002 213.811 8.73166 213.961C8.34574 214.351 8.31734 214.501 8.08183 214.92C8.08183 214.92 8.05346 215.07 8.0251 215.219C7.96837 215.518 8.02509 215.219 7.66753 215.46C7.6108 215.759 7.22488 216.149 7.22488 216.149C7.22488 216.149 7.28164 215.85 7.48878 215.581C7.54551 215.282 7.57388 215.132 7.54551 215.282C7.54551 215.282 7.13119 215.821 7.30997 215.701C7.45179 214.954 7.39511 215.253 7.00919 215.643C6.77368 216.062 7.09429 215.194 7.03756 215.493C7.03756 215.493 7.0092 215.643 7.03756 215.493C7.20775 214.597 6.94387 215.165 6.73673 215.435C6.50122 215.855 7.23611 214.447 7.23611 214.447C7.23611 214.447 7.2361 214.447 7.20774 214.597C7.12265 215.045 6.97223 215.016 6.82182 214.987C6.82182 214.987 6.43589 215.377 6.52098 214.929C6.54934 214.779 6.60604 214.48 6.37054 214.9C6.31381 215.199 5.9563 215.44 5.98467 215.29C6.0414 214.991 6.09813 214.692 6.0414 214.991C6.0414 214.991 5.65547 215.382 5.68383 215.232C5.68383 215.232 5.76893 214.784 5.74056 214.933C5.56178 215.054 5.35463 215.324 5.43973 214.875C5.49646 214.576 5.2893 214.846 5.08216 215.116C4.90338 215.237 4.75293 215.208 4.96007 214.938C4.96007 214.938 5.04519 214.489 4.86642 214.61C4.65927 214.88 4.92317 214.311 4.71603 214.581C4.71603 214.581 4.47192 214.224 4.02927 214.913C4.02927 214.913 4.58276 216.104 5.33484 216.25C5.33484 216.25 5.85142 216.814 6.23734 216.424C6.67999 215.734 6.80205 215.913 6.59491 216.183L6.48145 216.781C6.48145 216.781 7.11142 216.747 7.08306 216.897C7.08306 216.897 7.35556 217.104 7.50597 217.133C7.92025 216.594 7.90047 217.519 8.25803 217.279C8.22966 217.428 8.70929 217.366 8.8597 217.395C8.8597 217.395 9.01013 217.424 9.24563 217.004L9.1889 217.303C9.1889 217.303 9.13218 217.602 9.04708 218.051C8.96199 218.499 8.68952 218.292 8.71788 218.142C8.77461 217.843 8.36029 218.383 8.2666 218.055C8.2666 218.055 7.21373 217.852 7.06332 217.823C7.06332 217.823 7.12005 217.524 6.31126 217.678C6.31126 217.678 6.04739 218.247 5.92533 218.068C6.01043 217.62 6.21757 217.35 6.06715 217.321C5.76633 217.263 5.49387 217.055 5.31509 217.175L5.25836 217.474C5.25836 217.474 5.31506 217.175 5.16465 217.146C4.25357 216.196 2.75803 216.682 2.20451 215.491C2.20451 215.491 2.23288 215.341 1.87532 215.582C1.66818 215.852 1.51778 215.823 1.36736 215.794C1.36736 215.794 1.36737 215.794 1.42409 215.495C0.802666 216.305 0.785467 214.752 1.29344 214.54C1.29344 214.54 1.29342 214.54 1.4722 214.419C1.37851 214.091 1.61402 213.672 1.61402 213.672C1.91484 213.73 2.17876 213.161 2.03694 213.909C2.00857 214.058 2.33777 213.967 2.28104 214.266C2.25268 214.415 2.63858 214.025 2.73227 214.353C2.67554 214.652 3.08983 214.112 3.3623 214.319C3.3623 214.319 3.36227 214.319 3.51269 214.348C3.87025 214.107 3.81353 214.406 4.22781 213.867C3.08982 214.112 2.57328 213.547 2.42286 213.518C2.42286 213.518 2.30081 213.34 2.50795 213.07C2.77182 212.501 2.67814 212.173 2.56468 212.771C1.94325 213.581 2.26386 212.713 2.67814 212.173C2.67814 212.173 2.70648 212.023 2.88526 211.903C2.99872 211.305 3.27116 211.513 3.53503 210.944C3.59176 210.645 3.97772 210.254 4.21322 209.835C4.44873 209.415 4.26993 209.536 4.50544 209.116C4.53381 208.967 4.5338 208.967 4.59053 208.668C4.61889 208.519 4.82604 208.249 5.03318 207.979L5.08991 207.68C5.11828 207.53 5.35377 207.111 5.6546 207.169C5.6546 207.169 6.01216 206.928 5.98379 207.077C5.98379 207.077 5.92707 207.376 5.95543 207.227C5.9838 207.077 6.34137 206.836 6.313 206.986C6.28464 207.135 6.40668 207.314 6.67055 206.745C6.72728 206.446 6.90606 206.326 6.78401 206.147C6.78401 206.147 6.78402 206.147 6.81238 205.998C6.81238 205.998 6.86909 205.699 7.0195 205.728C7.04787 205.578 7.10462 205.279 7.2834 205.159C8.06383 205.154 8.27094 204.885 8.32767 204.586C8.32767 204.586 8.47809 204.615 8.27094 204.884L7.50771 206.442C7.53608 206.292 7.56447 206.143 7.77162 205.873C7.77162 205.873 7.82834 205.574 7.85671 205.424C8.12058 204.855 8.27097 204.884 8.42139 204.913C8.42139 204.913 8.30792 205.511 7.89364 206.051C7.86527 206.201 7.65816 206.471 7.65816 206.471C7.62979 206.62 7.39425 207.04 7.33752 207.339C7.33752 207.339 7.54467 207.069 7.75182 206.799C7.80855 206.5 7.80852 206.5 8.01567 206.23C8.04403 206.08 8.07239 205.931 8.42995 205.69C8.84423 205.15 8.96633 205.329 8.9096 205.628L8.88123 205.777C8.88123 205.777 9.23877 205.536 8.9749 206.105L8.94653 206.255C8.94653 206.255 8.71102 206.674 8.50388 206.944L8.44715 207.243C8.44715 207.243 8.00451 207.932 7.769 208.352C7.50513 208.921 7.68392 208.8 7.71228 208.651C7.94779 208.231 8.18331 207.812 8.54086 207.571C8.74801 207.301 8.59759 207.272 8.62595 207.122C8.65432 206.973 8.86141 206.703 9.04019 206.583C9.39774 206.342 9.19061 206.612 9.25593 207.089C9.25593 207.089 9.17083 207.537 8.84164 207.629C8.81328 207.778 8.60613 208.048 8.78491 207.928C8.99205 207.658 9.11414 207.836 8.907 208.106L8.85027 208.405C8.79354 208.704 8.8219 208.555 8.85027 208.405C8.87863 208.256 9.08578 207.986 9.29292 207.716C9.34965 207.417 9.70719 207.176 9.47168 207.595C9.12272 208.613 8.95253 209.51 9.63069 208.401C9.68741 208.102 9.89457 207.832 10.0733 207.712C10.2521 207.591 10.4025 207.62 9.98825 208.16C9.93152 208.459 9.54563 208.849 9.69604 208.878C9.69604 208.878 9.8464 208.907 10.0819 208.488C10.1386 208.189 10.1954 207.89 10.3458 207.919C10.7034 207.678 10.8821 207.558 10.797 208.006L10.6269 208.903C10.6269 208.903 10.9844 208.662 11.0128 208.513C11.0979 208.064 11.4271 207.973 11.6058 207.852C11.5775 208.002 11.6058 207.852 11.9067 207.91C11.9067 207.91 11.9067 207.91 12.2075 207.968C12.3579 207.998 12.5084 208.027 12.2729 208.446C12.2161 208.745 12.1594 209.044 12.2161 208.745C12.8092 208.085 12.7808 208.234 12.6957 208.683C12.5823 209.28 12.2531 209.372 12.5539 209.43L12.9398 209.04C12.9398 209.04 13.2974 208.799 13.2407 209.098L13.269 208.948C13.269 208.948 13.7486 208.886 13.4564 209.604C13.3997 209.903 13.3997 209.903 13.428 209.754C13.7856 209.513 14.5944 209.359 14.4809 209.957C14.8668 209.566 14.9038 210.193 15.1763 210.401C15.1195 210.7 15.7779 210.517 15.9283 210.546C16.0787 210.575 16.144 211.052 16.3228 210.932C16.9245 211.048 16.7715 213.498 17.3362 212.987C17.2794 213.286 17.2511 213.436 17.2227 213.585C17.166 213.884 17.1093 214.183 17.6173 213.971C17.9748 213.73 17.6825 214.449 18.1905 214.237L18.7922 214.353C18.7922 214.353 20.0806 214.137 20.9745 213.534C21.1902 214.041 22.0274 213.737 22.0927 214.215C22.036 214.514 22.3935 214.273 22.2517 215.02C22.2233 215.17 22.195 215.319 22.2233 215.17C22.5525 215.078 22.8903 215.763 23.0124 215.942C23.0124 215.942 22.8705 216.689 23.021 216.718C23.021 216.718 23.1233 217.823 23.8384 217.341C23.8384 217.341 23.932 217.669 23.9037 217.818C23.8753 217.968 24.0541 217.848 24.4117 217.607C24.7692 217.366 24.3266 218.055 24.3266 218.055C24.477 218.084 24.6274 218.113 24.985 217.872C24.985 217.872 24.985 217.872 24.8715 218.47C24.8148 218.769 24.9935 218.649 25.1439 218.678C24.7382 219.994 25.1044 220.529 25.811 219.271C26.1118 219.329 26.214 220.434 26.2424 220.284C26.2424 220.284 26.5999 220.043 26.5716 220.193C26.5149 220.492 26.9291 219.952 26.8724 220.251C26.8157 220.55 26.759 220.849 26.7873 220.699C26.7873 220.699 27.0228 220.28 26.8157 220.55C26.7873 220.699 26.7023 221.148 26.9094 220.878C26.9661 220.579 27.2669 220.637 27.2953 220.487C27.4741 220.367 28.3113 220.064 28.0474 220.633C27.7835 221.201 27.9623 221.081 27.7268 221.5C27.1904 221.862 27.3494 222.667 27.9709 221.857C28.0276 221.558 28.0276 221.558 28.0843 221.259L28.1411 220.961C28.1411 220.961 28.4419 221.019 28.0843 221.259C28.056 221.409 27.9992 221.708 27.9709 221.857C27.9425 222.007 27.9709 221.857 27.9709 221.857C27.9709 221.857 27.9141 222.156 27.8858 222.306C27.8574 222.455 28.5072 221.496 28.3568 221.467C28.3568 221.467 28.3568 221.467 28.2064 221.438C28.4419 221.019 29.3074 220.566 29.0152 221.284C28.9585 221.583 29.3444 221.193 29.316 221.342C29.2309 221.791 29.2593 221.641 29.5884 221.55L29.6168 221.4C29.12 219.91 29.0092 218.029 27.8824 216.572C27.3658 216.007 26.6163 213.383 27.0134 211.291C27.2687 209.945 26.9309 209.26 26.5562 207.948C26.3121 207.591 25.5058 205.266 24.85 202.97C24.0722 200.496 23.5952 198.079 23.7086 197.482C23.7937 197.033 23.1181 195.663 22.6214 194.173C22.0962 192.832 21.4206 191.462 21.2986 191.283C20.6144 189.137 22.3541 189.007 20.7193 187.762C19.3286 186.874 18.6866 180.397 18.4906 178.964C18.4253 178.487 19.1799 176.153 19.0862 175.825C18.6548 174.812 18.7966 174.065 19.1172 173.197C19.1739 172.898 19.2023 172.749 19.0803 172.57C18.7141 172.035 18.6488 171.557 18.433 171.051C18.0299 169.888 19.3493 167.044 18.6454 165.823C18.1572 165.109 18.2423 164.661 18.2053 164.034C18.2904 163.585 17.6234 162.992 17.8306 162.722C17.944 162.124 18.3583 161.584 18.1142 161.227C16.837 159.741 19.3201 158.98 17.657 157.884C17.112 157.469 17.2822 156.572 17.8469 156.062C19.1267 155.069 17.2281 154.393 16.9101 152.782C16.8731 152.155 16.4786 151.769 17.1653 151.436C17.1653 151.436 17.4662 151.494 17.4945 151.345C17.8521 151.104 17.9371 150.656 17.4859 150.568C15.8881 149.95 16.5293 148.214 16.9917 146.599C17.0768 146.151 16.7957 145.167 16.8155 144.241L16.9857 143.344C16.9857 143.344 16.77 142.837 16.9488 142.717C16.9771 142.567 17.0055 142.418 16.8834 142.239C16.2448 141.496 16.5938 140.479 17.0648 139.64L17.0931 139.491C17.235 138.743 17.7172 136.202 17.2006 135.638C15.9887 134.629 17.7395 132.797 17.4215 131.186C17.1886 129.127 18.3945 126.88 18.7692 128.192C19.2746 130.459 18.9988 124.518 19.6967 122.483C19.7818 122.035 19.3589 121.798 19.1431 121.292C18.9558 120.636 18.9472 119.859 19.089 119.112C19.1457 118.813 19.2024 118.514 19.4096 118.244L19.3812 118.393C20.6636 114.922 21.8979 112.526 20.6181 113.518C20.9017 112.024 21.2421 110.23 21.1965 108.826L20.7256 109.665L20.9241 108.619C20.9241 108.619 22.3371 106.102 21.8515 102.909C21.8799 102.76 21.9083 102.611 22.087 102.49C22.2942 102.22 22.5581 101.651 22.3423 101.145C21.9108 100.132 23.4348 99.496 22.8529 98.454C22.4867 97.9185 23.1081 97.1087 23.6728 96.5978C23.7296 96.2989 24.3226 95.6385 23.8714 95.5514C23.8714 95.5514 23.5138 95.7924 23.3634 95.7633C23.213 95.7343 22.9122 95.6762 22.9972 95.2278C23.2525 93.8825 25.6162 90.4647 25.1847 89.4517C24.8753 88.6172 25.318 87.9278 25.7606 87.2385C25.8457 86.79 25.9875 86.0426 26.3735 85.6522C26.609 85.2328 27.0318 85.4693 27.1169 85.0209C27.202 84.5724 27.6163 84.0326 28.0022 83.6422C28.3881 83.2518 27.7495 82.5087 27.985 82.0893C28.0417 81.7903 28.2489 81.5204 28.1552 81.1924C27.8174 80.5074 28.3254 80.2955 28.4388 79.6975C28.4956 79.3986 28.2515 79.0416 28.5437 78.3232C28.6005 78.0242 28.6855 77.5758 28.4414 77.2187C27.9163 75.8777 27.8621 73.6979 29.2073 73.1827C29.7436 72.8213 30.2232 72.7589 30.8532 72.7256C31.0234 71.8287 31.656 69.3165 32.445 70.0885C32.8395 70.4746 33.4696 70.4412 33.498 70.2917C33.6398 69.5443 32.831 69.6982 33.2736 69.0088C33.302 68.8593 33.1146 68.2033 32.9926 68.0248C33.0209 67.8753 32.6918 67.9668 32.5414 67.9377C31.6389 67.7636 32.8929 64.4416 33.6363 63.8103C33.6647 63.6608 34.4366 62.88 34.55 62.282C34.8053 60.9367 36.1504 60.4215 36.0395 58.5406C36.0395 58.5406 35.8892 58.5116 35.7388 58.4826C35.2875 58.3955 35.4293 57.6481 35.9089 57.5857C36.2098 57.6437 36.0963 58.2417 36.3318 57.8222C36.4169 57.3738 36.7744 57.1329 37.2824 56.921C37.4612 56.8005 37.64 56.6801 37.3959 56.323C36.9558 54.5336 37.7474 52.8269 38.4342 52.4945C39.2997 52.0417 38.5107 51.2697 39.4699 51.1449C40.0715 51.261 40.3354 50.692 39.9409 50.306C39.2739 49.7124 40.3749 48.8402 40.9199 49.2553C41.4648 49.6703 42.0011 49.309 42.0862 48.8605C42.4919 47.5442 46.8677 44.2048 47.6679 43.2745C49.6826 40.8741 47.7813 42.6766 49.8244 40.1267C50.2671 39.4373 49.4866 39.4417 49.6285 38.6943C49.6852 38.3953 49.4411 38.0383 49.7419 38.0963C50.0427 38.1544 50.0427 38.1544 50.1648 38.3329C50.5309 38.8684 50.5705 37.0166 50.9848 36.4767C50.9848 36.4767 51.0415 36.1777 50.7407 36.1197C49.8382 35.9455 51.5323 34.4129 51.8245 33.6946C51.8245 33.6946 51.975 33.7236 52.1254 33.7526C52.5483 33.9892 52.6703 34.1677 53.0278 33.9268C53.2633 33.5073 53.113 33.4783 53.0193 33.1503C52.7752 32.7933 53.4988 33.0879 53.9501 33.175C54.2509 33.2331 54.4581 32.9631 54.5148 32.6641C54.4211 32.3362 54.6283 32.0662 54.685 31.7673C54.8921 31.4973 54.526 30.9618 54.8268 31.0198C55.1277 31.0779 55.278 31.1069 55.3631 30.6585C55.4482 30.21 55.8711 30.4466 55.8058 29.9691C55.6184 29.3131 55.3829 29.7325 55.4027 28.8066C55.4594 28.5076 55.7035 28.8647 56.0043 28.9227C56.1548 28.9517 56.4556 29.0098 56.7195 28.4409C56.8046 27.9925 56.7762 28.1419 56.2313 27.7268L56.288 27.4279C56.5888 27.4859 57.2842 27.93 57.3409 27.6311C57.4543 27.0331 57.5962 26.2857 57.7096 25.6878C57.7663 25.3888 57.5506 24.8823 57.8514 24.9404C58.7539 25.1146 58.5665 24.4586 58.8304 23.8897C59.2731 23.2003 58.6714 23.0842 59.0857 22.5443C59.6787 21.884 60.0931 21.3441 60.6861 20.6837C61.0153 20.5923 61.2225 20.3224 61.5516 20.231C61.5516 20.231 61.5516 20.231 61.58 20.0815C61.458 19.903 60.8279 19.9363 60.6491 20.0568C60.6491 20.0568 60.5271 19.8783 60.791 19.3094C61.0548 18.7405 61.2903 18.321 61.7416 18.4081C61.7416 18.4081 62.0424 18.4662 62.0708 18.3167C62.0991 18.1672 62.1275 18.0177 62.3063 17.8973C62.3063 17.8973 62.3347 17.7478 62.363 17.5983C62.8908 16.4605 64.5084 16.1528 65.0077 15.1645C65.3283 14.2966 66.9855 12.1371 67.1642 12.0166C67.3147 12.0457 71.7472 8.40729 72.048 8.46534C72.6497 8.58145 72.7347 8.133 72.9986 7.56409C73.3562 7.32318 73.4697 6.72526 73.9776 6.51337C74.0911 5.91544 74.9849 5.31317 75.9441 5.18836C77.5334 5.03017 76.0095 5.66583 78.2116 3.92138C78.5691 3.68047 78.5038 3.20299 78.8613 2.96208C80.7144 2.23499 77.7543 0.579055 79.9254 1.4629C80.3767 1.54998 80.6887 -0.0943309 81.1769 0.619706C81.421 0.976725 81.8438 1.21327 82.2667 1.44983C82.2667 1.44983 82.5676 1.50789 82.718 1.53692C82.8684 1.56594 82.9904 1.74445 82.962 1.89393C82.5761 2.28433 82.8117 1.86492 82.3974 2.4048C82.3406 2.70377 82.9139 2.96935 83.1494 2.54993C83.9496 1.61965 83.2912 1.80251 84.7584 1.46582C85.238 1.40341 86.7989 1.39472 86.7138 1.84316C86.6571 2.14213 84.8212 4.42209 84.6708 4.39306C84.0124 4.57592 84.1714 5.3814 83.3256 4.90828C82.9028 4.67172 83.5809 3.56292 83.6944 2.96498C83.3368 3.2059 82.8005 3.56727 82.4146 3.95766C82.4146 3.95766 82.4146 3.95769 82.4429 3.8082C82.6131 2.91131 81.898 3.39312 81.8327 2.91564C81.8611 2.76616 81.739 2.58764 81.5886 2.55862C81.2878 2.50056 81.5319 2.8576 81.4751 3.15656C81.4751 3.15656 81.268 3.4265 81.1743 3.09851C80.9302 2.74149 80.9869 2.44251 80.6577 2.53394C79.6985 2.65875 79.3126 3.04917 79.4802 4.63108C79.4235 4.93004 79.7526 4.83861 79.9314 4.71815C80.3827 4.80523 80.2039 4.92568 80.2692 5.40316C80.1841 5.85161 80.6921 5.63974 80.7574 6.11721C80.6156 6.86463 80.9732 6.6237 81.0385 7.10118C81.1038 7.57865 80.3517 7.43352 80.0879 8.00242C79.9744 8.60036 79.4295 8.18528 79.2309 9.23167C79.0607 10.1286 78.6748 10.519 78.3456 10.6104C77.8376 10.8223 77.4148 10.5857 77.4517 11.2127C77.7328 12.1966 75.4852 12.5377 74.8921 13.198C74.0636 14.2778 72.3781 16.5868 70.5705 18.7173C68.763 20.8478 66.9554 22.9783 65.6102 23.4935C65.6102 23.4935 65.5535 23.7924 65.5251 23.9419C64.1886 25.2335 63.6695 27.1478 64.5066 26.8445C64.4783 26.994 64.2711 27.2639 63.9419 27.3554C63.3119 27.3887 63.3772 27.8662 62.9629 28.4061C62.577 28.7965 61.4958 28.7428 61.8903 29.1288C61.4958 28.7428 59.237 30.7862 58.258 31.8369C58.4453 32.4929 57.7586 32.8252 57.0718 33.1576C57.4466 34.4696 54.9807 36.7829 55.7413 37.7045C55.1285 39.2907 53.6303 42.2557 53.406 40.9728L53.9621 39.6855C53.9621 39.6855 52.9745 39.9598 52.4949 40.0222C55.4826 33.3158 46.3116 45.4921 47.796 46.7083C48.6133 47.3309 49.0878 52.2261 49.6095 47.833C50.194 46.3963 50.9289 44.9885 51.6637 43.5807C51.8142 43.6098 51.9646 43.6388 52.0867 43.8173C51.8881 44.8637 52.1889 44.9218 51.4455 45.5531C50.5885 46.7823 52.1322 45.2207 53.0063 45.5444C53.0063 45.5444 53.0063 45.5444 52.9779 45.6938C52.9496 45.8433 53.1937 46.2003 53.0149 46.3208C53.0149 46.3208 52.6573 46.5617 52.4502 46.8317C52.7141 46.2627 52.5921 46.0842 51.7635 47.164C51.7351 47.3135 51.6784 47.6124 51.4996 47.7329C50.9349 48.2438 50.3702 48.7546 50.3419 48.9041C50.2568 49.3525 48.5798 52.438 47.9782 52.3219C47.5269 52.2348 47.771 52.5918 47.8364 53.0693C47.4504 53.4597 47.1582 54.1781 46.9227 54.5975C47.5243 54.7136 46.0374 55.9762 47.0335 56.4784C48.4552 54.7383 47.1298 54.3276 48.0237 53.7253C48.2678 54.0823 48.3899 54.2608 48.3048 54.7093C48.1913 55.3072 47.7487 55.9966 47.3344 56.5364L47.0335 56.4784L45.7056 58.5465L44.755 59.4477C44.5564 60.4941 41.7278 68.006 40.2752 72.3744C40.0113 72.9433 39.7475 73.5122 39.6624 73.9606C39.3701 74.679 39.1062 75.2479 39.0495 75.5469C36.3738 80.609 36.7116 81.294 35.7215 84.0471C35.6364 84.4955 34.7399 87.5766 33.8744 88.0294C33.3664 88.2413 32.9151 88.1542 32.83 88.6027C32.6882 89.3501 32.1468 94.6691 32.0333 95.267C32.0505 96.8199 30.7964 100.142 30.212 101.579C29.8063 102.895 30.5953 103.667 29.1935 104.481C29.4745 105.465 29.5965 105.644 29.2476 106.661C29.1908 106.96 28.5101 110.548 27.801 114.285C27.2423 118.051 26.8624 121.696 26.9845 121.875C28.8324 126.105 28.3726 125.242 26.3132 134.452C26.3415 134.302 26.1232 136.275 26.1773 138.455L25.9848 142.756C25.9848 142.756 26.3372 147.473 26.6242 151.712C27.0617 155.98 27.4992 160.249 27.4425 160.548C27.1786 161.116 27.6101 162.129 27.7974 162.785C28.0132 163.292 28.1807 164.874 28.2349 167.054L28.7068 174.428C28.9766 177.114 29.3969 179.829 29.7519 182.067C30.2573 184.334 30.8478 186.153 31.3076 187.016C31.776 188.656 31.0635 186.659 32.5599 194.386C32.9432 196.474 34.4078 198.616 34.0107 200.709C35.1943 201.867 40.0316 215.817 40.6788 217.337C41.0819 218.499 39.8106 220.268 41.0054 219.724C41.5133 219.512 41.6723 220.318 41.8881 220.824C42.2259 221.509 42.5267 221.567 42.2628 222.136C42.2061 222.435 41.999 222.705 42.0926 223.033C42.2431 223.062 42.5439 223.12 42.5439 223.12C42.4502 222.792 42.7879 223.477 42.6943 223.149C42.6943 223.149 42.751 222.85 42.8447 223.178C43.0888 223.535 43.3329 223.892 43.3045 224.042L43.2478 224.341C43.2478 224.341 43.5486 224.399 43.3982 224.37C43.1541 224.013 43.1541 224.013 43.0037 223.984C43.0037 223.984 42.7029 223.926 42.7965 224.254C42.7965 224.254 42.8989 225.358 42.9358 225.985C43.1799 226.342 43.302 226.52 42.9925 225.686C43.0493 225.387 43.2366 226.043 43.3587 226.222C43.4807 226.4 43.3586 226.222 43.265 225.894L43.0493 225.387L43.4154 225.923C43.4154 225.923 43.4154 225.923 43.6595 226.28C43.7816 226.458 43.7532 226.608 43.8752 226.786C44.091 227.293 44.213 227.471 44.5791 228.007L44.4941 228.455C44.4941 228.455 44.5224 228.306 44.4941 228.455L44.4373 228.754C44.4373 228.754 44.7382 228.812 45.0106 229.02C45.2178 228.75 45.5753 228.509 45.7258 228.538C45.5014 227.255 45.1069 226.869 44.9281 226.989L44.9849 226.69C44.9849 226.69 44.9195 226.213 44.8259 225.885C44.3377 225.171 44.0935 224.814 43.8211 224.606L43.8494 224.457C43.8494 224.457 43.8495 224.457 43.9999 224.486C44.1219 224.664 44.366 225.021 44.244 224.843C44.244 224.843 44.488 225.2 44.7889 225.258C45.6063 225.88 45.0897 225.316 44.5448 224.901C44.5731 224.751 44.4511 224.573 44.1786 224.365L43.8778 224.307C43.8778 224.307 43.2675 223.415 43.0235 223.058C42.6857 222.373 42.3763 221.538 42.4983 221.717C42.2542 221.36 42.0101 221.003 42.4983 221.717C42.6204 221.895 42.7424 222.074 42.8928 222.103C43.2873 222.489 43.0432 222.132 43.0432 222.132C43.0432 222.132 43.0433 222.132 43.3441 222.19C43.8606 222.754 44.4056 223.169 44.2835 222.991L43.7669 222.426C42.9779 221.654 42.8275 221.625 42.8559 221.476L42.3109 221.061C42.3109 221.061 42.0669 220.704 42.2173 220.733C42.2173 220.733 41.5502 220.139 41.5786 219.99C41.8227 220.347 41.729 220.019 41.5786 219.99C41.3061 219.782 41.3345 219.633 42.0299 220.077C42.7252 220.521 42.4811 220.164 42.0299 220.077C42.0299 220.077 41.3062 219.782 42.0299 220.077C42.4811 220.164 41.7858 219.72 41.8425 219.421C41.2323 218.528 41.9559 218.823 42.1347 218.702C42.1347 218.702 42.8215 218.37 42.9719 218.399C43.1223 218.428 43.2444 218.607 43.3664 218.785C43.7893 219.022 44.0248 218.602 42.9719 218.399L43.5735 218.515C43.5735 218.515 43.6303 218.216 43.3294 218.158C43.9311 218.274 43.9311 218.274 44.2319 218.332L43.9311 218.274C43.9311 218.274 43.6303 218.216 43.3294 218.158C43.179 218.129 43.0287 218.1 43.0287 218.1C43.0287 218.1 43.3295 218.158 43.2074 217.98C43.2074 217.98 43.2358 217.83 42.8413 217.444C42.6909 217.415 42.1089 216.373 42.2594 216.402C42.5602 216.46 42.4098 216.431 42.2877 216.253C42.2877 216.253 41.9216 215.717 42.2224 215.775C42.5232 215.833 42.2792 215.476 42.3075 215.327C42.3075 215.327 42.1769 214.372 42.6479 213.533L43.9363 213.317L42.9401 212.814L42.9685 212.665L43.4197 212.752C44.9892 213.52 44.3222 212.926 43.5332 212.154C43.5616 212.005 43.5899 211.855 43.6183 211.706C43.2521 211.17 43.7034 211.257 43.7601 210.958C43.8452 210.51 43.4506 210.124 43.5074 209.825C43.8082 209.883 43.2633 209.468 43.5641 209.526C43.8649 209.584 43.9217 209.285 43.95 209.135L44.0635 208.537C44.6651 208.654 45.1646 207.665 45.0425 207.487C45.0709 207.337 45.2127 206.59 45.3262 205.992C46.0782 206.137 46.8303 206.282 47.6761 206.755L47.7044 206.606L48.306 206.722C48.306 206.722 48.184 206.543 47.7611 206.307C47.7611 206.307 47.8179 206.008 47.8462 205.858C47.8462 205.858 47.903 205.559 47.9597 205.261C48.7118 205.406 48.7118 205.406 49.0126 205.464C49.163 205.493 48.618 205.078 48.3456 204.87C48.5244 204.75 48.1299 204.364 47.8007 204.455C47.2274 204.189 46.8045 203.953 46.5037 203.895C46.532 203.745 46.7108 203.625 46.7392 203.475C46.7675 203.326 46.8526 202.877 47.1818 202.786C47.3322 202.815 47.4457 202.217 47.2953 202.188L47.823 201.05L48.3396 201.615C48.3396 201.615 49.1767 201.312 49.628 201.399C49.0263 201.283 48.453 201.017 48.0301 200.78L48.0869 200.481C48.0869 200.481 49.0547 201.133 48.7169 200.448L48.2657 200.361L48.4075 199.614C48.4075 199.614 48.4556 198.538 49.3581 198.712C49.6589 198.77 49.8093 198.799 49.8377 198.65C49.6873 198.621 49.8944 198.351 49.9228 198.201C49.9228 198.201 50.0449 198.38 50.3174 198.587C50.9843 199.181 51.427 198.492 51.5688 197.744C51.7192 197.773 51.898 197.653 52.0484 197.682L52.1988 197.711C52.2272 197.561 52.1988 197.711 52.4996 197.769C52.4996 197.769 52.8004 197.827 52.4996 197.769C52.0484 197.682 52.0767 197.532 51.7475 197.624C51.1459 197.508 50.6946 197.421 51.231 197.059C51.231 197.059 51.861 197.026 51.8894 196.876C51.8894 196.876 52.0398 196.905 51.8894 196.876C51.8894 196.876 51.7674 196.698 50.9869 196.702C50.9869 196.702 50.564 196.466 50.4703 196.138C50.4703 196.138 51.072 196.254 50.7712 196.196C50.3483 195.959 50.8279 195.897 51.1004 196.104C51.8524 196.249 50.4333 195.511 51.4579 195.863C51.6083 195.892 52.0312 196.129 51.8808 196.1C51.7304 196.071 51.8808 196.1 51.8524 196.249C52.4541 196.366 52.4541 196.366 52.3037 196.337C51.9091 195.95 52.3036 196.337 51.7587 195.921C51.6083 195.892 51.7587 195.921 52.0596 195.979L53.5637 196.27C54.7387 196.651 56.064 197.062 55.9704 196.734C55.9704 196.734 55.4254 196.319 54.8237 196.203C54.8237 196.203 54.8237 196.203 54.8521 196.054L55.1529 196.112L57.202 196.817C57.202 196.817 57.9541 196.962 58.377 197.199C58.5274 197.228 58.5274 197.228 58.377 197.199C58.0761 197.141 57.7753 197.082 57.6249 197.053C57.1736 196.966 57.5398 197.502 57.869 197.41C58.1698 197.469 58.0194 197.44 58.6211 197.556C59.0723 197.643 59.3164 198 59.3164 198C59.2597 198.299 59.2597 198.299 57.9627 197.738C58.5927 197.705 56.3932 196.971 57.6618 197.68C57.9627 197.738 58.2635 197.797 58.658 198.183C58.658 198.183 58.8084 198.212 58.9588 198.241C59.2597 198.299 59.5605 198.357 59.5322 198.506C59.5322 198.506 59.2313 198.448 59.3533 198.627C59.3533 198.627 59.6258 198.834 59.325 198.776C59.1746 198.747 59.2683 199.075 59.2683 199.075C59.2683 199.075 59.0611 199.345 58.9107 199.316C58.9107 199.316 58.187 199.021 58.1586 199.171C58.1586 199.171 58.8823 199.466 58.4027 199.528C58.1019 199.47 58.4027 199.528 58.7972 199.914C59.3705 200.18 59.135 200.599 58.6838 200.512C58.5334 200.483 58.6838 200.512 58.6554 200.661C58.6554 200.661 58.1105 200.246 57.9884 200.068C57.5372 199.981 57.5372 199.981 57.5089 200.13C57.208 200.072 57.208 200.072 57.5089 200.13C57.5089 200.13 57.3215 199.474 57.4066 199.026C57.4066 199.026 58.5531 199.557 57.8578 199.113C57.8578 199.113 57.557 199.055 57.4349 198.876C57.4633 198.727 57.52 198.428 57.5484 198.278C57.0035 197.863 55.3205 197.693 56.2316 198.644C55.244 198.918 57.086 199.894 55.281 199.545C55.2243 199.844 55.1676 200.143 55.5621 200.529C57.3103 201.177 56.2204 200.346 57.5089 200.13C58.3262 200.753 58.1758 200.724 58.7775 200.84C58.7491 200.989 58.3915 201.23 58.5136 201.409L57.7615 201.264C57.7615 201.264 57.7616 201.264 57.8836 201.442C58.7294 201.915 58.3434 202.306 57.8922 202.219C57.5913 202.161 56.9897 202.044 57.441 202.132C57.8638 202.368 58.0142 202.397 58.2867 202.605C58.6812 202.991 58.5394 203.738 57.3928 203.207C57.3928 203.207 57.0636 203.298 57.6369 203.564C58.389 203.709 57.9463 204.398 57.4667 204.461C57.3163 204.432 57.4667 204.461 57.6171 204.49C57.6171 204.49 57.6171 204.49 57.1659 204.403C56.5642 204.287 57.1091 204.702 56.8083 204.644C56.6579 204.615 56.78 204.793 57.0524 205.001C57.0524 205.001 57.4469 205.387 57.2682 205.507C56.7886 205.57 57.606 206.192 56.4027 205.96C56.4027 205.96 56.3743 206.11 56.5247 206.139L56.8255 206.197C57.8784 206.4 56.3545 207.035 56.8711 207.6C56.8711 207.6 56.9364 208.078 56.7292 208.347C56.7009 208.497 57.1891 209.211 56.7095 209.273L56.1448 209.784C56.1448 209.784 56.3889 210.141 55.8809 210.353C55.9093 210.204 55.5147 209.818 55.1288 210.208C54.828 210.15 54.828 210.15 54.828 210.15C54.828 210.15 54.828 210.15 55.1288 210.208C55.4296 210.266 55.4296 210.266 55.4296 210.266C55.4296 210.266 54.828 210.15 54.6776 210.121C54.5272 210.092 54.3767 210.063 54.6209 210.42C54.7713 210.449 54.32 210.362 54.5641 210.719C55.4099 211.192 54.4507 211.317 53.849 211.201C53.849 211.201 53.849 211.201 53.8774 211.051C53.8774 211.051 52.8812 210.549 53.0316 210.578L53.4545 210.815C53.4545 210.815 53.1537 210.757 53.4545 210.815C53.4545 210.815 53.727 211.022 54.0278 211.08C54.3286 211.138 54.4507 211.317 54.2719 211.437C54.2719 211.437 53.971 211.379 53.8206 211.35C53.6702 211.321 53.5482 211.143 53.2474 211.085C52.3449 210.91 52.711 211.446 53.3127 211.562C53.7639 211.649 53.4347 211.741 54.008 212.006C54.1584 212.035 54.1584 212.035 53.9513 212.305C53.1992 212.16 52.5692 212.193 52.8417 212.401C52.5408 212.343 52.8133 212.55 52.9354 212.729C53.2362 212.787 52.9354 212.729 52.6345 212.671C52.3337 212.613 52.6346 212.671 52.8786 213.028C53.3015 213.264 52.5778 212.97 52.8219 213.327C52.8219 213.327 52.6715 213.298 52.5211 213.269C52.3707 213.24 53.225 214.489 52.7454 214.552C52.4446 214.494 52.3878 214.793 52.6603 215C53.8069 215.531 52.9328 215.208 52.6036 215.299C52.6036 215.299 52.246 215.54 52.5468 215.598C52.9981 215.685 53.0918 216.013 52.9413 215.984C52.6405 215.926 52.6122 216.076 52.4334 216.196C52.4334 216.196 53.1571 216.491 52.8279 216.582C52.3766 216.495 52.2262 216.466 52.3199 216.794C52.3199 216.794 52.7145 217.18 52.5357 217.3C51.7552 217.305 52.723 217.956 52.3655 218.197L52.7033 218.882C52.7033 218.882 51.5 218.65 51.5851 218.202C50.7195 218.654 51.6873 219.306 52.7119 219.659C52.6835 219.808 52.6552 219.958 52.6552 219.958C52.6552 219.958 52.6552 219.958 52.6268 220.107C53.1717 220.522 52.9929 220.643 53.1149 220.821C53.4811 221.357 52.4935 221.631 52.7093 222.138C51.5996 222.233 50.9129 222.566 50.5553 222.807L50.1694 223.197C50.1694 223.197 50.3851 223.704 50.0559 223.795C49.4259 223.828 49.8488 224.065 49.9425 224.393C49.9425 224.393 50.0362 224.721 50.3087 224.928C49.4062 224.754 50.8794 227.673 50.2863 228.333C50.0792 228.603 50.1445 229.081 50.0878 229.38C50.0878 229.38 49.523 229.89 49.4663 230.189C49.4096 230.488 49.3898 231.414 48.9669 231.178C49.248 232.162 48.4108 232.465 47.988 232.228C47.988 232.228 47.8375 232.199 47.9312 232.527C48.269 233.212 48.0902 233.333 47.7894 233.275C47.7894 233.275 47.676 233.873 47.2815 233.487L46.8869 233.101C46.8869 233.101 46.8302 233.4 47.0176 234.056C47.2333 234.562 47.0545 234.683 46.5663 233.969C46.2939 233.761 46.5663 233.969 46.5096 234.267C46.7253 234.774 46.5182 235.044 46.3678 235.015C45.9165 234.928 45.8882 235.077 45.8882 235.077C45.7378 235.048 45.5874 235.019 45.559 235.169C45.559 235.169 45.5023 235.468 45.5306 235.318C45.3802 235.289 45.0794 235.231 45.014 234.754C45.0424 234.604 44.6763 234.069 44.6479 234.218L44.4494 235.265C44.4494 235.265 44.3643 235.713 44.0918 235.505C44.3814 237.266 43.9783 236.103 42.8773 236.976C39.9317 239.351 38.8135 238.671 37.6584 237.363L40.3658 237.886ZM54.6931 195.248C54.6931 195.248 54.9939 195.306 54.6931 195.248V195.248ZM55.9617 195.958C55.9617 195.958 56.0468 195.509 55.5956 195.422C55.5672 195.572 55.6893 195.75 55.9617 195.958ZM55.7915 196.855C55.7915 196.855 55.8199 196.705 55.5191 196.647C55.5191 196.647 55.4907 196.797 55.7915 196.855ZM55.2071 198.291C55.2071 198.291 55.2071 198.291 54.9346 198.084L54.6338 198.026C54.6338 198.026 55.085 198.113 55.2071 198.291ZM55.0652 199.039L55.1503 198.59C55.1503 198.59 54.9999 198.561 55.0652 199.039ZM52.6586 198.574C52.6586 198.574 52.2358 198.338 52.2074 198.487C52.2074 198.487 52.2074 198.487 52.6586 198.574ZM59.6688 202.716C59.6688 202.716 60.2421 202.982 59.9696 202.774L59.6688 202.716ZM53.9444 200.837L53.6436 200.779C53.6436 200.779 53.672 200.629 53.7003 200.48C55.5053 200.828 55.7692 200.259 55.281 199.545L54.6793 199.429C54.6793 199.429 54.6226 199.728 54.2651 199.969C54.2651 199.969 54.2934 199.82 54.021 199.612C52.3467 200.219 52.7807 198.753 52.2246 200.04L52.9766 200.185C52.9766 200.185 52.5254 200.098 52.9766 200.185C53.8224 200.659 53.8224 200.658 53.8508 200.509L53.9444 200.837ZM57.9489 201.92C57.9489 201.92 57.9489 201.92 57.404 201.505C53.5387 202.153 60.4664 204.265 57.9489 201.92ZM52.2701 201.444L51.9693 201.386C51.9409 201.535 52.571 201.502 52.2701 201.444ZM52.3638 201.772C52.3638 201.772 52.2134 201.743 52.3638 201.772C52.6646 201.83 52.6646 201.83 52.3638 201.772ZM52.9371 202.037L53.2379 202.095C53.2379 202.095 52.7867 202.008 52.9371 202.037ZM52.0062 202.013L51.7054 201.954L52.0062 202.013ZM59.8278 203.522C59.8278 203.522 59.9782 203.551 59.8278 203.522V203.522ZM52.4945 202.727C52.4945 202.727 51.8928 202.61 52.1936 202.669C52.4944 202.727 52.7953 202.785 52.4945 202.727ZM51.6573 203.03C51.6573 203.03 51.9297 203.237 51.8077 203.059L51.6573 203.03ZM50.5193 203.275C50.5193 203.275 50.6981 203.155 50.7264 203.005C50.4256 202.947 50.3973 203.097 50.5193 203.275ZM51.243 203.57C51.243 203.57 50.3405 203.396 50.6413 203.454C51.3934 203.599 52.6621 204.308 51.243 203.57ZM55.7924 205.068L56.1783 204.677L55.5767 204.561C55.5767 204.561 55.5199 204.86 55.7924 205.068ZM50.4204 207.905C50.4204 207.905 50.5709 207.934 50.4204 207.905V207.905ZM54.5384 208.39L54.2375 208.331C54.5384 208.39 54.5384 208.39 54.5384 208.39ZM52.6225 206.16C52.6225 206.16 52.4721 206.131 52.3217 206.102C52.2933 206.252 52.7445 206.339 52.6225 206.16ZM49.1432 206.419C49.1432 206.419 49.7165 206.684 49.6881 206.834C49.9606 207.041 51.3427 207.153 50.8915 207.066C50.5906 207.008 50.7411 207.037 50.8915 207.066C51.0419 207.095 51.0419 207.095 50.9198 206.916C50.619 206.858 51.0703 206.945 50.9482 206.767C50.9482 206.767 51.0986 206.796 50.9482 206.767C50.6474 206.709 50.4969 206.68 50.3749 206.501C49.952 206.265 49.322 206.298 49.6228 206.356C49.322 206.298 49.5944 206.506 50.0173 206.742C50.0173 206.742 50.0174 206.742 50.4402 206.979C50.5907 207.008 50.4402 206.979 50.2898 206.95C49.1432 206.419 49.2653 206.597 49.0865 206.718C49.0865 206.718 49.0865 206.718 49.2369 206.747L49.1432 206.419ZM48.6439 207.407C47.7981 206.934 48.4367 207.677 48.6439 207.407V207.407ZM49.9976 207.668L50.2984 207.726L49.9976 207.668C49.9976 207.668 49.9039 207.34 49.6314 207.133C49.6314 207.133 50.0827 207.22 50.5339 207.307C50.5339 207.307 50.0827 207.22 50.111 207.07C50.111 207.07 49.5661 206.655 48.9928 206.39C48.692 206.332 48.9928 206.39 48.8424 206.361C48.5416 206.303 48.3628 206.423 48.9361 206.689C49.359 206.925 48.9361 206.689 48.4848 206.601C48.3344 206.572 48.4848 206.601 48.4848 206.601C48.4848 206.601 48.936 206.689 49.3589 206.925C48.1926 207.32 50.0259 207.519 50.2047 207.398L49.9976 207.668ZM51.0505 207.871C51.0505 207.871 50.6276 207.635 50.4488 207.755C50.4488 207.755 50.8433 208.141 51.0505 207.871ZM47.9373 208.665C48.6894 208.81 48.6894 208.81 48.4737 208.304C48.0224 208.217 47.994 208.366 47.9373 208.665ZM53.2018 209.681C53.2018 209.681 52.7506 209.594 52.901 209.623C53.2018 209.681 53.3522 209.71 53.2018 209.681ZM51.3117 209.781C51.3117 209.781 51.4621 209.81 51.3401 209.632C51.0393 209.574 50.8888 209.545 51.3117 209.781ZM52.7308 210.52L53.4829 210.665C53.4829 210.665 52.0638 209.926 52.7308 210.52ZM54.6664 211.823C54.6664 211.823 54.6948 211.674 54.7231 211.524C54.4223 211.466 54.2435 211.587 54.6664 211.823ZM54.0708 214.962C54.0708 214.962 54.5504 214.9 54.4283 214.722C54.4567 214.572 54.1275 214.663 54.4567 214.572C53.9118 214.157 53.6762 214.576 54.0708 214.962ZM54.6922 214.153C54.6922 214.153 54.6922 214.153 54.8426 214.182L54.6922 214.153ZM53.2448 213.563C53.2448 213.563 53.8464 213.679 53.696 213.65C53.4519 213.293 52.0698 213.182 53.2448 213.563ZM53.8293 212.127L54.1301 212.185L53.8293 212.127ZM52.24 212.285L52.6913 212.372C52.6913 212.372 51.7518 211.571 51.3005 211.484C51.2722 211.633 51.6951 211.87 52.24 212.285ZM51.1304 212.381C52.7849 212.7 50.5202 211.488 50.5571 212.115C50.5571 212.115 50.8295 212.322 51.1304 212.381ZM46.8337 212.016C47.5858 212.161 47.5204 211.684 46.2888 211.601L46.8337 212.016ZM48.6842 213.768C50.441 215.192 48.704 212.842 50.0379 214.029C50.6396 214.145 51.2413 214.261 51.6925 214.348C54.2014 215.917 55.0755 216.241 53.225 214.489L51.732 212.497C51.732 212.497 51.2241 212.709 51.0736 212.68C50.9232 212.65 50.5287 212.264 49.9271 212.148C50.35 212.385 50.7729 212.621 49.3624 212.659C49.334 212.809 49.0048 212.9 47.9236 212.846C47.9236 212.846 47.6009 212.629 46.9557 212.195C46.9557 212.195 46.1839 212.976 47.0864 213.15C47.5376 213.237 47.5093 213.386 47.7818 213.594C48.233 213.681 48.233 213.681 48.6842 213.768ZM50.4411 215.192C50.4411 215.192 50.7419 215.25 50.4978 214.893C50.0465 214.806 50.1686 214.984 50.4411 215.192ZM53.2989 215.743C53.2989 215.743 53.6934 216.129 53.2989 215.743V215.743ZM52.2916 216.943L52.442 216.972C52.442 216.972 52.1411 216.914 52.2916 216.943ZM53.072 216.939C53.072 216.939 53.072 216.939 52.95 216.761C52.5271 216.524 52.564 217.151 53.072 216.939ZM52.913 216.134L52.6122 216.076C52.5555 216.375 54.332 216.872 52.913 216.134ZM49.5841 216.421C50.4866 216.595 50.1488 215.91 49.8764 215.703C49.3968 215.765 49.34 216.064 49.5841 216.421ZM45.3072 215.131L45.0064 215.073C45.0064 215.073 44.7055 215.015 44.5551 214.986C45.1568 215.102 45.3072 215.131 45.3072 215.131ZM46.153 215.604C46.153 215.604 45.8521 215.546 45.7017 215.517C45.7017 215.517 45.7017 215.517 45.2505 215.43C44.6488 215.314 44.9496 215.372 45.2505 215.43C45.5513 215.488 46.0025 215.575 46.1246 215.753C47.2428 216.434 46.783 215.57 46.153 215.604ZM52.8649 217.209C53.1657 217.267 53.1657 217.267 52.8649 217.209V217.209ZM52.7514 217.807L53.0522 217.865C53.0522 217.865 52.7514 217.807 52.601 217.778L51.9056 217.334C50.8527 217.131 52.1583 218.467 52.5726 217.927L52.7514 217.807ZM52.6663 218.255L52.1214 217.84C52.1214 217.84 51.2189 217.666 51.971 217.811C52.4222 217.898 52.9955 218.164 52.7231 217.956L52.6663 218.255ZM46.5646 217.543L46.4143 217.514L46.5646 217.543ZM49.0538 220.038C49.0538 220.038 49.8059 220.183 49.5618 219.826C49.4114 219.797 47.8505 219.805 49.0538 220.038ZM48.6395 220.577C48.6395 220.577 49.6924 220.781 49.0254 220.187C48.875 220.158 48.6679 220.428 48.6395 220.577ZM53.1236 221.598C55.1924 221.377 52.8795 221.241 51.4888 220.353C51.31 220.473 52.4936 221.631 53.1236 221.598ZM45.2453 220.387C45.2453 220.387 44.6436 220.271 45.2169 220.537C45.5178 220.595 45.5178 220.595 45.2453 220.387ZM47.6975 222.255C47.6975 222.255 47.5471 222.226 47.9132 222.762L47.6975 222.255ZM46.6248 222.978L47.425 222.048C47.425 222.048 44.6608 221.824 46.6248 222.978ZM45.7223 222.804C45.7223 222.804 45.5719 222.775 45.4215 222.746L45.7223 222.804ZM45.4954 224C45.4954 224 45.4954 224 45.4017 223.672C45.0072 223.286 45.3734 223.821 45.4954 224ZM46.5285 225.129C46.5285 225.129 46.0403 224.415 46.134 224.743C46.134 224.743 46.3781 225.1 46.5285 225.129ZM47.2608 226.2L47.59 226.108C46.6506 225.307 46.8663 225.814 47.2608 226.2ZM84.2505 1.67772L84.3072 1.37874C84.3072 1.37874 84.2788 1.52823 84.2505 1.67772ZM79.2928 3.97508C79.2928 3.97508 79.4432 4.00411 79.2928 3.97508V3.97508ZM78.9722 4.84295C78.9722 4.84295 79.2077 4.42354 79.0573 4.39452C78.7565 4.33646 78.521 4.75587 78.9722 4.84295ZM80.2692 5.40316C80.2692 5.40316 80.2039 4.92568 79.9968 5.19562C79.9968 5.19562 79.94 5.49459 80.2692 5.40316ZM77.4827 8.58438C77.4827 8.58438 77.5394 8.28543 77.5678 8.13595C76.9945 7.87036 76.7306 8.43925 77.4827 8.58438ZM75.0932 9.67284C75.0932 9.67284 74.9428 9.64381 75.0932 9.67284V9.67284ZM63.7657 24.997C63.7657 24.997 64.3304 24.4861 64.3871 24.1872C63.8792 24.3991 63.3712 24.6109 63.7657 24.997ZM63.36 26.3133C64.4808 24.5152 61.4785 27.1899 60.5107 26.5383C58.3852 27.0578 61.5525 28.4438 63.36 26.3133ZM58.1583 28.2537L57.8575 28.1956C57.8575 28.1956 58.1299 28.4032 58.1583 28.2537ZM57.5171 29.9894C57.5171 29.9894 57.6022 29.541 57.6305 29.3915C57.3779 28.258 55.4001 31.2854 57.5171 29.9894ZM42.6122 58.4144L43.5061 57.8121C45.1693 58.9078 44.6889 50.7574 46.3013 55.4073C46.3013 55.4073 46.8402 52.5671 47.7169 50.412C45.0859 48.6646 44.3914 56.4334 42.1155 56.9239C42.002 57.5218 42.3965 57.9079 42.5839 58.5639L42.6122 58.4144ZM42.0166 61.5535C42.0166 61.5535 42.3742 61.3126 42.4876 60.7147C42.2805 60.9846 42.1017 61.1051 42.0166 61.5535ZM40.6233 63.1441C40.6233 63.1441 41.0943 62.3053 41.2078 61.7074C40.7652 62.3967 40.558 62.6667 40.6233 63.1441ZM34.6239 63.536C34.6239 63.536 34.6893 64.0134 34.6239 63.536V63.536ZM33.5968 65.6621C33.5968 65.6621 33.5968 65.6621 33.296 65.604C33.2392 65.903 33.5684 65.8116 33.5968 65.6621ZM33.1825 66.202C33.1825 66.202 33.0321 66.173 32.8817 66.1439C32.7683 66.7419 33.4266 66.559 33.1825 66.202ZM38.2854 68.8913C38.2854 68.8913 38.5776 68.1729 38.098 68.2353C38.0697 68.3847 37.9846 68.8332 38.2854 68.8913ZM38.1436 69.6387L37.8428 69.5806C37.4285 70.1205 37.8514 70.357 38.1436 69.6387ZM31.6534 71.7953C31.6534 71.7953 32.0308 70.6284 31.8236 70.8984C31.6448 71.0188 31.3526 71.7372 31.6534 71.7953ZM31.5683 72.2437C31.5683 72.2437 31.6904 72.4222 31.5683 72.2437V72.2437ZM32.6453 85.4679C32.6453 85.4679 33.4739 84.3881 33.0226 84.3011C32.7218 84.243 32.3358 84.6334 32.6453 85.4679ZM28.0761 84.8961C28.0761 84.8961 27.5682 85.108 27.5114 85.4069C27.7641 86.5404 29.0353 84.7713 28.0761 84.8961ZM33.6303 87.6724C33.9139 86.1776 33.2469 85.584 33.0372 88.3327C33.253 88.8393 33.338 88.3908 33.6303 87.6724ZM25.8431 89.2688C25.8431 89.2688 25.8431 89.2688 25.8147 89.4183C25.7864 89.5678 26.2376 89.6548 25.8431 89.2688ZM27.0464 89.501C27.0464 89.501 26.7456 89.443 26.7172 89.5925C26.3597 89.8334 27.2622 90.0075 27.0464 89.501ZM30.1484 90.4095C30.1484 90.4095 30.2335 89.9611 30.083 89.9321C28.9167 90.3268 29.7058 91.0989 30.1484 90.4095ZM29.5725 92.6227C29.5725 92.6227 30.2876 92.1409 29.7427 91.7259C29.5923 91.6968 29.2347 91.9377 29.5725 92.6227ZM29.5811 93.3992L30.0323 93.4863C30.0323 93.4863 29.8166 92.9798 29.5811 93.3992ZM30.915 94.5864C31.5279 93.0001 31.9336 91.6838 32.396 90.0685C31.2013 90.6127 30.5859 94.6778 30.915 94.5864ZM25.9918 99.9895C25.9918 99.9895 26.2926 100.048 26.3777 99.5991C26.9054 98.4613 27.1435 95.5631 27.3704 94.3672C27.257 94.9651 26.1052 99.3916 26.1422 100.019L25.9918 99.9895ZM30.4329 97.1276C30.4329 97.1276 29.4169 97.5513 28.8608 98.8386C28.5918 104.365 29.9395 101.371 30.4329 97.1276ZM28.0159 106.578C28.4981 104.037 28.0838 104.577 28.3391 103.232C27.7486 101.413 27.556 105.715 28.0159 106.578ZM27.4521 115.302C27.4521 115.302 28.0451 114.642 27.8294 114.135C27.5002 114.227 27.4718 114.376 27.4521 115.302ZM19.6623 119.377C19.6623 119.377 19.211 119.29 19.1543 119.589C19.0976 119.888 19.5489 119.975 19.6623 119.377ZM28.0889 126.737C28.0889 126.737 28.0889 126.737 28.1172 126.587C28.1172 126.587 28.1172 126.587 28.0889 126.737ZM21.6752 127.669L21.8738 126.622C21.8738 126.622 22.0156 125.875 21.9873 126.024C21.695 126.743 21.7603 127.22 21.6469 127.818L21.6752 127.669ZM19.0503 129.176C19.0503 129.176 18.4967 127.985 19.0503 129.176V129.176ZM26.8718 130.686C26.8718 130.686 27.0137 129.938 26.8916 129.76C26.5624 129.851 26.7781 130.358 26.8718 130.686ZM23.1544 133.842C22.6722 136.384 22.8313 137.189 23.0358 139.398C23.5068 138.559 23.3134 134.648 23.1544 133.842ZM21.9425 132.834C21.9425 132.834 21.7526 134.656 21.9967 135.013C22.1669 134.117 22.3087 133.369 21.9425 132.834ZM19.5479 138.88C18.6197 136.376 18.8921 136.584 19.4766 135.147C19.4397 134.52 19.2522 133.864 19.3657 133.266C19.3657 133.266 19.4224 132.967 19.4508 132.818L19.5075 132.519C19.9046 130.426 19.0589 129.953 18.5999 137.302C18.14 136.439 18.489 135.421 18.1796 134.587C17.1525 136.713 18.5345 136.825 18.7021 138.407C19.1534 138.494 19.3975 138.851 19.6983 138.909L19.5479 138.88ZM25.8825 141.652C25.8825 141.652 26.0527 140.755 25.8086 140.398C25.3659 141.087 25.6384 141.295 25.8825 141.652ZM23.3255 141.158C23.1837 141.906 23.0135 142.803 22.8716 143.55C23.3031 144.563 23.0762 145.759 23.3856 146.593C23.6976 144.949 23.3994 142.412 23.3538 141.009L23.3255 141.158ZM20.7177 144.219L20.3601 144.46C20.5105 144.489 20.6893 144.369 20.7177 144.219ZM18.8337 147.574C20.3602 144.46 18.495 138.677 17.9845 141.367C18.9892 142.646 17.2556 146.03 18.8337 147.574ZM25.7114 161.453C25.7114 161.453 25.7681 161.154 25.4105 161.395C25.6546 161.752 25.683 161.603 25.7114 161.453ZM28.3741 168.785C28.3741 168.785 28.1472 169.981 28.5417 170.367C29.0213 170.305 28.7119 169.47 28.3741 168.785ZM28.6947 167.917C28.6947 167.917 29.0325 168.602 29.0893 168.303C29.2027 167.705 28.7515 167.618 28.6947 167.917ZM21.9321 169.866C21.1938 165.54 20.7709 165.303 20.544 166.499C20.3626 169.099 22.2218 171.627 21.9321 169.866ZM28.4179 180.88C28.4179 180.88 28.8124 181.266 29.0479 180.847C28.7471 180.789 28.5967 180.76 28.4179 180.88ZM24.3963 178.245C24.3963 178.245 25.3357 179.046 24.4384 173.914C23.939 174.902 25.0006 175.882 24.3963 178.245ZM23.0683 180.313C23.0683 180.313 23.0512 178.76 22.8354 178.253C22.2054 178.287 22.5518 179.748 23.0683 180.313ZM30.4274 183.437C30.4274 183.437 29.996 182.424 30.0329 183.051C30.0046 183.201 30.2487 183.558 30.4274 183.437ZM7.22667 205.458C7.22667 205.458 7.1983 205.607 7.22667 205.458V205.458ZM5.75949 205.794C5.75949 205.794 6.05173 205.076 6.25887 204.806C7.11581 203.577 7.2009 203.128 6.25887 204.806C6.20215 205.105 6.05169 205.076 6.02333 205.226C5.9666 205.525 5.93824 205.674 5.93824 205.674L5.75949 205.794ZM7.05649 206.355C7.05649 206.355 7.81971 204.797 7.40543 205.337L6.9344 206.176C6.9344 206.176 6.90604 206.326 6.9344 206.176L7.05649 206.355ZM6.313 206.986L6.34136 206.836C6.34136 206.836 6.34137 206.836 6.313 206.986ZM5.41049 206.812C5.41049 206.812 5.43886 206.662 5.41049 206.812V206.812ZM14.3279 212.407C14.3279 212.407 14.2428 212.855 14.6003 212.614C14.6003 212.614 14.5067 212.286 14.3279 212.407ZM7.94522 210.71L8.05867 210.112C8.05867 210.112 7.94521 210.71 7.53092 211.25C7.50256 211.399 7.44583 211.698 7.53092 211.25C7.73807 210.98 7.41747 211.848 7.53092 211.25C7.55928 211.1 8.00191 210.411 7.82313 210.531C7.82313 210.531 7.61599 210.801 7.82313 210.531L7.94522 210.71ZM6.40151 212.272C6.40151 212.272 6.81577 211.732 7.05128 211.312C7.05128 211.312 7.0513 211.312 6.87252 211.433C6.78743 211.881 6.25109 212.243 6.40151 212.272C6.40151 212.272 6.58032 212.151 6.55195 212.301L6.40151 212.272ZM6.4213 211.346C6.4213 211.346 6.15743 211.915 6.4213 211.346V211.346ZM6.72213 211.404C7.60743 210.025 6.72213 211.404 6.72213 211.404V211.404ZM6.12046 211.288C6.12046 211.288 5.64944 212.126 5.70617 211.827C5.70617 211.827 5.70618 211.827 6.12046 211.288ZM5.73714 209.199C5.73714 209.199 5.82223 208.751 5.40795 209.291C4.93693 210.129 5.29449 209.889 5.37958 209.44L5.43631 209.141L5.73714 209.199ZM5.95283 209.706L5.98119 209.556C5.98119 209.556 5.74569 209.976 5.95283 209.706ZM4.25016 210.462C4.25016 210.462 4.16508 210.91 4.551 210.52L4.74954 209.473C4.74954 209.473 5.04178 208.755 4.83463 209.025C4.62749 209.295 4.57073 209.594 4.514 209.893C4.48563 210.042 4.07141 210.582 4.09977 210.433C4.1565 210.134 4.15649 210.134 4.15649 210.134C4.15649 210.134 3.92096 210.553 3.8926 210.703L4.19343 210.761L4.25016 210.462ZM5.58669 209.17L5.64342 208.871L5.58669 209.17ZM6.94905 210.208C6.94905 210.208 6.949 210.208 7.30656 209.967C7.36329 209.668 7.30661 209.967 6.94905 210.208ZM7.90823 210.083C7.90823 210.083 7.93662 209.934 8.14376 209.664C8.436 208.945 7.99332 209.635 7.90823 210.083ZM9.12013 211.092C9.12013 211.092 9.32729 210.822 9.50606 210.701L9.59115 210.253C10.4481 209.024 9.74157 210.282 9.64788 209.954C9.64788 209.954 8.79096 211.183 8.96974 211.063L9.12013 211.092ZM10.8031 211.261L10.8314 211.112C11.3024 210.273 10.7747 211.411 10.8031 211.261ZM12.7129 210.235L13.0137 210.293C13.0137 210.293 12.8633 210.264 12.7129 210.235ZM11.6884 209.883C11.6884 209.883 11.66 210.032 11.8388 209.912C11.8388 209.912 11.8388 209.912 11.6884 209.883ZM10.993 209.439C10.993 209.439 9.30752 211.748 10.0226 211.266C9.99427 211.415 10.0226 211.266 10.0226 211.266L10.3802 211.025C10.3802 211.025 10.6071 209.829 11.3308 210.124C11.5663 209.704 11.0867 209.767 10.8426 209.41L10.993 209.439ZM7.74064 208.501C7.74064 208.501 8.10679 209.037 8.73681 209.003C8.76517 208.854 8.15493 207.961 7.74064 208.501ZM12.8092 208.085L12.8375 207.935L12.8092 208.085ZM7.99592 207.156C7.99592 207.156 8.24004 207.513 8.59759 207.272C8.68268 206.823 8.41021 206.616 7.99592 207.156ZM4.5364 206.488C4.5364 206.488 4.59313 206.189 4.15048 206.879C3.7362 207.418 4.3009 206.908 4.5364 206.488ZM5.2403 207.709C5.2403 207.709 4.7977 208.398 4.41177 208.788C4.32668 209.237 4.1479 209.357 3.96912 209.478C3.61156 209.719 3.34768 210.288 3.55482 210.018C3.94074 209.627 3.64852 210.346 3.96912 209.478L4.02585 209.179C4.02585 209.179 4.38339 208.938 4.61889 208.519C4.67562 208.22 4.82603 208.249 4.61889 208.519C4.56216 208.817 4.61889 208.519 4.61889 208.519C4.64725 208.369 5.08991 207.68 5.11827 207.53C5.175 207.231 5.2317 206.932 4.96783 207.501L5.2403 207.709ZM3.40438 209.989L3.43275 209.839C3.19724 210.259 3.34765 210.288 3.40438 209.989ZM2.80276 209.873C2.80276 209.873 3.24542 209.183 3.27379 209.034C3.27379 209.034 3.27379 209.034 3.24543 209.183C3.1887 209.482 2.7744 210.022 2.7744 210.022C2.7744 210.022 2.7744 210.022 2.80276 209.873ZM4.18741 207.506C4.18741 207.506 3.9803 207.775 3.95193 207.925L4.03702 207.476L4.18741 207.506ZM2.68069 209.694C2.68069 209.694 2.91623 209.275 3.33052 208.735L3.35888 208.585C3.35888 208.585 3.56598 208.315 3.74475 208.195L3.77312 208.045C3.77312 208.045 4.18741 207.506 4.24414 207.207C3.85822 207.597 3.8866 207.447 3.6511 207.867C3.27377 209.034 3.44394 208.137 2.85088 208.797C2.82251 208.947 2.79415 209.096 2.79415 209.096C2.76578 209.246 2.70908 209.545 2.5303 209.665C2.47357 209.964 2.47357 209.964 2.5303 209.665L2.68069 209.694ZM5.30305 210.665C5.30305 210.665 5.12431 210.785 5.09594 210.935C5.06758 211.084 5.27469 210.814 5.30305 210.665ZM5.16123 211.412C5.16123 211.412 5.61246 211.499 5.97002 211.259C5.97002 211.259 6.02678 210.96 6.23392 210.69L6.31901 210.241C6.31901 210.241 6.73329 209.701 6.85534 209.88C7.24126 209.489 6.68513 210.777 7.33492 209.817L7.39165 209.518C7.39165 209.518 7.39165 209.518 7.44838 209.219C7.50511 208.921 7.50513 208.921 7.29799 209.19L7.26962 209.34C7.26962 209.34 6.91206 209.581 6.96879 209.282C7.02551 208.983 7.46817 208.294 7.05388 208.833L7.02552 208.983C7.02552 208.983 6.90346 208.804 6.75305 208.775L6.66795 209.224C6.66795 209.224 6.25365 209.764 5.86773 210.154C5.92446 209.855 6.1316 209.585 5.98119 209.556C6.03792 209.257 6.21671 209.137 6.39549 209.016C6.39549 209.016 6.42385 208.867 6.39549 209.016C5.92447 209.855 6.24511 208.987 5.53859 210.246C5.09594 210.935 5.5386 210.246 5.39677 210.993L5.34004 211.292L5.16123 211.412ZM4.1169 211.986C4.1169 211.986 4.03182 212.434 4.08854 212.135C4.11691 211.986 4.14527 211.836 4.1169 211.986ZM9.50606 210.701C9.7983 209.983 9.82667 209.833 9.61952 210.103L9.23359 210.494C9.23359 210.494 9.17686 210.793 9.12013 211.092C9.09176 211.241 8.6775 211.781 8.49873 211.901C8.49873 211.901 8.49873 211.901 8.61218 211.304C8.69728 210.855 8.87606 210.735 9.0832 210.465C9.49748 209.925 9.19666 209.867 9.19666 209.867C9.19666 209.867 9.1399 210.166 8.93275 210.436C8.93275 210.436 7.74662 211.756 8.1609 211.216C8.18927 211.067 8.21765 210.918 8.4248 210.648C8.68867 210.079 8.74541 209.78 8.5099 210.199L8.4248 210.648C8.4248 210.648 7.98217 211.337 7.83176 211.308C7.83176 211.308 7.97358 210.56 7.88849 211.009L7.83176 211.308C7.83176 211.308 7.97357 210.561 7.91685 210.859C7.88848 211.009 7.73807 210.98 7.55929 211.1C7.55929 211.1 6.93782 211.91 6.90945 212.06C6.90945 212.06 6.85275 212.359 7.0599 212.089C7.08826 211.939 7.44579 211.698 7.26702 211.819C7.12519 212.566 7.80339 211.457 7.7183 211.906C7.7183 211.906 7.71827 211.906 7.86869 211.935C8.04747 211.814 7.84032 212.084 7.81196 212.234C7.75523 212.533 8.31994 212.022 8.52709 211.752C8.66891 211.005 9.20526 210.643 9.44076 210.224L9.50606 210.701ZM24.5251 217.009C24.5251 217.009 24.8629 217.694 25.1268 217.125C24.948 217.245 25.1268 217.125 24.9764 217.096C24.9764 217.096 24.7323 216.739 24.5251 217.009ZM23.4722 216.805L23.5006 216.656C23.5006 216.656 22.9359 217.167 23.4722 216.805ZM22.8706 216.689C22.8706 216.689 22.8705 216.689 23.0777 216.419C23.7842 215.161 22.7769 216.361 22.8706 216.689ZM22.2036 216.096L22.1752 216.245C22.1752 216.245 22.1752 216.245 22.2036 216.096ZM22.8619 215.913C22.8619 215.913 22.9187 215.614 22.8903 215.763C22.3823 215.975 22.7485 216.511 22.8619 215.913ZM22.2603 215.797C22.2603 215.797 22.232 215.946 22.2603 215.797C22.2887 215.647 22.3171 215.498 22.2603 215.797ZM22.2233 215.17C22.2233 215.17 22.2234 215.17 22.0162 215.44L21.9879 215.589C21.9879 215.589 22.0446 215.29 22.2233 215.17ZM18.2472 213.938C18.2472 213.938 17.7762 214.777 18.9056 213.755C18.8119 213.427 18.9907 213.306 18.2472 213.938ZM10.369 212.727C10.369 212.727 10.3974 212.578 10.1619 212.997C10.1051 213.296 10.1619 212.997 10.369 212.727ZM10.1533 212.221C10.1533 212.221 10.2384 211.772 10.4171 211.652C10.4171 211.652 9.94615 212.491 10.1533 212.221ZM10.0682 212.669C10.0682 212.669 10.1816 212.071 10.0682 212.669C9.59718 213.508 9.95473 213.267 10.0682 212.669ZM21.3295 215.772L21.4429 215.174C21.4429 215.174 21.3862 215.473 21.1507 215.893C20.8585 216.611 21.0939 216.192 21.3011 215.922L21.3295 215.772ZM19.3543 216.321C18.3865 215.669 18.9881 215.785 17.9352 215.582C17.8501 216.03 18.6676 216.653 19.3543 216.321ZM10.6303 214.637L10.687 214.338C10.5082 214.459 10.3948 215.057 10.6303 214.637ZM26.3189 219.059L26.3756 218.76C26.3756 218.76 26.3756 218.76 26.3189 219.059ZM30.3156 227.578L30.3723 227.279C30.3723 227.279 30.1085 227.848 30.3156 227.578ZM31.9134 228.197C31.9134 228.197 31.8851 228.346 31.9134 228.197C31.9418 228.047 31.9702 227.898 31.9134 228.197ZM31.3032 227.304C31.3032 227.304 31.3032 227.304 31.096 227.574C31.0393 227.873 31.2464 227.603 31.3032 227.304ZM32.5065 227.536C32.5065 227.536 32.5349 227.387 32.5065 227.536C32.5065 227.536 32.4781 227.686 32.4498 227.835C32.4214 227.985 32.4497 227.835 32.6285 227.715L32.5065 227.536ZM27.2618 225.595C26.9412 226.462 27.4122 225.623 27.0916 226.491C26.9781 227.089 27.3924 226.549 27.6563 225.981C27.6846 225.831 27.713 225.682 27.9202 225.412C27.9769 225.113 27.9202 225.412 27.9202 225.412C27.9485 225.262 27.5626 225.653 27.7697 225.383C27.8264 225.084 27.8265 225.084 27.6193 225.354C27.6193 225.354 27.591 225.503 27.6193 225.354C27.7044 224.905 26.7254 225.956 26.6971 226.105C26.6971 226.105 26.6403 226.404 26.4048 226.824L26.3765 226.973C26.5269 227.002 26.6773 227.031 27.3271 226.072C27.3838 225.773 27.3838 225.773 27.3271 226.072L27.2618 225.595ZM20.2688 223.005C20.2688 223.005 20.1751 222.677 19.8459 222.769C19.8176 222.918 19.9396 223.097 20.2688 223.005ZM14.0305 218.083C14.0589 217.933 14.0589 217.933 14.0305 218.083V218.083ZM41.9078 219.898L42.0952 220.554C42.0952 220.554 41.9362 219.749 41.9078 219.898ZM43.5228 222.069L43.3071 221.563L43.2504 221.862L43.5512 221.92L43.5228 222.069ZM44.2268 223.29L44.3858 224.095L44.6015 224.602C44.6015 224.602 44.3858 224.095 44.6582 224.303C44.7519 224.631 45.1181 225.166 44.959 224.361C44.7433 223.854 44.4992 223.497 44.2552 223.14L44.2268 223.29ZM41.4067 231.578L41.6224 232.085L41.6792 231.786C41.6792 231.786 41.821 231.038 41.6422 231.159L41.5571 231.607L41.4067 231.578ZM47.2015 228.977C47.2015 228.977 47.2952 229.305 47.2015 228.977V228.977ZM44.244 224.843L44.1589 225.291L44.6101 225.378C44.6101 225.378 44.366 225.021 44.244 224.843ZM42.2628 222.136L42.4218 222.942C42.4218 222.942 42.3565 222.464 42.2628 222.136ZM42.5636 222.194C42.5636 222.194 42.6204 221.895 42.4614 221.09L42.2456 220.583C42.2456 220.583 42.2173 220.733 42.4046 221.389L42.3763 221.538C42.3763 221.538 42.433 221.239 42.3763 221.538C42.3763 221.538 42.3763 221.538 42.3479 221.688C42.2912 221.987 42.2912 221.987 42.4132 222.165L42.5636 222.194ZM46.342 232.686C46.342 232.686 46.8869 233.101 46.9806 233.429C46.9806 233.429 46.9153 232.951 46.3137 232.835L46.342 232.686ZM48.777 233.001C48.777 233.001 49.2652 233.715 49.3787 233.117C48.9558 232.88 48.5896 232.345 48.777 233.001ZM50.227 231.111C50.227 231.111 50.5931 231.646 50.227 231.111V231.111ZM47.2582 228.679C47.2582 228.679 47.2582 228.679 47.2299 228.828C47.3236 229.156 47.5676 229.513 47.596 229.364C47.6811 228.915 48.1779 230.406 47.6811 228.915L47.7095 228.766L47.4087 228.708L47.2582 228.679ZM47.7009 227.989C47.7009 227.989 47.6072 227.661 47.7009 227.989V227.989ZM48.3877 227.657C48.3877 227.657 48.7908 228.819 48.3877 227.657V227.657ZM45.6346 225.731C45.6346 225.731 45.9724 226.416 46.2165 226.773L46.5174 226.831L46.3016 226.325C46.3016 226.325 45.5977 225.104 45.663 225.582L45.6346 225.731ZM45.6914 225.432C45.6914 225.432 46.2079 225.997 45.7765 224.984C45.382 224.598 45.2599 224.419 45.6914 225.432ZM42.4528 220.313C42.4528 220.313 42.6685 220.82 42.8275 221.625C42.7991 221.775 42.9212 221.953 43.0432 222.132L43.0716 221.982L43.1283 221.683C43.1283 221.683 42.4897 220.94 42.2456 220.583L42.4528 220.313ZM41.8537 217.718C42.2852 218.731 42.5009 219.238 42.8387 219.923C42.6797 219.117 42.6797 219.117 41.8537 217.718ZM41.252 217.602C41.252 217.602 41.4678 218.109 41.5898 218.287C41.5245 217.81 41.4024 217.631 41.252 217.602ZM35.208 197.686C35.208 197.686 35.3585 197.715 35.208 197.686V197.686ZM33.3429 191.903C33.3429 191.903 33.3429 191.903 33.3145 192.052C33.3145 192.052 33.3145 192.052 33.3429 191.903ZM26.9516 189.43L26.4462 187.163C26.4462 187.163 26.0973 188.18 26.9516 189.43ZM30.9561 190.512C30.8254 189.557 30.638 188.901 30.4223 188.395C30.4593 189.022 30.6466 189.678 30.9561 190.512ZM27.9168 192.56L27.7492 190.978C27.7492 190.978 27.1759 190.713 27.1562 191.639L28.0672 192.589L27.9168 192.56ZM28.6036 192.228C28.6036 192.228 28.6887 191.779 28.5099 191.9C28.4532 192.199 28.5752 192.377 28.6036 192.228ZM39.0096 212.986C40.145 215.219 40.9426 216.768 41.0646 216.946C40.0143 214.264 41.8734 216.792 40.0255 212.562C40.0255 212.562 40.176 212.591 40.2043 212.441C40.2043 212.441 40.0823 212.263 39.9319 212.234C38.7595 209.373 35.9068 203.864 31.6316 191.882C31.5749 192.181 31.8929 193.792 32.5203 196.238C33.1478 198.683 34.4422 201.722 35.4358 204.703C36.7302 207.742 37.8741 210.752 39.0096 212.986ZM36.0838 214.436C36.0838 214.436 36.2342 214.465 36.2909 214.166C36.2909 214.166 36.1122 214.286 36.0838 214.436ZM32.3862 216.666C32.3862 216.666 32.2186 215.084 31.6737 214.669C31.6737 214.669 31.5602 215.267 31.5319 215.417C31.5319 215.417 32.1137 216.459 32.3862 216.666ZM34.5573 217.55C34.5573 217.55 35.122 217.039 34.6707 216.952C34.3699 216.894 34.5856 217.401 34.5573 217.55ZM32.7523 217.202C32.7523 217.202 32.6303 217.023 32.7523 217.202V217.202ZM35.6841 219.007C35.6841 219.007 36.7456 219.987 36.774 219.837C36.4646 219.003 36.1551 218.168 35.6841 219.007ZM13.6643 217.547C13.6643 217.547 13.7211 217.248 13.5139 217.518C13.0997 218.058 13.3721 218.265 13.6643 217.547ZM12.4412 218.241L12.498 217.942L12.4412 218.241ZM17.4023 221.677C17.4023 221.677 17.4591 221.378 17.6095 221.407C17.6095 221.407 17.6662 221.109 17.845 220.988C18.3813 220.627 18.1003 219.643 17.845 220.988C17.8166 221.138 17.5811 221.557 17.374 221.827C17.3172 222.126 17.2605 222.425 17.374 221.827L17.4023 221.677ZM17.1101 222.396C17.1101 222.396 17.2605 222.425 17.4961 222.005L17.5528 221.706C17.5528 221.706 17.5528 221.706 17.1385 222.246L17.1101 222.396ZM25.9278 224.407C25.9278 224.407 25.8995 224.557 25.9278 224.407V224.407ZM26.2003 224.615L26.257 224.316C26.257 224.316 26.257 224.316 26.2003 224.615ZM25.7576 225.304L25.8144 225.005C25.8144 225.005 25.8144 225.005 25.786 225.155L25.7576 225.304ZM25.1929 225.815C25.1929 225.815 24.8723 226.683 25.1929 225.815V225.815ZM25.437 226.172C25.437 226.172 26.0584 225.362 25.7946 225.931C25.5307 226.5 25.7095 226.38 25.8883 226.259C25.8883 226.259 25.8316 226.558 25.8883 226.259C26.1522 225.69 26.5948 225.001 26.416 225.121L26.5011 224.673C26.2656 225.092 25.8797 225.483 25.908 225.333L25.0795 226.413L25.437 226.172ZM27.8351 225.86C27.8351 225.86 27.6279 226.13 27.4491 226.25C27.242 226.52 27.3357 226.848 27.3357 226.848C27.3357 226.848 27.3357 226.848 27.7216 226.458C27.7783 226.159 27.8351 225.86 27.8351 225.86ZM29.799 227.014C30.2331 225.548 29.8274 226.864 29.2627 227.375C29.206 227.674 29.7707 227.163 29.799 227.014ZM31.3118 228.081C31.3118 228.081 31.3118 228.081 31.4905 227.96C31.5189 227.811 31.4905 227.96 31.4905 227.96L31.4338 228.259L31.3118 228.081ZM33.4176 228.487C33.4176 228.487 33.9539 228.126 33.8035 228.097C33.8035 228.097 33.8318 227.947 33.6531 228.067L33.6814 227.918C33.6814 227.918 33.531 227.889 33.06 228.728C33.0033 229.027 33.06 228.728 33.2104 228.757L33.4176 228.487ZM82.051 0.943344C82.051 0.943344 81.4494 0.82725 81.421 0.976733C81.3643 1.2757 81.7871 1.51225 82.0226 1.09283C82.0226 1.09283 82.051 0.94334 82.0793 0.793857L82.051 0.943344ZM63.6128 27.4468L63.6411 27.2973C63.6411 27.2973 63.6411 27.2973 63.5844 27.5963L63.6128 27.4468ZM54.6218 191.515C54.6218 191.515 55.1667 191.93 55.1384 192.08C55.1384 192.08 55.1384 192.08 55.4392 192.138C55.4676 191.988 55.5243 191.69 55.5526 191.54L55.2518 191.482C55.2518 191.482 54.4997 191.337 54.6501 191.366L54.6218 191.515ZM57.0654 192.607C57.0654 192.607 57.0654 192.607 57.2158 192.636C57.2158 192.636 57.2158 192.636 57.5166 192.694C57.3662 192.665 57.2725 192.337 57.1505 192.158L56.8496 192.1L56.4637 192.491C56.4637 192.491 56.7646 192.549 57.0654 192.607ZM61.7368 194.283L61.436 194.225L61.7368 194.283ZM4.26393 206.281L4.23557 206.43C3.76456 207.269 3.73619 207.418 4.23557 206.43C4.23557 206.43 4.26393 206.281 4.23557 206.43L4.26393 206.281ZM52.3904 212.314C52.3904 212.314 53.3866 212.816 52.3904 212.314V212.314ZM27.1397 225.416L27.083 225.715C27.3185 225.296 27.1681 225.266 27.1397 225.416ZM50.7806 205.185C50.7806 205.185 51.3823 205.301 50.7806 205.185V205.185ZM5.51277 207.916C5.51277 207.916 5.74828 207.497 5.54114 207.767L5.51277 207.916ZM54.0631 195.281L53.7623 195.223C53.7623 195.223 54.1851 195.46 54.0631 195.281ZM6.5545 209.822C6.5545 209.822 6.49777 210.121 6.52613 209.971C6.5545 209.822 6.58287 209.672 6.5545 209.822ZM35.8955 232.684C35.8955 232.684 35.8955 232.684 35.9239 232.535C35.9522 232.385 35.9239 232.535 35.8955 232.684ZM52.3518 195.261C52.3518 195.261 51.9005 195.174 52.2014 195.232C52.3518 195.261 52.6526 195.319 52.3518 195.261ZM1.28743 211.285C1.28743 211.285 1.28742 211.285 1.25906 211.434C1.25906 211.434 1.25906 211.434 1.28743 211.285ZM10.4489 217.236C10.4489 217.236 10.1567 217.955 10.3638 217.685C10.3638 217.685 10.5993 217.265 10.4489 217.236ZM44.4279 219.765C44.4279 219.765 44.55 219.943 44.8224 220.151C44.8224 220.151 44.5783 219.794 44.4279 219.765ZM50.0311 202.561L50.3319 202.619C50.3319 202.619 50.3319 202.619 50.5107 202.499C49.8154 202.055 49.4578 202.296 49.8807 202.532L50.0311 202.561ZM46.4718 225.428L46.6875 225.934C46.6875 225.934 46.7159 225.785 46.7443 225.635L46.4434 225.577C46.4434 225.577 46.2277 225.071 45.8332 224.685C45.8616 224.535 45.6458 224.029 45.5522 223.701C45.4954 224 45.4387 224.299 45.4103 224.448C45.4103 224.448 45.2599 224.419 45.4103 224.448L45.3536 224.747C45.3536 224.747 46.1143 225.669 45.9638 225.64C45.9638 225.64 46.1796 226.146 46.4237 226.503L46.4804 226.204L45.8701 225.312C45.8701 225.312 45.8701 225.312 45.8985 225.162C45.8985 225.162 46.171 225.37 46.2647 225.698L46.4718 225.428Z" fill="#DEE1E5"/>
</svg>
