<svg width="24" height="24" viewBox="0 0 24 24" fill="none" xmlns="http://www.w3.org/2000/svg">
<path fill-rule="evenodd" clip-rule="evenodd" d="M9.59372 2H14.4068L14.9153 5.11542C15.4869 5.35577 16.022 5.66448 16.5105 6.03113L19.4572 4.91591L21.8638 9.08414L19.4419 11.0644C19.4804 11.3712 19.5002 11.6835 19.5002 12C19.5002 12.3165 19.4804 12.6288 19.4419 12.9357L21.8638 14.9159L19.4565 19.0853L16.5139 17.9663C16.0245 18.3341 15.4882 18.6437 14.9153 18.8846L14.4068 22H9.59372L9.0852 18.8846C8.51362 18.6442 7.97846 18.3355 7.49001 17.9689L4.54325 19.0841L2.13672 14.9159L4.55862 12.9356C4.52007 12.6288 4.50025 12.3165 4.50025 12C4.50025 11.6835 4.52007 11.3712 4.55862 11.0643L2.13672 9.08409L4.54394 4.91467L7.48657 6.03372C7.97594 5.66594 8.51228 5.35633 9.0852 5.11542L9.59372 2ZM11.2937 4L10.8674 6.61132L10.2881 6.79986C9.55887 7.03718 8.89598 7.42256 8.3356 7.92096L7.88244 8.324L5.42461 7.38931L4.71878 8.61184L6.74506 10.2686L6.61868 10.8646C6.54119 11.23 6.50025 11.6097 6.50025 12C6.50025 12.3903 6.54119 12.77 6.61868 13.1354L6.74505 13.7314L4.71878 15.3881L5.4253 16.6118L7.88661 15.6803L8.33887 16.0819C8.89856 16.5789 9.56029 16.9633 10.2881 17.2001L10.8674 17.3887L11.2937 20H12.7067L13.133 17.3887L13.7123 17.2001C14.4416 16.9628 15.1045 16.5774 15.6649 16.079L16.118 15.676L18.5759 16.6107L19.2817 15.3882L17.2554 13.7314L17.3818 13.1354C17.4593 12.77 17.5002 12.3903 17.5002 12C17.5002 11.6097 17.4593 11.23 17.3818 10.8646L17.2554 10.2686L19.2817 8.61188L18.5752 7.38816L16.1139 8.31966L15.6616 7.91806C15.1019 7.42107 14.4402 7.03672 13.7123 6.79986L13.133 6.61132L12.7067 4H11.2937ZM12.0002 10C10.8956 10 10.0002 10.8954 10.0002 12C10.0002 13.1046 10.8956 14 12.0002 14C13.1048 14 14.0002 13.1046 14.0002 12C14.0002 10.8954 13.1048 10 12.0002 10ZM8.00026 12C8.00026 9.79086 9.79112 8 12.0002 8C14.2094 8 16.0002 9.79086 16.0002 12C16.0002 14.2091 14.2094 16 12.0002 16C9.79112 16 8.00026 14.2091 8.00026 12Z" fill="#E55608"/>
</svg>
