<svg width="56" height="56" viewBox="0 0 56 56" fill="none" xmlns="http://www.w3.org/2000/svg">
<path fill-rule="evenodd" clip-rule="evenodd" d="M2.33325 11.6667C2.33325 9.08934 4.42259 7 6.99992 7H48.9999C51.5773 7 53.6666 9.08934 53.6666 11.6667V44.3333C53.6666 46.9107 51.5773 49 48.9999 49H6.99992C4.42259 49 2.33325 46.9107 2.33325 44.3333V11.6667ZM48.9999 11.6667H6.99992V44.3333H48.9999V11.6667ZM16.3333 18.6667V39.6667H11.6666V18.6667H16.3333ZM44.3333 18.6667V39.6667H39.6666V18.6667H44.3333ZM25.6666 23.3333V39.6667H20.9999V23.3333H25.6666ZM34.9999 32.6667V39.6667H30.3333V32.6667H34.9999Z" fill="#E55608"/>
</svg>
