<svg width="20" height="20" viewBox="0 0 20 20" fill="none" xmlns="http://www.w3.org/2000/svg">
<path fill-rule="evenodd" clip-rule="evenodd" d="M4.99983 3.75466C6.5827 5.02351 7.67404 6.88296 7.93809 9H9V2.06183C7.49749 2.24903 6.1247 2.85268 4.99983 3.75466ZM11 2.06183V9H12.0619C12.326 6.88296 13.4173 5.02351 15.0002 3.75466C13.8753 2.85268 12.5025 2.24903 11 2.06183ZM16.4002 5.19929C15.1947 6.1047 14.3425 7.45222 14.0829 9H17.9382C17.7619 7.58497 17.2163 6.28534 16.4002 5.19929ZM17.9382 11H14.0829C14.3425 12.5478 15.1947 13.8953 16.4002 14.8007C17.2163 13.7147 17.7619 12.415 17.9382 11ZM15.0002 16.2453C13.4173 14.9765 12.326 13.117 12.0619 11H11V17.9382C12.5025 17.751 13.8753 17.1473 15.0002 16.2453ZM9 17.9382V11H7.93809C7.67404 13.117 6.5827 14.9765 4.99984 16.2453C6.1247 17.1473 7.49749 17.751 9 17.9382ZM3.59985 14.8007C4.80534 13.8953 5.65748 12.5478 5.91707 11H2.06182C2.23809 12.415 2.78369 13.7147 3.59985 14.8007ZM2.06182 9H5.91707C5.65748 7.45222 4.80534 6.1047 3.59985 5.19929C2.78369 6.28534 2.23809 7.58497 2.06182 9ZM2.66778 3.20005C4.49272 1.23308 7.10312 0 10 0C12.8969 0 15.5073 1.23308 17.3322 3.20005C18.9869 4.98353 20 7.37458 20 10C20 12.6254 18.9869 15.0165 17.3322 16.7999C15.5073 18.7669 12.8969 20 10 20C7.10312 20 4.49272 18.7669 2.66778 16.7999C1.01307 15.0165 0 12.6254 0 10C0 7.37458 1.01307 4.98353 2.66778 3.20005Z" fill="#E55608"/>
</svg>
