<svg width="24" height="24" viewBox="0 0 24 24" fill="none" xmlns="http://www.w3.org/2000/svg">
<path fill-rule="evenodd" clip-rule="evenodd" d="M9.60659 6.22184H6.22183V9.6066L3.82843 12L6.22183 14.3934V17.7782H9.60661L12 20.1716L14.3934 17.7782H17.7782V14.3934L20.1716 12L17.7782 9.6066V6.22184H14.3934L12 3.82843L9.60659 6.22184ZM12 1L15.2218 4.22184H19.7782V8.77818L23 12L19.7782 15.2218V19.7782H15.2218L12 23L8.77819 19.7782H4.22183V15.2218L1 12L4.22183 8.77817V4.22184H8.77816L12 1Z" fill="#E55608"/>
<path fill-rule="evenodd" clip-rule="evenodd" d="M12.03 8.7334C11.0657 8.7334 10.2412 9.48851 10.2412 10.484H8.24121C8.24121 8.28967 10.0578 6.7334 12.03 6.7334C14.0305 6.7334 15.7589 8.317 15.7589 10.484C15.7589 11.4467 15.331 12.0884 14.8514 12.5813C14.6676 12.7701 14.4585 12.9547 14.2735 13.118C14.239 13.1485 14.2053 13.1782 14.1727 13.2071C13.9524 13.4028 13.7474 13.5914 13.5521 13.8073C13.3996 13.9759 13.2612 14.2264 13.1609 14.5024C13.0569 14.7887 13.03 15.0009 13.03 15.052H11.03C11.03 14.6938 11.1277 14.2419 11.2811 13.8195C11.4383 13.3869 11.6902 12.8842 12.069 12.4655C12.3403 12.1656 12.6122 11.9182 12.8446 11.7118C12.8868 11.6743 12.9268 11.6389 12.965 11.6051C13.15 11.4416 13.2918 11.3162 13.418 11.1864C13.6793 10.9179 13.7589 10.7493 13.7589 10.484C13.7589 9.46118 12.9659 8.7334 12.03 8.7334ZM11.03 17.7351V16.0684H13.03V17.7351H11.03Z" fill="#E55608"/>
</svg>
