<svg width="56" height="56" viewBox="0 0 56 56" fill="none" xmlns="http://www.w3.org/2000/svg">
<path fill-rule="evenodd" clip-rule="evenodd" d="M14.0001 6.99998H9.33342C6.75608 6.99998 4.66675 9.08932 4.66675 11.6666V46.6666C4.66675 49.244 6.75608 51.3333 9.33342 51.3333H46.6668C49.2442 51.3333 51.3334 49.244 51.3334 46.6666V11.6666C51.3334 9.08932 49.2442 6.99998 46.6668 6.99998H42.0001V2.33331H37.3334V6.99998H18.6667V2.33331H14.0001V6.99998ZM9.33342 11.6666V18.55H46.6668V11.6666H9.33342ZM46.6668 23.2166H9.33342V46.6666H46.6668V23.2166ZM25.6667 37.3333V44.3333H30.3334V37.3333H37.3334V32.6666H30.3334V25.6666H25.6667V32.6666H18.6667V37.3333H25.6667Z" fill="#E55608"/>
</svg>
