<svg width="16" height="21" viewBox="0 0 16 21" fill="none" xmlns="http://www.w3.org/2000/svg">
<path fill-rule="evenodd" clip-rule="evenodd" d="M14 5.61986C11.8109 5.0689 9.7669 4.06221 8 2.67042C6.2331 4.06221 4.18913 5.0689 2 5.61986V8.7679C2 12.979 4.32776 16.8172 8 18.779C11.6722 16.8172 14 12.979 14 8.7679V5.61986ZM0.80388 3.83921C0.33646 3.9327 0 4.34311 0 4.81979V8.7679C0 14.0724 3.1402 18.8738 8 21C12.8598 18.8738 16 14.0724 16 8.7679V4.81979C16 4.34311 15.6635 3.9327 15.1961 3.83921L15.1602 3.83204C12.7752 3.35503 10.5613 2.26672 8.7317 0.681302C8.3144 0.319612 7.6856 0.319612 7.2683 0.681302C5.43873 2.26672 3.22477 3.35503 0.83975 3.83204L0.80388 3.83921Z" fill="#E55608"/>
</svg>
