<svg width="30" height="20" viewBox="0 0 30 20" fill="none" xmlns="http://www.w3.org/2000/svg">
<path d="M5.66621 4.66663C5.66621 3.8755 5.90081 3.10214 6.34033 2.44435C6.77986 1.78655 7.40457 1.27386 8.13548 0.97111C8.86638 0.668359 9.67065 0.589146 10.4466 0.743487C11.2225 0.897828 11.9352 1.27879 12.4946 1.8382C13.0541 2.39761 13.435 3.11034 13.5894 3.88627C13.7437 4.66219 13.6645 5.46646 13.3617 6.19736C13.059 6.92827 12.5463 7.55298 11.8885 7.99251C11.2307 8.43203 10.4573 8.66663 9.66621 8.66663C8.60535 8.66663 7.58793 8.2452 6.83779 7.49506C6.08764 6.74491 5.66621 5.72749 5.66621 4.66663ZM20.3329 8.66663C21.124 8.66663 21.8974 8.43203 22.5552 7.99251C23.213 7.55298 23.7256 6.92827 24.0284 6.19736C24.3311 5.46646 24.4104 4.66219 24.256 3.88627C24.1017 3.11034 23.7207 2.39761 23.1613 1.8382C22.6019 1.27879 21.8892 0.897828 21.1132 0.743487C20.3373 0.589146 19.5331 0.668359 18.8021 0.97111C18.0712 1.27386 17.4465 1.78655 17.007 2.44435C16.5675 3.10214 16.3329 3.8755 16.3329 4.66663C16.3329 5.72749 16.7543 6.74491 17.5045 7.49506C18.2546 8.2452 19.272 8.66663 20.3329 8.66663ZM29.5195 17.4L27.5995 13.5466C27.268 12.8825 26.7581 12.3237 26.127 11.9328C25.496 11.5419 24.7685 11.3343 24.0262 11.3333H18.6929C18.9369 11.6507 19.1511 11.9899 19.3329 12.3466L21.2662 16.2133C21.503 16.6951 21.6404 17.2196 21.6702 17.7557C21.6999 18.2917 21.6215 18.8282 21.4395 19.3333H28.3329C28.5602 19.3326 28.7835 19.2738 28.9817 19.1625C29.1799 19.0513 29.3463 18.8912 29.4652 18.6975C29.5841 18.5037 29.6515 18.2829 29.661 18.0558C29.6705 17.8287 29.6218 17.6029 29.5195 17.4ZM16.9329 13.5466C16.6003 12.8804 16.0884 12.3203 15.4547 11.9293C14.821 11.5382 14.0908 11.3318 13.3462 11.3333H5.98621C5.24161 11.3318 4.51139 11.5382 3.87773 11.9293C3.24407 12.3203 2.73213 12.8804 2.39955 13.5466L0.479546 17.4C0.377266 17.6029 0.32857 17.8287 0.338083 18.0558C0.347595 18.2829 0.415 18.5037 0.533897 18.6975C0.652793 18.8912 0.819234 19.0513 1.01741 19.1625C1.21559 19.2738 1.43893 19.3326 1.66621 19.3333H17.6662C17.8935 19.3326 18.1168 19.2738 18.315 19.1625C18.5132 19.0513 18.6796 18.8912 18.7985 18.6975C18.9174 18.5037 18.9848 18.2829 18.9943 18.0558C19.0039 17.8287 18.9552 17.6029 18.8529 17.4L16.9329 13.5466Z" fill="#E55608"/>
</svg>
