<?xml version="1.0" encoding="utf-8"?>
<!-- Generator: Adobe Illustrator 25.2.0, SVG Export Plug-In . SVG Version: 6.00 Build 0)  -->
<svg version="1.1" id="Layer_1" xmlns="http://www.w3.org/2000/svg" xmlns:xlink="http://www.w3.org/1999/xlink" x="0px" y="0px"
	 viewBox="0 0 345.2 250.8" style="enable-background:new 0 0 345.2 250.8;" xml:space="preserve">
<style type="text/css">
	.st0{fill:#DEE1E5;}
</style>
<path class="st0" d="M45.8,182.9c0,0-0.1,1.1-0.2,1.8c0,0.3-0.6,0-0.6-0.1c0-0.6,0.1-1.1,0.2-1.8C45.2,182.6,45.8,182.7,45.8,182.9z
	 M115.2,234.6c0,0,0,0,0.1-0.2c-0.5,0-0.9,0.2-1.1,0.2l0,0.6C114.3,235.3,115,234.6,115.2,234.6z M124.1,210.1c-0.1,0.8-0.5,3.5,0,4
	c1.1,1.1-0.5,3-0.6,4.8c-0.2,2.2-2,4.2-1.9,2.8c0-1.1-0.2-0.2-0.6,1.1c-0.6,1.5-1.1,3.4-1.8,4.2c-0.3,0.3,0,0.8,0.1,1.3
	c0,0.8-0.4,1.4-0.8,2.1c-0.1,0.2-0.4,0.5-0.6,0.7c-2.7,2.3-4.9,3.7-3.4,3.6c-1.2,1-2.5,2.3-3.1,3.5l0.8-0.4l-0.6,0.8
	c-0.9,0-2.6,0.9-4.4,3.7c-0.2,0-0.3,0-0.5,0c-0.3,0-0.9,0.2-1.2,0.8c-0.4,1.1-1.8,0.4-2.2,1.5c-0.1,0.6-1.4,0.5-2,0.6
	c-0.3,0-1.2,0.1-1.1,0.4c0,0,0.5,0.1,0.5,0.3c0.2,0,0.2,0.5-0.3,0.6c-1.2,0.7-5.3,0.4-6.1,1.5c-0.6,0.7-1.4,0.5-2.1,0.4
	c-0.5,0.2-1.2,0.2-1.7,0.2c-0.5,0-0.3-0.5-0.9-0.4c-0.5,0-1.1,0-1.5-0.2c-0.6-0.3-0.9,0.7-1.3,0.7c-0.3,0-0.6,0-0.9,0
	c-0.6,0.7-0.9,0.2-1.5,0.2c-0.3,0-0.6,0.5-1.2,0.4c-0.3,0-0.8,0-1.1,0.4c-1.2,1-3.3,1.6-4,0.2c-0.5-0.5-0.7-0.9-0.8-1.5
	c-0.9,0-3.5-0.2-2.8-1c0.3-0.5,0.3-1.1,0-1.1c-0.6,0-0.4,0.7-1,0.5c0,0-0.8,0.4-0.9,0.4c-0.2,0,0,0.3,0,0.5c0,1.1-3.5,0.2-4.2-0.8
	c0-0.2-1.1-0.7-1.6-0.7c-1.4-0.3-1.9-1.7-3.7-1.4c0,0,0,0,0,0.3c0,0.5-0.8,0.4-0.8-0.1c0-0.3,0.6,0,0.3-0.3
	c-0.3-0.3-0.6-0.6-0.8-0.9c0-0.3-0.3-0.3-0.5-0.3c-1.7,0.4-3.4-0.6-3.7-1.4c-0.3-0.9-1.2-0.3-1.3-1.4c0-0.6-0.3-0.9-0.8-0.6
	c-0.7,0.5-1.3-0.7-1-1.2c0.4-0.5,0.3-1.1-0.1-1.3c-0.6-0.3-1.5-1.8-2.3-3.2l-1.5-3.4c-1.5-2.8-0.5-0.5-2.3-3.1
	c-0.3-0.6-0.8,0-1.4-0.3c-0.2,0-0.6,0-0.5-0.3c0-0.3,0.1-0.2,0.4-0.3c0.6,0-1-0.9-1.3-1.5l-0.3,0c-0.4,0.8-1.1-1.5-1.6-2.1l0-0.3
	c0.4-0.3,0.8-0.4,0.4-0.8c-0.2-0.3-0.3-0.3-0.6-0.3c-0.5,0,0-0.5,0.4-0.8c0.3-0.3,0-0.5,0-0.8c-0.3,0-0.5-0.5-0.6-0.8
	c0-0.3-0.8-0.3-0.5-0.6c0.1-0.2,0.1-0.5,0-0.6c-0.3-0.3,0.1-0.5-0.3-0.8c-0.6-0.3-0.4,0.3-1.2-0.3c-0.3-0.1,0.1-0.3,0.4-0.3
	c0.2,0,0.3-0.3,0-0.8c-0.3-0.5-0.3,0-0.8,0c0,0-0.2,0,0-0.3c0.3-0.3,1-0.5,0.9-0.8c-0.5-0.5-1.1-0.9-1.3-1.5
	c-0.3-0.1-0.8-0.4-0.6-0.6c0.6-0.7,0-0.8-0.1-1.4c-0.2-0.8-0.8-0.4-0.8-1.2c0-0.8-0.1-1.7-0.3-2.5c0-0.3,0-0.6,0.3-1l0-0.2
	c-0.3,0-0.4,0.5-0.6,0.7c0,0-0.3,0-0.5-0.6c0-0.6-0.4-1.1-0.1-1.4c0,0,0.1-0.2,0-0.3c0-0.2,0-0.3,0-0.5c0,0,0-0.2,0-0.3
	c-0.5-1.2,0.5-2.7,0.2-3.7c-0.3-0.9-0.6-3.8-0.5-3.9l0.8-3c0.4-1.4,0.8-2.9,1-2.9c0.6-0.3,0.3-0.6,0.3-1.3c0.1-0.5,0-0.9,0.1-1.4
	c0-0.6,0.2-1.6,1-2.3c1.3-0.9,0.3,0.3,1.4-2.3c0.1-0.5,0-0.8,0-1.1c1.2-1.5-2.1-1.8,0.2-1.9c0.5,0-0.1-1.9,0.7-1.5
	c0.5,0.3,0.8,0.3,1.2,0.4c0,0,0.3-0.2,0.5-0.2c0.2,0,0.3,0,0.3,0.1c-0.1,0.5-0.2,0-0.3,0.6c0,0.3,0.6,0.3,0.8,0
	c0.4-1.1-0.2-0.6,1-1.5c0.3-0.2,1.8-0.7,1.8-0.2c0,0.3-0.6,2.9-0.8,3c-0.4,0.3,0,1.1-0.9,0.8c-0.5,0-0.4-1.3-0.4-1.9
	c-0.3,0.5-0.6,0.8-0.6,1.5c-0.3-0.8-0.6-0.1-0.9-0.6c0,0-0.3-0.3-0.3-0.1c-0.2,0,0,0.3,0.3,0.6c0,0,0,0.3-0.3,0.2
	c-0.3-0.3-0.3-0.5-0.6-0.3c-0.7,0.5-1,1.2,0,2.5c0,0.2,0.3,0,0.5,0c0.5-0.2,0.3,0,0.6,0.4c0.2,0.3,0.5,0,0.6,0.4
	c0.3,0.6,0.3,0.3,0.6,0.8c0.3,0.5-0.4,0.7-0.4,1.1c0,0.6-0.4,0.3,0.1,1.4c0.3,0.8,0.1,1.3,0.1,1.6c-0.3,0.5-0.7,0.5-0.4,0.8
	c0.6,0.6-0.8,1.9-0.8,2.9c0.1,1.3,0,4,0.3,6.5c0.1,2.5,0.2,5.2-0.2,6.4c0,0,0,0.2,0.3,0.3c0.1,1.7,1.1,3.3,1.5,2.5
	c0,0.2,0,0.5,0,0.6c-0.3,0.5,0,0.6,0.1,1.3c0,0.5-0.6,1.3,0.1,1.3c-0.5,0-0.2,2.9,0.2,4.3c0.6,0.1,0.5,0.9,0.5,1.6
	c1.2,0.4,2,3.4,3.2,3c1,1.1,2.9,3.4,1.7,3.3c-0.3-0.3-0.6-0.6-1-0.9c-0.3,0-0.3,1-0.2,1.4c-2.2-2.6-1.9-0.6-0.4,1.8
	c1.3,2.5,4,4.9,4.8,4.2c0.7-0.7,5.3-0.2,1.6-1.5c-1.1-0.9-2.2-1.8-3.2-2.9c0,0,0.3-0.2,0.4-0.3c0.9,0.4,0.9,0.1,1.4,0.9
	c0.8,1.1,0-0.8,0.6-1.5c0,0,0,0,0.2,0c0.2,0,0.5,0,0.6,0l0,0.6c0,0-0.3-0.3,0.2,0.6c0,0,0.3,0.3,0.5,0.5c0.3,0.6,0.7,1.2,0.7,1.2
	c0.3,0.3,2.7,2.3,2.4,2.6c-0.3,0.3,0,0.3,0.5,0.3c0.3,0.5,0.8,0.9,1.1,1.1c0.3-0.5,1.1,0.9,1.7-0.1c-1.3-1.5-1.8-0.2-2.2-1.2
	c0.3-0.2,0.6-0.3,0.9-0.2c0.5,0.1,0.9,0.6,1.4,1l0,0.3c0,0,1.1,0.9,1.4,1.2l0.7,0.9c0,0,2.2,0.9,4.3,1.5c2.2,0.7,4.6,1.4,6.6,1.6
	c0.5,0.1,0.9,0.3,1.4,0.3c0.6,0,1.2,0.1,1.4,0.3c2.2,0.9,3.6,0.8,4.5,0.9c0.9,0,1.7-0.2,2.9-0.1c0.3,0,2.9-0.1,3.5,0.2
	c0.3,0.3,0.5,0.8,0.8,0.8c0.3-0.2,1.5-0.5,2.6-1.2s2.1-1.2,2.4-1.2c0.4-0.3,1.3-0.9,2.4-1.2c0.9-0.4,2-0.6,2.4-0.9
	c1.1-0.5,0.9-1.6,2.3-1.1c0.4-0.8,0.3-1.1,1.2-1.5c0,0,0.7-0.5,1.6-1.3c0.7-0.8,1.9-1.8,2.8-3c1.9-2.3,3.2-5.1,3.2-5.2
	c-0.1-1.9-0.6-2.7-0.2-3.6c0.3-0.5,0.6-1.1,1-1.9l0.9-1.6c0,0,0.4-1.3,0.8-2.3c0.2,0.3,0.2-6.2-0.3-6.2c0,0-0.2-0.9-0.6-2.2
	c-0.7-1.1-1-2.8-1.9-4.2c-0.8-1.4-1.7-2.9-2.3-3.9c-0.7-0.9-1.1-1.5-1.1-1.7c0-0.6-0.7-0.9-1.3-0.9c-0.8-0.3-3.2-3-6.8-4.6
	c-3.6-1.7-8-1.9-9.4-0.8l-1.1,0c0,0-1.7,0.1-4.9,0.5c-1.8,0.4-3.3,1.9-5.3,1.5c-0.4,0.7-3.6,2.4-6.7,4.1c-3.1,1.9-6.6,3.8-7.2,4.1
	c-1,0.5-2.9-0.7-2.1,0.6c0.3,0.5-0.4,0.7-0.7,0.8c-0.4,0.3-0.4,0.7-0.9,0.4c-0.5-0.1-0.9-0.4-0.9,0c0,0.3,0,0.5-0.3,0.5
	c-0.3,0-0.9,0.4-1.2,0.4c1-1.5,1.3-2.1,3.4-3.6c-1,0.5-1.7,0.7-1.8,0.9c-0.3,0-0.3,0-0.3,0c-0.6,0.3-0.8,0-0.9-0.6
	c-0.3,0.3-0.6,0.5-0.9,0.8c0.3,0,0.6,0,0.9,0c0,0-0.7,1-1.2,1.8c-0.4,0.8-0.5,1.6-0.7,1.8c0,0.2,0,1,0.4,1.3c-0.5,0-0.9,0-1.1-0.1
	c-0.3-0.1,0-0.5-0.8-0.3c-0.3,0-1.2-0.3-1.9-0.6c-0.8-0.3-1.3-0.7-1.1-0.3c0.3,0.8,0.7,1.7,1.3,2c0.5,0.3,1.1,0.9,1.7,1.3
	c0.6,0.4,1.3,0.7,1.3,1.1c1.1,1.4,0.5,0.5-0.7,1.6c-1.2,1.3-2.2,2.2-3.3,2.4c-1.1,0-2-0.5-2.8-1.6c-1.5-1.8-2.2-4.8-1.8-7.2
	c0.2-2.4,1.2-4.2,1.7-4.5c1.6-1.5,1.1-2.9,2.2-5c1.1-2.1,3.7-4,4.4-4c0.2,0,1.7-0.4,1.8-0.6c1.2-1.3,3.8-1.4,5.1-3.1
	c0.4-0.7,2.7-1.7,4.8-1.5c1.4,0.1,1.8-0.1,3-0.8c0.3-0.2,2.4-1.4,4.7-2.3c2.3-0.9,4.7-1.5,5.3-1.3c0.8,0,5.9-2.2,6.3-2.2
	c2.3-0.4,2.2,1.3,3.7-0.2c0.6-0.5,2.6-0.8,4.6-0.5c2,0.2,4,0.8,4.8,1.1c0.6,0.1,2.4,2,2.7,2.1c1.2-0.1,1.7,0.7,2.4,1.5
	c0,0.2,0.3,0.3,0.6,0.3c0.6,0,1.1,0.3,1.5,0.4c1.2,0.4,2.6,3.5,4,3.8c0.8,0.3,1.1,0.6,1.6,1c0.3,0.5,1.1,0.6,1.3,0.9
	c0.3,0.6,0.2,1.4,0.8,1.5c2,0.5,0.1,2.5,2.3,2.8c0.6,0,1,1.1,0.7,1.7c-0.9,1.5,1.3,1.2,2.1,2.6c0.3,0.5,0.8,0.8,0.2,1.3
	c0,0-0.3,0-0.3,0.2c-0.1,0.3-0.1,0.8,0.3,0.8c1.7-0.1,1.6,2,1.8,3.7c0,0.5,0.4,1.4,0.7,2.3l0,1.1l0.2,0c0,0,0,0.3,0,0.5
	c0,0.2,0,0.3,0,0.5c0.8,0.8,0.5,1.7,0.1,2.7L124.1,210.1z M52.5,198.4c0.6-1.1,0-1-0.8,0c-0.9,1-1.6,2.9-1.7,4.2
	c0.3-0.5,1.1-2.6,2.4-4.4L52.5,198.4z M55.7,198.6c0,0-0.6-0.4-1.8,0.7c-0.6,0.7-1.3,1.6-1.6,3.1c-0.4,1.4-0.5,3.5,0.5,5.8
	c-0.2-1.7-0.1-1.9,0.1-2.1c0-0.2,0-0.5-0.1-2.4C54.4,201.7,55.9,199.6,55.7,198.6z M65.1,193.3c0,0,0,0.2,0.3,0.1
	C65.4,193.4,65.4,193.3,65.1,193.3z M64.1,188.9c0,0-0.5,0-0.8,0c0,0-0.9,0.7-1,1c-0.3,0.3,1.5-0.4,1.8-0.9L64.1,188.9z M61.8,190.3
	C61.8,190.3,61.7,190.1,61.8,190.3L61.8,190.3z M60.7,193.3c0,0-0.7,1.1-0.6,1.1C60.8,194.1,61.4,193.8,60.7,193.3z M62.4,192.1
	c0,0-0.5-0.1-0.6,0C61.5,192.5,62.3,192.6,62.4,192.1z M63.1,199.4c-0.9,0.5-1.3,0.7-1.8,1C61.9,200.4,61.9,200.4,63.1,199.4z
	 M63,198.8c0,0-0.5,0.2-0.6,0.3C62.9,198.9,62.9,198.8,63,198.8z M80,190.9C80,190.9,80,191,80,190.9L80,190.9z M84.6,187.2
	c0,0-5.9,1.4-11,4.5c-5.1,2.9-10,6.6-10.3,6.8c2.4-1.2,0.3,0.8,3.9-1.4l0,0.2c0,0,0.2,0,0.1-0.3l5.7-3.7c2.7-1.7,6.3-3.9,11.4-5.9
	L84.6,187.2z M84.5,184.2c0,0-0.5,0-0.3,0L84.5,184.2z M85.4,183.5c0.7-0.5,0.3-0.5-0.6-0.6l-0.9,0.8l1.5-0.1L85.4,183.5z
	 M87.6,186.4c0,0-1.2,0.1-1.8,0.4C86.6,186.8,87.2,186.7,87.6,186.4z M89,182.4c0,0-0.9-0.6-2.1,0.3C87.6,182.6,88.4,182.4,89,182.4
	z M92.7,187.6c0,0-0.5,0-0.3,0.2C92.4,188.1,93.3,187.7,92.7,187.6z M94.8,186.6c0,0-0.4,0.3,0,0.6C95.1,186.9,95,186.9,94.8,186.6z
	 M96.7,181.4c0,0,1.4,0.6,2,0.5C98.9,181.3,97.5,181,96.7,181.4z M101.7,185.3c-0.5-0.9-1.9-0.4-3.4-1.9c0,0.3-0.3,0.5,0,0.8
	C98.6,184.3,99.5,184.6,101.7,185.3z M103.1,191.2c0,0-0.5-0.8-1.1-0.6C101.9,191.1,102.5,191.1,103.1,191.2z M103.5,192
	c0,0-0.6,0-0.5,0.2C103.2,192.5,103.6,192.2,103.5,192z M109.2,193.2l-0.3,0C108.9,193.2,109,193.2,109.2,193.2z M109.5,186.2
	c-1.8-2-5-1.7-3.4-1C109.8,187.3,110.2,187.3,109.5,186.2z M43.2,185.1c0,0,0.2,0.2,0.3,0C43.5,184.7,43.2,184.8,43.2,185.1z
	 M45.3,180.2l0-0.3C45.3,179.9,45.3,180.1,45.3,180.2z M43.6,209.3c0,0,0-0.8-0.2-0.9C43.2,208.9,43.1,209.3,43.6,209.3z
	 M42.7,188.7c0,0-0.4,0.7,0.3,0.5C43,189,43,188.9,42.7,188.7z M42.3,185.3l0-0.5C41.9,184.8,42,185.3,42.3,185.3z M42.9,215.4
	l0,0.3C42.9,215.7,42.9,215.7,42.9,215.4z M43.9,216.8l-0.3-0.5C42.5,216,43.7,219.1,43.9,216.8z M44.4,210.2
	c-0.7-1.9-0.5,1.9-1.6,2.3C41.9,214.5,44.9,212.7,44.4,210.2z M64.3,237.6c0,0-0.3-0.6-0.5-0.9c0.6-0.8-1-1.1-2.2-1.5
	c-1.1-0.4-1.9-0.7,0.4-1.4c0,0-2.5-0.7-4.2-1.9c-1,1.2,0.1,2.2,1.5,3.1c1.6,1,3.3,1.8,3.5,2.9c0.6,0,1.1-0.2,1.5-0.4L64.3,237.6z
	 M66.3,237.8c0,0,0.3,0.3,0.8,0.4C67.1,238.1,66.8,237.9,66.3,237.8z M68.4,239.4c0,0-0.6-0.4-1.4-0.6
	C67.6,239.3,67.8,239.5,68.4,239.4z M68.9,245.4c0,0,0,0.2,0,0.3C69,246.2,69.4,245.4,68.9,245.4z M71,246.3c0,0,0,0,0,0.3
	C71.1,246.6,71.1,246.3,71,246.3z M71.6,246.7c0,0,0,0.2,0,0.3C72.2,247,71.9,246.6,71.6,246.7z M73.7,241.3c0,0-0.6-0.3-0.6,0.2
	C73.2,241.4,73.5,241.4,73.7,241.3z M74.4,241.2l0,0.3C74.9,242,75.2,241.3,74.4,241.2z M77.3,247.3c0,0-1.1-0.3-0.8,0
	C76.7,247.5,77.3,247.7,77.3,247.3z M77.7,247.3C77.7,247.3,77.9,247.1,77.7,247.3L77.7,247.3z M88.8,242c0,0-1.1-0.3-1.1,0
	C87.8,242.4,88.3,242.7,88.8,242z M90.1,246.5c0,0,0.3,0.3,0.6,0.3C91.5,246.2,89.4,245.6,90.1,246.5z M90,240.2
	c-1.2,0.4-1.5,1.3,0.8,0.3C91.1,240,90.8,240.2,90,240.2z M93.7,242.1c0,0-0.3,0-0.3,0.3C94.2,243.2,94.5,242.2,93.7,242.1z
	 M94.8,245.5c0,0,0-0.6-0.3-0.3C94.5,245.4,94.6,245.4,94.8,245.5z M94.8,246.5c0,0,0,0,0.2,0C95.1,246.5,95,245.8,94.8,246.5z
	 M95.6,241.4c0,0-0.8-0.3-0.8,0.2C94.8,241.7,95.3,241.9,95.6,241.4z M96.1,240.9l0-0.3C96.1,240.6,95.8,240.9,96.1,240.9z
	 M96.1,239.1c-1.4,0.2-2.6,0.6-3.9,1.1C93.1,241,96.2,239.4,96.1,239.1z M98,238.1c0,0.9,0.8,0.6,2,0.4c1.8-1.7,1.9-2.3,1.4-2.1
	C100.9,236.4,99.7,237.2,98,238.1z M102.7,239.8c0,0,0-0.2-0.5,0c-1,0.5-3.3,1.7-4.2,2.4C98.6,242,102.4,240.3,102.7,239.8z
	 M105.2,234c-1.8,1.3-1,1.3-2.1,2c-0.3,0.8,0.2,0.6,0.8,0C104.5,235.3,105.1,234.3,105.2,234z M109.5,228.1c0,0-0.8,0.2-0.7,0.7
	C109.1,228.7,109.3,228.7,109.5,228.1z M114,216.6c0,0,0,0.6-0.1,0.8C114.2,217.4,114.1,217.1,114,216.6z M114.7,208.2
	c0,0,0,0.8,0.2,0.9C115.2,208.5,114.8,208.3,114.7,208.2z M117.3,208.1c0,0-0.1-1.6-0.1-2.2c-0.3-0.5-0.3-0.9-0.5-1.4
	c-0.2-0.5-0.3-0.9-0.7-1.2c0.4,1.4,0.8,3.6,1.1,4.7L117.3,208.1z M118.1,228.3c0,0,0.3,0.3,0.5,0
	C118.6,228.1,118.4,227.8,118.1,228.3z M118.5,220l-0.6,1c0,0,0,0.8,0,0.6C118.4,221.2,118.6,220.7,118.5,220z M118.2,211.8
	c0,0-0.2-1.4-0.4-2.4c-0.6,0.8,0,4.3,0.2,4.9c0.4-1.1,0.4-1.8,0.4-2.6L118.2,211.8z M119.2,213.4c0,0-0.2,1.4-0.1,2.1
	C119.4,214.8,119.4,213.7,119.2,213.4z M119.7,204.5c0,0-0.3,0.2-0.3,0.3C119.8,204.8,119.7,204.6,119.7,204.5z M120.6,203.8
	c0,0.9,0.4,1.7,0.7,2.5c0.7,1.4,1.3,2.2,1.3,0.7c-0.6-0.6-0.7-1.7-0.7-3c-0.1-1.3-0.6-2.5-1.5-2.9c-0.1,1,0.1,1.7,0.1,2.7
	L120.6,203.8z M121.6,219.3C121.6,219.3,121.9,220.4,121.6,219.3L121.6,219.3z M122.6,210c0,0-0.8-0.4-1.1-0.4
	c1.2,2.3,0.9,2.3,0.2,3.6c0,0.6,0.1,1.3,0.1,1.9l0,0.5l0,0.3c-0.3,1.1-0.1,1.7,0.1,1.3c0-0.3,0.3-0.8,0.5-1.8c0.3-1,0.5-2.4,0.4-4.1
	c0.3,0.8,0.2,1.9,0.4,2.7c1.1-2.1-0.6-2.4-0.6-3.8L122.6,210z M49.7,218.1c0,0-0.5-0.3-0.5-0.6c-0.1-1.6-1.6-2.1-1.8-3.4
	c0-0.3-0.3-0.5-0.5-0.6c1,2.3,2.2,4,2.8,4.9C49.8,218.4,49.7,218.2,49.7,218.1z M44,183.9c0,0,0.6,0,0-0.5
	C43.7,183.5,43.7,183.8,44,183.9z M42.3,182.1c0,0,0.6,0.3,0.6,0c0,0,0-0.2,0-0.3c-0.2,0-0.6,0-0.4,0.3L42.3,182.1z M48.9,230.5
	c0,0,0,1.1,0.3,0.1C49.2,230.5,49.2,230.5,48.9,230.5z M43.8,226.1c0,0,0,0,0.2,0c0.2,0,0-0.2,0-0.3c-0.2-0.5-0.6,0-0.3,0.3
	L43.8,226.1z M43.2,226.5c0,0,0,0.5,0.2,0.8C43.7,227.7,43.3,226.3,43.2,226.5z M45.7,227.9c0,0,0.3,0.1,0.3,0
	C46,227.9,45.7,227.6,45.7,227.9z M45.7,212.4c0,0-0.2-0.2-0.3-0.1C45.4,212.2,45.4,212.2,45.7,212.4z M108.7,241.9
	c0,0,0.6-0.3,0.7-0.7l-0.5,0L108.7,241.9z M89.1,249C89.1,249,89.1,248.6,89.1,249L89.1,249z M50.1,219.2l0.3,0.3
	C50.4,219.5,50.2,219.2,50.1,219.2z M58,203.1c0,0,0.7-1,1.3-1.6C58.9,201.5,57.8,202.6,58,203.1z M53.2,223.6c0,0,0.8,0.9,1.3,1.5
	c0-1.1-1-2-2.1-2.8C52.5,223,52.9,223.6,53.2,223.6z M57.9,205.5c0,0,0.5,0,0.6,0c0.3-0.5,0-0.6-0.5-1.1c0,0.3-0.1,0.8-0.1,1.3
	L57.9,205.5z"/>
<path class="st0" d="M341.9,206.6c0,0,0.5,0,0.3,0C341.7,206.9,341.6,206.6,341.9,206.6z M301.1,174.7
	C301.1,174.7,300.9,174.8,301.1,174.7L301.1,174.7z M321.2,189.2c0,0,0,0,0.3,0C321.9,188.3,321.5,188.5,321.2,189.2z M321.4,198.1
	c0,0,0,0,0.3,0L321.4,198.1z M318.6,196.5l-1.1-0.6c0,0.9,1,1.1,2,1.2c-0.3-0.3-0.6-0.6-0.8-0.6L318.6,196.5z M326.8,199.4l0.2,0
	C327,199.4,327,199.4,326.8,199.4z M239.1,122.3l-0.5-1.2c0,0-0.4,0.3-0.4,0.5C238.2,122.2,238.7,122.4,239.1,122.3z M322.3,198.5
	c0,0,0.5,0,0.5,0.1c0.4,1.1,1.7,0.4,2.2,1c0,0,0.3,0,0.6,0c-1.4-0.7-2.7-1.1-3.4-1.3c0,0,0,0,0,0.2L322.3,198.5z M341.2,207.9
	c0,0,0.6,0.4,0.9,0.3c0.3,0,0.4-0.5,0.3-0.5l-0.9-0.3C341.5,207.4,341,207.9,341.2,207.9z M325.2,190.2c0,0,0.4-0.5,0.1-0.5
	c0,0,0,0.3,0,0.5L325.2,190.2z M325.8,189.3c0,0,0-0.3-0.2-0.5C325.3,188.8,325.7,189.4,325.8,189.3z M345.2,205.8l0,0.3
	c0,0.2-0.1,0.3-0.3,0.3c-0.3,0,0,0-0.3-0.1c-0.2,0-0.4,0.6-0.1,0.6c0.6,0.3,0.4-0.3,0.6,0.8c0,0.3,0.1,1.6-0.4,1.7
	c-0.3,0-1.7-0.4-1.7-0.4c0-0.5-0.8,0-0.3-0.8c0.3-0.5,0.9-0.4,1.4-0.4c-0.2-0.1-0.3-0.5-0.6-0.4c0.6-0.3,0.3-0.5,0.7-0.8
	c0,0,0.3-0.2,0.3-0.3c0-0.2-0.3,0-0.4,0.3c0,0-0.2,0,0-0.2c0.3-0.3,0.4-0.3,0.4-0.6c0-0.6-0.3-0.9-1.5,0.1c-0.2,0-0.1,0.3-0.1,0.5
	c0,0.3-0.1,0.3-0.6,0.5c-0.3,0-0.1,0.5-0.4,0.6c-0.4,0.3-0.3,0.3-0.7,0.7c-0.4,0.3-0.2-0.5-0.6-0.3c-0.5,0,0-0.5-0.9-0.1
	c-0.6,0.2-0.9,0-0.9-0.3c0-0.5,0-0.8-0.3-0.5c-0.7,0.5-0.8-1.1-1.3-1.2c-1.4-0.6-5.8-2.4-6.3-4.3c0,0-0.2,0-0.3,0
	c-0.8-0.7-1.9-0.7-1.8,0.1c0,0-0.2,0-0.3-0.3c0-0.5-0.3-0.3-0.5-0.4c-0.3-0.1,0-1.1-0.3-0.8c0.3-0.5-0.7-1.7-1.3-2.3
	c-0.4,0.3-0.6-0.3-0.8-0.7c-1,0.7-2.2-0.8-2.9,0.1c-0.9-0.1-2.6-0.8-1.7-1.3l0.8,0c0,0,0-0.6,0-0.9c3.9,1.2-2.5-4.3-3.5-2.7
	c-0.6,0.8-4.1,2.2-1.3,1.9l2.5,1c0,0-0.1,0.3-0.3,0.5c-0.8,0-0.8,0.3-1.1-0.1c-0.6-0.4,0,0.5-0.2,1.4c0,0-0.4,0.3-0.5,0.2l0-0.5
	c0,0,0.2,0-0.2-0.6c0,0-0.2,0-0.3-0.1c-0.2-0.5-0.5-0.8-0.6-0.8c-0.3,0-2-1-1.8-1.5c0.3-0.5,0-0.2-0.3-0.1c-0.2-0.3-0.5-0.5-0.8-0.6
	c-0.3,0.5-0.8-0.6-1.4,0.4c0.8,1.1,1.4-0.1,1.6,0.4c-0.3,0.2-0.4,0.5-0.8,0.3c-0.3,0-0.6-0.3-0.9-0.6l0-0.3c0,0-0.6-0.6-1-0.9
	c-0.2-0.3-0.3-0.6-0.3-0.6c-0.6,0-4.7-1.8-7-3.1c-0.3-0.3-0.6-0.4-0.8-0.4c-0.5-0.3-0.6-0.4-0.8-0.4c-2.3-2.4-2.8-1.9-4.1-3
	c-0.3,0-1.7-1-1.8-1.8c0-0.5,0.3-1,0-0.9c-0.5,0-3.4-1.1-3.6-1.3c-0.6,0-1.3-0.7-1.9-1.3c-0.4,0.8-0.9,1.3-0.9,1.5
	c0.4,3.1,0.4,2.7-3.9,6c0.2,0-2.8,3.6-2.9,3.6c-0.3,0.3-5,8.2-5.5,8.3s-0.6,0.7-0.6,1.1c-0.2,1.6-8.6,7.9-8.6,10.6
	c-0.6,0.7,0.2,0-3.1,3c-0.9,0.8-1,2.4-2.7,2.5c0.2,1.2-5.1,7.5-5.8,8.1c-0.4,0.5-2.5-0.2-1.4,0.7c0.5,0.3,0,0.6-0.3,0.8
	c-0.3,0.3,0,0.6-0.6,0.5c-0.5,0-0.9-0.3-0.8,0c0,0.3,0,0.5-0.1,0.5c-0.3,0-0.9,0.4-1.2,0.4c1.2-1.5,1-2.1,2-3.4
	c-1.2,0.8-1.2,1-1.2,1c-0.4,0.3-0.6,0-0.9-0.4l-0.4,0.6c0,0,0.6,0,0.8,0c0,0.3-1.4,2.7-1.7,2.7c0,0-0.3,0.8-0.4,1.1
	c-0.3-0.3-0.8-0.8-0.8-0.8c0-0.3,0-0.3-0.5-0.6c-0.6-0.3-2.4-2.7-2.2-2.1c0,0.5,0,1.1,0.4,1.6c0.5,0.8,0.6,2.5,0.1,2.7
	c-1.5,0.5-0.8,0-1.9-0.7c-3.2-2.1-3.4-3-3.1-3.9c0.2-1.6,1.9-3.1,2.3-3.2c1.1,0,0.3-1.1,0.2-2.2c0-1.1,0.7-2.2,1.1-2.4
	c0,0,1.1-0.4,1.1-0.5c0.3-1.1,1.9-1.3,2-2.8c0-0.5,1-1.5,2.6-1.5c0.9,0,1.1-0.4,1.7-0.9c0-0.5,3.1-4.2,3.8-4.4
	c0.5,0,1.6-3.1,1.4-3.2c0.6-1,1.8,0.1,1.3-1.3c-0.4-1.1,2-3.5,2.6-4c0.1-0.2,1.8-0.4,1.8-0.6c0-0.6,0.6-0.8,1.2-0.8
	c0.2,0,0.3,0,0.3-0.2c0-0.3,0-0.6,0.1-0.9c0.1-0.6,2.4-0.7,2.2-1.7c0-0.6,0-0.6,0.4-1c0.1-0.2,0-0.6,0.3-0.8c0.5,0,0.9,0,0.7-0.5
	c-0.4-1.4,1.7-0.1,1-1.6c-0.3-0.5,0.1-0.8,0.7-0.7c1.4,0.6,0-1.1,0.5-1.8c0-0.3,0-0.6,0.8-0.3c0,0,0.2,0.2,0.3,0.1
	c0.3,0,0.5,0,0.3-0.3c-1.1-1.2-0.1-1.6,0.8-1.9c0.3,0,0.4-0.6,0.6-1.1l0.4-0.3l-0.2,0c0,0,0.1-0.3,0.3-0.3c0.2,0,0,0,0-0.3
	c-0.2-0.8,0.3-1,0.9-1c0,0,1.5-1.2,1.2-1.6c-0.7-1.2,1-1.1,1.3-1.9c0.4-1.1,1.9-1.3,1.8-0.6c-0.1,1.3,1.2-1.6,2.1-2.3
	c0.2,0,0-0.5,0-0.9c0-0.5,0.1-0.8,0.4-1c-1.4-1-2.9-2.1-3-2.1c-3.2,0.5-2.6,0.4-5.9-4.3c0,0-0.8-0.6-1.8-1.5l-1.8-1.8
	c0,0-7.9-5.9-8-6.6c0-0.5-0.6-0.6-1.1-0.7c-1.6-0.4-6.9-10.1-9.4-10.9c-0.5-0.8,0,0.3-2.3-3.8c-0.7-1.1-2.1-1.6-1.8-3.4
	c-1.4,0.1-5.8-7.4-6.2-8.4c-0.3-0.6,1-2.2-0.1-1.6c-0.4,0.3-0.5-0.1-0.6-0.4c-0.2-0.3-0.5-0.3-0.2-0.8c0.1-0.3,0.6-0.8,0.1-0.8
	c-0.3,0-0.5,0-0.3-0.3c0-0.3,0-1.1-0.1-1.4c1,1.7,1.6,1.8,2.4,3.2c-0.4-1.6-0.5-1.5-0.5-1.5c0-0.5,0.3-0.6,0.7-0.8l-0.5-0.8
	c0,0-0.3,0.5-0.4,0.8c-0.3,0-1.9-2.4-1.8-2.7c0,0-0.6-0.4-1-0.7c0.5-0.2,0.9-0.4,1.1-0.4c0.3,0,0.2,0.3,0.8,0
	c0.4-0.5,3.3-1.1,2.7-1.2c-0.5,0-0.9-0.4-1.4-0.3c-0.9,0-2.5-0.5-2.5-0.8c0.2-1.6,0.3-0.6,1.5-1.5c3.1-2,4.1-1.9,4.7-1.3
	c1.3,0.9,2,2.9,1.8,3.4c-0.4,1,0.8,0.6,1.9,0.9c1.1,0.3,1.7,1.3,1.8,1.8l0,1.1c0.9,0.6,0.4,2.3,1.8,2.7c0.5,0.1,1,1.4,0.7,2.8
	c-0.3,1,0,1.1,0.4,1.9c0.3,0.1,3.1,3.9,3.1,4.7c0,0.6,2.5,2.1,2.7,2.1c0.8,0.7-0.5,1.8,1,1.5c1.1,0,3,2.5,3.4,3.1
	c0,0.3,0.1,1.9,0.1,1.9c0.6,0.3,0.6,0.6,0.7,1.2c0,0.2,0,0.3,0.2,0.3c0.3,0,0.6,0.1,0.8,0.3c0.6,0.3,0.4,2.5,1.3,2.5
	c0.6,0,0.6,0.1,0.9,0.4c0,0.2,0.6,0,0.6,0.3c0,0.5,0,0.9,0.3,0.9c1.4-0.4-0.1,1.7,1.4,1c0.6-0.2,0.8,0.3,0.5,0.8
	c-0.6,1.4,1.1,0.3,1.7,0.6c0.3,0.1,0.6,0,0.2,0.8c0,0-0.1,0.2-0.1,0.3c0,0.3,0,0.5,0.3,0.3c1.3-1,1.5,0.1,1.9,1
	c0,0.3,0.6,0.4,1.1,0.6l0.3,0.5c0,0,0.2,0,0,0c0,0.2,0,0,0.3,0c0.8-0.2,0.9,0.3,1,0.9c0,0,1,1.7,1.4,1.3c1.2-0.7,1,1.2,1.9,1.5
	c1.1,0.4,1.3,2.1,0.5,2c-1.2-0.3,1.6,1.2,2.2,2.1c0,0.2,0.6,0,0.9,0c0.5,0,0.8,0.1,1.1,0.4c0,0,0,0.3,0.2,0.5c0,0,0.7,1.1,0.8,1.5
	c0,0,0-0.2,0-0.3c0,0,0.2,0,0.3,0c0.3,0,0.5-0.2,0.4-0.6c-0.2-0.8,1.2-0.4,0.7-1.3c-0.2-0.5,0.4-0.5,0.9-0.7c0.2,0,0.6-0.3,0.4-0.5
	c0,0-0.3,0-0.5,0c-0.2,0-0.3-0.3-0.2-0.5c0.4-0.6,2.7-1.5,2.4-2.3c-0.2-0.6,0.3-0.8,0.7-1c0-0.3,0.3-0.5,0.6-0.7
	c0.3,0,0.5,0.1,0.8,0c0.1-0.2,0.4-0.3,0.7-0.5c0.3,0,0-0.8,0-0.9c0,0,0.3-0.2,0.3-0.5c-0.3-0.6,0-0.5,0.3-0.8c0,0,0-0.5,0-0.8
	c0,0,0-0.3,0-0.6c-0.5-1.1-0.4-2.3,0.7-2.1c0.5,0,0.9,0.1,1.4,0.4c0-0.5,0.7-1.9,1.3-1c0.3,0.3,0.8,0.6,0.9,0.6
	c0.1-0.3-0.5-0.6-0.3-0.9c0,0-0.2-0.6-0.3-0.8c0,0-0.3,0-0.5-0.3c-0.8-0.6,0.2-2.1,0.8-2.2c0.2,0,0.6-0.3,0.6-0.7
	c0.1-0.8,1.2-0.7,1-1.9c0,0,0,0-0.3-0.1c-0.5-0.1-0.3-0.6,0-0.5c0.2,0,0.2,0.5,0.3,0.3c0.2,0,0.5-0.2,0.8-0.2c0.2,0,0.3,0,0.1-0.3
	c-0.5-1.2-0.1-2.2,0.5-2.2c0.8,0,0-0.8,0.7-0.5c0.5,0.1,0.6,0,0.3-0.3c-0.6-0.6,0.3-0.8,0.6-0.3c0.5,0.4,0.9,0.4,0.9,0.1
	c0.3-0.8,3.5-1.7,3.9-2.1c1.3-1.2,0-0.3,1.3-1.6c0.3-0.3-0.3-0.6-0.4-1.1c0-0.2-0.2-0.5,0-0.3c0.2,0,0.3,0,0.5,0.3
	c0.5,0.4,0.1-0.8,0.4-1.1c0,0,0-0.2-0.3-0.3c-0.8-0.3,0.4-1,0.4-1.4c0,0,0,0,0.3,0c0.5,0.3,0.6,0.4,0.8,0.3c0-0.2,0-0.3-0.2-0.6
	c-0.2-0.3,0.3,0,0.8,0.1c0.3,0,0.3,0,0.4-0.3c-0.2-0.3,0-0.5,0-0.6c0.2,0-0.3-0.6,0-0.5c0.3,0,0.3,0,0.3,0c0-0.3,0.5,0,0.3-0.3
	c-0.3-0.5-0.5-0.3-0.7-0.9c0-0.2,0.3,0,0.5,0.3c0,0,0.5,0.1,0.5-0.2c0-0.3,0-0.3-0.5-0.6c0,0,0-0.2,0,0c0.3,0,0.9,0.6,0.9,0.4
	c0-0.5-0.2-0.9-0.1-1.3c0-0.2-0.3-0.6,0-0.5c0.8,0.3,0.5-0.2,0.6-0.5c0.1-0.3-0.3-0.6,0-0.9l0.9-1c0,0,0.3-0.2,0.6,0
	c-0.2-0.2-0.6-0.1-0.8-0.1c0,0-0.2-0.1,0-0.5c0-0.3,0-0.6,0.6-0.5l0.2,0c0,0,0-0.2,0-0.3c0-0.9,1.3-0.8,1.3-1.5s0.7-1.9,0.7-1.9
	s2.5-2,2.7-1.8c0.5,0,0.3-0.2,0.3-0.6c0.1-0.2,0-0.6,0.3-0.8c0-0.3,0.4-0.8,1-0.8c1.2-0.1,0.3,0.3,1.4-0.7c0.1-0.2,0-0.5,0-0.6
	c1.1-0.4-1.8-2,0.3-1.1c0.3,0.1,0-1.1,0.6-0.5c0.3,0.3,0.8,0.4,1.1,0.7l0.3,0c0.2,0,0.3,0.1,0.3,0.3c0,0.3,0,0-0.1,0.3
	c0,0.2,0.6,0.4,0.6,0.3c0.3-0.6-0.2-0.5,0.7-0.7c0.3,0,1.5,0.1,1.7,0.4c0,0.3-0.4,1.7-0.5,1.8c-0.5,0,0,0.8-0.9,0.2
	c-0.5-0.3-0.3-0.9-0.4-1.4c-0.1,0.2-0.4,0.3-0.6,0.7c-0.3-0.6-0.5-0.3-0.8-0.7c0,0-0.2-0.3-0.3-0.3c-0.2,0,0,0.3,0.2,0.5
	c0,0,0,0.2-0.2,0c-0.3-0.3-0.3-0.5-0.6-0.4c-0.6,0-0.9,0.2-0.1,1.4c0,0.2,0.3,0.1,0.5,0.1c0.3,0,0.3,0.1,0.5,0.6
	c0,0.3,0.5,0.3,0.6,0.6c0.3,0.5,0.3,0.3,0.6,0.8c0.3,0.5-0.5,0.2-0.4,0.6c0,0.5-0.5,0-0.1,0.8c0.2,0.6,0,0.9-0.3,1
	c-0.5,0-0.8,0-0.4,0.3c0.5,0.8-1,0.7-1.3,1.2c-0.6,1.4-2.5,5.8-4.4,6.2c0,0,0,0.2,0,0.3c-0.7,0.7-0.7,1.9,0.1,1.9
	c0,0-0.1,0.2-0.3,0.3c-0.5,0-0.3,0.3-0.6,0.5c-0.1,0.3-1.1,0-0.8,0.3c-0.5-0.3-1.7,0.7-2.3,1.2c0.3,0.5-0.3,0.6-0.7,0.7
	c0.5,1.1-1,2.1-0.2,3c-0.3,1-1,2.6-1.5,1.6c0-0.3,0.1-0.5,0.3-0.8c-0.2-0.3-0.8-0.1-1.2,0.1c1.4-3.8-4.2,2.2-2.8,3.4
	c0.8,0.6,1.9,4.2,1.7,1.3l1-2.4c0,0,0.3,0.3,0.5,0.3c0,0.8,0.2,0.8-0.3,1.1c-0.4,0.6,0.5,0,1.2,0.4c0,0,0.3,0.6,0,0.6l-0.5,0
	c0,0,0-0.2-0.6,0.2c0,0,0,0.2-0.1,0.3c-0.5,0.2-0.7,0.5-0.7,0.5c0,0.3-1.1,1.9-1.5,1.6c-0.5-0.3-0.2,0-0.1,0.3
	c-0.3,0.2-0.6,0.5-0.6,0.8c0.5,0.3-0.6,0.7,0.2,1.4c1-0.8-0.1-1.4,0.5-1.6c0.2,0.3,0.5,0.4,0.3,0.8c0,0.3-0.3,0.6-0.6,1l-0.3,0
	c0,0-0.6,0.7-0.9,0.8c-0.5,0.2-0.6,0.3-0.6,0.3c0,0.6-2.1,4.7-3.2,7.1c-0.3,0.3-0.4,0.6-0.4,0.8c-0.3,0.3-0.4,0.6-0.6,0.8
	c-2.5,2.2-2,2.8-3.1,4.1c0,0.3-1.2,1.8-1.8,1.7c-0.5,0-0.8-0.3-0.9-0.1c0,0.5-1.1,3.3-1.4,3.7c-0.1,0.9-1.8,2.3-2.3,2.8
	c0,0,0,0.2,0,0.3c0.3,0,0.5,0.6,0.5,0.9c0,0.2,0.3,0.6,0.5,0.4c0,0,0-0.3,0-0.5c0-0.2,0.3-0.3,0.5-0.2c0.6,0.4,1.5,2.8,2.4,2.4
	c0.6-0.2,0.8,0.1,0.9,0.6c0.3,0,0.5,0.3,0.6,0.6c0,0.3-0.1,0.5,0,0.8c0.2,0.1,0.3,0.5,0.5,0.8c0,0.3,0.8-0.2,0.9,0
	c0,0,0.2,0.3,0.5,0.1c0.6-0.3,0.5,0,0.8,0.3c0,0,0.5,0,0.8,0c0.2,0,0.5,0,0.6,0c1.1-0.5,2.3-0.6,2.2,0.7c0,0.5,0,0.9-0.4,1.6
	c0.5,0,1.9,0.5,1.1,1.2c-0.3,0.3-0.6,1-0.4,1c0.3,0.1,0.6-0.7,0.9-0.4c0,0,0.6-0.2,0.8-0.3c0,0,0-0.3,0.1-0.5
	c0.4-0.8,2.2,0.1,2.2,0.7c0,0.2,0.3,0.6,0.8,0.6c0.8,0.1,0.7,1.2,1.9,0.9c0,0,0,0,0.1-0.3c0.1-0.5,0.6-0.3,0.5,0
	c0,0.2-0.5,0.2-0.3,0.3c0.2,0.2,0.3,0.5,0.3,0.8c0,0.2,0,0.3,0.3,0.1c1.2-0.5,2.1-0.1,2.2,0.4c0,0.8,0.8,0,0.5,0.8
	c-0.1,0.5,0,0.6,0.3,0.3c0.6-0.7,0.8,0.3,0.5,0.6c-0.4,0.5-0.3,1,0,1.1c0.8,0.1,1.8,3.4,2.3,3.8c1.1,1.4,0.3,0,1.6,1.2
	c0.3,0.3,0.4-0.3,1.1-0.5c0.2,0,0.5-0.2,0.3,0c0,0.2,0,0.3-0.3,0.5c-0.4,0.5,0.8,0,1.1,0.3c0,0,0.2,0,0.3-0.3
	c0.3-0.8,0.9,0.3,1.4,0.4c0,0,0,0,0,0.3c-0.3,0.5-0.4,0.6-0.3,0.8c0.2,0,0.3,0,0.5-0.2c0.3-0.2,0,0.3-0.1,0.8c0,0.3,0,0.3,0.3,0.3
	c0.3-0.2,0.5,0,0.6,0c0.2,0,0.6-0.3,0.5,0c0,0.3,0,0.3,0,0.3c0.3,0,0,0.5,0.3,0.1c0.4-0.3,0.3-0.5,0.9-0.7c0.2,0,0,0.3-0.1,0.5
	c0,0.2,0,0.5,0.2,0.5c0.3,0,0.3-0.2,0.6-0.5c0,0,0.2,0,0,0c0,0.3-0.6,1-0.4,1c0.5,0,0.9-0.4,1.2-0.1c0.2,0,0.6-0.3,0.5,0
	c-0.3,0.8,0.2,0.5,0.5,0.6c0.3,0.1,0.6-0.3,0.9,0l1,0.9c0,0,0.2,0.3,0,0.6c0.1-0.2,0.1-0.6,0.1-0.8c0,0,0.1-0.2,0.5,0
	c0.3,0,0.6,0,0.5,0.6l0,0.2c0,0,0.2,0,0.3,0c0,0,0.8,1.4,1.4,1.3c0.6,0,1.9,0.5,2,0.7c0,0,2.1,2.4,2,2.6c0,0.5,0.2,0.3,0.6,0.3
	c0.2,0.2,0.6,0,0.8,0.3c0.3,0,0.8,0.3,0.8,1.1c0.1,1.3-0.3,0.3,0.8,1.4c0.2,0.1,0.5,0,0.6,0c0.5,1.1,1.8-2,1.1,0.1
	c-0.1,0.3,1.1,0,0.6,0.6c-0.3,0.3-0.4,0.8-0.6,1.1L345.2,205.8z M325.6,117.7c0,0,0,0.2,0.3,0.3L325.6,117.7z M324.7,117.4l0-0.3
	C324.5,117.1,324.4,117.2,324.7,117.4z M324.8,120c0,0,0-0.2,0-0.3C324.1,119.4,324.3,119.8,324.8,120z M318.7,130.1
	c0,0,0.3-0.3,0.3-0.5C318.7,129.6,318.3,129.6,318.7,130.1z M318.8,131c0.4-1.1-1.4,0.2-2.3-0.5C314.9,130.5,317.8,132.1,318.8,131z
	 M314.8,131.2c0,0,0.2,0.1,0.3,0L314.8,131.2z M314.8,132.3l0-0.3C314.3,131,313.3,132.8,314.8,132.3z M306.6,149.3
	c0,0-0.3,0-0.3,0.3C306.5,149.6,306.6,149.6,306.6,149.3z M306.1,146.7c0,0,0.3,0.8,0.5,1.2l0.8,0c1.4,1.2,0.3-4.6,2.1-0.9
	c0,0,0.2-1.7,0.6-3C307.7,142,307.8,146.9,306.1,146.7z M305.1,150.3c0,0,0.3-0.3,0.4-0.8C305.3,149.8,305.1,150,305.1,150.3z
	 M303.3,153.2c0,0,0.3-0.3,0-0.5C303.2,152.7,303.2,153.1,303.3,153.2z M303.3,153.7c0,0-0.2-0.1-0.3,0
	C302.5,153.7,303,154.2,303.3,153.7z M300.1,148.3l-0.2,0C300,148.3,300.3,148.6,300.1,148.3z M299,149.5c0,0,0,0-0.3,0
	C298.7,149.8,299.1,149.9,299,149.5z M299.4,149.5c0,0,0,0-0.3-0.1C299.1,149.3,299.4,149.6,299.4,149.5z M298.5,163.5
	c0,0,0.3,0.1,0.6,0C299.3,162.7,299,162,298.5,163.5z M298.4,161.6c0,0,0.8-0.3,0.4-0.5C298.5,161,298.2,161.1,298.4,161.6z
	 M298,152.7c0,0,0.4-0.5,0.1-0.5C298,152.2,297.7,152.5,298,152.7z M298,152.8C298,152.8,298.2,153.1,298,152.8L298,152.8z
	 M251,126.2c0,0,0.1-0.3,0.1-0.5c0,0-0.5-0.4-0.6-0.4C250.2,125.3,250.5,126.2,251,126.2z M248.6,125.7c0,0,0.1-0.3,0-0.5
	C248.3,125.2,248.2,125.7,248.6,125.7z M246.7,120c0,0,0.4-1.3-0.1-1.9C246.6,118.4,246.5,119.2,246.7,120z M247,124.5
	c0,0,0.3,0.8,0.9,0.1C247.8,124.6,247.2,124.3,247,124.5z M246.9,128.1c0,0,0.2,0,0.1-0.2C246.9,128,246.9,128,246.9,128.1z
	 M243.8,117.3c0.1,1.7-0.6,0.5,0.1,2C242.2,122.8,247.8,123.8,243.8,117.3z M242.3,127.7c0,0-0.3-0.9-0.7-1.2
	C241.6,126.9,241.6,126.9,242.3,127.7z M242.7,127.7c0,0,0-0.3-0.3-0.5C242.4,127.5,242.6,127.5,242.7,127.7z M248.4,138.3
	C248.4,138.3,248.2,138.3,248.4,138.3L248.4,138.3z M252.1,140c0,0-2.1-3.2-4.4-6.1l-3.2-3.9c-0.8-1.1-1.5-2-1.6-2
	c0.7,1.5-0.8,0.3,0.7,2.6l-0.2,0c0,0,0,0,0.3,0c1.1,1.4,3.2,4.3,8.4,9.2L252.1,140z M253.6,141.5c0,0-0.3-0.6-0.8-0.9
	C253,141,253.3,141.3,253.6,141.5z M254.5,145.2c0,0-0.2-0.3-0.3,0C254.2,145.4,254.7,145.5,254.5,145.2z M254.7,138.3
	c0,0,0-0.2-0.2,0C254.5,138.3,254.5,138.6,254.7,138.3z M255.3,138.4c0,0,0.5,0,0.4-0.6l-0.8,0C255,137.8,255.1,138.3,255.3,138.4z
	 M256.4,145.4c0,0-0.5,0-0.4,0.3C256.2,145.8,256.2,145.6,256.4,145.4z M256.2,138.8c0,0,0.5,0.8,0.8,1.1
	C257.3,139.6,257.2,139.1,256.2,138.8z M259.4,152.5l-0.5,0C259,152.9,259.4,152.5,259.4,152.5z M259.4,151.7c0,0,0-0.8-0.6-0.8
	C258.4,151.3,258.8,151.5,259.4,151.7z M261,146.5c0,0-0.9-0.6-1-2.3C259.6,144.7,259.1,144.4,261,146.5z M260.7,142.3
	c0,0,0.3,0.8,0.7,0.9C261.8,142.7,261.3,142.2,260.7,142.3z M263.9,153.3c0,0-0.3,0-0.3,0.2C263.6,153.4,263.6,153.4,263.9,153.3z
	 M265.8,147.5c-0.5-1.4-2.7-1.3-2-0.7C265.6,148.5,266,148.1,265.8,147.5z M271.7,162.3c0,0-0.3-0.5-0.6-0.4
	C271,162.4,271.4,162.4,271.7,162.3z M273,160.1c0,0-0.6-0.8-0.7-1.2c-0.8,0-1.1-0.7-1.6-0.9c0.5,0.8,1.8,1.6,2.4,2.1L273,160.1z
	 M273.3,154.3c0.1,2.4,3.7,3,3,1.6C275.1,156.2,275,153.7,273.3,154.3z M273.4,156.6l0,0.3C273.6,156.8,273.4,156.6,273.4,156.6z
	 M275.4,166.4c0,0,0.3,0.3,0.5,0.3C276,166.4,275.8,166.4,275.4,166.4z M276.1,162.5c-0.8-1.2-1.3-1.4-2.4-1.9
	C273.8,161.3,275.5,162.5,276.1,162.5z M277.3,161.8c0,0-0.8-0.6-0.9-0.6C276.7,161.5,277,161.8,277.3,161.8z M277.6,157.7
	c0,0,0.8,0.6,1.4,0.6c-0.1-1.6-1.2-0.4-1.9-0.9c-0.3,0.5-0.6,0.3-0.9,0.7c1.7-0.1,1.4,0.3,1.6,1.2c0.3,0.1,0.6,0.3,0.9,0.4l0.2,0
	l0,0.3C279.7,160.9,280.3,160.5,277.6,157.7z M280.3,164c0,0-0.3-0.6-0.6-0.8l0.3,0.6c0,0,0.5,0.1,0.5,0L280.3,164z M280.7,160.7
	C280.7,160.7,281.6,160.6,280.7,160.7L280.7,160.7z M244,221.7c0,0,1.1-0.4,1.8-0.9C246.2,219.9,244.6,220.9,244,221.7z
	 M244.3,224.7c1.5-0.7,0.8,0.3,1.8-1C249.9,223.9,248.8,218.2,244.3,224.7z M250,214.4l-0.5,0c0,0-0.3,0.6-0.3,0.8
	C249.3,215.5,250.2,214.8,250,214.4z M249.7,217.8l0,0.9C250.2,218.4,250.3,218.1,249.7,217.8z M250.4,216.9l-0.5,0
	C250,217.2,250.6,217.2,250.4,216.9z M253.2,217.7c0,0-0.2,0-0.3,0C252.9,217.8,253.1,217.8,253.2,217.7z M261,205.7
	c0,0,0.6-0.7,0.7-1C261.4,204.6,261,204.8,261,205.7z M260,207.3c0,0,0.4-0.3,0.7-0.5c0-0.6-0.2-0.5-0.8-0.3L260,207.3z
	 M260.8,207.4c0,0-0.2,0,0,0.2C260.8,207.6,261.1,207.6,260.8,207.4z M253.8,222.2l0.3-0.3C254.1,221.9,254,222,253.8,222.2z
	 M254.3,222.2c0,0-0.6,0.7-0.9,1C253.9,223,253.9,223,254.3,222.2z M262.1,213.5C262.1,213.5,262.3,213.7,262.1,213.5L262.1,213.5z
	 M262.7,209.5c-0.9,0-8.3,11.5-8.4,12c1-1.1,0.6,0.6,2.1-1.5c0,0,0,0.2,0.2,0c0,0,0,0,0-0.3c1-1.5,2.7-4.4,6.3-10.5L262.7,209.5z
	 M263.9,207.8c0,0-0.6,0.5-0.7,1C263.6,208.4,263.7,208.1,263.9,207.8z M264.3,199.6c0,0-0.9,0.4-0.9,0.8
	C263.7,200.1,264.1,199.9,264.3,199.6z M267.2,206c0,0-0.1,0.3,0,0.3C267.3,206.4,267.5,205.7,267.2,206z M267.4,204.6
	c0,0-0.3-0.3-0.5-0.5C267.1,204.8,267,204.6,267.4,204.6z M267.2,199.3c-0.8,0-0.4,1.1-2.1,1.4C265.6,201.1,265.4,201.6,267.2,199.3
	z M267.6,194.2c-1.2,0.7-1,2.9-0.4,2.1C268.5,194.4,268.2,193.9,267.6,194.2z M272.5,200.3c0,0-0.8,0-0.6,0.7
	C272.3,201.3,272.3,200.8,272.5,200.3z M273.2,200.3c0,0,0,0.5,0.2,0.5C273.7,200.7,273.4,200.3,273.2,200.3z M273.5,195.6
	c0,0,0,0.3,0.2,0.3C273.7,195.9,273.7,195.9,273.5,195.6z M275,182.9c0.5,1.2-2.1,1.5-1.4,3C275.9,185.7,276.2,182.1,275,182.9z
	 M276.2,185.9l-0.3,0C276,185.9,276.2,185.9,276.2,185.9z M280,182.5c0,0,0.6-0.7,0.6-1.1C280.3,181.4,280,182.2,280,182.5z
	 M279.4,178.2C279.4,178.2,279.4,177.4,279.4,178.2L279.4,178.2z M279.3,186.2c0,0-0.6,0.7-1.2,0.8c0,0.8-0.6,1.1-0.7,1.6
	c0.7-0.7,1.5-1.8,1.7-2.4L279.3,186.2z M276.4,181.4c0,0,0.4-1,0.4-1.4c-1.5,0.2-0.3,1.3-0.7,1.9c0.5,0.3,0.5,0.6,0.7,0.9
	c-0.1-1.7,0.1-1.4,1.2-1.6c0-0.3,0.3-0.6,0.4-1l0.3,0l0-0.3c0.9-1,0.6-1.4-2.1,1.5L276.4,181.4z M281.5,187.3c0,0-0.4,0.3-0.4,0.6
	C281.3,188,281.5,187.7,281.5,187.3z M281.3,182.8c-1.2,0.8-1.3,1.3-1.7,2.4C280.3,185.2,281.3,183.3,281.3,182.8z M295.2,177.5
	c0,0,0.2,0,0.3,0C295.8,176.5,295,177,295.2,177.5z M294.2,174.7c0,0-0.8-0.6-1.4-1l0,0.3C292.7,174,293.8,174.5,294.2,174.7z
	 M293.6,176.7l0,0.3C293.6,177.1,293.6,176.9,293.6,176.7z M295.8,166.1c0,0,1.2-1.3,1.6-2.1C296.3,163.7,295.5,166,295.8,166.1z
	 M295.4,163.3c0,0,0-0.2,0-0.3C294.4,162.7,294.9,163.5,295.4,163.3z M294.6,164.3c0,0,0.6,0,0.3-0.5
	C294.9,163.6,294.5,163.8,294.6,164.3z M294.7,164.8l0.3,0C295,164.7,295,164.7,294.7,164.8z M293.7,159c0,0,1.4,0.3,0.5,0
	C293.8,159,293.7,159,293.7,159z M295.1,167.3c0,0-0.9-0.3-1.5,0.1C292.6,170.3,294.1,169.3,295.1,167.3z M293,161.2
	c0,0-0.2,0-0.3,0C292.4,161.2,293,161.7,293,161.2z M291.9,160.5C291.9,160.5,292.2,160.9,291.9,160.5L291.9,160.5z M291.1,166.8
	c0,0,0.2,0.1,0.3,0c0.6-0.5,1.1-1.9,1.4-2.6C292.5,164.5,291.2,166.5,291.1,166.8z M290.3,175.6c0,0-0.5,0-0.6,0.5
	C290.2,176.1,290.4,176.1,290.3,175.6z M284.6,164c0,0,0.3-0.3,0.1-0.5C284.8,163.5,284.5,163.6,284.6,164z M282.5,171.4
	c0,0,0,0.6,0.3,0.6c0,0,0-0.5-0.5-0.6L282.5,171.4z M282,173.7c0,0,0.2,0.3,0.5,0.1C282.4,173.8,282.1,173.5,282,173.7z
	 M282.6,178.3c0,0-0.6,0.3-0.6,0.8c0.2,0,0.5-0.2,0.6-0.3C282.8,178.5,282.8,178.3,282.6,178.3z M285.6,182.9c0,0-0.3,0-0.3,0.5
	C285.4,183.2,285.4,183.1,285.6,182.9z M291.3,175.6l-0.6,1c0,0,0.5,0.3,0.6,0.3C291.8,176.4,291.6,176,291.3,175.6z M294.6,179.2
	c0.3-1.1-1.9-2-2.1-1.6C293.2,178.3,293.9,178.8,294.6,179.2z M294.4,176.4c0,0,0,0.6,0.5,0.3C295,176.7,294.8,176.2,294.4,176.4z
	 M295.4,180c0,0-0.1,0.3,0,0.6C296.3,180.9,297,180.5,295.4,180z M297.2,174.5c0,0,0-0.2,0-0.3C297.2,173.9,296.8,174.6,297.2,174.5
	z M297.4,179.9c0,0,0.3,0.8,0.5,0.4C298.1,180,297.9,179.7,297.4,179.9z M298.1,173.6C298.1,173.6,297.7,173.9,298.1,173.6
	L298.1,173.6z M299.6,175.4c0,0-0.2,1.4,0,0.5C299.6,175.5,299.6,175.4,299.6,175.4z M305.9,179C305.9,179,305.6,179.2,305.9,179
	L305.9,179z M305.3,184.5c0,0-0.5,0,0,0.3C305.3,184.9,305.5,184.7,305.3,184.5z M306.1,184.8c0,0-0.3,0-0.5,0
	C305.6,185.2,306,185.1,306.1,184.8z M306.5,179.3c0,0-0.3-0.5-0.5-0.1C305.7,179.6,306.5,179.6,306.5,179.3z M309.1,180.1
	c0,0,0,0,0-0.3C308.8,179.8,308.7,180.3,309.1,180.1z M308.6,186.6c0,0,0.3,0.3,0.8,0.4C309.1,186.7,308.9,186.6,308.6,186.6z
	 M309.6,188c0,0-0.2-0.3-0.5-0.3C309.1,187.8,309.1,188,309.6,188z M309.3,180.1c0,0-0.3,0.3,0,0.3
	C309.3,180.4,309.3,180.4,309.3,180.1z M310.2,181c0,0-0.4,0.3,0,0.2L310.2,181z M312.2,187.1c0,0-0.8,0.3-1.2,0.7l0,0.8
	c-1,1.6,4.6,0.1,1,2.2c0,0,1.7,0.1,3.1,0.5c1.9-2.4-3-2.2-2.8-4.1L312.2,187.1z M326.8,195.3l0.3,0
	C328,194.8,326.3,193.8,326.8,195.3z M327.9,195.5l0-0.3C327.9,195.1,327.9,195.3,327.9,195.5z M328.7,197c-0.1-1.6-1.6,1.5-0.4,2.4
	C329.5,199.8,328,198,328.7,197z M329.8,199.6c0,0,0-0.8-0.5-0.3C329.3,199.6,329.6,199.6,329.8,199.6z M338.8,203.4
	C338.8,203.4,338.8,203.3,338.8,203.4L338.8,203.4z M339.5,204.8c0,0,0.2,0,0.3-0.2C340.1,204,339.8,204.2,339.5,204.8z
	 M341.8,205.5c0,0-0.1,0.2-0.1,0.3C341.7,205.8,342,205.5,341.8,205.5z M342.4,204.4c0,0-0.2-0.3-0.3,0L342.4,204.4z M342.7,204.4
	C342.7,204.4,342.7,204.5,342.7,204.4L342.7,204.4z M344.4,207.1l-0.2,0C344.2,207.1,344.5,207.1,344.4,207.1z M344,204.5
	c0,0-0.4,0.5-0.1,0.5l0.2,0C344,204.9,343.9,204.3,344,204.5z M240,122.6c0,0,0.5,1.1,1,1.7C241,123.8,240.7,122.7,240,122.6z
	 M323.8,189.2c0,0,0.2,0,0.3,0C324.1,189.2,324,189.2,323.8,189.2z M308.4,136.8c0,0,0,0,0-0.3C307.8,136.1,307.8,136.5,308.4,136.8
	z M249.9,226.9c0,0,0.5,0.3,0.6,0.3c0.6-0.2,0.4-0.6,0.3-1.1c-0.3,0.3-0.6,0.7-0.9,1L249.9,226.9z M308.9,134.3c0,0,0,0.2,0,0.3
	C308.9,134.6,308.9,134.4,308.9,134.3z M293.4,156.6C293.4,156.6,293.6,156.8,293.4,156.6L293.4,156.6z M308.5,132.4
	c0,0-0.3,0-0.5,0.2C308.1,132.9,308.7,132.6,308.5,132.4z M309.5,133c0,0-0.5-0.4-0.5-0.1c0,0,0.2,0.3,0.3,0.1L309.5,133z
	 M317.3,136.9l0,0.3C317.3,137.2,317.3,137.2,317.3,136.9z M317.6,136.4c0,0,0-0.3,0.1-0.5c1.1-0.4,0.5-1.8,1-2.2c0,0,0-0.3,0-0.6
	c-0.7,1.3-1.1,2.6-1.4,3.4c0,0,0,0,0.2,0L317.6,136.4z M315.6,139.9c0,0-0.4,0.6-0.6,1.1c0.9,0,1-1,1.1-1.9
	C315.9,139.5,315.6,139.6,315.6,139.9z M318.7,131.6c0,0,0,0,0,0.2L318.7,131.6z M327,117.3c0,0,0.5,0.4,0.5,0.3
	c0.1-0.3,0.4-0.5,0.3-1c0-0.3-0.5-0.4-0.5-0.4l-0.3,1L327,117.3z M251,224.8c0,0,0.7-1,1.2-1.5C251.7,223.4,251,224.4,251,224.8z
	 M324.9,114.7c0,0,0.5,0.4,0.5,0.1C325.3,114.8,324.9,114.5,324.9,114.7z M326.3,116.5c0,0,0.5,0.1,0-0.3
	C326.2,116.1,326,116.2,326.3,116.5z"/>
<path class="st0" d="M4.2,23c0,0,0-0.6,0.3-0.5c0.6,0,1.1,0.4,1.7,0.9c0.2,0.2,0,0.6-0.3,0.5L4.2,23z M4.7,24.2c0,0,0.2,0.5,0.5,0.3
	C5.5,24.4,5.2,23.9,4.7,24.2z M126.9,60.6c0,0,0.2,0,0.3,0c-0.5-0.3-0.8-0.4-1-0.6l-0.3,0.5c0,0,0.8,0,0.9,0L126.9,60.6z M42,49.8
	c0,0,0.2,0.5,0.6,0.4C43.3,50.2,42.2,49.5,42,49.8z M42.5,49l0-0.3c-0.5-0.1-0.3,0.5,0,0.5l0.2,0L42.5,49z M95.8,60.1
	C95.8,60.1,95.8,59.9,95.8,60.1L95.8,60.1z M44.8,49.2l0.3,0C45.1,49.1,44.6,49.2,44.8,49.2z M49,49.8c-0.3,0.8,0.7,0.8,0.3,0
	C49.3,49.7,49.2,49.8,49,49.8z M50.9,41.9c-0.7-1.1-2.4-1.1-3.9-1.2c0.8,0.4,1.4,0.7,1.7,0.5L50.9,41.9z M41.6,39c0,0-0.6,0-0.8-0.1
	c-1.3-1.2-3.1-0.6-4.3-1.2c-0.3-0.1-0.6,0-0.9,0c2.7,1,5,1.5,6.3,1.8c0,0,0-0.2-0.2-0.1L41.6,39z M117.3,61.6c0,0,0.6,0,1.1,0
	L117.3,61.6z M43,39.6c0,0-0.3,0-0.5,0L43,39.6z M245.8,11.3c-1,1.5-2.5,2.9-3.9,3.9c0.2,0.5,0.5,1.2,0.7,1.4l0.5,0.1
	c-0.1,0.2,0,0.6-0.4,0.8c0,0,0,0.3,0.2,0.5c1,0.6-0.2,1.9-0.2,2.2l-0.5,3c0,0-0.3,0.5-0.1,0.6c0.3,0.3,0,0.8,0,0.9
	c0,0-0.3,0.2,0,0.3l0,0.3c-0.3,0,0.5,0.9-0.6,0.5c-0.8-0.3-0.5-0.3-1.1-0.4l0.2,0l0-0.5c0,0-1.6-0.4-1.4-0.1c0.2,0.1,0,0.3,1.1,0.6
	l0.3,0c0,0,0.2,0.5,0.5,0.6c0.6,0.3,0.6,0.6,0.6,0.6c1,0.6-0.2,2.4-0.4,2.7c0,0-0.3,1.3,0.2,1.6c0,0,0,0.6-0.1,0.6c0,0,0,0.3,0,0.6
	c0.2,0.1-0.5,0-0.1,0.3c-0.1,0.3-0.6,0.2-0.9,0.7c0,0.3,0.2,0.5-0.4,0.6c0,0-0.1,0.6-0.1,0.8c0.2,1.7-1,2.9-1,2.9s-0.3,0.3,0,0.5
	c0,0-0.3,0.3-0.5,0.3c-0.2,0-0.2,0,0,0.3c0.2,0.2-0.8,0.5-1.1,0.5c-0.5,0-0.6,0-0.6,0c-0.2,0,0.3,0.1,0,0.3c0,0-0.2,0-0.3,0
	c-0.3,0-0.2-0.1-0.5-0.3l-0.3,0c0,0,0.2,0.3,0.8,0.4c-0.2,0-0.3,0-0.3,0l0.5,0.4c0,0-0.2,0,0,0.3c0.2,0,0.5,0.8,0.5,0.9
	c0,0.3,1,0.4-0.1,0.8c-0.2,0-1.1,0.7-0.6,0.8c0.6,0.3,0,0.2,0,0.3c0,0,0,0-0.3,0c-0.6,0-0.9,0-0.1,0.2c0.8,0.1,0.8,0.6,0.3,0.6
	c0,0,0,1.1-1,1.1l-0.2,0c0,0.2-0.3,0.3-0.3,0.5c0,0,0,0-0.5,0l-0.2,0c0,0-0.2,0-1.3-0.4c0,0-0.6-0.3-0.8-0.1c-0.3,0,0.5,0.4,1.1,0.6
	c0.3,0,0.3,0.1,0.3,0.3c0,0-0.3,0,0,0.3c0,0,0.3,0,0.5,0c0.8,0.1,0.3,0.3,0,0.5c0.2,0-0.6,0.7-1.2,0.7c-0.3,0-0.8-0.3-1.3-0.4
	c-0.3-0.1-0.5,0-0.6,0c0,0,0.2,0,0.5,0.1c0.3,0,0.3,0.3,0.3,0.3l-0.7,1c0,0,0.2,0,0,0.2c0,0-0.3,0-0.6,0c-0.6-0.3-0.8-0.1-1.1-0.4
	c0,0,0,0,0.3,0c0.3,0,0.8,0.3,0.8,0.3l0-0.2c0,0-0.3-0.1-0.5-0.1c-0.5,0-0.9-0.3-0.9-0.3s0,0-0.3,0c-0.3,0-0.3,0,0,0
	c0.5,0.3,0,0.2,0,0.3c-0.2,0-0.2,0,0,0s0,0.2,0.5,0.3c0.3,0,0.2,0,0-0.2c0,0,0.5,0,0.2,0c0,0,0,0,0.2,0c0.5,0.3,0.6,0.3,1.1,0.4
	c0,0,0.2,0,0.3,0c0.3,0,0,0,0.3,0.3c0.3,0,0.8,0.3,0.8,0.3s-0.3,0-0.6-0.1c-0.3,0-0.5,0-0.3,0c0,0,0.6,0.3,0.5,0.1
	c-0.8,0-0.5,0,0,0.3c0.5,0.1-0.5,0-0.2,0c0,0,0.2,0,0,0c-0.9,0-0.3,0.2,0,0.3c0.5,0.1-1.1-0.3-1.1-0.3s0,0,0.2,0
	c0.5,0,0.5,0.1,0.5,0.3c0,0,0.5,0.3,0,0.3c-0.2,0-0.5,0,0,0.2c0.3,0,0.6,0.3,0.5,0.3c-0.3,0-0.6,0-0.3,0c0,0,0.5,0.3,0.3,0.3
	c0,0-0.5,0-0.3,0c0.2,0.1,0.5,0.3,0,0.3c-0.3,0,0,0.2,0.3,0.3c0.2,0.2,0.2,0.3-0.1,0.2c0,0-0.5,0-0.3,0.2c0.3,0.1-0.3,0,0,0.2
	c0,0-0.3,0.3,0.5,0.6c0,0,1.1-0.8,1-1.6c0,0,0.4-0.6,0-0.9c-0.8-0.3-0.6-0.4-0.3-0.3l0.6,0c0,0-0.2-0.6,0-0.6c0,0,0.1-0.3,0.1-0.5
	c-0.6-0.3,0.3-0.5,0-0.8c0.2,0,0-0.5,0-0.6c0,0,0-0.2-0.5-0.3l0.3,0c0,0,0.3,0,0.8,0c0.5,0,0.3,0.3,0.2,0.3c-0.3,0,0.3,0.3,0,0.5
	c0,0,0,1.1,0.1,1.3c0,0-0.3,0,0,0.8c0,0,0.6,0.1,0.5,0.3c-0.5,0-0.8-0.1-0.8,0c0,0.3-0.1,0.6,0,0.8l0.3,0c0,0-0.3,0-0.3,0.2
	c-0.7,1.1,0.1,2.5-1,3.3c0,0-0.2,0,0.2,0.3c0.3,0.1,0.3,0.3,0.3,0.5c0,0,0,0-0.3,0c1,0.4-0.6,0.8-0.9,0.4c0,0,0,0-0.2-0.1
	c-0.3,0.2-0.8,0-0.8,0c0-0.3-0.6-0.4,0.1-0.5c0.2,0,0-0.3,0.3-0.3c0.2,0-0.3-0.3,0-0.5c0.3,0-0.3-0.3-0.2-0.6c0,0,0,0,0-0.2
	c-0.3-0.3,0-0.3-0.6-0.6c0.5,1.1,0.1,1.7,0.1,1.9c0,0-0.1,0.2-0.5,0c-0.6-0.1-0.9,0-0.3,0c1,0.4,0,0.3-0.6,0c0,0-0.2,0-0.3-0.1
	c-0.6,0-0.5-0.3-1.1-0.4c-0.3,0-0.8-0.3-1.3-0.4c-0.5-0.1-0.3,0-0.8-0.1c-0.2,0-0.2,0-0.5,0c-0.2,0-0.5-0.1-0.8-0.3l-0.3,0
	c-0.2,0-0.6-0.1-0.6-0.4c0,0-0.3-0.3-0.2-0.3c0,0,0.3,0,0.2,0s-0.5-0.3-0.3-0.3c0.2,0,0.3-0.2-0.3-0.3c-0.3,0-0.5-0.1-0.6,0
	c0,0,0,0-0.2,0c0,0-0.3,0-0.3-0.1c-0.2,0-0.5,0-0.6-0.1c-0.2-0.8-0.5-0.9-0.8-0.9c0,0,0-0.2,0.3,0l1.7,0.4c-0.2,0-0.3,0-0.6-0.1
	c0,0-0.3,0-0.5,0c-0.6-0.1-0.6-0.3-0.6-0.4c0,0,0.6,0,1.3,0.3c0.2,0,0.5,0.1,0.5,0.1c0.2,0,0.6,0.1,0.9,0.1c0,0-0.3-0.1-0.6-0.3
	c-0.3,0-0.3,0-0.6-0.1c-0.2,0-0.3,0-0.6-0.3c-0.6-0.3-0.5-0.4-0.2-0.5l0.2,0c0,0-0.3-0.3,0.3-0.2l0.2,0c0,0,0.5,0.1,0.8,0.3l0.3,0
	c0,0,0.8,0.3,1.3,0.4c0.6,0.1,0.5,0,0.3,0c-0.5-0.1-0.9-0.3-1.3-0.6c-0.3-0.1-0.3,0-0.5,0s-0.5-0.1-0.6-0.3c-0.3-0.3,0-0.2,0.5-0.3
	c0,0,0.5,0,0.6,0.3c0.2,0,0.5,0.1,0.3,0c-0.3-0.1-0.2-0.3,0.1-0.2l0.3,0c0.3,0,0.2,0,0,0s-0.5-0.1-0.8-0.3c-0.3,0-0.6-0.3-0.2-0.2
	c1.1,0.1,2,0.1,0.8-0.3c-0.3,0-0.6-0.1-0.8-0.3c-0.2-0.1-0.2-0.3,0.5,0c0.3,0,0.8,0.3,0.8,0.1c0,0,0-0.2-0.5-0.3
	c-0.3,0-0.6,0-0.6-0.1c-0.3-0.3-0.5-0.4,0-0.5l0.9,0c0,0-0.3-0.3-0.5-0.3c-0.5,0-0.6-0.3-0.8-0.4c0.2,0,0,0,0-0.3c0,0,0,0,0-0.3
	c0-0.2,0-0.3,0.5-0.2c0.3,0,0.6,0,0.3,0c-0.8-0.4-0.6-0.4-0.2-0.5c0.6,0,0.8,0.3,0.8,0l-0.5-0.3c0,0-0.3-0.3,0-0.3l-0.2,0
	c0,0-0.2-0.5,0.6-0.3c0.3,0,0.3,0,0.2,0c-0.3-0.3-0.7-1.1,0-1.1c-0.5-0.3,0.1-0.5,0.3-0.8c0.3,0,0-0.6,0-0.8c0-0.2,0.5-0.3,0.3-0.5
	c0-0.6,2.4-1.1,1.8-1.5c0.3,0,0.5,0,0.6,0c0.3,0,0.6,0,0.3-0.5c-0.3-0.3,0.5-0.2,0.1-0.6l0-0.6c0,0-0.5-1.2-1.3-2
	c0.5-0.3,0-1.1,0.4-1.3c0.3,0,0-0.3,0.8-0.3c0.2,0,0.3,0,0.2,0c-0.2-0.3,0.4-0.8,0.6-1c0,0,0.8,0,0.8-0.2c0,0,1.1-0.4,0.4-1
	c0,0,0.3-0.2,0.5-0.2c0.2,0,0-0.2-0.3-0.5c-0.3-0.3,0.5,0,0.5,0c0-0.2,0-0.3-0.3-0.6c0,0,0,0,0.6,0c0.3,0,0.1-0.2,0.1-0.3
	c1.4,0.1,1.9-0.4,0.4-0.8c0-0.3,1.1-0.7,0.9-0.7c0,0-0.3-0.3-0.2-0.3c0.3,0-0.3-0.3,0-0.3c0.3,0,0.6,0,0.5,0c0,0-0.5-0.1-0.2,0
	c0.2,0,0.6,0,0.3-0.2c-0.3,0-0.3-0.3-0.5-0.3c-0.2-0.2-0.7-0.9,0-0.8c0.6,0.1,0.5,0,0.9,0.1c0.5,0.4,1.2,0.1,0.3-0.3
	c-0.3,0-0.3,0-0.6,0l-0.3,0c0,0,0-0.3,0.3,0c0.2,0,0.5,0,0.6,0c0.2,0,0,0,0,0s0.3,0,0.5,0c0.2,0-1-0.4-0.9-0.3c0,0,0,0,0,0.2
	c-0.5-0.1-1.1-0.9-0.3-0.8c0.3,0-0.2-0.3,0-0.3c0.5,0,0.3,0,0.1-0.3l-0.2,0c-1.4,0.8-3.2,1.4-4.4,2.9c-0.4,0.6-2.9,2-5,2.1
	c-1.4,0.1-2,0.6-3.2,1.2c-0.3,0.3-2.4,1.7-4.5,2.9c-2.3,1.4-4.6,2.4-5.2,2.4c-0.5,0-1.7,1-3,1.9c-1.2,0.8-2.4,1.8-2.6,2
	c-2,1.2-2.5-0.5-3.4,1.4c-0.6,1.6-6.8,3.8-8.2,4.3c-0.5,0.2-3,0-3.3,0.1c-0.9,0.7-1.7,0.7-2.6,0.6c-0.3,0-0.5,0-0.6,0.2
	c-0.4,0.5-0.9,0.7-1.4,1c-1.1,0.7-4.2,0-5.2,1c-0.6,0.7-1.1,0.7-1.7,0.9c-0.5,0-0.9,0.8-1.2,0.7c-0.6,0-1.3-0.3-1.6,0.1
	c-1.2,1.6-2.5-0.7-3.2,1.2c-0.3,0.6-1.2,0.7-1.9,0.2c-1.3-1-1.5,1-3,1.7c-0.6,0.2-0.9,0.7-1.4,0.1c0,0,0-0.3-0.2-0.3
	c-0.3-0.3-0.8-0.3-0.8,0.2c-0.2,1.7-2.1,1.5-3.8,1.4c-0.5,0-1.4,0.5-2.3,0.7l-0.9,0c0,0-0.5,0.3-0.6,0.2c-0.2,0-0.3,0-0.5,0.2
	c-0.6,0.8-1.7,0.7-2.6,0.4l-0.2,0c-0.8,0-3.4,0.2-3.9,0.8c-0.7,1.4-2.9,0.1-4.5,0.8c-2,0.7-4.5,0-3.3-0.6c2.1-1-3.7,0.6-5.9,0.4
	c-0.5,0-0.6,0.5-1.1,0.8c-0.6,0.3-1.4,0.5-2.2,0.6c-0.3,0-0.6,0-0.9-0.1l0.2,0c-3.8-0.5-6.4-1.1-5.1-0.1c-1.6,0.1-3.4,0.2-4.8,0.5
	l0.9,0.3l-1.1,0c0,0-2.8-0.8-5.9,0.4c-0.2,0-0.3,0-0.5-0.1c-0.3-0.1-0.9-0.3-1.4,0.1c-0.9,0.7-1.9-0.7-2.8,0.1
	c-0.4,0.5-1.4,0.1-2-0.4c-0.3,0-1.1-0.4-1.1,0c0,0,0.3,0.3,0.3,0.5c0,0.2,0,0.5-0.4,0.5c-1.4,0.1-5.3-1.5-6.3-0.8
	c-0.8,0.5-1.5,0.2-2.3-0.1c-0.5,0-1.2,0.1-1.7-0.2c-0.5-0.1-0.3-0.6-0.8-0.6c-0.5,0-1.1-0.3-1.6-0.6c-0.5-0.3-1.1,0.5-1.5,0.4
	c-0.3,0-0.6-0.1-0.9,0c-0.6,0.5-0.9,0-1.6,0.1c-0.3,0-0.6,0.3-1.4,0.2c-0.3,0-0.8,0-1.1,0.4c-1.2,0.8-3.4,1.4-4.2,0.2
	c-0.5-0.4-0.7-0.9-0.8-1.5c-0.9,0-3.6,0-3-1c0.3-0.5,0.1-1.1,0-1.1c-0.8,0-0.4,0.8-1.2,0.5c-0.2,0-0.8,0.3-0.9,0.5
	c-0.2,0,0,0.3,0,0.5c0,0.9-3.6,0.5-4.4-0.1c-0.2,0-1.1-0.6-1.7-0.5c-1.4,0.1-2.2-1.2-4.1-0.6c0,0,0,0.2,0,0.3c0,0.5-0.8,0.5-0.9,0
	c0-0.3,0.6-0.3,0.1-0.5c-0.5,0-0.8-0.3-1.1-0.7c-0.2-0.2-0.3-0.3-0.6,0c-1.7,0.9-3.6,0.5-4-0.1c-0.7-0.8-1.2,0.2-1.6-0.7
	c0-0.6-0.7-0.8-0.9-0.3c-0.4,0.8-1.6-0.1-1.3-0.7s-0.2-1.1-0.7-1.1c-1.4-0.1-5.8-3.7-6.9-4.2c-2.9-1.4-0.6,0-3.6-1.4
	c-0.8-0.3-0.6,0.5-1.4,0.5c-0.3,0-0.6,0.3-0.6,0c0-0.3,0-0.3,0.1-0.5c0.4-0.5-1.4-0.1-2-0.4c0,0-0.3,0-0.3,0.3
	c0,0.9-1.9-0.4-2.7-0.5c0,0,0-0.2,0-0.3c0.1-0.5,0.3-0.6,0-0.9c-0.5-0.1-0.5,0-0.8,0.2c-0.3,0.3-0.2-0.5-0.2-0.9
	c0-0.3-0.3-0.5-0.6-0.4c-0.3,0.2-0.6,0-0.9,0c-0.3-0.1-0.8,0.3-0.8,0c0-0.3,0-0.5-0.5-0.4c-0.5,0-0.3-0.5-0.8-0.3
	c-0.6,0.3-0.1,0.5-1.1,0.7c-0.3,0,0-0.3,0-0.6c0-0.2,0-0.5-0.6-0.6c-0.5,0-0.3,0-0.6,0.7l-0.3,0c0-0.3,0.3-1.1,0-1.1
	c-0.6,0-1.4,0.1-2,0.1c-0.3,0-0.8,0.3-0.8,0c0-0.9-0.6-0.6-1.3-0.7c-0.8-0.3-0.8,0.3-1.4,0.1c-0.8-0.4-1.4-0.7-2.2-1.2
	c-0.2-0.3-0.5-0.4-0.7-0.8c0,0,0,0-0.2,0c-0.1,0.2,0,0.8,0.2,0.9c0,0-0.1,0.2-0.8,0c-0.6-0.1-1.1-0.3-1.1-0.7c0,0,0-0.3-0.2-0.3
	c-0.2,0-0.3,0-0.5-0.1c0,0-0.2,0-0.3,0c-1.3-0.3-1.9-1.8-3-2.1c-0.9-0.1-3.5-1.3-3.6-1.4c0-0.2-4.7-3.7-4.7-4c0-0.6-0.5-0.6-1.1-0.7
	c-0.3-0.3-0.9-0.3-1.3-0.7c-0.6,0-1.4-0.7-1.8-1.6c-0.5-1.5,0.5-0.2-1.8-2c-0.3-0.3-0.8-0.1-1.1-0.4C2,26.7,1.1,30,1.4,27.7
	c0-0.5-1.7-0.4-1.1-1c0.3-0.3,0.4-0.8,0.6-1.3c0,0,0-0.3,0-0.5c0-0.2,0.1-0.3,0.3-0.3c0.5,0.3,0,0.2,0.6,0.4c0.3,0,0.4-0.6,0-0.8
	c-1.1-0.6-0.8,0-1.5-1.3c-0.2-0.5-0.5-2-0.1-2c0.3,0,3,1.3,3,1.4c0.3,0.6,1.1,0.3,0.8,1.2c-0.1,0.5-1.4,0.1-2,0.1
	c0.3,0.3,0.8,0.7,1.3,1c0,0,0,0-0.2,0c-0.9,0-0.3,0.6-0.7,0.8c-0.2,0-0.3,0.2-0.3,0.3c0,0.3,0.3,0,0.6,0c0,0,0.3,0.1,0,0.3
	c-0.3,0.3-0.6,0.3-0.4,0.6c0.3,0.9,0.8,1.2,2.4,0.7c0.3,0,0.1-0.3,0-0.5c0-0.5,0.1-0.3,0.6-0.5c0.5,0,0.1-0.5,0.6-0.7
	c0.8,0,0.5-0.3,0.9-0.5c0.5-0.2,0.5,0.6,1.1,0.7c0.6,0,0.3,0.6,1.4,0.6c0.9,0,1.4,0.2,1.6,0.6c0.3,0.5,0.2,0.9,0.8,0.7
	c0.9-0.5,1.8,1.6,2.6,2.1c1.3,0.6,4,1.7,6.5,3c2.5,1.3,5.1,2.6,5.9,3.8c0,0,0.3,0,0.5,0c1.6,1,3.6,1.1,3.1,0.3
	c0.2,0,0.5,0.1,0.6,0.4c0.2,0.6,0.6,0.4,1.3,0.7c0.5,0.3,0.7,1.4,1,0.9c-0.3,0.5,2.3,2.2,3.5,3c0.6-0.3,1.1,0.3,1.6,0.9
	c1.2-0.7,4.1,1.2,4.8,0.3c1.7,0.2,5,1,3.8,1.6l-1.4-0.2c0,0,0.5,0.9,0.7,1.4c-7.4-1.4,6.9,4.9,7.8,3.1c0.4-1,5.2-2.6,0.7-2.1
	c-1.6-0.2-3.1-0.6-4.7-1c0-0.2,0-0.3,0.1-0.5c1.1,0,1.1-0.4,1.9,0.2c1.4,0.6-0.5-0.6-0.4-1.5c0,0,0,0,0.2,0s0.5-0.3,0.6-0.2
	c0,0,0.3,0.3,0.6,0.4c-0.6-0.1-0.8,0,0.5,0.6c0.2,0,0.5,0,0.6,0.1c0.6,0.4,1.3,0.9,1.4,0.9c0.5,0,3.9,0.9,4,1.5c0,0.5,0.3,0.1,0.8,0
	c0.5,0.3,1.3,0.4,1.7,0.5c0-0.6,1.6,0.6,1.8-0.6c-2.1-1-2.2,0.4-3-0.3c0.3-0.3,0.4-0.5,0.9-0.5c0.6,0,1.4,0.2,2,0.5l0,0.3l2.4,0.8
	l1.1,0.7c1.1,0,9.2,1,13.9,1.4c0.6,0.1,1.3,0.3,1.7,0.2c0.8,0.1,1.4,0.2,1.7,0.2c5.7,1.5,6.3,1,9.2,1.3c0.5,0,3.7,0.1,4.4,0.9
	c0.3,0.5,0.3,0.9,0.8,0.9c0.8,0,6.2-0.7,6.8-0.8c1.5-0.4,5.1,0.1,6.7,0.3c1.4,0.1,2-0.9,3.1,0.3c0.9-0.5,1.1-0.7,2.2-0.6
	c0.3,0,4-0.2,7.9-0.4c3.9-0.3,7.6-0.8,7.7-1c3.8-2.8,3-2.2,12.7-2.3c-0.2,0,1.9-0.2,4-0.8l4.3-0.8c0,0,4.6-1.5,8.8-2.7
	c4.1-1.4,8.3-2.9,8.6-2.9c0.6,0.1,1.5-0.5,2.1-0.9c0.5-0.3,2-0.9,4.1-1.4l7.2-2.2c2.6-0.9,5.2-2,7.4-2.8c2.1-1,3.8-2.1,4.6-2.7
	c1.5-0.9-0.3,0.3,7-3c2-0.9,3.8-2.8,5.9-2.9c0.9-1.5,13.6-9.5,15-10.5c1.1-0.7,3.1,0.2,2.3-0.9c-0.3-0.5,0.4-0.8,0.9-1.1
	c0.6-0.5,0.6-0.8,1.2-0.7c0.3,0,0.6,0.1,0.9,0c0-0.2,0-0.5,0-0.5c-0.3,0.2,0.3-0.3,0-0.2c0,0-0.3,0,0-0.2c0.3-0.3,0.6-0.7,0.8-0.7
	l0.3,0c0,0,0-0.3,0-0.2c-0.3,0.3-0.3,0.3-0.3,0.5c0,0,0,0.3,0.3,0.1c0,0,1.1-0.4,1.7-0.5c0.3-0.3,0.4-0.5-0.3,0
	c-0.3,0,0.3-0.3,0.4-0.5c0.1-0.2,0,0-0.3,0.2l-0.5,0.3l0.4-0.5c0,0,0,0,0.3-0.3c0.1-0.2,0.3-0.2,0.5-0.3c0.5-0.3,0.6-0.5,1-1l0.5,0
	c0,0-0.2,0,0,0l0.3,0c0,0,0-0.3,0.1-0.6c-0.3-0.1-0.6-0.4-0.6-0.6c-1.2,0.5-1.5,1-1.4,1.2l-0.3,0c0,0-0.5,0.2-0.8,0.3
	c-0.6,0.7-0.9,1-1,1.3l-0.2,0c0,0,0,0,0-0.2c0.1-0.2,0.4-0.5,0.3-0.3c0,0,0.3-0.3,0.3-0.6c0.4-1,0-0.3-0.3,0.3
	c-0.2,0-0.3,0.2-0.4,0.5l0,0.3c0,0-0.7,0.8-1,1.1c-0.6,0.5-1.4,1-1.2,0.8c-0.3,0.3-0.6,0.7,0,0c0.1-0.2,0.3-0.3,0.3-0.5
	c0.3-0.5,0-0.2,0-0.2s0,0,0-0.3c0.4-0.6,0.7-1.3,0.6-1.1l-0.4,0.6c-0.6,1-0.6,1.1-0.7,1.1l-0.3,0.6c0,0-0.3,0.3-0.3,0.2
	c0,0-0.4,0.8-0.6,0.8c0.3-0.3,0-0.2,0,0c-0.1,0.3-0.3,0.3,0-0.5c0.3-0.8,0-0.5,0,0c0,0-0.1,0.8,0,0c0-0.5-0.3,0.3-0.6,0.3
	c-0.7,0.8-0.6,0-0.8-0.1c0,0-0.5-0.6-0.5-0.8c0-0.2,0.1-0.3,0.3-0.5c0.1-0.5-0.3-0.6-0.3,0.5l0-0.6c0,0-0.3,0-0.3,0.3
	c0-0.6,0-0.6,0-0.9l0,0.3c0,0,0,0.3,0,0.6c0,0.2,0,0.3,0,0.3s0-0.3-0.2-0.2c0,0-0.2,0-0.4,0.5c0,0.2-0.9,1-0.9,0.8
	c0-0.3,0-0.2-0.2,0c0,0-0.4,0.5-0.5,0.2c0-0.3-0.3,0-0.5,0c0,0-0.9,0.4-1.9,0.1l-0.5-1.2l-0.3,1.1l-0.2,0l0-0.5c0.4-1.7,0-0.9-0.6,0
	c-0.2,0-0.3,0-0.5,0c-0.4,0.5-0.5,0-0.8,0c-0.5,0-0.8,0.5-1.1,0.5c0-0.3-0.3,0.3-0.3,0c0-0.3-0.3-0.3-0.5-0.3l-0.6,0
	c0-0.6-1.1-0.9-1.3-0.7c-0.2,0-0.9,0-1.6,0.1c0-0.8-0.1-1.6,0.2-2.5l-0.2,0l0-0.6c0,0-0.1,0.2-0.3,0.6c0,0-0.3,0-0.5,0
	c0,0-0.3,0-0.6,0c0-0.8,0-0.8,0-1.1c0-0.2-0.3,0.5-0.4,0.8c-0.2-0.1-0.5,0.3-0.3,0.6c-0.1,0.6-0.3,1.1-0.3,1.4
	c-0.2,0-0.3-0.1-0.5-0.1c-0.2,0-0.6,0-0.8-0.3c0-0.2-0.6-0.1-0.6,0l-1.3-0.3l0.4-0.6c0,0-0.5-0.8-0.5-1.2c0,0.6-0.1,1.3-0.2,1.7
	l-0.3,0c0,0,0.4-1.1-0.2-0.6l0,0.5l-0.8,0c0,0-1.1,0.2-1.1-0.7c0-0.3,0-0.5-0.2-0.5c0,0.2-0.3,0-0.5,0c0,0,0.1-0.2,0.3-0.5
	c0.4-0.8-0.4-1.1-1.1-1c0-0.2-0.2-0.3-0.2-0.5l0-0.2c-0.2,0,0,0,0-0.3c0,0,0-0.3,0,0c0,0.5-0.1,0.5,0,0.8c0,0.6,0,1.1-0.4,0.6
	c0,0-0.2-0.6-0.3-0.6c0,0,0-0.2,0,0c0,0-0.1,0.2,0,0.9c0,0-0.1,0.5-0.4,0.6c0,0,0-0.6,0-0.3c-0.1,0.5-0.3,0-0.2-0.3
	c0-0.8-0.4,0.8-0.3-0.3c0-0.2,0.1-0.6,0.1-0.5c0,0.2,0,0,0.2,0c0-0.6,0-0.6,0-0.5c-0.3,0.5,0,0-0.3,0.6c0,0.2,0,0,0-0.3L201.3,8
	c0.1-1.3,0.2-2.7-0.1-2.5c0,0-0.3,0.6-0.3,1.3c0,0,0,0-0.2,0l0-0.3l0.2-2.2c0,0,0-0.8,0.1-1.3c0-0.2,0-0.2,0,0c0,0.3,0,0.6,0,0.8
	c0,0.5,0.5,0,0.3-0.3c0-0.3,0-0.2,0-0.8c0-0.5,0.3-0.8,0.3-0.8c0.3,0,0.3,0,0.1,1.4c-0.2-0.6-0.4,1.7,0,0.3c0-0.3,0-0.6,0.3-1.1
	c0,0,0-0.2,0-0.3c0-0.3,0-0.6,0.1-0.6c0,0,0,0.3,0.2,0.1c0,0,0.1-0.3,0.2,0c0,0.2,0.3,0,0.3,0s0.3,0.1,0.3,0.3c0,0-0.1,0.8,0,0.8
	c0,0,0.1-0.8,0.3-0.3c0,0.3,0,0,0.3-0.5c0.1-0.6,0.6-0.5,0.6,0c0,0.2,0,0,0.2,0c0,0-0.3,0.6-0.4,0.8c0,0.5,0,0.5,0.2,0.5
	c0,0.3,0,0.3,0,0c0,0-0.6,0.3-1.1,0.4c0,0,0.3-1.3,0-0.5c0,0,0,0.3-0.1,0.5c-0.2,0-0.5,0-0.6,0c-0.3,0.6-0.1,2.4,0.7,1.2
	c0.5,0.9,1-1.1,1.1,0.7c0.3,0,0.6,0,0.9-0.5c0.2-1.9-0.3-0.6-0.9-1.8c0.4-1,0.4-0.8,0.4-1.4c0.2,0,0.5,0.3,0.6,0.1l0,0.8
	c0,0,0,0,0.1-0.2c0.3-1,0.8-0.7,0.8-0.2c0,0.3,0,0.9,0,0.5c0.1-0.5,0.1-0.6,0.3-1c0.3-0.5,1.1-0.5,0.8,0.7c0,0,0.2,0.3,0.3-0.3
	c0-0.8,0.8-0.5,0.9,0c0,0.2,0,0,0-0.2c0,0,0,0,0,0.5c0,0.6,0.3,0,0.3,0.3c0,0.2,0.2,0,0.3-0.3c0,0,0.3-0.5,0.5-0.3
	c0.2,0.5,0.6-0.5,0.7,0.8c0,0,0.2,0,0.1-0.2l0-0.3c0-1.1,0.9,0.3,1.4-0.4c0,0,0.5-0.2,0.8,0c0.2,0,0.8-0.7,0.9-0.2l0.6,0.4
	c0,0,0.3-0.3,0.6,0.1c-0.2,0-0.4,0.5,0,0.8c0,0.3,0,0.3,0,0.3s0,0,0-0.3c0-0.3,0-0.3,0-0.3s0,0.6,0,0.8c0,0.2,0,0.3,0.3,0
	c0-0.2,0,0.3,0.3,0c0.3-1,0.6,0,0.6,0.6c0,0,0,0-0.2,0c0,0-0.3,1.1-0.3,1l0.1-0.5c0,0,0,0.3,0,0c0,0,0.1-0.3,0.1-0.6
	c0-0.3,0.1-0.5,0.3-0.3c0,0,0,0.3,0,0.5c0,0.2-0.1,0.3-0.1,0.6c0,0.9,0.5,0.4,0.5-0.2c0-0.5,0.1-0.2,0.3-0.8c0-0.2,0-0.2,0.3,0
	c0,0.8,0.2,1.4,0.4,1.1c0,0.3,0.2,0,0.3-0.2c0-0.3,0,0,0,0.3c0,0.3,0,0,0.3-0.3c0.1-0.5,0,0.3,0.3,0c0,0,0,0.2,0,0.3
	c0,0.2,1-1,1.2-0.5c0,0.3,0.3,0.3,0.5,0c0.3-1.3,0.1-0.3,0.3,0c0,0,0.3,0.3,0.3,0c0-0.5,0.3-0.6,0.3-0.5c0,0.3,0.2,0.3,0.3,0.5
	c0,0,0.1-0.8,0.3-0.5c0,0.5,0,0.6,0.3,0.5c0,0,0.3-0.5,0.5-0.3c0.2,0.8,0.6-0.3,0.9,0l0.6-0.5c0,0,0.1,1.3-0.4,1.3
	c0.7,0.8,1.1-0.4,1.2-1.5c0.2,0,0.3,0,0.3,0s0,0,0.2,0c0.3-0.6,0.4-0.5,0.6-0.7c0.4-0.5,1,0.4,1.4,0.1c0.4,1.1,0.8,1.7,1.2,2
	l0.5,0.3c0,0,0.5-0.3,0.6,0c0.2,0.6,0.3,0.1,0.6,0c0,0,0.3-0.2,0.4-0.5c0,0.9,2.6-1.2,3.4-0.8c0.3,0.1,0.8,0,1.1,0
	c0,0,0.6,0.4,1,0.4c0.3,0,1.2-0.2,1.1,0.3c0.9-0.5,1.4,0.2,1.3,0.7c0,0,0,0.2,0.3,0c0.6-0.5,0.8-0.3,0.8,0c0,0,0.6,0,0.3,0.5
	L239.5,6c0,0,0.3,0,0.9-0.4c0.5-0.3,0.6-0.2,0,0.5c-0.1,0.3,0,0,0.3,0c0.5-0.3,0.8-0.2,0.8,0c0,0.5,0.2,0.5,0.2,0.5
	c0,0.2,0,0.3,0.2,0.3c0,0,0.3,0,0.2,0c0,0.2,0,0.5-0.4,0.6c-0.2,0-0.6,0.5-0.4,0.5l1.1,0c0,0,0.5,0,0.3,0.3c1.7-0.7,0.6,0,1.7,0.9
	c3.1,2.4,2.6,3.6,1.6,5.1L245.8,11.3z M200,7.1C200,7.1,200,6.8,200,7.1L200,7.1z M200.4,5.7c0,0-0.5,0-0.4,0.5
	C200.1,6.2,200.3,6,200.4,5.7z M201.4,5.7c0,0-0.2,0-0.1,0.3C201.2,6,201.4,6,201.4,5.7z M202.9,5.9c0,0,0,0-0.1,0.3l0,0.3
	C202.8,6.5,202.8,6.1,202.9,5.9z M203.7,5.9l-0.5,0C203.2,5.9,203.2,6,203.7,5.9z M203.8,8.4c0,0-0.1,0.5,0,0.5
	C203.8,8.8,203.8,8.8,203.8,8.4z M206.3,0.4c0,0,0.1-0.6,0-0.3L206.3,0.4z M205.8,6.6l0,0.3c0,0-0.2,0-0.3,0c-0.1-1.9-0.7-2-1.3-1.4
	l0,0.6c0,0,0.3,0,0.6,0.3c0,0-0.2,0-0.3,0.3c1,1.5-0.6,1.4,0.8,1.7l0-0.8c0,0,0,0.5,0,0c0.3-1,0.3-1,0.1-0.9L205.8,6.6z M205.9,2.3
	c0,0,0,0-0.3,0.6C207.2,6.6,207.6-0.7,205.9,2.3z M206.7,8.1l0,0.3C206.9,8.4,206.7,7.8,206.7,8.1z M207.1,7.9
	C207.1,7.9,207.1,8.1,207.1,7.9C207,7.6,207,7.6,207.1,7.9z M207.2,7.3l0-0.3C207.2,7,207.2,7.4,207.2,7.3z M207.4,8.2l0,0.3
	L207.4,8.2z M207,0.1C207,0.1,207-0.1,207,0.1L207,0.1z M208,7.6c0,0,0,0.6,0,0.3C208,7.6,208,7.2,208,7.6z M208.5,8.3
	c0,0,0.1-0.3,0-0.2L208.5,8.3z M209,9.4c0,0-0.2-0.1-0.3-0.1C208.7,9.6,208.8,9.5,209,9.4z M209.1,8.6c0,0,0,0.9,0,0.6
	C209.1,8.4,209.5,7,209.1,8.6z M209.5,3.7L209,3.4l0,0.6C209.1,4.1,209.4,4,209.5,3.7z M213.6,8.4C213.6,8.4,213.6,8.2,213.6,8.4
	L213.6,8.4z M213.1,4.2l0,0.3C213.1,4.2,213.1,4.2,213.1,4.2z M211.4,6.6c0,0,0,0.2,0,0.3C211.5,6.9,211.5,6.5,211.4,6.6z M212.4,10
	c0,0,0.1-0.6,0.3-0.6c0.1-0.3-0.1-1.7-0.1-1.3c0,0.3,0,0.2,0,0c0-0.2,0-0.2-0.2,0c0,0.3,0-0.2-0.2,0c0,0,0-0.2,0,0
	c0,0.3,0,0.5-0.1,0.6c-0.1,0.5,0,1.1,0,0.8c0,0.3,0.2,0,0.3-0.5c0,0,0,0,0.1-0.5c0-0.2,0,0,0,0.2c-0.3,1.3-0.1,1.1,0.1,1.3
	c0,0,0,0,0-0.2L212.4,10z M213.5,10.3C213.3,11.2,213.8,10.4,213.5,10.3L213.5,10.3z M213.5,8.9l0-0.3L213.5,8.9
	c0,0-0.3,0.2-0.4,0.5c0,0,0-0.5,0-0.9c0,0,0,0.5-0.1,0.5c0,0-0.3,0.6-0.4,1.3c0,0.3,0,0,0,0.2c0,0.3,0.2,0.5,0.3-0.2
	c0.1-0.5,0,0,0,0.5c0,0.2,0,0,0,0s0-0.5,0.1-0.9c0.7,1.1,0.4-0.8,0.3-1L213.5,8.9z M213.4,7.8c0,0-0.1,0.5,0,0.6
	C213.5,8.4,213.7,7.9,213.4,7.8z M214.9,10.7c0-0.8,0-0.8-0.5-0.4C214.5,10.7,214.6,10.7,214.9,10.7z M214.7,5.2c0,0,0,0.5,0,0.3
	C214.7,5.2,214.7,5.1,214.7,5.2z M215.3,7.1c0,0,0-0.2-0.2,0C215.1,7.4,215.1,7.5,215.3,7.1z M215.7,5.5l0-0.8
	C215.6,4.7,215.2,6.3,215.7,5.5z M216.5,3.2c0,0-0.2,0-0.3,0C216.2,3.6,216.4,3.7,216.5,3.2z M219.8,3.1c0,0-0.2-0.5-0.3-0.3
	c-0.2,0,0,0.3-0.2,0C219,3.4,219.5,3.6,219.8,3.1z M218.8,2.7c0,0,0,0,0-0.2L218.8,2.7z M218.6,4.3c0,0,0-0.6,0-0.5
	C218.3,4.1,218.5,5.5,218.6,4.3z M217,4l0-0.3L217,4z M217.5,5.6l0-0.5c0,0-0.6,1.1-0.6,1.6C217.1,6.7,217.2,6.2,217.5,5.6z
	 M217.9,6.6c-0.1-1.7-0.7,0.8-0.1,0.6C217.8,7.3,217.9,6.9,217.9,6.6z M218.5,11c0-0.8-0.5-0.6-0.3,0.6L218.5,11z M219.8,8.7
	c1-2.1-0.9,0.2-0.1-1.4c0-0.6-0.1-1.3-0.1-1.7c1-2.9,1.1-3.8-0.2-1.6l-1.6,2c0,0,0.3,0.5,0.3,0.6c0,0.2-0.3,0.6-0.3,1.3
	c0.1-0.5,0.3-1,0.6,0.4c0.2,0,0.3,0.3,0.5,1.4c0,0-0.1,0.4-0.4,1.1c0,0,1,0.6,0.9-0.4c0-0.5,0.1-0.5,0.3-0.8
	C219.9,9.2,219.9,9.2,219.8,8.7z M220.8,6.7c0,0,0-0.3-0.3,0C220.6,7.1,220.7,7,220.8,6.7z M220.7,3.7C220.7,3.7,221,3.2,220.7,3.7
	L220.7,3.7z M222.2,4.4l0-0.2C222.1,4.2,222.2,4.6,222.2,4.4z M222,3.6c0,0,0,0-0.1,0.2C221.7,4.3,222.3,4.1,222,3.6z M221.2,4
	l0,0.3C221.5,4.3,221.6,2.4,221.2,4z M222.3,7.2c0-0.9-0.6-0.4-0.8-0.1C221.7,7.6,222,7.5,222.3,7.2z M222,11.8l0,0.3
	c0,0,0,0.3,0,0.5C222,11.9,222,11.8,222,11.8z M222.3,10.8c0,0,0,0.3,0,0.5c0,0,0,0,0,0.5c0,0.6,0,0.3,0,0c0-0.3,0-0.8,0.1-0.9
	C222.8,9.5,222.1,10.2,222.3,10.8z M222.3,3.8C222.3,3.5,222.3,3.5,222.3,3.8L222.3,3.8z M222.9,3.7l0-0.3c0,0,0,0.3,0,0.5l-0.3,0.8
	c0,1.1,1.1-0.5,0.4-0.8L222.9,3.7z M223.4,3.7l-0.3,0.6c0,0,0,0.9,0,0.2c0-0.5,0.1-1.1,0-0.8L223.4,3.7z M224.1,10l0,0.2L224.1,10z
	 M226,6.9c0,0,0-0.8-0.3-0.5C225.7,6.6,226,8.1,226,6.9z M226.6,7.2c0,0,0-1.1-0.5-0.3C226.2,7,226.5,7.2,226.6,7.2z M226.6,2.5
	c-0.7-2-0.3,0.3-0.9,1.9C225.9,4.5,226.8,3.1,226.6,2.5z M227.2,10.6c0,0,0,0.6,0.2,0C227.4,10.3,227.4,10.3,227.2,10.6z M228.5,7.7
	c0,0,0,0.2,0.5-0.3L228.5,7.7z M229.5,8.6L228.4,8C228.4,8,228.8,10.8,229.5,8.6z M229.5,9.6c0,0,0,0.2,0,0.3L229.5,9.6z M230.8,9.5
	c0,0,0,0-0.3,0.2C230.2,10.2,230.6,9.7,230.8,9.5z M231.6,8.2c0,0-0.6,0.7-0.3,0.5C231.4,8.7,231.6,8.4,231.6,8.2z M232.5,7.2
	l-0.2-0.3C231.8,8,232.2,7.7,232.5,7.2z M0.6,23.3l-0.3,0C0.3,23.3,0.5,23.3,0.6,23.3z M4.1,27.7C4.1,27.7,4.1,27.6,4.1,27.7
	L4.1,27.7z M5,27.8c0,0-0.5-0.1-0.5,0C4.6,28.2,5,28.3,5,27.8z M5.3,26.4c0,0-0.5,0.2-0.1,0.3C5.1,26.7,5.4,26.7,5.3,26.4z
	 M9.1,28.4c0,0-0.3,0-0.5,0C8.5,29.1,9.1,29.2,9.1,28.4z M10.7,30.6C10.7,30.6,10.7,30.7,10.7,30.6L10.7,30.6z M28.6,38.2
	c0,0-0.6-0.4-1-0.4C28,38.2,28.3,38.7,28.6,38.2z M30,38.3c-2.1-0.7,1.3,1.7,0.9,2.8C31.9,43.1,32.6,39.6,30,38.3z M33.2,43l0,0.3
	C33.2,43.3,33.3,43,33.2,43z M35.1,43.2c0,0-0.5,0-0.6,0C33.4,43.8,36.8,45,35.1,43.2z M66.8,51.4L66,50.6c0.7-1.9-7.3,0.5-3-2.2
	c0,0-3,0.1-5.3-0.2c-1.1,3,6.8,1.9,7.8,4c0.6,0,0.9-0.5,1.5-0.9L66.8,51.4z M70.1,51.2c0,0-0.3-0.3-0.9-0.3
	C69.5,51.1,69.6,51.2,70.1,51.2z M72,52.2c0,0-0.9-0.3-1.6-0.2C71.2,52.3,71.5,52.4,72,52.2z M73.8,58.1
	C73.8,58.1,74.2,57.9,73.8,58.1L73.8,58.1z M76.1,58.6c0,0,0,0,0,0.3C76.5,58.9,76.3,58.6,76.1,58.6z M76.8,58.9c0,0,0,0.2,0,0.3
	C77.4,59.2,77.1,58.6,76.8,58.9z M78.3,53.2c0,0-0.8-0.1-0.6,0.3C77.8,53.5,78.3,53.5,78.3,53.2z M79,53.2l0,0.3
	C79.7,53.8,79.8,53.3,79,53.2z M82.7,59.1c0,0-1.2-0.1-0.9,0C81.9,59.3,82.7,59.4,82.7,59.1z M83.2,59.1
	C83.2,59.1,83.3,58.9,83.2,59.1L83.2,59.1z M96.1,54.9c0,0-1.3-0.6-1.2-0.1C94.8,55.1,95.3,55.4,96.1,54.9z M96.6,59.6
	c0,0,0.3,0.5,0.6,0.4C98.3,59.5,96.2,58.7,96.6,59.6z M98,53.4c-1.6,0.1-2,0.9,0.8,0.4C99.3,53.5,98.8,53.5,98,53.4z M101.4,60.8
	c0,0,0,0,0.2,0C101.7,60.8,101.7,60.3,101.4,60.8z M101.4,59.5c0,0,0,0.3,0.2,0.3C101.9,60.1,101.8,59.2,101.4,59.5z M101.6,56.2
	c0,0-0.5,0-0.5,0.2C101.8,57.5,102.3,56.5,101.6,56.2z M103.9,56.3c0,0-0.6-0.6-0.9,0C103,56.5,103.3,56.8,103.9,56.3z M104.7,56.1
	l0-0.5C104.6,55.6,104.2,56,104.7,56.1z M105.5,54.5c-1.7-0.2-3.1-0.3-4.8-0.4C101.5,55.1,105.7,54.8,105.5,54.5z M112.1,58.1
	c0,0,0-0.3-0.5-0.3c-1.3-0.3-4.2,0.2-5.4,0.2c0.6,0,5.3,0.1,5.9-0.1L112.1,58.1z M108.2,54.4c0,0,0.7,0.9,2.1,1.2
	C115.8,54.5,112.5,53.9,108.2,54.4z M118.1,54.5c-2.6,0.1-2,0.4-3.4,0.5C113.1,56,117.4,55.2,118.1,54.5z M126.9,53.1
	c0,0-0.8-0.4-1.2-0.1C125.9,53.3,126,53.3,126.9,53.1z M132.8,59.8c0,0,0,0.5,0.3,0.5C133.5,60.3,133.4,59.8,132.8,59.8z
	 M138.2,49.7c0,0,0,0-0.2,0C138,49.7,138,49.7,138.2,49.7z M140.6,55.9l-1.1,0c0,0-0.8,0-0.6,0c0.8,0.1,1.2-0.1,1.9-0.1L140.6,55.9z
	 M142.7,58.1C142.7,58.1,141.6,59,142.7,58.1L142.7,58.1z M142.4,50c0,0-0.8,0-0.9,0.2C141.6,50.5,142.1,50.2,142.4,50z M146.4,53
	c2.6-0.1,3.4-0.5,5.6-1.2C151,51.5,147.1,52.6,146.4,53z M145.7,54.4c0,0,1.9-0.2,2.2-0.6C146.9,53.9,146.1,53.9,145.7,54.4z
	 M152.2,55.4c-2.3,1.5-2.1,1.2-3.7,0.9c-0.6,0.2-1.2,0.5-1.8,0.6c0,0-0.3,0-0.5,0l-0.3,0c-2.2,0.1-2.4,1.1,5-0.2
	c-0.8,0.7-1.8,0.6-2.6,1.1c2.4,0.5,2.1-0.9,3.7-1.4c0-0.5,0.3-0.8,0.3-1.1L152.2,55.4z M153.5,48.4c0,0-0.9,0-1.2,0.4
	C153.1,49.1,153.2,48.7,153.5,48.4z M153.6,51.1c0.8,0,1.7-0.1,2.5-0.1c0.9-0.7,2.1-0.7,2.9-1.2c-1.7,0.1-4.2,1-5.5,1.3L153.6,51.1z
	 M157.3,52.9l0.3,0.3C157.6,53.1,157.4,52.9,157.3,52.9z M161,54c-3.5-0.8-8.8,2.4-6,2.3C156.1,55,159.9,56,161,54z M173.2,43.9
	c0,0-0.3,0,0,0.3C173.5,43.9,173.4,43.9,173.2,43.9z M179.9,39.5c0,0,1.2-0.1,1.5-0.5C181.2,38.5,180.5,39,179.9,39.5z M179,39.4
	c0,0,0.6-0.5,0.3-0.5C178.6,39,178.6,39.4,179,39.4z M182.5,45.7c-4.1,1.8-4.3,2.2-3,2.2C182.1,47.4,184.2,45,182.5,45.7z
	 M191.9,36.6c0,0,0.3-0.5-0.2-0.6C191.7,36.3,191.7,36.5,191.9,36.6z M190.2,41.3c0,0,0.6-1.1-4.3,1C187,42.5,187.7,41.2,190.2,41.3
	z M192.6,42.1c0,0-1.5,0.4-2,0.7C190.8,43.4,192.2,42.7,192.6,42.1z M194,34c0,0-0.9,0.7-0.3,0.5C193.8,34.5,194.1,34.2,194,34z
	 M221.3,51.9C221.3,51.9,221.5,51.9,221.3,51.9L221.3,51.9z M222,53.3c0,0-0.8-0.1-1.1-0.3c-1.4-0.6-1.9-0.5,0,0
	c0.3,0,0.3,0.1,0.5,0.1c0.3,0,0.5,0,0.5,0L222,53.3z M222.2,51.9c0,0-1.7-0.4-1.1-0.1l0.9,0.3c0,0,0.2,0,0,0L222.2,51.9z M223,52.5
	l-0.2,0C222.9,52.5,222.9,52.5,223,52.5z M223.1,53.4C223.1,53.4,222.9,53.4,223.1,53.4L223.1,53.4z M226.6,43.2c0,0,0.5,0,0.1-0.3
	C226.7,42.9,226.4,43.1,226.6,43.2z M226.4,50l-0.6,0c0,0,0.6,0,1.3,0.3c0.2,0,0.5,0,0,0c-0.3-0.1,0.6,0,0,0c-0.2,0-0.9-0.3-0.8-0.1
	c0,0,0.3,0.1,0,0L226.4,50z M228.3,51.1c0,0-0.6-0.3-1.1-0.4c0,0,0,0,0.2,0.1C227.8,50.9,228.3,51.3,228.3,51.1c0,0-0.2-0.1,0-0.2
	L228.3,51.1z M227.4,51.3C227.4,51.3,228,51.5,227.4,51.3L227.4,51.3z M227.3,51C225.8,50.5,227.3,51,227.3,51L227.3,51z
	 M227.4,51.7c0,0,0.9,0.3,0.6,0.3C228,51.9,228,51.9,227.4,51.7z M225.4,52.5c0,0-0.5,0,0.2,0.3c0.9,0.3,0.6,0,0.2,0l-0.3,0
	L225.4,52.5z M225.8,52.2l-0.2,0C225.7,52.2,226.2,52.3,225.8,52.2z M227,53.7c0,0,0.5,0,0-0.3l-1.1,0c0,0-0.8-0.1-0.5,0
	c0.3,0.1,0.6,0.1,0.9,0.1c0.2,0,0.8,0.3,0.6,0.3c-0.3,0-0.3,0-0.3,0s0.5,0.1,0.6,0.1l0-0.3L227,53.7z M225.4,52.7l-0.3,0L225.4,52.7
	z M226.1,51.1c0,0,0,0-0.3-0.3C225.5,50.8,225.8,50.8,226.1,51.1z M225.8,50.2c0,0-0.2,0-0.5-0.1C224.5,49.9,225.3,50.2,225.8,50.2z
	 M226.5,48.7c0,0-0.3-0.1-0.5-0.3l-0.5,0c-1.4-0.6,0-0.2-0.3,0c0,0,1.4,0.6,1.3,0.4L226.5,48.7z M226.2,47l-0.2,0
	C225.1,46.7,226.4,47,226.2,47z M224.8,45.3l0-0.3C224.8,45,224.8,45.2,224.8,45.3z M224.7,46.5c0,0,0.2,0,0-0.2
	C224.7,46.3,224.7,46.3,224.7,46.5z M224.4,47.2c0,0,2.7,1.1,2,0.5c0.2,0,0,0,0,0l-0.3-0.3c0,0-1.2,0.1-1.1-0.7
	c-0.5-0.1-0.3,0.3-0.6,0.7L224.4,47.2z M224.2,50.7c0,0,0.4-0.5,0.3-1.1C224.3,49.6,223.6,50.4,224.2,50.7z M222.6,45.8l-0.2,0
	L222.6,45.8z M222.8,50.8c0,0,0.3-0.3,0-0.6C222.3,50.2,222.2,50.5,222.8,50.8z M223,54.4c0,0-0.3,0,0.5,0.3
	C224.1,54.9,223.4,54.5,223,54.4z M224,53.4c0,0,0.8,0.3,1.3,0.6c0.5,0,0.6,0.1,0.8,0.3c0.3,0.3,1,0.4,0.6,0.3
	c-0.5-0.3,0.3-0.2-0.6-0.3l-0.3,0c0,0-0.3-0.3-0.8-0.4c-0.3,0-0.3-0.1,0,0c0.3,0,0,0,0,0c-0.2,0-0.9-0.3-1.1-0.3c-0.3,0-0.6,0,0,0.2
	L224,53.4z M226.7,54.7l-0.2,0C227,54.8,227,54.7,226.7,54.7z M226.7,55.3c0,0-0.8-0.3-0.9-0.3c0,0,0,0,0.2,0c0.3,0,0.9,0.3,0.9,0.3
	S226.9,55.3,226.7,55.3z M224.1,54.5c0,0,0.3,0.1,0.5,0.1l-0.5,0L224.1,54.5z M226.6,55.5c0,0-0.5-0.1-1.1-0.4l-0.2,0
	c0,0-0.3-0.1-0.5-0.3l-0.2,0c0,0-0.6-0.3-0.9-0.3c0.5,0.3,0.3,0.3,0.8,0.4c1.2,0.1,0.3,0.1,1.1,0.6c0.2,0,0.3,0,0.3,0
	c0.2,0,0.5,0,0.6,0.1c0.3,0,0.3,0,0,0L226.6,55.5z M226.9,52.6c0,0,0.2,0.1,0.3,0.1C227.4,52.8,227.1,52.6,226.9,52.6z M227.7,52.6
	c0,0,0-0.5-0.3-0.8c0,0-0.3,0-0.6-0.1l-0.5,0c0,0-0.6-0.3-0.5-0.4c-0.5-0.3,0.9,0-0.2-0.5l-0.3,0c0,0,0,0-0.3,0c-0.3,0-0.3,0,0,0.2
	l0.2,0c0,0,0.3,0.3,0,0.3c-0.3,0-1.1-0.3-0.5,0l0.2,0c0,0-0.1,0.2-0.1,0.3l0.5,0c0,0,0.6,0.3,1.1,0.6c-0.3,0-0.6-0.1-0.6,0
	c-0.3,0-0.5-0.1-0.6-0.3c0,0-0.2,0,0,0c0.9,0.3,0,0.2,1.4,0.6c0.8,0.3,0,0,0.8,0l0.3,0L227.7,52.6z M228.5,53.5c0,0,0.5,0,0.2,0
	C228.5,53.5,228.4,53.5,228.5,53.5z M226,48.4c-0.8-0.1-0.9-0.1-0.6,0l0.5,0.3c0,0,0.3,0,0.6,0c0.2,0,0.8,0.3,1,0.4c0,0,0,0-0.6,0
	c-0.5,0-0.6-0.1-0.9-0.3c-0.6-0.3-0.6,0-0.6,0s0.3,0,0.6,0.1c0,0,1.6,0.9,1,0.6c-0.2,0-0.3,0-0.6-0.1c-0.6-0.1-0.9-0.1-0.5,0l0.5,0
	c0,0,0.8,0.3,0.8,0.4c0,0-0.8,0-0.3,0l0.3,0c0,0-0.8,0-0.5,0c0.2,0,0.2,0.1,0.3,0.3c0,0,1,0.4,1.1,0.4c0,0,0.3,0,0-0.2
	c-0.2,0-0.5-0.3-0.3-0.1c0.8,0-0.5-0.4,0-0.5c0,0,0,0,0-0.2c-0.2-0.1,0.2,0,0.3,0c0.3,0-0.3-0.5-0.6-0.6c-0.8,0-1.3-0.4-1.7-0.5
	L226,48.4z M228.7,32c0,0,0.6-0.5,0-0.6c0.2,0.1,0,0,0,0.2C228.7,31.5,228.4,31.9,228.7,32z M228.8,33.1l-0.2,0
	C228.6,33.1,229.3,33.5,228.8,33.1z M228.8,33.7c0,0,0,0-0.3-0.1C227.1,33.2,228.5,33.9,228.8,33.7z M228.4,34.5l0.2,0
	C228.5,34.5,228.5,34.5,228.4,34.5z M228,33.9c0,0-0.3,0-0.2,0C228.2,34.4,228.7,33.9,228,33.9z M228.1,34.5
	C228.1,34.5,228.2,34.5,228.1,34.5C227.9,34.6,227.8,34.6,228.1,34.5z M227.4,34.7c0,0,0,0,0.3,0.1l0.2,0
	C227.9,34.9,227.6,34.9,227.4,34.7z M227.2,39c0,0,0.9,0.3-0.3-0.6C226.5,38.5,226.4,38.4,227.2,39z M227.8,47.1c0,0-0.2,0,0.3,0.1
	C228.4,47.2,228.1,47.2,227.8,47.1z M227.4,47.4c0,0-0.5,0-0.6-0.1C226.7,47.3,227.7,47.6,227.4,47.4z M227.8,47.4
	C227.8,47.4,227.2,47.4,227.8,47.4C228.8,47.7,228.4,47.4,227.8,47.4z M228.3,35.5l-0.6,0c0,0,0.3,0,0.8,0.1c0.8,0.1,0.3,0,0-0.2
	L228.3,35.5z M229.3,37.3c-0.4,1.1-0.4,0.5-0.4,1.6C229.3,38.9,229.8,37.9,229.3,37.3z M229.6,46.4l-0.3,0
	C229.5,46.5,230.1,46.5,229.6,46.4z M230.4,29.7l-0.3,0C230,29.8,230,29.8,230.4,29.7z M237.9,23.8l-0.3,0
	C237.6,23.8,238.2,23.9,237.9,23.8z M238.1,22C238.1,22,238.3,22,238.1,22C238,22,237.8,22,238.1,22z M237.4,22.8c0,0,0,0,0.3,0.1
	C238,23,237.7,22.8,237.4,22.8z M237.3,21.6C237.3,21.6,237.2,21.6,237.3,21.6c0,0,0.2,0,0.3,0c0.2,0,0,0-0.2-0.1L237.3,21.6z
	 M236.6,27.3c0.9,0.1,0-0.2,0.9,0c0.6,0,0-0.3-0.6-0.4c-0.2,0-0.3,0-0.6-0.1c-0.3,0,0,0,0,0c-0.2,0,0.3,0.3,0,0.2
	c-0.3,0-0.3,0,0,0.2c0,0,0.2,0,0,0c-0.5,0,0.8,0.7,1,0.7c0,0,0.3,0,0.8,0.1l0.2,0c0-0.2,0-0.3-1.1-0.7c-0.3,0-0.3,0,0,0L236.6,27.3z
	 M235.7,34.8c0,0-0.3,0.2-0.1,0.5C235.7,35.3,235.9,35.1,235.7,34.8z M232.3,42.2C232.1,42.2,232.1,42.2,232.3,42.2L232.3,42.2z
	 M227.5,14l0.6-0.3C228.1,13.7,227.4,14,227.5,14z M229.3,11.9l-0.5,0.3l0.3,0l0-0.3L229.3,11.9z M230.4,10.9l0.8-0.3l0.5-0.3
	c0,0-0.5,0.3-0.3,0c0.3-0.2,0.8-0.7,0-0.3c-0.5,0.3-0.8,0.7-1,1L230.4,10.9z M239.3,11.8l0.5-0.3l-0.3,0c0,0-0.8,0-0.6,0.2l0.5,0
	L239.3,11.8z M235.3,6.6C235.3,6.6,235.6,6.5,235.3,6.6L235.3,6.6z M231.9,10.5l0.5,0l0-0.5C232.3,10.1,232,10.4,231.9,10.5z
	 M229.7,13.2l0.8-0.3C230.4,12.8,230,13,229.7,13.2z M229.7,12.8c0,0-0.3,0-1.1,0.4l-0.5,0.3c0,0,0.2,0,0.8-0.3l0.2,0c0,0-0.3,0,0,0
	c0,0,0,0,0.2,0c0.3,0,0.3,0,0.5-0.2L229.7,12.8z M239.2,6.6c0,0,0.3-0.6,0.6-0.8c0,0-0.5,0.2-0.4,0.8L239.2,6.6z M238.9,4.1
	c0,0,0.6-0.7,0-0.6C238.8,4,238.3,4.5,238.9,4.1z M236.7,3.1C236.7,3.1,237.2,2.6,236.7,3.1L236.7,3.1z M235,6.6c0,0,0,0,0.2,0
	c0.3-0.2,0.6-0.5,0.4-0.5c-0.5,0,0.9-0.8-0.5,0l-0.2,0l0,0.3L235,6.6z M234.2,6.4C234.2,6.4,233.9,6.5,234.2,6.4L234.2,6.4z
	 M233.7,5.8C233.7,5.8,234.8,5.1,233.7,5.8L233.7,5.8z M232.5,9c0,0,0.6-0.5,0.9-0.8l0-0.3l-0.5,0.3c0,0-1,1-0.6,0.8L232.5,9z
	 M232.1,9c0,0,0.4-0.6-0.5,0C231.4,9.5,231.2,9.6,232.1,9z M227.8,13.4c0,0,0.5-0.3,1.2-0.7c0.2,0,0.3-0.2,0.5-0.3l-0.2,0l-0.3,0
	c0,0-0.6,0.8-0.9,1.1L227.8,13.4z M225.4,14.6c0.9-0.7,1.4-1,2-1.5C226.6,13.5,226.6,13.5,225.4,14.6z M225.4,15.2
	c0,0,0.5-0.3,0.6-0.5C225.5,14.9,225.4,15.1,225.4,15.2z M207,25.9C207,25.9,207,25.8,207,25.9L207,25.9z M201.7,29.1c0,0,0,0,0.2,0
	C201.9,29.1,201.9,29.1,201.7,29.1z M200.7,36.1l-2.1,1C198.6,37.1,199.7,37.2,200.7,36.1z M200.9,31.9c-0.9,0.4-1.5,0.7-2,1
	C199.5,32.7,200.1,32.4,200.9,31.9z M203.6,34.4l-1.5,0.5c0,0-0.1,0.6,0.8,0.4l0.7-1.1L203.6,34.4z M203.1,33.8c0,0-0.5,0-0.3,0.2
	C203.1,33.9,203.3,33.8,203.1,33.8z M221.3,18.5c2-1.7,3.3-2.8,3.5-3c-2.4,1.7-0.3-0.8-4.1,2.1c0,0,0-0.2-0.2-0.1
	c0,0-0.1,0.2-0.1,0.3c-2.6,1.8-7.4,6-18.3,13c0.3,0,1.8-0.7,4.1-1.9c2.3-1.2,5-3.2,7.7-4.9C216.7,22,219.4,20.2,221.3,18.5z
	 M223.5,21.1c0,0,0-0.2-0.3-0.1C223.1,21,223.3,21.1,223.5,21.1z M226.6,24.3c0,0-1.5,0.5-1.8,1.2c0,0,0.6,0,0.8,0
	C225.5,25.4,226.4,24.6,226.6,24.3z M226.9,21.9c0,0-0.6-0.4-0.6,0C226.3,22.2,226.8,21.9,226.9,21.9z M227,23.8
	C227,23.8,226.8,23.9,227,23.8L227,23.8z M228.1,20.4c0,0,0.7-1.3,0.6-1.3C227.9,19.7,227.2,20.2,228.1,20.4z M231.8,42.7
	c0,0-0.3,0,0,0.2C232.5,43.1,232.6,42.8,231.8,42.7z M232.8,43.7l-0.3,0L232.8,43.7z M235.1,38c0,0-0.3,0-0.3-0.1c0,0-0.3,0-0.5-0.1
	c-0.5-0.4-1.4,0.1,0,0c0.2,0,0.6,0.1,0.9,0.3c0.3,0,0.6,0,0,0L235.1,38z M235.8,38.1c0,0,0-0.2-0.5-0.3l-0.3,0c0,0,0,0,0.6,0.3
	L235.8,38.1z M235.8,28.9C235.8,28.9,235.9,28.9,235.8,28.9L235.8,28.9z M235.9,28.5l-0.3,0C235.6,28.6,235.6,28.6,235.9,28.5z
	 M236.7,28.8l-0.3,0c0,0,0,0,0.2,0L236.7,28.8z M237.3,29.3C237.3,29.3,238.3,29.4,237.3,29.3L237.3,29.3z M237.6,28.9
	c0,0-1-0.4-0.3-0.3c0.6,0.1,0.5,0,0.3-0.2c0,0,0.3,0,0,0c-0.6-0.1-1.4-0.4-1.3-0.3l-0.5,0c0.5,0.1,1,0.4,0.8,0.4l1.3,0.6L237.6,28.9
	z M236.8,26.6c0,0,0.3,0.1,0.5,0.3c0.3,0.1,0.6,0,0.6,0s0,0-0.5-0.3C237.1,26.6,236.8,26.6,236.8,26.6z M237.4,24.4
	c-1.6-0.1-0.2,0,0.5,0.4C238.2,24.8,237.6,24.4,237.4,24.4z M238.2,22.6c0,0,0,0-0.2-0.1c-0.2,0,0,0,0,0l0.3,0L238.2,22.6z
	 M238.1,20.5c0,0-0.5-0.4-0.5-0.3c0,0-0.2,0,0,0.2l-0.2,0c0,0,0,0.2,1,0.4c0.3,0,0,0,0-0.2L238.1,20.5z M0.4,25.7c0,0,0,0.6,0.2,0.6
	c0.3,0,0.4-0.5,0-0.6c0,0-0.2,0-0.3,0L0.4,25.7z M31.1,37.8l-0.2,0c0,0,0,0,0.3,0L31.1,37.8z M196.3,8.1c0,0,0.3-0.6,0.4-0.6
	c0,0,0,0,0-0.3c-0.2,0-0.5,0-0.6,0l0,0.3c0,0,0,0.8,0,0.6L196.3,8.1z M196.8,5.4c0,0,0,0,0-0.2c0,0,0,0,0-0.3c0,0.2-0.3,0.3-0.4,0.5
	l0,0.3l0.5,0.3C196.9,6,196.8,5.7,196.8,5.4z M197.4,0.3l0,0.3L197.4,0.3z M222.8,54.7l0.2,0c0.9,0.3,1.1,0.3,0,0c0,0-0.2,0,0,0
	L222.8,54.7z M217.5,5.4C217.5,5.4,217.8,4.3,217.5,5.4L217.5,5.4z M236.5,27.4l0.3,0C236.3,27.3,236.3,27.4,236.5,27.4z M210.8,8.7
	C210.8,8.7,210.8,8.1,210.8,8.7L210.8,8.7z M224.2,53.1c0,0-0.5-0.1-0.2,0L224.2,53.1z M200.2,7.7l0,0.3
	C200.2,8.1,200.3,7.6,200.2,7.7z M225.8,51.6c0,0,0.3,0,0.2,0C225.8,51.6,225.7,51.6,225.8,51.6z M241.7,17c0,0,0,0-0.2,0
	C241.3,17,241.5,17,241.7,17z M200.6,9.5c0,0,0,0.5,0,0.2C200.6,9.5,200.6,9.1,200.6,9.5z M228.5,56.5c0,0,0,0,0.2,0
	C228.7,56.5,228.7,56.5,228.5,56.5z M232.3,46c0,0,0.8,0.1,0.5,0C232.7,45.9,232.3,45.8,232.3,46z M226.8,11.6c0,0,0.1-0.2,0.3-0.5
	C227.1,11.1,226.8,11.4,226.8,11.6z M208.4,10l0-0.3c0,0,0,0-0.2-0.1c-0.3,0.8,0,1.1,0.2,0.6L208.4,10z M232,8.2l0.5-0.3
	c0,0-0.2,0-0.3,0l0,0.3c0,0-0.5,0.3-0.7,0.8c-0.2,0-0.6,0.3-0.9,0.5c0.3,0,0.6,0,0.8,0c0,0,0,0.2,0,0l0.3,0c0,0,0.7-1,0.7-0.8
	c0,0,0.5-0.3,0.8-0.7l-0.3,0L232,8.8c0,0,0,0-0.2,0c0,0,0.1-0.3,0.4-0.5L232,8.2z"/>
</svg>
