<svg width="20" height="16" viewBox="0 0 20 16" fill="none" xmlns="http://www.w3.org/2000/svg">
<path d="M19 0H1C0.734784 0 0.48043 0.105357 0.292893 0.292893C0.105357 0.48043 0 0.734784 0 1V15C0 15.2652 0.105357 15.5196 0.292893 15.7071C0.48043 15.8946 0.734784 16 1 16H19C19.2652 16 19.5196 15.8946 19.7071 15.7071C19.8946 15.5196 20 15.2652 20 15V1C20 0.734784 19.8946 0.48043 19.7071 0.292893C19.5196 0.105357 19.2652 0 19 0ZM6 14C6 12.9391 5.57857 11.9217 4.82843 11.1716C4.07828 10.4214 3.06087 10 2 10V6C3.06087 6 4.07828 5.57857 4.82843 4.82843C5.57857 4.07828 6 3.06087 6 2H14C14 3.06087 14.4214 4.07828 15.1716 4.82843C15.9217 5.57857 16.9391 6 18 6V10C16.9391 10 15.9217 10.4214 15.1716 11.1716C14.4214 11.9217 14 12.9391 14 14H6ZM10 5C9.40666 5 8.82664 5.17595 8.33329 5.50559C7.83994 5.83524 7.45542 6.30377 7.22836 6.85195C7.0013 7.40013 6.94189 8.00333 7.05764 8.58527C7.1734 9.16721 7.45912 9.70176 7.87868 10.1213C8.29824 10.5409 8.83279 10.8266 9.41473 10.9424C9.99667 11.0581 10.5999 10.9987 11.1481 10.7716C11.6962 10.5446 12.1648 10.1601 12.4944 9.66671C12.8241 9.17336 13 8.59334 13 8C13 7.20435 12.6839 6.44129 12.1213 5.87868C11.5587 5.31607 10.7956 5 10 5Z" fill="#E55608"/>
</svg>
