<svg width="56" height="56" viewBox="0 0 56 56" fill="none" xmlns="http://www.w3.org/2000/svg">
<path fill-rule="evenodd" clip-rule="evenodd" d="M27.9999 6.99998C16.4019 6.99998 6.99992 16.402 6.99992 28C6.99992 39.598 16.4019 49 27.9999 49C39.598 49 48.9999 39.598 48.9999 28C48.9999 16.402 39.598 6.99998 27.9999 6.99998ZM2.33325 28C2.33325 13.8247 13.8246 2.33331 27.9999 2.33331C42.1752 2.33331 53.6666 13.8247 53.6666 28C53.6666 42.1752 42.1752 53.6666 27.9999 53.6666C13.8246 53.6666 2.33325 42.1752 2.33325 28Z" fill="#E55608"/>
<path fill-rule="evenodd" clip-rule="evenodd" d="M25.6667 14.4948C21.8833 15.3483 18.6667 18.2336 18.6667 22.2834C18.6667 24.8311 20.066 26.6796 21.7685 27.9013C23.4179 29.085 25.506 29.814 27.4699 30.2722C29.0741 30.6467 30.4958 31.1969 31.4611 31.8829C32.3919 32.544 32.6667 33.1415 32.6667 33.7167C32.6667 35.1657 31.0413 37.1 28.0001 37.1C24.9588 37.1 23.3334 35.1657 23.3334 33.7167H18.6667C18.6667 37.7664 21.8833 40.6518 25.6667 41.5054V44.3334H30.3334V41.5054C34.1169 40.6518 37.3334 37.7664 37.3334 33.7167C37.3334 31.1346 35.8583 29.2822 34.164 28.0784C32.5043 26.8994 30.426 26.17 28.5302 25.7278C26.8378 25.3328 25.4259 24.7821 24.4893 24.1101C23.6059 23.4762 23.3334 22.8928 23.3334 22.2834C23.3334 20.8343 24.9588 18.9 28.0001 18.9C31.0413 18.9 32.6667 20.8343 32.6667 22.2834H37.3334C37.3334 18.2336 34.1169 15.3483 30.3334 14.4948V11.6667H25.6667V14.4948Z" fill="#E55608"/>
</svg>
