<svg width="100" height="318" viewBox="0 0 100 318" fill="none" xmlns="http://www.w3.org/2000/svg">
<path d="M61.2977 6.5452C61.2977 6.5452 60.4958 6.41755 60.6316 6.84744C60.5024 7.6434 61.0068 8.33609 61.4789 9.22779C61.647 9.45869 62.2806 9.35542 62.1448 8.92553L61.2977 6.5452ZM62.8043 7.39744C62.8043 7.39744 63.3733 7.69219 63.1082 8.05825C62.8431 8.42432 62.3064 7.93059 62.8043 7.39744ZM91.2468 170.334C91.2468 170.334 91.2145 170.533 91.1821 170.732C90.8782 170.071 90.7424 169.642 90.5742 169.411L91.2402 169.108C91.2402 169.108 91.0786 170.103 91.0463 170.302L91.2468 170.334ZM90.1527 59.3149C90.1527 59.3149 90.7217 59.6097 90.6248 60.2066C90.4955 61.0026 89.7195 59.4501 90.1527 59.3149ZM89.0535 59.7523L88.6526 59.6885C88.5491 59.0596 89.3186 59.3863 89.254 59.7842L89.2216 59.9832L89.0535 59.7523ZM95.3046 130.153C95.3046 130.153 95.1041 130.121 95.3046 130.153V130.153ZM88.9696 62.801L88.905 63.199C88.7046 63.1671 89.002 62.602 88.9696 62.801ZM89.0994 68.3333C90.1663 68.0949 89.9724 69.2888 89.0348 68.7313C88.8343 68.6994 89.0671 68.5323 89.0994 68.3333ZM78.6245 69.5235C77.3507 68.5041 77.5057 66.2833 77.6284 64.2615C78.0682 65.3522 78.3397 66.212 78.0747 66.5781L78.6245 69.5235ZM76.3217 57.1129C76.3217 57.1129 76.451 56.317 76.2829 56.0861C74.9378 54.2388 75.927 51.9467 75.3514 50.4261C75.2156 49.9962 75.4806 49.6302 75.5453 49.2322C76.399 52.8384 76.7161 55.9509 76.8585 57.6066C76.8585 57.6066 76.658 57.5747 76.6903 57.3757L76.3217 57.1129ZM94.0521 158.125C94.0521 158.125 93.9229 158.921 93.8259 159.517L94.0521 158.125ZM76.8327 59.0315C76.8327 59.0315 76.8973 58.6335 76.9296 58.4345L76.8327 59.0315ZM10.0113 316.014C12.0416 314.908 14.1688 313.205 15.6624 311.606C16.2314 311.901 17.169 312.458 17.3371 312.689L17.4406 313.318C17.6734 313.151 18.2425 313.446 18.5399 312.881C18.5399 312.881 18.9407 312.944 19.1089 313.175C19.7168 314.497 21.5789 313.16 21.9798 313.224L25.9175 313.034C25.9175 313.034 26.5835 312.732 26.7517 312.963C27.0879 313.425 27.754 313.123 27.9544 313.155C27.9544 313.155 28.2195 312.788 28.3553 313.218L28.7562 313.282C28.8208 312.884 29.8619 314.071 29.4868 312.582C29.2475 311.523 29.1829 311.921 29.1117 311.093L29.0794 311.292L28.478 311.197C28.478 311.197 28.1998 309.111 28.5684 309.374C28.7365 309.605 28.9693 309.438 29.144 310.894L29.0794 311.292C29.0794 311.292 29.6483 311.587 29.7842 312.017C30.0558 312.877 30.4567 312.941 30.4567 312.941C31.0646 314.262 33.5281 313.021 33.9613 312.886C33.9613 312.886 35.6295 312.743 35.9335 313.404C35.9335 313.404 36.7353 313.532 36.7676 313.333C36.7676 313.333 37.1684 313.397 37.5693 313.461C37.7375 313.691 37.6663 312.864 38.0026 313.325C38.4358 313.19 38.3323 312.561 38.9983 312.259C39.3992 312.323 39.5673 312.554 39.897 311.79C39.897 311.79 40.7311 311.718 40.9316 311.75C43.1042 312.3 44.7659 310.932 44.7659 310.932C44.7659 310.932 45.2314 310.598 45.3672 311.028C45.3672 311.028 45.8327 310.693 45.8651 310.494C45.8974 310.295 45.8974 310.295 46.266 310.558C46.4341 310.789 47.0289 309.659 47.0935 309.261C47.1904 308.664 47.2228 308.465 47.2228 308.465C47.2551 308.266 47.3586 308.895 47.6237 308.529C47.6237 308.529 47.656 308.33 47.6883 308.131C47.7529 307.733 47.5202 307.9 47.3843 307.47L47.449 307.072C47.449 307.072 47.8176 307.335 47.8888 308.163C47.9211 307.964 47.9534 307.765 47.9534 307.765L48.4578 308.458C48.4578 308.458 48.4901 308.259 48.8587 308.521C48.8264 308.72 49.764 309.278 49.9645 309.31C50.3654 309.374 50.3719 310.6 50.999 309.27C51.0313 309.071 52.027 308.005 52.1305 308.634C52.4022 309.494 52.331 308.666 52.5314 308.698C52.5314 308.698 52.5314 308.698 52.5961 308.3C52.7253 307.504 52.7899 307.106 52.8288 308.133C52.8677 309.16 53.469 309.255 53.566 308.658C53.566 308.658 54.9691 308.882 55.1953 307.489L55.2276 307.29C55.4281 307.322 55.6931 306.956 55.8936 306.988C55.8936 306.988 55.8936 306.988 55.9905 306.391L56.0229 306.192C56.0229 306.192 56.0552 305.993 55.6801 304.504C55.6801 304.504 55.4085 303.644 55.6412 303.477C55.7059 303.079 56.1456 304.17 56.2168 304.998C56.1521 305.396 56.3526 305.428 56.553 305.46C56.553 305.46 56.6177 305.062 56.9539 305.523C56.9539 305.523 56.8893 305.921 56.857 306.12C56.8959 307.147 57.1932 306.582 57.4583 306.216C57.426 306.415 58.3894 305.548 58.5186 304.752C58.5833 304.354 58.2794 303.693 58.1759 303.064C58.04 302.634 58.2728 302.467 58.3051 302.268C58.3051 302.268 58.2728 302.467 58.4086 302.897C58.344 303.295 58.7449 303.359 58.7449 303.359L60.1092 302.555C60.1092 302.555 60.0768 302.754 60.3096 302.587C60.3096 302.587 60.3742 302.189 60.4388 301.791C60.1672 300.932 60.4 300.765 60.0637 300.303C60.0637 300.303 60.0637 300.303 59.9991 300.701C59.9345 301.099 60.2384 301.76 60.2384 301.76L60.0379 301.728C60.0379 301.728 59.9022 301.298 59.9345 301.099C60.0314 300.502 59.7275 299.841 59.7275 299.841C59.7275 299.841 59.7275 299.841 59.7921 299.443C59.8567 299.045 59.8567 299.045 59.7921 299.443C60.096 300.104 59.9926 299.475 60.193 299.507C60.2253 299.308 60.2253 299.308 60.193 299.507C60.1607 299.706 60.3935 299.539 60.497 300.168C60.4323 300.566 60.4646 300.367 60.2965 300.136C60.2965 300.136 60.1995 300.733 60.2642 300.335C60.2642 300.335 60.2641 300.335 60.2318 300.534C60.5358 301.194 60.5035 301.393 60.607 302.022C60.607 302.022 60.5747 302.221 60.5424 302.42C60.4778 302.818 60.5424 302.42 60.8787 302.882C60.814 303.28 61.118 303.941 61.118 303.941C61.118 303.941 61.1826 303.543 61.0468 303.113C61.1114 302.715 61.1437 302.516 61.1114 302.715C61.1114 302.715 61.3831 303.575 61.2149 303.344C61.3765 302.349 61.3118 302.747 61.6158 303.408C61.7193 304.037 61.7127 302.811 61.6481 303.209C61.6481 303.209 61.6158 303.408 61.6481 303.209C61.842 302.015 61.9132 302.843 62.049 303.273C62.1525 303.901 61.8743 301.816 61.8743 301.816C61.8743 301.816 61.8743 301.816 61.842 302.015C61.745 302.612 61.9455 302.644 62.1459 302.676C62.1459 302.676 62.4499 303.336 62.5468 302.739C62.5792 302.54 62.6438 302.142 62.7473 302.771C62.6827 303.169 63.0189 303.631 63.0512 303.432C63.1159 303.034 63.1805 302.636 63.1159 303.034C63.1159 303.034 63.4198 303.695 63.4521 303.496C63.4521 303.496 63.5491 302.899 63.5168 303.098C63.6849 303.329 63.8207 303.759 63.9177 303.162C63.9823 302.764 64.1181 303.194 64.2539 303.624C64.4221 303.855 64.6226 303.886 64.4867 303.457C64.4867 303.457 64.5837 302.86 64.7518 303.09C64.8876 303.52 64.8164 302.692 64.9522 303.122C64.9522 303.122 65.4178 302.788 65.6571 303.847C65.6571 303.847 64.4287 305.08 63.4264 304.921C63.4264 304.921 62.5276 305.39 62.2237 304.729C61.9844 303.671 61.7516 303.838 61.8874 304.267L61.7581 305.063C61.7581 305.063 60.9887 304.737 60.9564 304.936C60.9564 304.936 60.5231 305.071 60.3227 305.039C60.0511 304.179 59.6567 305.341 59.3205 304.88C59.2881 305.079 58.7191 304.784 58.5186 304.752C58.5186 304.752 58.3182 304.72 58.2147 304.091L58.1501 304.489C58.1501 304.489 58.0854 304.887 57.9885 305.484C57.8915 306.081 58.3247 305.946 58.3571 305.747C58.4217 305.349 58.6934 306.209 58.9585 305.843C58.9585 305.843 60.3616 306.066 60.562 306.098C60.562 306.098 60.6266 305.7 61.5642 306.257C61.5642 306.257 61.6354 307.085 61.8682 306.918C61.9652 306.321 61.8293 305.891 62.0298 305.923C62.4307 305.987 62.8639 305.852 63.032 306.083L62.9674 306.481C62.9674 306.481 63.0321 306.083 63.2325 306.115C64.7972 305.343 66.4397 306.625 67.6681 305.392C67.6681 305.392 67.7005 305.193 68.0367 305.655C68.1725 306.085 68.373 306.117 68.5734 306.148C68.5734 306.148 68.5734 306.148 68.638 305.751C69.0455 307.04 69.7696 305.114 69.2328 304.62C69.2328 304.62 69.2329 304.62 69.0648 304.39C69.3298 304.023 69.2263 303.395 69.2263 303.395C68.8254 303.331 68.7542 302.503 68.5926 303.498C68.5603 303.697 68.1917 303.434 68.1271 303.832C68.0948 304.031 67.7908 303.37 67.5258 303.736C67.4611 304.134 67.1895 303.274 66.7563 303.41C66.7563 303.41 66.7563 303.41 66.5558 303.378C66.2196 302.916 66.1549 303.314 65.8833 302.454C67.1895 303.274 68.0882 302.805 68.2887 302.837C68.2887 302.837 68.5214 302.67 68.3856 302.24C68.3144 301.412 68.5795 301.046 68.4502 301.842C68.8577 303.132 68.8511 301.906 68.5795 301.046C68.5795 301.046 68.6119 300.847 68.4437 300.616C68.573 299.82 68.1398 299.955 68.0686 299.128C68.1332 298.73 67.8292 298.069 67.7257 297.44C67.6222 296.811 67.7904 297.042 67.6869 296.413C67.7192 296.214 67.7192 296.214 67.7839 295.816C67.8162 295.617 67.6803 295.187 67.5445 294.757L67.6092 294.359C67.6415 294.16 67.538 293.531 67.1371 293.468C67.1371 293.468 66.8008 293.006 66.7685 293.205C66.7685 293.205 66.7039 293.603 66.7362 293.404C66.7685 293.205 66.4322 292.743 66.3999 292.942C66.3676 293.141 66.1348 293.308 66.0636 292.48C66.1283 292.082 65.9601 291.851 66.1929 291.684C66.1929 291.684 66.1929 291.684 66.2252 291.485C66.2252 291.485 66.2899 291.087 66.0895 291.055C66.1218 290.856 66.1864 290.458 66.0182 290.227C65.0483 289.869 64.9125 289.439 64.9772 289.041C64.9772 289.041 64.7767 289.009 64.9125 289.439L65.1584 291.724C65.1907 291.525 65.223 291.326 65.0872 290.896C65.0872 290.896 65.1518 290.498 65.1841 290.299C65.1129 289.471 64.9125 289.439 64.712 289.407C64.712 289.407 64.5828 290.203 64.8544 291.063C64.8221 291.262 64.9579 291.692 64.9579 291.692C64.9256 291.891 65.0291 292.52 64.9645 292.918C64.9645 292.918 64.8286 292.488 64.6928 292.058C64.7575 291.66 64.7575 291.66 64.6217 291.23C64.654 291.031 64.6863 290.832 64.35 290.37C64.0784 289.51 63.8456 289.677 63.781 290.075L63.7486 290.274C63.7486 290.274 63.4124 289.813 63.4836 290.64L63.4513 290.839C63.4513 290.839 63.5548 291.468 63.6906 291.898L63.626 292.296C63.626 292.296 63.8653 293.355 63.9688 293.984C64.0399 294.812 63.8718 294.581 63.9041 294.382C63.8006 293.753 63.6971 293.124 63.3608 292.662C63.225 292.232 63.4255 292.264 63.4578 292.065C63.4901 291.866 63.3544 291.436 63.1862 291.206C62.85 290.744 62.9858 291.174 62.6884 291.739C62.6884 291.739 62.5914 292.336 62.96 292.598C62.9277 292.797 63.0635 293.227 62.8954 292.996C62.7596 292.567 62.5268 292.734 62.6626 293.164L62.5979 293.561C62.5333 293.959 62.5656 293.76 62.5979 293.561C62.6303 293.363 62.4944 292.933 62.3586 292.503C62.4232 292.105 62.087 291.643 62.1905 292.272C62.1648 293.697 61.9708 294.891 61.628 293.203C61.6927 292.805 61.5568 292.375 61.3887 292.144C61.2206 291.913 61.0201 291.881 61.2918 292.741C61.2271 293.139 61.531 293.8 61.3306 293.768C61.3306 293.768 61.1302 293.736 61.0267 293.107C61.0913 292.709 61.1559 292.311 60.9555 292.279C60.6192 291.818 60.4511 291.587 60.3542 292.184L60.1603 293.378C60.1603 293.378 59.824 292.916 59.8563 292.717C59.9533 292.12 59.5847 291.857 59.4166 291.626C59.3842 291.825 59.4166 291.626 59.0157 291.562C59.0157 291.562 59.0156 291.562 58.6147 291.498C58.4143 291.467 58.2138 291.435 58.3173 292.063C58.2527 292.461 58.188 292.859 58.2527 292.461C57.8129 291.371 57.7806 291.57 57.6837 292.167C57.5544 292.963 57.923 293.225 57.5221 293.162L57.2181 292.501C57.2181 292.501 56.8819 292.039 56.8172 292.437L56.8495 292.238C56.8495 292.238 56.2805 291.943 56.3194 292.97C56.2547 293.368 56.2547 293.368 56.2871 293.169C55.9508 292.707 55.0132 292.15 54.8839 292.946C54.58 292.285 54.2503 293.049 53.8171 293.184C53.7524 293.582 53.0153 293.057 52.8148 293.025C52.6144 292.993 52.317 293.558 52.1489 293.327C51.3471 293.199 50.4291 296.319 49.957 295.428C49.8924 295.825 49.8601 296.024 49.8278 296.223C49.7631 296.621 49.6985 297.019 49.1617 296.526C48.8255 296.064 48.8644 297.091 48.3277 296.597L47.5259 296.469C47.5259 296.469 46.0192 295.617 45.1785 294.463C44.6807 294.996 43.7754 294.239 43.478 294.804C43.4134 295.202 43.0771 294.741 42.9156 295.735C42.8832 295.934 42.8509 296.133 42.8832 295.934C42.5147 295.672 41.784 296.372 41.5513 296.539C41.5513 296.539 41.3897 297.534 41.1893 297.502C41.1893 297.502 40.5621 298.831 39.8896 297.907C39.8896 297.907 39.6245 298.274 39.5922 298.473C39.5599 298.672 39.3917 298.441 39.0555 297.979C38.7192 297.517 38.9585 298.576 38.9585 298.576C38.7581 298.544 38.5576 298.512 38.2213 298.05C38.2213 298.05 38.2213 298.05 38.0921 298.846C38.0274 299.244 37.8594 299.013 37.6589 298.981C37.5685 300.804 36.8702 301.305 36.5597 299.419C36.1588 299.355 35.5317 300.684 35.564 300.485C35.564 300.485 35.2278 300.023 35.1954 300.222C35.1308 300.62 34.8592 299.76 34.7945 300.158C34.7299 300.556 34.6653 300.954 34.6976 300.755C34.6976 300.755 34.5941 300.126 34.7299 300.556C34.6976 300.755 34.6006 301.352 34.4648 300.922C34.5294 300.524 34.1286 300.46 34.1609 300.261C33.9928 300.031 33.0874 299.274 33.1586 300.102C33.2298 300.93 33.0617 300.699 33.1652 301.328C33.6696 302.021 33.1071 302.952 32.6996 301.662C32.7643 301.264 32.7643 301.264 32.8289 300.866L32.8935 300.468C32.8935 300.468 32.4926 300.404 32.8289 300.866C32.7966 301.065 32.732 301.463 32.6996 301.662C32.6673 301.861 32.6996 301.662 32.6996 301.662C32.6996 301.662 32.635 302.06 32.6027 302.259C32.5704 302.458 32.1952 300.969 32.3957 301.001C32.3957 301.001 32.3957 301.001 32.5961 301.033C32.4926 300.404 31.6196 299.449 31.6585 300.476C31.5939 300.874 31.2899 300.213 31.2576 300.412C31.1606 301.009 31.193 300.81 30.8245 300.547L30.8568 300.348C32.1498 298.717 33.139 296.424 35.2015 295.12C36.1003 294.65 38.2209 291.722 38.6733 288.936C38.9642 287.145 39.6948 286.445 40.7551 284.981C41.2206 284.646 43.2767 282.116 45.1323 279.553C47.2206 276.824 48.908 274.031 49.0373 273.235C49.1342 272.638 50.5955 271.237 51.8886 269.606C53.1493 268.173 54.6105 266.773 54.8433 266.606C56.6665 264.242 54.5586 263.294 57.1579 262.483C59.2916 262.007 63.022 254.231 63.9142 252.536C64.2116 251.971 64.3277 248.723 64.5928 248.357C65.5885 247.291 65.7501 246.296 65.7435 245.07C65.8082 244.672 65.8404 244.473 66.0732 244.306C66.7715 243.805 67.0689 243.24 67.5668 242.707C68.5948 241.441 68.2388 237.302 69.6677 236.1C70.5988 235.432 70.6957 234.835 71.0254 234.071C71.1224 233.474 72.2216 233.037 72.0858 232.607C72.2151 231.811 71.9434 230.951 72.409 230.617C74.672 229.344 71.9238 227.274 74.4907 226.662C75.3572 226.391 75.5511 225.197 75.079 224.306C73.9344 222.49 76.6048 222.507 77.7298 220.645C78.0595 219.881 78.7255 219.579 78.0206 218.854C78.0206 218.854 77.6197 218.79 77.6521 218.591C77.3158 218.129 77.4128 217.532 78.0141 217.628C80.2837 217.581 80.2706 215.129 80.4256 212.909C80.5225 212.312 81.3178 211.214 81.7121 210.052L81.906 208.858C81.906 208.858 82.4039 208.324 82.2357 208.094C82.268 207.895 82.3004 207.696 82.5332 207.528C83.6647 206.892 83.6904 205.467 83.4834 204.209L83.5158 204.01C83.6773 203.016 84.2266 199.633 85.1254 199.163C87.091 198.456 85.7394 195.383 86.8644 193.52C88.0863 191.061 87.6011 187.718 86.5408 189.182C84.8857 191.776 87.9177 184.502 87.9692 181.652C88.0662 181.055 88.6999 180.952 89.1977 180.419C89.7279 179.687 90.0899 178.724 90.2515 177.729C90.3161 177.331 90.3808 176.933 90.245 176.503L90.2127 176.702C90.1865 171.799 89.7336 168.256 90.8782 170.071C91.2014 168.082 91.5892 165.694 92.2809 163.967L92.4878 165.224L92.714 163.831C92.714 163.831 92.0931 160.058 94.1425 156.302C94.1749 156.103 94.2071 155.904 94.039 155.673C93.9032 155.243 93.832 154.415 94.3298 153.882C95.3255 152.816 93.7154 151.334 94.9115 150.3C95.6098 149.799 95.2024 148.509 94.7303 147.618C94.795 147.22 94.3552 146.129 94.9565 146.225C94.9565 146.225 95.2928 146.686 95.4932 146.718C95.6937 146.75 96.0946 146.814 96.1916 146.217C96.4824 144.426 95.0854 139.1 96.0811 138.034C96.844 137.135 96.6047 136.076 96.3653 135.017C96.4623 134.42 96.6239 133.425 96.3199 132.765C96.2164 132.136 95.5828 132.239 95.6798 131.642C95.7767 131.045 95.5051 130.185 95.2011 129.524C94.8972 128.864 96.0287 128.227 95.9252 127.598C95.9898 127.2 95.854 126.771 96.1191 126.404C96.8497 125.704 96.313 125.211 96.4422 124.415C96.5069 124.017 96.9724 123.682 96.9335 122.656C96.9981 122.258 97.0951 121.661 97.5606 121.326C98.8214 119.894 99.8752 117.204 98.4332 115.954C97.9288 115.261 97.3598 114.966 96.5903 114.64C96.7842 113.446 97.1331 110.031 95.8012 110.635C95.1352 110.938 94.3656 110.611 94.3979 110.412C94.5595 109.417 95.4972 109.975 95.2579 108.916C95.2902 108.717 95.8203 107.985 96.0531 107.818C96.0854 107.619 96.454 107.882 96.6544 107.913C97.8571 108.105 97.7986 103.401 97.1584 102.278C97.1907 102.079 96.5828 100.757 96.7121 99.9614C97.0029 98.1705 95.5609 96.9202 96.5501 94.6281C96.5501 94.6281 96.7505 94.66 96.9509 94.6919C97.5523 94.7876 97.7138 93.7927 97.1448 93.498C96.7439 93.4341 96.6147 94.2301 96.5112 93.6012C96.6081 93.0042 96.2719 92.5424 95.7352 92.0487C95.567 91.8178 95.3989 91.5869 95.8644 91.2528C97.2222 89.2234 97.0086 86.7398 96.3037 86.0152C95.4308 85.0597 96.7627 84.4552 95.6247 83.8658C94.8229 83.7381 94.7517 82.9102 95.4177 82.608C96.5169 82.1706 95.5404 80.5862 94.674 80.8565C93.8075 81.1268 93.3031 80.4341 93.4001 79.8372C93.4905 78.0143 89.5522 71.8757 88.9767 70.3551C87.5539 66.4542 89.1059 69.5592 87.7155 65.4592C87.4762 64.4005 88.4461 64.759 88.6076 63.7641C88.6723 63.3661 89.1378 63.0319 88.7369 62.9681C88.336 62.9042 88.336 62.9043 88.1033 63.0713C87.405 63.5726 88.1936 61.2485 87.922 60.3887C87.922 60.3887 87.9866 59.9908 88.3875 60.0546C89.5902 60.2461 88.1739 57.571 88.1351 56.5441C88.1351 56.5441 87.9346 56.5122 87.7342 56.4803C87.1005 56.5835 86.8678 56.7506 86.5315 56.2888C86.428 55.6599 86.6284 55.6918 86.8935 55.3257C87.3591 54.9916 86.3245 55.031 85.7232 54.9353C85.3223 54.8715 85.1864 54.4416 85.2511 54.0436C85.5161 53.6775 85.3803 53.2476 85.445 52.8497C85.3091 52.4198 86.0074 51.9185 85.6065 51.8547C85.2056 51.7909 85.0052 51.759 85.1022 51.162C85.1991 50.565 84.5654 50.6683 84.8628 50.1032C85.393 49.3711 85.4965 50 85.8909 48.8379C85.9555 48.44 85.49 48.7741 85.0891 48.7103C84.8886 48.6784 84.4877 48.6146 84.4165 47.7867C84.5135 47.1897 84.4812 47.3887 85.3476 47.1184L85.4122 46.7204C85.0113 46.6566 83.9445 46.895 84.0091 46.497C84.1383 45.701 84.2999 44.7061 84.4292 43.9101C84.4938 43.5122 84.9917 42.979 84.5908 42.9152C83.3881 42.7237 83.9183 41.9916 83.8471 41.1637C83.6078 40.105 84.4095 40.2326 84.1379 39.3728C83.6982 38.2821 83.4265 37.4223 82.9867 36.3316C82.6181 36.0688 82.4823 35.6389 82.1138 35.3761C82.1138 35.3761 82.1138 35.3761 82.1461 35.1771C82.3788 35.0101 83.1483 35.3367 83.3165 35.5676C83.3165 35.5676 83.5492 35.4005 83.4781 34.5726C83.4069 33.7448 83.3034 33.1159 82.702 33.0201C82.702 33.0201 82.3011 32.9563 82.3335 32.7573C82.3658 32.5583 82.398 32.3594 82.2299 32.1285C82.2299 32.1285 82.2622 31.9295 82.2945 31.7305C82.1522 30.0747 80.277 28.9596 80.1023 27.5029C80.0957 26.277 79.0092 22.8379 78.8411 22.607C78.6406 22.5751 74.767 16.0385 74.3661 15.9746C73.5643 15.847 73.6613 15.25 73.5901 14.4221C73.2539 13.9603 73.3831 13.1644 72.8463 12.6706C72.9756 11.8747 72.135 10.7202 70.9969 10.1308C69.0894 9.21466 70.6995 10.6958 68.7466 7.52698C68.4103 7.06518 68.7077 6.50013 68.3715 6.03833C66.3927 4.29436 70.8283 3.57158 67.7246 3.68985C67.1233 3.59411 67.4788 1.40523 66.5477 2.07354C66.0822 2.40769 65.4486 2.51093 64.8149 2.61418C64.8149 2.61418 64.4139 2.55035 64.2135 2.51843C64.013 2.48652 63.7803 2.65362 63.748 2.85261C64.052 3.5134 63.9485 2.88454 64.2201 3.74432C64.1555 4.1423 63.3214 4.21364 63.2179 3.58476C62.6423 2.06418 63.3794 2.58981 61.7047 1.50663C61.1356 1.2119 59.1958 0.494788 59.0988 1.09176C59.0342 1.48974 60.2888 5.15975 60.4893 5.19166C61.2264 5.71729 60.664 6.64844 61.9313 6.44194C62.565 6.33869 62.2222 4.65101 62.3514 3.85505C62.6877 4.31686 63.1921 5.00956 63.496 5.67036C63.496 5.67036 63.496 5.67039 63.5283 5.4714C63.7222 4.27746 64.3947 5.20105 64.6921 4.63599C64.7245 4.437 64.9572 4.26992 65.1577 4.30183C65.5586 4.36566 65.0931 4.69983 65.0284 5.09781C65.0284 5.09781 65.1642 5.5277 65.4293 5.16164C65.8949 4.82748 65.9595 4.42949 66.3281 4.69231C67.4662 5.28177 67.7701 5.94259 66.8456 7.83675C66.7809 8.23473 66.4124 7.97192 66.2442 7.74101C65.6429 7.64527 65.811 7.87615 65.5136 8.44121C65.4166 9.03818 64.8799 8.54447 64.5825 9.10953C64.4209 10.1045 64.0847 9.64266 63.7873 10.2077C63.4899 10.7728 64.4921 10.9323 64.5633 11.7602C64.434 12.5562 65.3005 12.2858 65.0743 13.6788C64.8804 14.8727 65.1843 15.5335 65.5529 15.7963C66.0896 16.29 66.7233 16.1868 66.3936 16.9508C65.5983 18.049 68.243 19.4908 68.6828 20.5814C69.2261 22.301 70.2803 25.9391 71.5672 29.4102C72.8542 32.8812 74.1412 36.3523 75.5832 37.6026C75.5832 37.6026 75.5186 38.0005 75.4863 38.1995C76.5663 40.4128 76.3466 43.0316 75.4413 42.2751C75.409 42.4741 75.5448 42.904 75.9134 43.1668C76.6829 43.4934 76.3855 44.0585 76.6571 44.9183C76.9611 45.5791 78.3319 46.0014 77.6659 46.3037C78.3319 46.0014 80.2202 49.5682 80.9639 51.3197C80.4337 52.0518 81.1386 52.7764 81.8435 53.5011C80.7831 54.9653 82.8073 58.962 81.443 59.7655C81.4884 62.0182 82.0125 66.3884 82.8724 64.8923L82.7623 63.0376C82.7623 63.0376 83.868 63.826 84.4371 64.1207C83.751 54.4172 89.6623 73.7304 87.2635 74.5733C85.9638 74.9788 83.158 80.8603 84.496 75.1534C84.4183 73.0997 84.1402 71.014 83.862 68.9284C83.6615 68.8965 83.461 68.8646 83.2283 69.0316C83.002 70.4246 82.6011 70.3608 83.2414 71.4834C83.7523 73.4019 82.5365 70.7587 81.3015 70.7662C81.3015 70.7662 81.3015 70.7663 81.2692 70.9652C81.2369 71.1642 80.7713 71.4984 80.9395 71.7293C80.9395 71.7293 81.2758 72.1911 81.4116 72.621C81.3404 71.7931 81.5731 71.626 82.1164 73.3456C82.0841 73.5446 82.0195 73.9426 82.1876 74.1735C82.6597 75.0652 83.1317 75.9569 83.0994 76.1559C83.0025 76.7528 83.6947 81.354 84.4965 81.4816C85.0978 81.5774 84.6323 81.9115 84.3349 82.4766C84.6388 83.1374 84.6777 84.1642 84.7812 84.7931C83.9794 84.6655 85.2599 86.9107 83.7921 87.0853C82.8091 84.275 84.6454 84.3632 83.8047 83.2087C83.3392 83.5429 83.1064 83.7099 83.0095 84.3069C82.8802 85.1029 83.1196 86.1617 83.3912 87.0215L83.7921 87.0853L84.51 90.2616L85.2861 91.8141C85.0599 93.207 85.1834 103.842 85.0157 109.939C85.0869 110.767 85.1581 111.595 85.0612 112.192C85.1 113.219 85.1712 114.047 85.1066 114.444C86.1481 121.959 85.4175 122.659 85.4049 126.536C85.3079 127.133 85.0302 131.375 85.9032 132.331C86.4399 132.825 87.0412 132.92 86.9443 133.517C86.7827 134.512 85.0503 141.381 84.921 142.177C84.1969 144.103 84.2555 148.808 84.3332 150.861C84.2428 152.684 82.9108 153.289 84.2882 154.937C83.493 156.035 83.2602 156.202 83.2345 157.627C83.1698 158.025 82.3942 162.801 81.5863 167.776C80.578 172.718 79.4015 177.43 79.1687 177.597C74.9532 182.03 75.9165 181.162 74.3138 193.564C74.3461 193.365 73.7256 195.92 72.6719 198.61L70.9652 204.054C70.9652 204.054 68.3921 209.768 66.1164 214.917C63.6403 220.035 61.1642 225.152 61.0995 225.55C61.1707 226.378 60.175 227.444 59.6449 228.176C59.147 228.71 58.2226 230.604 57.1688 233.294L53.2445 242.264C51.6929 245.487 49.9408 248.678 48.4861 251.304C46.831 253.899 45.2728 255.896 44.3095 256.763C42.9841 258.594 44.775 256.429 39.4153 265.374C37.993 267.802 35.1998 269.807 34.7473 272.593C32.7494 273.499 20.4133 288.683 18.9197 290.282C17.8917 291.547 18.6743 294.326 17.4327 293.107C16.896 292.614 16.3336 293.545 15.8357 294.078C15.1051 294.778 14.7042 294.714 14.7754 295.542C14.7107 295.94 14.8466 296.37 14.5815 296.736C14.381 296.704 13.9802 296.64 13.9802 296.64C14.2452 296.274 13.5147 296.974 13.7797 296.608C13.7797 296.608 13.8443 296.21 13.5792 296.576C13.1137 296.911 12.6482 297.245 12.6158 297.444L12.5512 297.842C12.5512 297.842 12.1504 297.778 12.3508 297.81C12.8163 297.476 12.8163 297.476 13.0167 297.508C13.0167 297.508 13.4177 297.571 13.1526 297.937C13.1526 297.937 12.5255 299.267 12.1957 300.031C11.7302 300.365 11.4974 300.532 12.2604 299.633C12.325 299.235 11.7949 299.967 11.5621 300.134C11.3293 300.301 11.5621 300.134 11.8272 299.768L12.325 299.235L11.6267 299.736C11.6267 299.736 11.6267 299.736 11.1612 300.07C10.9284 300.237 10.8961 300.436 10.6633 300.603C10.1655 301.136 9.93277 301.303 9.23448 301.805L9.13754 302.402C9.13754 302.402 9.16985 302.203 9.13754 302.402L9.0729 302.8C9.0729 302.8 8.67198 302.736 8.23876 302.871C8.10295 302.441 7.76666 301.979 7.56621 301.947C8.42609 300.451 9.09207 300.149 9.2602 300.38L9.32483 299.982C9.32483 299.982 9.62224 299.417 9.88732 299.051C10.8184 298.382 11.2839 298.048 11.7172 297.913L11.7495 297.714C11.7495 297.714 11.7494 297.714 11.549 297.682C11.3162 297.849 10.8507 298.183 11.0835 298.016C11.0835 298.016 10.618 298.351 10.2171 298.287C8.91744 298.692 9.81619 298.223 10.6826 297.952C10.7149 297.754 10.9477 297.586 11.3809 297.451L11.7818 297.515C11.7818 297.515 12.9456 296.68 13.4111 296.346C14.1417 295.645 14.9047 294.746 14.6719 294.913C15.1374 294.579 15.603 294.245 14.6719 294.913C14.4391 295.08 14.2064 295.247 14.0059 295.215C13.34 295.518 13.8055 295.184 13.8055 295.184C13.8055 295.184 13.8054 295.184 13.4045 295.12C12.5058 295.589 11.6394 295.859 11.8721 295.692L12.7709 295.223C14.1029 294.619 14.3033 294.65 14.3356 294.451L15.2021 294.181C15.2021 294.181 15.6676 293.847 15.4671 293.815C15.4671 293.815 16.5664 293.378 16.5987 293.179C16.1332 293.513 16.3982 293.147 16.5987 293.179C17.0319 293.043 17.0642 292.844 15.9973 293.083C14.9304 293.321 15.3959 292.987 15.9973 293.083C15.9973 293.083 17.0319 293.043 15.9973 293.083C15.3959 292.987 16.4628 292.749 16.5275 292.351C17.6913 291.515 16.6568 291.555 16.4886 291.324C16.4886 291.324 15.7837 290.599 15.5833 290.567C15.3828 290.535 15.1501 290.703 14.9173 290.87C14.2836 290.973 14.1801 290.344 15.5833 290.567L14.7815 290.44C14.7815 290.44 14.8462 290.042 15.2471 290.106C14.4453 289.978 14.4452 289.978 14.0443 289.914L14.4453 289.978C14.4453 289.978 14.8462 290.042 15.2471 290.106C15.4475 290.138 15.6479 290.169 15.6479 290.169C15.6479 290.169 15.247 290.106 15.4798 289.938C15.4798 289.938 15.5121 289.739 16.1781 289.437C16.3785 289.469 17.5747 288.435 17.3743 288.403C16.9734 288.339 17.1738 288.371 17.4066 288.204C17.4066 288.204 18.1049 287.703 17.704 287.639C17.3031 287.575 17.7686 287.241 17.8009 287.042C17.8009 287.042 18.3957 285.912 18.1887 284.654L16.682 283.802L18.1499 283.627L18.1822 283.428L17.5808 283.332C15.2789 283.578 16.3781 283.141 17.71 282.536C17.7424 282.337 17.7747 282.138 17.807 281.939C18.5053 281.438 17.9039 281.343 17.9686 280.945C18.0655 280.348 18.7316 280.045 18.7962 279.647C18.3953 279.583 19.2617 279.313 18.8608 279.249C18.4599 279.186 18.5245 278.788 18.5569 278.589L18.6861 277.793C17.8843 277.665 17.7096 276.208 17.9423 276.041C17.9747 275.842 18.1363 274.847 18.2655 274.051C17.2633 273.892 16.261 273.732 14.9937 273.939L15.026 273.74L14.2243 273.612C14.2243 273.612 14.457 273.445 15.0907 273.342C15.0907 273.342 15.1553 272.944 15.1876 272.745C15.1876 272.745 15.2522 272.347 15.3169 271.949C14.3146 271.789 14.3146 271.789 13.9137 271.725C13.7133 271.693 14.5798 271.423 15.013 271.288C14.8449 271.057 15.5108 270.755 15.8793 271.018C16.7135 270.946 17.3471 270.843 17.748 270.907C17.7803 270.708 17.6123 270.477 17.6446 270.278C17.6769 270.079 17.7738 269.482 17.4052 269.219C17.2048 269.187 17.3341 268.391 17.5345 268.423L17.3921 266.767L16.4934 267.237C16.4934 267.237 15.5881 266.48 14.9868 266.385C15.7886 266.512 16.6227 266.441 17.2563 266.338L17.321 265.94C17.321 265.94 15.8209 266.313 16.5515 265.613L17.1528 265.709L17.3144 264.714C17.3144 264.714 17.7411 263.353 16.5384 263.161C16.1375 263.097 15.937 263.066 15.9694 262.867C16.1698 262.898 16.034 262.469 16.0663 262.27C16.0663 262.27 15.8335 262.437 15.4003 262.572C14.3011 263.009 14.0618 261.95 14.2234 260.955C14.0229 260.924 13.8548 260.693 13.6543 260.661L13.4539 260.629C13.4862 260.43 13.4539 260.629 13.053 260.565C13.053 260.565 12.6521 260.501 13.053 260.565C13.6544 260.661 13.6867 260.462 14.0553 260.725C14.857 260.852 15.4584 260.948 14.954 260.255C14.954 260.255 14.1845 259.929 14.2168 259.73C14.2168 259.73 14.0164 259.698 14.2168 259.73C14.2168 259.73 14.4495 259.563 15.4195 259.921C15.4195 259.921 16.0532 259.818 16.3182 259.452C16.3182 259.452 15.5164 259.324 15.9173 259.388C16.551 259.285 15.982 258.99 15.5487 259.125C14.5465 258.966 16.648 258.688 15.2125 258.663C15.0121 258.631 14.3784 258.735 14.5788 258.767C14.7793 258.799 14.5788 258.767 14.5465 258.966C13.7447 258.838 13.7447 258.838 13.9452 258.87C14.6112 258.568 13.9452 258.87 14.8116 258.599C15.0121 258.631 14.8116 258.599 14.4107 258.536L12.4062 258.217C10.7703 258.16 8.93394 258.072 9.19902 257.706C9.19902 257.706 10.0655 257.436 10.8673 257.563C10.8673 257.563 10.8673 257.563 10.8996 257.364L10.4987 257.3L7.62778 257.252C7.62778 257.252 6.62551 257.092 5.99184 257.195C5.79139 257.163 5.79139 257.163 5.99184 257.195C6.39274 257.259 6.7937 257.323 6.99415 257.355C7.5955 257.451 6.89719 257.952 6.52861 257.689C6.12771 257.625 6.3281 257.657 5.5263 257.529C4.92496 257.434 4.45944 257.768 4.45944 257.768C4.39481 258.166 4.39481 258.166 6.26348 258.055C5.494 257.728 8.56538 257.809 6.66439 258.119C6.26349 258.055 5.8626 257.991 5.19662 258.294C5.19662 258.294 4.99616 258.262 4.79571 258.23C4.39481 258.166 3.9939 258.102 3.96159 258.301C3.96159 258.301 4.36252 258.365 4.12975 258.532C4.12975 258.532 3.69655 258.667 4.09744 258.731C4.29789 258.763 4.03281 259.129 4.03281 259.129C4.03281 259.129 4.16863 259.559 4.36908 259.591C4.36908 259.591 5.40363 259.551 5.37131 259.75C5.37131 259.75 4.33674 259.79 4.90577 260.084C5.30667 260.148 4.9058 260.084 4.23982 260.387C3.40571 260.458 3.50921 261.087 4.11056 261.183C4.31101 261.215 4.11056 261.183 4.07824 261.382C4.07824 261.382 4.94466 261.111 5.17742 260.944C5.77877 261.04 5.77874 261.04 5.74642 261.239C6.14732 261.303 6.14732 261.303 5.74642 261.239C5.74642 261.239 6.27659 260.507 6.37354 259.91C6.37354 259.91 4.70534 260.053 5.77222 259.814C5.77222 259.814 6.1731 259.878 6.40586 259.711C6.43818 259.512 6.5028 259.114 6.53512 258.915C7.40155 258.645 9.57422 259.195 8.00949 259.966C9.11524 260.755 6.38012 261.136 8.78551 261.519C8.72088 261.917 8.65619 262.315 7.99021 262.617C5.52019 262.632 7.25306 262.091 5.74642 261.239C4.44678 261.644 4.64723 261.676 3.84544 261.549C3.81312 261.748 4.14942 262.21 3.91666 262.377L4.91889 262.536C4.91889 262.536 4.91885 262.536 4.68609 262.703C3.41876 262.91 3.72273 263.571 4.32408 263.666C4.72498 263.73 5.52675 263.858 4.9254 263.762C4.29174 263.865 4.09134 263.833 3.65812 263.969C2.99214 264.271 2.83055 265.266 4.49877 265.123C4.49877 265.123 4.86735 265.386 4.03323 265.457C3.03099 265.298 3.27032 266.356 3.83935 266.651C4.03979 266.683 3.83938 266.651 3.63893 266.619C3.63893 266.619 3.63891 266.619 4.24025 266.715C5.04205 266.843 4.17563 267.113 4.57653 267.177C4.77697 267.209 4.54419 267.376 4.11099 267.511C4.11099 267.511 3.445 267.813 3.61313 268.044C4.18216 268.339 2.8825 268.744 4.48609 269C4.48609 269 4.4538 269.199 4.25335 269.167L3.85245 269.103C2.44931 268.879 4.05945 270.361 3.16071 270.83C3.16071 270.83 2.8633 271.395 2.99911 271.825C2.9668 272.024 2.03578 272.692 2.60481 272.987L3.07686 273.879C3.07686 273.879 2.6113 274.213 3.14801 274.706C3.18033 274.507 3.84637 274.205 4.15032 274.866C4.55122 274.93 4.55115 274.93 4.55115 274.93C4.55115 274.93 4.55122 274.93 4.15032 274.866C3.74942 274.802 3.74941 274.802 3.74941 274.802C3.74941 274.802 4.55119 274.93 4.75164 274.962C4.95209 274.994 5.15254 275.026 4.68701 275.36C4.48656 275.328 5.0879 275.424 4.62237 275.758C3.35505 275.964 4.49314 276.554 5.29493 276.681C5.29493 276.681 5.29493 276.681 5.32724 276.482C5.32724 276.482 6.79497 276.308 6.59452 276.276L5.96089 276.379C5.96089 276.379 6.36179 276.443 5.96089 276.379C5.96089 276.379 5.52765 276.514 5.12675 276.45C4.72585 276.387 4.49307 276.554 4.66121 276.785C4.66121 276.785 5.06216 276.848 5.26261 276.88C5.46305 276.912 5.69577 276.745 6.09667 276.809C7.29936 277 6.60109 277.502 5.79929 277.374C5.19795 277.278 5.56654 277.541 4.73243 277.612C4.53198 277.581 4.53199 277.58 4.66781 278.01C5.67006 278.17 6.43953 278.497 6.00631 278.632C6.40721 278.696 5.97395 278.831 5.74119 278.998C5.34029 278.934 5.7412 278.998 6.14209 279.062C6.54299 279.125 6.14208 279.062 5.67655 279.396C5.04289 279.499 6.07745 279.46 5.61192 279.794C5.61192 279.794 5.81238 279.826 6.01283 279.858C6.21328 279.89 4.58395 281.059 5.15298 281.354C5.55388 281.418 5.48924 281.816 5.05602 281.951C3.3878 282.093 4.62281 282.086 4.99139 282.349C4.99139 282.349 5.32765 282.811 4.92676 282.747C4.32541 282.651 4.06037 283.017 4.26082 283.049C4.66171 283.113 4.62937 283.312 4.7975 283.543C4.7975 283.543 3.76296 283.582 4.13155 283.845C4.73289 283.941 4.93332 283.973 4.66823 284.339C4.66823 284.339 4.00225 284.641 4.17038 284.872C5.14031 285.23 3.64021 285.604 3.97648 286.066L3.24589 286.766C3.24589 286.766 4.84945 287.021 4.9464 286.424C5.81938 287.38 4.31928 287.753 2.88382 287.729C2.8515 287.928 2.81919 288.127 2.81919 288.127C2.81919 288.127 2.81919 288.127 2.78687 288.326C1.92045 288.596 2.08864 288.827 1.85587 288.994C1.15757 289.496 2.26328 290.284 1.76544 290.817C3.10395 291.438 3.80882 292.163 4.14508 292.625L4.44904 293.286C4.44904 293.286 3.9512 293.819 4.31978 294.082C5.08926 294.408 4.45559 294.512 4.19051 294.878C4.19051 294.878 3.92538 295.244 3.49217 295.379C4.69486 295.57 1.53963 298.538 1.97939 299.629C2.11521 300.059 1.81781 300.624 1.75318 301.022C1.75318 301.022 2.22531 301.914 2.16068 302.312C2.09604 302.71 1.70171 303.872 2.33537 303.768C1.54013 304.867 2.44542 305.623 3.07908 305.52C3.07908 305.52 3.27952 305.552 3.01445 305.918C2.28383 306.618 2.45197 306.849 2.85286 306.913C2.85286 306.913 2.72357 307.709 3.38955 307.406L4.05558 307.104C4.05558 307.104 3.99094 307.502 3.46078 308.234C2.96293 308.767 3.13104 308.998 4.0621 308.33C4.49531 308.195 4.0621 308.33 3.99747 308.728C3.49962 309.261 3.63544 309.691 3.83589 309.723C4.43724 309.819 4.40488 310.018 4.40488 310.018C4.60533 310.05 4.8058 310.082 4.77348 310.281C4.77348 310.281 4.70886 310.678 4.74117 310.479C4.94162 310.511 5.34253 310.575 5.63993 310.01C5.67225 309.811 6.37052 309.31 6.3382 309.509L6.11198 310.902C6.11198 310.902 6.01504 311.499 6.44826 311.364C5.29098 313.425 6.31902 312.16 7.2955 313.744C9.88867 318.036 11.5892 317.694 13.6194 316.588L10.0113 316.014ZM11.4621 256.433C11.4621 256.433 11.0612 256.369 11.4621 256.433V256.433ZM9.56109 256.743C9.56109 256.743 9.65801 256.146 10.2594 256.242C10.227 256.441 9.99431 256.608 9.56109 256.743ZM9.36719 257.937C9.36719 257.937 9.39952 257.738 9.80042 257.802C9.80042 257.802 9.76809 258.001 9.36719 257.937ZM9.44494 259.991C9.44494 259.991 9.44494 259.991 9.87816 259.855L10.279 259.919C10.279 259.919 9.6777 259.823 9.44494 259.991ZM9.28336 260.986L9.38031 260.389C9.38031 260.389 9.58076 260.42 9.28336 260.986ZM12.4905 261.496C12.4905 261.496 13.1242 261.393 13.0919 261.592C13.0919 261.592 13.0919 261.592 12.4905 261.496ZM1.8864 263.482C1.8864 263.482 1.05228 263.554 1.4855 263.418L1.8864 263.482ZM9.86547 263.732L10.2664 263.796C10.2664 263.796 10.2987 263.597 10.331 263.398C7.92563 263.015 7.85445 262.187 8.78551 261.519L9.58732 261.646C9.58732 261.646 9.52262 262.044 9.85889 262.506C9.85889 262.506 9.89121 262.307 10.3244 262.172C12.135 263.685 12.2577 261.663 12.3678 263.518L11.3656 263.358C11.3656 263.358 11.9669 263.454 11.3656 263.358C10.0982 263.565 10.0982 263.565 10.1305 263.366L9.86547 263.732ZM4.38871 263.268C4.38871 263.268 4.38874 263.268 5.25516 262.998C9.77509 265.555 0.19239 265.05 4.38871 263.268ZM11.676 265.245L12.0769 265.309C12.0446 265.508 11.2751 265.181 11.676 265.245ZM11.411 265.611C11.411 265.611 11.6114 265.643 11.411 265.611C11.0101 265.547 11.0101 265.547 11.411 265.611ZM10.5769 265.682L10.176 265.619C10.176 265.619 10.7773 265.714 10.5769 265.682ZM11.7473 266.073L12.1482 266.137L11.7473 266.073ZM1.32392 264.413C1.32392 264.413 1.12347 264.381 1.32392 264.413V264.413ZM10.8162 266.741C10.8162 266.741 11.618 266.869 11.2171 266.805C10.8162 266.741 10.4153 266.677 10.8162 266.741ZM11.7215 267.498C11.7215 267.498 11.2883 267.633 11.5211 267.466L11.7215 267.498ZM13.0276 268.318C13.0276 268.318 12.8596 268.087 12.8919 267.888C13.2928 267.952 13.2604 268.151 13.0276 268.318ZM11.9931 268.357C11.9931 268.357 13.1958 268.549 12.7949 268.485C11.7927 268.326 9.89167 268.635 11.9931 268.357ZM5.6499 268.164L5.34601 267.503L6.14775 267.631C6.14775 267.631 6.08311 268.029 5.6499 268.164ZM11.0559 274.128C11.0559 274.128 10.8555 274.096 11.0559 274.128V274.128ZM5.70844 272.869L6.10935 272.932C5.70845 272.869 5.70844 272.869 5.70844 272.869ZM9.103 270.959C9.103 270.959 9.30346 270.991 9.50391 271.023C9.47159 271.222 8.87023 271.126 9.103 270.959ZM13.3189 272.855C13.3189 272.855 12.4849 272.927 12.4526 273.126C12.0193 273.261 10.2476 272.775 10.8489 272.87C11.2498 272.934 11.0494 272.902 10.8489 272.87C10.6485 272.839 10.6485 272.839 10.8812 272.671C11.2821 272.735 10.6808 272.64 10.9136 272.472C10.9136 272.472 10.7131 272.441 10.9136 272.472C11.3145 272.536 11.5149 272.568 11.7477 272.401C12.3814 272.298 13.1508 272.625 12.7499 272.561C13.1508 272.625 12.7176 272.76 12.084 272.863C12.084 272.863 12.0839 272.863 11.4503 272.966C11.2498 272.934 11.4503 272.966 11.6507 272.998C13.319 272.855 13.0862 273.022 13.2543 273.253C13.2543 273.253 13.2543 273.253 13.0539 273.221L13.3189 272.855ZM13.4936 274.312C14.7609 274.106 13.6294 274.742 13.4936 274.312V274.312ZM11.6896 274.025L11.2887 273.961L11.6896 274.025C11.6896 274.025 11.9547 273.659 12.3879 273.524C12.3879 273.524 11.7866 273.428 11.1852 273.332C11.1852 273.332 11.7865 273.428 11.8188 273.229C11.8188 273.229 12.6853 272.959 13.5194 272.887C13.9203 272.951 13.5194 272.887 13.7198 272.919C14.1207 272.983 14.2889 273.214 13.4548 273.285C12.8211 273.389 13.4548 273.285 14.0561 273.381C14.2566 273.413 14.0561 273.381 14.0561 273.381C14.0561 273.381 13.4548 273.285 12.8211 273.389C14.095 274.408 11.7219 273.826 11.5538 273.595L11.6896 274.025ZM10.2864 273.802C10.2864 273.802 10.9201 273.698 11.0883 273.929C11.0883 273.929 10.4223 274.231 10.2864 273.802ZM13.8042 276.199C12.8019 276.039 12.8019 276.039 13.2997 275.506C13.9011 275.602 13.8688 275.801 13.8042 276.199ZM6.78842 275.082C6.78842 275.082 7.38978 275.178 7.18933 275.146C6.78843 275.082 6.58797 275.05 6.78842 275.082ZM9.09691 276.062C9.09691 276.062 8.89646 276.03 9.12923 275.863C9.53013 275.927 9.73057 275.959 9.09691 276.062ZM6.99543 276.34L5.9932 276.18C5.9932 276.18 8.09462 275.902 6.99543 276.34ZM3.99525 277.087C3.99525 277.087 4.02757 276.888 4.05988 276.689C4.46078 276.753 4.62891 276.984 3.99525 277.087ZM3.31662 281.266C3.31662 281.266 2.74758 280.971 2.98034 280.804C3.01266 280.605 3.38124 280.868 3.01266 280.605C3.87908 280.334 3.98259 280.963 3.31662 281.266ZM2.9092 279.976C2.9092 279.976 2.90915 279.976 2.7087 279.944L2.9092 279.976ZM4.97829 279.897C4.97829 279.897 4.17652 279.769 4.37696 279.801C4.8425 279.467 6.61419 279.953 4.97829 279.897ZM4.90054 277.843L4.49963 277.78L4.90054 277.843ZM6.80813 278.759L6.20673 278.664C6.20673 278.664 7.73917 278.091 8.34052 278.187C8.3082 278.386 7.67455 278.489 6.80813 278.759ZM8.14663 279.381C5.94169 279.03 9.31039 278.545 8.98068 279.309C8.98068 279.309 8.54753 279.445 8.14663 279.381ZM13.6622 280.871C12.66 280.712 12.9574 280.147 14.5287 280.601L13.6622 280.871ZM10.5651 282.215C7.73306 283.193 10.9595 281.053 8.76107 281.928C7.95927 281.801 7.15747 281.673 6.55612 281.577C2.72182 282.396 1.48684 282.403 4.58397 281.059L7.34481 279.253C7.34481 279.253 7.88155 279.747 8.082 279.779C8.28244 279.811 8.94838 279.508 9.75018 279.636C9.11652 279.739 8.48283 279.843 10.2222 280.528C10.1899 280.727 10.5585 280.99 11.9293 281.412C11.9293 281.412 12.4294 281.287 13.4295 281.038C13.4295 281.038 14.0374 282.36 12.8347 282.169C12.2333 282.073 12.201 282.272 11.7678 282.407C11.1664 282.311 11.1665 282.311 10.5651 282.215ZM7.73303 283.194C7.73303 283.194 7.33213 283.13 7.79766 282.796C8.39901 282.891 8.16624 283.058 7.73303 283.194ZM3.92453 282.587C3.92453 282.587 3.25855 282.889 3.92453 282.587V282.587ZM4.63591 284.538L4.43542 284.506C4.43542 284.506 4.83636 284.57 4.63591 284.538ZM3.666 284.179C3.666 284.179 3.66597 284.179 3.89873 284.012C4.5324 283.909 4.20272 284.673 3.666 284.179ZM4.22849 283.248L4.62932 283.312C4.56469 283.71 2.12705 283.526 4.22849 283.248ZM8.244 285.112C7.04131 284.921 7.77188 284.22 8.20509 284.085C8.77412 284.38 8.70953 284.778 8.244 285.112ZM14.154 285.441L14.5548 285.504C14.5548 285.504 14.9558 285.568 15.1562 285.6C14.3544 285.472 14.154 285.441 14.154 285.441ZM12.8866 285.647C12.8866 285.647 13.2875 285.711 13.488 285.743C13.488 285.743 13.488 285.743 14.0894 285.839C14.8912 285.966 14.4903 285.902 14.0894 285.839C13.6885 285.775 13.0871 285.679 12.8543 285.846C11.1538 286.188 12.1172 285.32 12.8866 285.647ZM3.80179 284.609C3.40089 284.545 3.40089 284.545 3.80179 284.609V284.609ZM3.67252 285.405L3.27161 285.341C3.27161 285.341 3.67256 285.405 3.87301 285.437L4.93987 285.198C6.34302 285.422 4.11233 286.496 3.8407 285.636L3.67252 285.405ZM3.57558 286.002L4.44202 285.732C4.44202 285.732 5.64468 285.923 4.64244 285.763C4.04109 285.668 3.20699 285.739 3.64021 285.604L3.57558 286.002ZM11.4966 287.875L11.697 287.907L11.4966 287.875ZM7.26792 289.856C7.26792 289.856 6.2657 289.696 6.73123 289.362C6.93168 289.394 8.87151 290.111 7.26792 289.856ZM7.53956 290.716C7.53956 290.716 6.13641 290.492 7.2356 290.055C7.43605 290.087 7.57188 290.517 7.53956 290.716ZM1.4938 289.957C-0.982767 288.746 1.9593 289.623 4.09306 289.146C4.26119 289.377 2.26328 290.284 1.4938 289.957ZM11.8525 292.015C11.8525 292.015 12.6543 292.142 11.8202 292.214C11.4193 292.15 11.4193 292.15 11.8525 292.015ZM7.95358 293.231C7.95358 293.231 8.15403 293.263 7.45573 293.764L7.95358 293.231ZM8.9624 294.617L8.3868 293.096C8.3868 293.096 11.9303 294.068 8.9624 294.617ZM10.165 294.808C10.165 294.808 10.3655 294.84 10.566 294.872L10.165 294.808ZM9.90653 296.4C9.90653 296.4 9.90657 296.4 10.1717 296.034C10.8376 295.732 10.1393 296.233 9.90653 296.4ZM8.10907 297.339C8.10907 297.339 9.04011 296.67 8.77503 297.036C8.77503 297.036 8.30952 297.371 8.10907 297.339ZM6.71245 298.341L6.34386 298.078C7.87627 297.506 7.37843 298.039 6.71245 298.341ZM62.2413 2.00035L62.306 1.60236C62.306 1.60236 62.2737 1.80136 62.2413 2.00035ZM67.3757 7.1046C67.3757 7.1046 67.1753 7.07269 67.3757 7.1046V7.1046ZM67.3823 8.33043C67.3823 8.33043 67.2788 7.70158 67.4792 7.73349C67.8801 7.79732 67.9836 8.42617 67.3823 8.33043ZM65.5136 8.44121C65.5136 8.44121 65.811 7.87615 65.9468 8.30604C65.9468 8.30604 65.8822 8.70402 65.5136 8.44121ZM67.5443 13.6637C67.5443 13.6637 67.6089 13.2658 67.6412 13.0668C68.4753 12.9955 68.5465 13.8233 67.5443 13.6637ZM70.0275 16.1004C70.0275 16.1004 70.2279 16.1323 70.0275 16.1004V16.1004ZM77.1999 40.3096C77.1999 40.3096 76.7279 39.4179 76.7925 39.0199C77.3292 39.5136 77.8659 40.0073 77.1999 40.3096ZM77.1096 42.1324C76.5274 39.3859 79.056 44.0754 80.5561 43.7018C82.968 45.3106 78.3965 45.6034 77.1096 42.1324ZM82.7094 46.9025L83.1103 46.9663C83.1103 46.9663 82.6771 47.1015 82.7094 46.9025ZM82.7225 49.3542C82.7225 49.3542 82.8195 48.7572 82.8518 48.5582C83.6794 47.261 84.7724 51.9261 82.7225 49.3542ZM88.422 91.4968L87.5814 90.3423C85.0144 90.9543 89.3007 81.0217 85.1886 86.0828C85.1886 86.0828 85.8027 82.302 85.6861 79.2214C89.7531 78.2358 87.1027 88.2247 89.7151 89.8655C89.5859 90.6614 88.9199 90.9637 88.3897 91.6958L88.422 91.4968ZM87.7434 95.6756C87.7434 95.6756 87.4071 95.2138 87.5364 94.4179C87.6722 94.8478 87.8403 95.0786 87.7434 95.6756ZM88.7587 98.2869C88.7587 98.2869 88.5517 97.0291 88.681 96.2332C88.9203 97.2919 89.0561 97.7218 88.7587 98.2869ZM96.0527 101.489C96.0527 101.489 95.7553 102.055 96.0527 101.489V101.489ZM96.3697 104.602C96.3697 104.602 96.3697 104.602 96.7706 104.666C96.706 105.064 96.3374 104.801 96.3697 104.602ZM96.6414 105.462C96.6414 105.462 96.8418 105.494 97.0422 105.526C96.9129 106.322 96.1758 105.796 96.6414 105.462ZM89.0697 106.502C89.0697 106.502 89.0309 105.475 89.5999 105.77C89.5676 105.969 89.4706 106.566 89.0697 106.502ZM88.9081 107.497L89.3091 107.561C89.5807 108.42 88.947 108.524 88.9081 107.497ZM96.0147 113.119C96.0147 113.119 96.0728 111.495 96.2086 111.925C96.3767 112.156 96.4156 113.183 96.0147 113.119ZM95.9177 113.716C95.9177 113.716 95.685 113.883 95.9177 113.716V113.716ZM88.5929 129.697C88.5929 129.697 88.0495 127.978 88.6509 128.073C89.0518 128.137 89.3558 128.798 88.5929 129.697ZM94.5417 131.053C94.5417 131.053 95.0784 131.546 95.0137 131.944C94.1862 133.241 93.4036 130.463 94.5417 131.053ZM86.3687 131.997C86.6919 130.007 87.791 129.57 86.8084 133.088C86.3106 133.621 86.4076 133.024 86.3687 131.997ZM95.3439 137.508C95.3439 137.508 95.3439 137.508 95.3116 137.707C95.2793 137.906 94.6779 137.811 95.3439 137.508ZM93.7403 137.253C93.7403 137.253 94.1412 137.317 94.1089 137.516C94.4451 137.978 93.2424 137.786 93.7403 137.253ZM89.4662 136.981C89.4662 136.981 89.5632 136.384 89.7637 136.416C91.0376 137.435 89.7056 138.04 89.4662 136.981ZM89.182 139.998C89.182 139.998 88.5095 139.074 89.3759 138.804C89.5763 138.836 89.9126 139.298 89.182 139.998ZM88.8199 140.961L88.2186 140.865C88.2186 140.865 88.7164 140.332 88.8199 140.961ZM86.6216 141.836C86.5761 139.583 86.6665 137.76 86.8216 135.539C88.0631 136.758 86.9901 142.098 86.6216 141.836ZM90.3078 150.792C90.3078 150.792 89.9069 150.728 90.0039 150.131C89.8615 148.475 90.8764 144.758 91.1349 143.167C91.0057 143.963 90.437 149.996 90.1073 150.76L90.3078 150.792ZM86.0722 145.218C86.0722 145.218 87.1456 146.206 87.2556 148.061C85.09 155.065 84.7664 150.726 86.0722 145.218ZM84.8058 158.081C85.3551 154.699 85.6267 155.558 85.9176 153.767C87.4757 151.77 85.7691 157.214 84.8058 158.081ZM81.5605 169.2C81.5605 169.2 81.1208 168.11 81.6186 167.577C81.9872 167.839 81.9549 168.038 81.5605 169.2ZM89.4174 177.8C89.4174 177.8 90.0188 177.896 89.9541 178.294C89.8895 178.692 89.2881 178.596 89.4174 177.8ZM75.5934 183.152C75.5934 183.152 75.5934 183.152 75.6258 182.953C75.6258 182.953 75.6258 182.953 75.5934 183.152ZM83.1589 187.215L83.3851 185.822C83.3851 185.822 83.5467 184.827 83.5144 185.026C83.5533 186.053 83.2559 186.618 83.1266 187.414L83.1589 187.215ZM85.7456 190.28C85.7456 190.28 86.974 189.047 85.7456 190.28V190.28ZM75.3222 188.621C75.3222 188.621 75.4838 187.626 75.7165 187.459C76.0851 187.722 75.5873 188.255 75.3222 188.621ZM78.5233 194.234C77.9739 197.617 77.4114 198.548 76.1572 201.206C75.9502 199.948 77.9608 195.165 78.5233 194.234ZM80.4889 193.526C80.4889 193.526 79.9007 195.882 79.4351 196.216C79.629 195.022 79.7906 194.027 80.4889 193.526ZM80.7352 202.139C83.024 199.441 82.5908 199.576 82.513 197.523C82.8427 196.759 83.373 196.026 83.5022 195.231C83.5022 195.231 83.5668 194.833 83.5992 194.634L83.6638 194.236C84.1162 191.45 85.3835 191.243 82.6297 200.603C83.5931 199.736 83.6188 198.311 84.3817 197.412C84.6988 200.524 82.9271 200.038 82.0026 201.932C81.4012 201.837 80.9357 202.171 80.5348 202.107L80.7352 202.139ZM71.5923 202.725C71.5923 202.725 71.7862 201.531 72.2518 201.197C72.4911 202.255 72.0579 202.39 71.5923 202.725ZM74.9999 203.267C74.8383 204.262 74.6444 205.456 74.4829 206.451C73.4872 207.517 73.2286 209.109 72.4657 210.008C72.8212 207.819 74.3405 204.795 75.0322 203.068L74.9999 203.267ZM76.8625 208.259L77.1988 208.721C76.9983 208.689 76.8302 208.458 76.8625 208.259ZM77.6905 213.29C77.1987 208.721 82.1383 202.362 81.5566 205.944C79.7268 207.082 80.3544 212.081 77.6905 213.29ZM62.8455 227.461C62.8455 227.461 62.9102 227.063 63.2464 227.525C62.7809 227.859 62.8132 227.66 62.8455 227.461ZM56.2119 235.387C56.2119 235.387 55.9534 236.979 55.2874 237.281C54.7184 236.986 55.4813 236.087 56.2119 235.387ZM56.2054 234.161C56.2054 234.161 55.4747 234.861 55.5394 234.463C55.6686 233.667 56.27 233.763 56.2054 234.161ZM63.7452 239.648C66.6222 234.595 67.2559 234.492 66.9973 236.084C66.0471 239.403 62.5879 241.71 63.7452 239.648ZM50.6846 250.43C50.6846 250.43 50.0186 250.732 49.9151 250.103C50.316 250.167 50.5164 250.199 50.6846 250.43ZM56.8853 248.967C56.8853 248.967 55.353 249.54 58.7925 243.555C58.9671 245.012 57.2019 245.751 56.8853 248.967ZM57.6033 252.144C57.6033 252.144 58.3274 250.217 58.8252 249.684C59.5947 250.011 58.502 251.674 57.6033 252.144ZM47.025 252.705C47.025 252.705 48.0206 251.639 47.6909 252.403C47.6586 252.602 47.1931 252.936 47.025 252.705ZM65.9536 290.625C65.9536 290.625 65.9213 290.824 65.9536 290.625V290.625ZM67.6284 291.709C67.6284 291.709 67.5895 290.682 67.4537 290.252C66.9427 288.333 67.0397 287.736 67.4537 290.252C67.389 290.65 67.5895 290.682 67.5572 290.881C67.4926 291.279 67.4603 291.478 67.4603 291.478L67.6284 291.709ZM65.7597 291.819C65.7597 291.819 65.5139 289.535 65.7855 290.395L65.9925 291.652C65.9925 291.652 65.9602 291.851 65.9925 291.652L65.7597 291.819ZM66.3999 292.942L66.4322 292.743C66.4322 292.743 66.4322 292.743 66.3999 292.942ZM67.6027 293.133C67.6027 293.133 67.635 292.934 67.6027 293.133V293.133ZM53.966 296.066C53.966 296.066 53.8691 296.663 53.5328 296.201C53.5328 296.201 53.7978 295.835 53.966 296.066ZM62.6822 296.841L62.8115 296.045C62.8115 296.045 62.6822 296.841 62.9538 297.701C62.9215 297.9 62.8569 298.298 62.9538 297.701C62.818 297.271 62.8246 298.497 62.9538 297.701C62.9862 297.502 62.7469 296.443 62.915 296.674C62.915 296.674 63.0508 297.104 62.915 296.674L62.6822 296.841ZM63.898 299.484C63.898 299.484 63.6264 298.624 63.5229 297.996C63.5229 297.996 63.5229 297.996 63.691 298.227C63.5941 298.823 64.0985 299.516 63.898 299.484C63.898 299.484 63.7299 299.253 63.6976 299.452L63.898 299.484ZM64.2923 298.322C64.2923 298.322 64.3635 299.15 64.2923 298.322V298.322ZM63.8914 298.258C63.4128 296.141 63.8914 298.258 63.8914 298.258V298.258ZM64.6933 298.386C64.6933 298.386 64.9003 299.644 64.9649 299.246C64.9649 299.246 64.9649 299.246 64.6933 298.386ZM66.1156 295.959C66.1156 295.959 66.2126 295.362 66.4842 296.222C66.6912 297.479 66.3549 297.018 66.4519 296.421L66.5165 296.023L66.1156 295.959ZM65.6178 296.492L65.6501 296.293C65.6501 296.293 65.7536 296.922 65.6178 296.492ZM67.3961 298.204C67.3961 298.204 67.2991 298.801 66.9952 298.14L67.2214 296.747C67.2214 296.747 67.1825 295.72 67.3183 296.15C67.4541 296.58 67.3895 296.978 67.3249 297.376C67.2926 297.575 67.5642 298.435 67.5965 298.236C67.6611 297.838 67.6611 297.838 67.6611 297.838C67.6611 297.838 67.7647 298.467 67.7323 298.666L67.3314 298.602L67.3961 298.204ZM66.3161 295.991L66.3807 295.593L66.3161 295.991ZM64.15 296.666C64.15 296.666 64.15 296.666 63.8138 296.205C63.8784 295.807 63.8137 296.205 64.15 296.666ZM63.012 296.077C63.012 296.077 63.0442 295.878 62.9084 295.448C62.8696 294.421 63.1089 295.48 63.012 296.077ZM61.0463 296.785C61.0463 296.785 60.9105 296.355 60.7424 296.124L60.8393 295.527C60.3284 293.608 60.6389 295.495 60.904 295.129C60.904 295.129 61.4149 297.048 61.2467 296.817L61.0463 296.785ZM58.8737 296.235L58.906 296.036C58.699 294.778 58.8414 296.434 58.8737 296.235ZM56.9596 294.093L56.5587 294.029C56.5587 294.029 56.7592 294.061 56.9596 294.093ZM58.395 294.117C58.395 294.117 58.3628 294.316 58.1946 294.085C58.1946 294.085 58.1946 294.085 58.395 294.117ZM59.4619 293.879C59.4619 293.879 60.5161 297.517 59.8436 296.593C59.8113 296.792 59.8436 296.593 59.8436 296.593L59.5073 296.132C59.5073 296.132 59.7659 294.54 58.7313 294.579C58.6278 293.95 59.1969 294.245 59.6624 293.911L59.4619 293.879ZM63.9364 294.183C63.9364 294.183 63.2382 294.684 62.4687 294.357C62.501 294.158 63.6648 293.323 63.9364 294.183ZM57.8129 291.371L57.8452 291.172L57.8129 291.371ZM64.2273 292.392C64.2273 292.392 63.7617 292.726 63.4255 292.264C63.5224 291.667 63.9557 291.532 64.2273 292.392ZM68.8376 293.126C68.8376 293.126 68.9023 292.728 69.1416 293.787C69.4132 294.647 68.9411 293.755 68.8376 293.126ZM67.4087 294.327C67.4087 294.327 67.648 295.386 67.9519 296.047C67.855 296.644 68.0231 296.875 68.1913 297.106C68.5276 297.568 68.5987 298.395 68.4629 297.966C68.159 297.305 68.1978 298.332 68.1913 297.106L68.2559 296.708C68.2559 296.708 67.9197 296.246 67.8162 295.617C67.8808 295.219 67.6804 295.187 67.8162 295.617C67.7515 296.015 67.8162 295.617 67.8162 295.617C67.8485 295.418 67.6092 294.359 67.6415 294.16C67.7061 293.762 67.7708 293.364 67.842 294.192L67.4087 294.327ZM68.6634 297.997L68.6957 297.798C68.7992 298.427 68.5988 298.395 68.6634 297.997ZM69.4651 298.125C69.4651 298.125 69.2258 297.066 69.2581 296.867C69.2581 296.867 69.2582 296.867 69.2258 297.066C69.1612 297.464 69.4328 298.324 69.4328 298.324C69.4328 298.324 69.4328 298.324 69.4651 298.125ZM68.8119 294.551C68.8119 294.551 68.9477 294.981 68.9154 295.18L69.0123 294.583L68.8119 294.551ZM69.698 297.958C69.698 297.958 69.5944 297.329 69.3228 296.469L69.3551 296.27C69.3551 296.27 69.2193 295.84 69.0512 295.61L69.0835 295.411C69.0835 295.411 68.8119 294.551 68.8765 294.153C69.1805 294.814 69.2128 294.615 69.3163 295.243C69.2582 296.867 69.4521 295.673 69.8919 296.764C69.8595 296.963 69.8272 297.162 69.8272 297.162C69.7949 297.361 69.7302 297.759 69.8984 297.99C69.8337 298.388 69.8337 298.388 69.8984 297.99L69.698 297.958ZM65.9929 297.981C65.9929 297.981 66.161 298.211 66.1287 298.41C66.0964 298.609 65.9606 298.18 65.9929 297.981ZM65.8313 298.976C65.8313 298.976 65.23 298.88 64.8937 298.418C64.8937 298.418 64.9583 298.02 64.8225 297.59L64.9195 296.993C64.9195 296.993 64.6479 296.133 64.4151 296.3C64.1111 295.64 64.2212 297.494 63.8461 296.006L63.9107 295.608C63.9107 295.608 63.9107 295.608 63.9754 295.21C64.04 294.812 64.04 294.812 64.1758 295.242L64.1434 295.441C64.1434 295.441 64.4797 295.902 64.5444 295.505C64.609 295.107 64.3697 294.048 64.6413 294.907L64.609 295.106C64.609 295.106 64.8418 294.939 65.0422 294.971L64.9453 295.568C64.9453 295.568 65.2169 296.428 65.5209 297.089C65.5855 296.691 65.4497 296.261 65.6501 296.293C65.7148 295.895 65.5466 295.664 65.3785 295.433C65.3785 295.433 65.4108 295.234 65.3785 295.433C65.5855 296.691 65.5789 295.465 65.8894 297.352C66.1287 298.41 65.8894 297.352 65.7278 298.347L65.6632 298.745L65.8313 298.976ZM66.8725 300.162C66.8725 300.162 66.7755 300.759 66.8402 300.361C66.8725 300.162 66.9048 299.963 66.8725 300.162ZM60.7424 296.124C60.7035 295.097 60.7358 294.898 60.8716 295.328L61.1756 295.989C61.1756 295.989 61.111 296.387 61.0463 296.785C61.014 296.984 61.2856 297.844 61.4538 298.074C61.4538 298.074 61.4538 298.074 61.583 297.278C61.68 296.681 61.5118 296.451 61.376 296.021C61.1044 295.161 61.5053 295.225 61.5053 295.225C61.5053 295.225 61.4407 295.623 61.5765 296.053C61.5765 296.053 62.4561 298.234 62.1844 297.374C62.2167 297.175 62.249 296.976 62.1132 296.546C62.042 295.718 62.1067 295.32 62.2102 295.949L62.1132 296.546C62.1132 296.546 62.3525 297.605 62.5529 297.637C62.5529 297.637 62.7145 296.642 62.6176 297.239L62.5529 297.637C62.5529 297.637 62.7145 296.642 62.6499 297.04C62.6176 297.239 62.818 297.271 62.9862 297.502C62.9862 297.502 63.3937 298.792 63.3613 298.991C63.3613 298.991 63.2967 299.389 63.1609 298.959C63.1932 298.76 62.8569 298.298 63.0251 298.529C62.8635 299.524 62.5206 297.836 62.4237 298.433C62.4237 298.433 62.4237 298.433 62.2233 298.401C62.0551 298.17 62.1909 298.6 62.1586 298.799C62.094 299.197 61.6219 298.305 61.4861 297.875C61.6477 296.881 61.1432 296.188 61.0397 295.559L60.7424 296.124ZM39.1847 297.183C39.1847 297.183 38.4541 297.883 38.3829 297.055C38.551 297.286 38.3829 297.055 38.5834 297.087C38.5834 297.087 39.0489 296.753 39.1847 297.183ZM40.5879 297.406L40.6202 297.207C40.6202 297.207 41.0923 298.099 40.5879 297.406ZM41.3897 297.534C41.3897 297.534 41.3897 297.534 41.2539 297.104C40.9434 295.217 41.6548 297.168 41.3897 297.534ZM42.4888 297.096L42.4565 297.295C42.4565 297.295 42.4565 297.295 42.4888 297.096ZM41.7517 296.571C41.7517 296.571 41.8164 296.173 41.7841 296.372C42.3208 296.866 41.6225 297.367 41.7517 296.571ZM42.5535 296.698C42.5535 296.698 42.5212 296.897 42.5535 296.698C42.5858 296.499 42.6181 296.301 42.5535 296.698ZM42.8832 295.934C42.8832 295.934 42.8832 295.934 43.019 296.364L42.9867 296.563C42.9867 296.563 43.0514 296.165 42.8832 295.934ZM48.3923 296.199C48.3923 296.199 48.5993 297.457 47.6551 295.673C47.9202 295.307 47.7521 295.077 48.3923 296.199ZM58.751 298.257C58.751 298.257 58.7833 298.058 58.8868 298.686C58.8222 299.084 58.8868 298.686 58.751 298.257ZM59.2488 297.723C59.2488 297.723 59.3458 297.126 59.1777 296.896C59.1777 296.896 59.3846 298.153 59.2488 297.723ZM59.1519 298.32C59.1519 298.32 59.2811 297.524 59.1519 298.32C59.3589 299.578 59.0226 299.116 59.1519 298.32ZM43.7239 297.089L43.8532 296.293C43.8532 296.293 43.7885 296.691 43.892 297.32C43.9308 298.347 43.8274 297.718 43.6916 297.288L43.7239 297.089ZM45.9354 298.666C47.4354 298.292 46.6337 298.165 48.0368 298.388C47.9399 298.985 46.6402 299.39 45.9354 298.666ZM57.5614 300.517L57.6261 300.119C57.7942 300.35 57.6649 301.146 57.5614 300.517ZM36.023 298.925L36.0876 298.527C36.0876 298.527 36.0876 298.527 36.023 298.925ZM27.191 307.726L27.2556 307.328C27.2556 307.328 27.3268 308.155 27.191 307.726ZM24.9214 307.772C24.9214 307.772 24.8891 307.971 24.9214 307.772C24.9537 307.573 24.986 307.375 24.9214 307.772ZM26.0853 306.937C26.0853 306.937 26.0853 306.937 26.2211 307.367C26.1564 307.765 26.0207 307.335 26.0853 306.937ZM24.4817 306.682C24.4817 306.682 24.514 306.483 24.4817 306.682C24.4817 306.682 24.4494 306.881 24.417 307.08C24.3847 307.279 24.4171 307.08 24.2489 306.849L24.4817 306.682ZM31.8917 306.637C31.8983 307.863 31.6913 306.605 31.6978 307.831C31.5686 308.627 31.297 307.767 31.2258 306.939C31.2581 306.74 31.2904 306.541 31.1546 306.111C31.2192 305.713 31.1546 306.111 31.1546 306.111C31.1869 305.912 31.4909 306.573 31.355 306.143C31.4197 305.745 31.4196 305.745 31.5555 306.175C31.5555 306.175 31.5231 306.374 31.5555 306.175C31.6524 305.578 32.3961 307.329 32.3638 307.528C32.3638 307.528 32.2992 307.926 32.4027 308.555L32.3704 308.754C32.1699 308.722 31.9694 308.69 31.5943 307.202C31.6589 306.804 31.6589 306.804 31.5943 307.202L31.8917 306.637ZM41.7718 306.577C41.7718 306.577 42.0369 306.211 42.4054 306.473C42.3731 306.672 42.1404 306.839 41.7718 306.577ZM51.768 303.269C51.8003 303.07 51.8003 303.07 51.768 303.269V303.269ZM16.2301 292.916L15.6999 293.648C15.6999 293.648 16.2624 292.717 16.2301 292.916ZM13.2364 294.889L13.7343 294.356L13.6697 294.754L13.2688 294.69L13.2364 294.889ZM11.8075 296.09L11.245 297.021L10.7473 297.555C10.7473 297.555 11.2451 297.021 10.8119 297.157C10.5468 297.523 9.84849 298.024 10.411 297.093C10.9088 296.56 11.3743 296.225 11.8398 295.891L11.8075 296.09ZM11.5691 307.688L11.0713 308.221L11.1359 307.823C11.1359 307.823 11.2974 306.828 11.4656 307.059L11.3686 307.656L11.5691 307.688ZM5.52945 301.827C5.52945 301.827 5.26437 302.193 5.52945 301.827V301.827ZM11.0835 298.016L10.9865 298.613L10.3852 298.518C10.3852 298.518 10.8507 298.183 11.0835 298.016ZM14.7754 295.542L14.213 296.473C14.213 296.473 14.5103 295.908 14.7754 295.542ZM14.3745 295.478C14.3745 295.478 14.4391 295.08 15.0016 294.149L15.4994 293.616C15.4994 293.616 15.4671 293.815 14.9369 294.547L14.9046 294.746C14.9046 294.746 14.9693 294.348 14.9046 294.746C14.9046 294.746 14.9046 294.746 14.8723 294.945C14.8077 295.343 14.8077 295.343 14.5749 295.51L14.3745 295.478ZM4.92196 306.834C4.92196 306.834 4.05554 307.104 3.79046 307.47C3.79046 307.47 4.08784 306.905 4.88963 307.033L4.92196 306.834ZM1.74709 306.124C1.74709 306.124 0.816012 306.793 0.945274 305.997C1.57894 305.893 2.27725 305.392 1.74709 306.124ZM0.796379 303.115C0.796379 303.115 0.0980826 303.616 0.796379 303.115V303.115ZM5.59407 301.429C5.59407 301.429 5.59407 301.429 5.56176 301.628C5.29668 301.994 4.83118 302.328 4.86349 302.129C4.96044 301.532 3.66735 303.164 4.96043 301.533L4.99274 301.334L5.39358 301.397L5.59407 301.429ZM5.35475 300.37C5.35475 300.37 5.61984 300.004 5.35475 300.37V300.37ZM4.64988 299.646C4.64988 299.646 3.62187 300.911 4.64988 299.646V299.646ZM8.94972 298.493C8.94972 298.493 8.21912 299.193 7.75359 299.528L7.35269 299.464L7.85055 298.931C7.85055 298.931 9.27943 297.729 8.98203 298.294L8.94972 298.493ZM9.01435 298.095C9.01435 298.095 8.11561 298.565 9.1113 297.498C9.77728 297.196 10.01 297.029 9.01435 298.095ZM15.3637 293.186C15.3637 293.186 14.8658 293.719 14.3033 294.65C14.271 294.849 14.0382 295.016 13.8055 295.184L13.8378 294.985L13.9024 294.587C13.9024 294.587 15.0339 293.95 15.4994 293.616L15.3637 293.186ZM17.2838 290.226C16.2882 291.292 15.7903 291.825 15.0597 292.525C15.6222 291.594 15.6222 291.594 17.2838 290.226ZM18.0857 290.353C18.0857 290.353 17.5878 290.886 17.355 291.054C17.6524 290.489 17.8852 290.321 18.0857 290.353ZM34.6241 268.286C34.6241 268.286 34.4237 268.254 34.6241 268.286V268.286ZM39.5638 261.928C39.5638 261.928 39.5638 261.928 39.5315 262.127C39.5315 262.127 39.5315 262.127 39.5638 261.928ZM48.642 261.74L50.2972 259.146C50.2972 259.146 50.2714 260.571 48.642 261.74ZM43.1653 261.276C43.7601 260.146 44.2903 259.414 44.7881 258.881C44.4584 259.645 43.9282 260.377 43.1653 261.276ZM46.0236 265.202L46.9481 263.308C46.9481 263.308 47.7821 263.236 47.3878 264.398L45.8231 265.17L46.0236 265.202ZM45.3187 264.477C45.3187 264.477 45.4156 263.88 45.5838 264.111C45.5191 264.509 45.2864 264.676 45.3187 264.477ZM22.9672 285.619C20.5426 287.887 18.8486 289.454 18.6158 289.621C21.1374 286.757 17.6782 289.064 21.8937 284.631C21.8937 284.631 21.6932 284.6 21.7256 284.401C21.7256 284.401 21.9583 284.233 22.1588 284.265C24.9131 281.234 30.9585 275.664 41.7041 262.677C41.6395 263.075 40.5145 264.937 38.6266 267.699C36.7387 270.46 33.7516 273.659 31.1655 276.922C28.1784 280.12 25.3918 283.351 22.9672 285.619ZM25.9547 288.748C25.9547 288.748 25.7543 288.716 25.8189 288.318C25.8189 288.318 25.987 288.549 25.9547 288.748ZM29.5501 293.199C29.5501 293.199 30.4746 291.305 31.341 291.035C31.341 291.035 31.2117 291.831 31.1794 292.03C31.1794 292.03 29.9833 293.064 29.5501 293.199ZM26.4464 293.318C26.4464 293.318 25.9744 292.426 26.5757 292.522C26.9766 292.585 26.4788 293.119 26.4464 293.318ZM28.8518 293.7C28.8518 293.7 29.0846 293.533 28.8518 293.7V293.7ZM24.3839 294.622C24.3839 294.622 22.6187 295.362 22.651 295.163C23.4139 294.264 24.1769 293.364 24.3839 294.622ZM52.4664 302.768C52.4664 302.768 52.531 302.37 52.6668 302.799C52.9384 303.659 52.5052 303.794 52.4664 302.768ZM53.6756 304.185L53.7402 303.787L53.6756 304.185ZM45.9424 306.22C45.9424 306.22 46.007 305.822 45.8065 305.79C45.8065 305.79 45.8712 305.392 45.703 305.161C45.1987 304.468 45.9939 303.37 45.703 305.161C45.6707 305.36 45.7742 305.989 45.9101 306.419C45.8454 306.817 45.7808 307.215 45.9101 306.419L45.9424 306.22ZM45.9812 307.247C45.9812 307.247 45.7807 307.215 45.6773 306.586L45.7419 306.188C45.7419 306.188 45.7419 306.188 46.0135 307.048L45.9812 307.247ZM34.0901 305.762C34.0901 305.762 34.0578 305.961 34.0901 305.762V305.762ZM33.6569 305.897L33.7215 305.499C33.7215 305.499 33.7215 305.499 33.6569 305.897ZM33.8962 306.956L33.9608 306.558C33.9608 306.558 33.9608 306.558 33.9285 306.757L33.8962 306.956ZM34.3683 307.848C34.3683 307.848 34.3749 309.073 34.3683 307.848V307.848ZM33.9028 308.182C33.9028 308.182 33.4953 306.892 33.5665 307.72C33.6377 308.548 33.4695 308.317 33.3014 308.086C33.3014 308.086 33.2368 308.484 33.3014 308.086C33.2302 307.258 32.991 306.199 33.1591 306.43L33.256 305.833C33.3595 306.462 33.6635 307.123 33.6958 306.924L34.2391 308.643L33.9028 308.182ZM31.0576 306.708C31.0576 306.708 31.1934 307.138 31.3616 307.369C31.4974 307.799 31.2323 308.165 31.2323 308.165C31.2323 308.165 31.2323 308.165 30.9283 307.504C30.993 307.106 31.0576 306.708 31.0576 306.708ZM28.0898 307.256C28.2125 305.234 28.122 307.057 28.5941 307.949C28.5295 308.347 28.0574 307.455 28.0898 307.256ZM25.7232 307.9C25.7232 307.9 25.7233 307.9 25.5551 307.669C25.5874 307.47 25.5551 307.669 25.5551 307.669L25.4905 308.067L25.7232 307.9ZM22.9169 307.453C22.9169 307.453 22.4125 306.761 22.613 306.793C22.613 306.793 22.6454 306.594 22.8135 306.824L22.8458 306.625C22.8458 306.625 23.0462 306.657 23.2532 307.915C23.1886 308.313 23.2532 307.915 23.0527 307.883L22.9169 307.453ZM65.3127 2.08106C65.3127 2.08106 66.1145 2.20871 66.0822 2.4077C66.0175 2.80568 65.3839 2.90894 65.2804 2.28006C65.2804 2.28006 65.3127 2.08106 65.3451 1.88207L65.3127 2.08106ZM76.2819 43.4296L76.3143 43.2306C76.3143 43.2306 76.3143 43.2306 76.2496 43.6286L76.2819 43.4296ZM13.2399 251.817C13.2399 251.817 12.3735 252.087 12.3411 252.286C12.3411 252.286 12.3411 252.286 11.9402 252.222C11.9726 252.023 12.0372 251.626 12.0695 251.427L12.4704 251.49C12.4704 251.49 13.4727 251.65 13.2722 251.618L13.2399 251.817ZM9.70297 252.07C9.70297 252.07 9.703 252.07 9.50255 252.038C9.50255 252.038 9.50254 252.038 9.10164 251.975C9.30209 252.007 9.56716 251.64 9.79992 251.473L10.2008 251.537L10.5048 252.198C10.5048 252.198 10.1039 252.134 9.70297 252.07ZM3.12703 252.044L3.52794 252.108L3.12703 252.044ZM69.2708 292.991L69.2385 293.19C69.4455 294.448 69.4132 294.647 69.2385 293.19C69.2385 293.19 69.2708 292.991 69.2385 293.19L69.2708 292.991ZM6.60763 278.727C6.60763 278.727 5.13986 278.902 6.60763 278.727V278.727ZM32.1245 306.47L32.0598 306.868C31.9563 306.239 32.1568 306.271 32.1245 306.47ZM11.838 270.578C11.838 270.578 11.0362 270.451 11.838 270.578V270.578ZM66.9755 294.463C66.9755 294.463 66.872 293.834 67.0078 294.264L66.9755 294.463ZM12.2316 256.76L12.6324 256.824C12.6324 256.824 11.9988 256.927 12.2316 256.76ZM64.816 296.364C64.816 296.364 64.7514 296.762 64.7837 296.563C64.816 296.364 64.8483 296.165 64.816 296.364ZM17.932 311.559C17.932 311.559 17.932 311.559 17.9643 311.36C17.9966 311.161 17.9643 311.36 17.932 311.559ZM14.3718 257.509C14.3718 257.509 14.9732 257.605 14.5723 257.541C14.3719 257.509 13.9709 257.445 14.3718 257.509ZM70.7133 300.569C70.7133 300.569 70.7133 300.569 70.681 300.768C70.681 300.768 70.681 300.768 70.7133 300.569ZM56.6111 303.836C56.6111 303.836 56.65 304.863 56.5142 304.433C56.5142 304.433 56.4107 303.804 56.6111 303.836ZM13.1522 291.609C13.1522 291.609 12.9194 291.776 12.4862 291.912C12.4862 291.912 12.9517 291.577 13.1522 291.609ZM13.9587 267.65L13.5578 267.586C13.5578 267.586 13.5579 267.586 13.3897 267.355C14.4566 267.117 14.7928 267.578 14.1591 267.682L13.9587 267.65ZM8.04444 297.737L7.54659 298.27C7.54659 298.27 7.5789 298.071 7.61122 297.872L8.01213 297.936C8.01213 297.936 8.50996 297.402 9.17594 297.1C9.20825 296.901 9.70608 296.368 9.97116 296.002C9.90653 296.4 9.84188 296.798 9.80957 296.997C9.80957 296.997 10.01 297.029 9.80957 296.997L9.74495 297.395C9.74495 297.395 8.38068 298.198 8.58113 298.23C8.58113 298.23 8.08327 298.764 7.61773 299.098L7.68237 298.7L8.84625 297.864C8.84625 297.864 8.84626 297.864 8.87858 297.665C8.87858 297.665 8.4453 297.801 8.18022 298.167L8.04444 297.737Z" fill="#DEE1E5"/>
</svg>
