<svg width="22" height="14" viewBox="0 0 22 14" fill="none" xmlns="http://www.w3.org/2000/svg">
<path d="M20.75 13.75H1.25C0.835475 13.75 0.5 13.4145 0.5 13V1C0.5 0.585475 0.835475 0.25 1.25 0.25H20.75C21.1645 0.25 21.5 0.585475 21.5 1V13C21.5 13.4145 21.1645 13.75 20.75 13.75ZM2 12.25H20V1.75H2V12.25Z" fill="#E55608"/>
<path d="M11 10C9.34543 10 8 8.65457 8 7C8 5.34543 9.34543 4 11 4C12.6546 4 14 5.34543 14 7C14 8.65457 12.6546 10 11 10ZM11 5.5C10.1731 5.5 9.5 6.17313 9.5 7C9.5 7.82687 10.1731 8.5 11 8.5C11.8269 8.5 12.5 7.82687 12.5 7C12.5 6.17313 11.8269 5.5 11 5.5Z" fill="#E55608"/>
<path d="M11 13C10.5855 13 10.25 12.6645 10.25 12.25V1.75C10.25 1.33548 10.5855 1 11 1C11.4145 1 11.75 1.33548 11.75 1.75V12.25C11.75 12.6645 11.4145 13 11 13Z" fill="#E55608"/>
<path d="M20.75 10.75H19.2969C17.6167 10.75 16.25 9.38328 16.25 7.70312V6.29688C16.25 4.61672 17.6167 3.25 19.2969 3.25H20.75C21.1645 3.25 21.5 3.58548 21.5 4V10C21.5 10.4145 21.1645 10.75 20.75 10.75ZM19.2969 4.75C18.4436 4.75 17.75 5.4436 17.75 6.29688V7.70312C17.75 8.5564 18.4436 9.25 19.2969 9.25H20V4.75H19.2969Z" fill="#E55608"/>
<path d="M2.70312 10.75H1.25C0.835475 10.75 0.5 10.4145 0.5 10V4C0.5 3.58548 0.835475 3.25 1.25 3.25H2.70312C4.38328 3.25 5.75 4.61672 5.75 6.29688V7.70312C5.75 9.38328 4.38328 10.75 2.70312 10.75ZM2 9.25H2.70312C3.5564 9.25 4.25 8.5564 4.25 7.70312V6.29688C4.25 5.4436 3.5564 4.75 2.70312 4.75H2V9.25Z" fill="#E55608"/>
</svg>
