<svg width="24" height="24" viewBox="0 0 24 24" fill="none" xmlns="http://www.w3.org/2000/svg">
<path d="M9.93617 20C10.3644 20 10.7536 19.7516 10.9339 19.3632L11.5239 18.0925L9.96181 14.6833L9.3583 16H6V20H9.93617Z" fill="#E55608"/>
<path d="M18.0668 4H14.8583L10.5176 13.4708L12.1062 16.8382L18.0668 4Z" fill="#E55608"/>
<path fill-rule="evenodd" clip-rule="evenodd" d="M4.5 16H3.1C2.49249 16 2 16.4925 2 17.1V20H4.5V16Z" fill="#E55608"/>
<path fill-rule="evenodd" clip-rule="evenodd" d="M5.93359 4H9.1421L14.6421 16H18.0004V20H14.0643C13.6361 20 13.2469 19.7516 13.0666 19.3632L5.93359 4ZM19.5004 16H20.9004C21.508 16 22.0004 16.4925 22.0004 17.1V20H19.5004V16Z" fill="#E55608"/>
</svg>
