<svg width="16" height="20" viewBox="0 0 16 20" fill="none" xmlns="http://www.w3.org/2000/svg">
<path d="M9 4C9 3.46957 8.78929 2.96086 8.41421 2.58579C8.03914 2.21071 7.53043 2 7 2H2V0.5C2 0.367392 1.94732 0.240215 1.85355 0.146447C1.75979 0.0526785 1.63261 0 1.5 0H0.5C0.367392 0 0.240215 0.0526785 0.146447 0.146447C0.0526785 0.240215 0 0.367392 0 0.5V19.5C0 19.6326 0.0526785 19.7598 0.146447 19.8536C0.240215 19.9473 0.367392 20 0.5 20H1.5C1.63261 20 1.75979 19.9473 1.85355 19.8536C1.94732 19.7598 2 19.6326 2 19.5V12H7C7 12.5304 7.21071 13.0391 7.58579 13.4142C7.96086 13.7893 8.46957 14 9 14H15.5C15.6326 14 15.7598 13.9473 15.8536 13.8536C15.9473 13.7598 16 13.6326 16 13.5V4.5C16 4.36739 15.9473 4.24021 15.8536 4.14645C15.7598 4.05268 15.6326 4 15.5 4H9ZM2 10V4H7V5.5C7 5.63261 7.05268 5.75979 7.14645 5.85355C7.24021 5.94732 7.36739 6 7.5 6H14V12H9V10.5C9 10.3674 8.94732 10.2402 8.85355 10.1464C8.75979 10.0527 8.63261 10 8.5 10H2Z" fill="#E55608"/>
</svg>
