<svg width="20" height="20" viewBox="0 0 20 20" fill="none" xmlns="http://www.w3.org/2000/svg">
<path fill-rule="evenodd" clip-rule="evenodd" d="M12.4293 2.25395L17.7461 7.57075C17.9126 6.74029 18 5.88073 18 5C18 4.06764 17.902 3.15916 17.716 2.28395C16.8408 2.09799 15.9324 2 15 2C14.1193 2 13.2597 2.08744 12.4293 2.25395ZM17.1028 9.7559L10.2441 2.89717C6.89037 4.21619 4.21619 6.89037 2.89717 10.2441L9.7559 17.1028C13.1096 15.7838 15.7838 13.1096 17.1028 9.7559ZM7.57075 17.7461L2.25395 12.4293C2.08744 13.2597 2 14.1193 2 15C2 15.9324 2.09799 16.8408 2.28395 17.716C3.15916 17.902 4.06764 18 5 18C5.88073 18 6.74029 17.9126 7.57075 17.7461ZM10.1788 0.79191C11.6932 0.27818 13.3151 0 15 0C16.3114 0 17.5849 0.16853 18.7994 0.48563L19.3663 0.63365L19.5144 1.20057C19.8315 2.41509 20 3.68861 20 5C20 6.68488 19.7218 8.3068 19.2081 9.8212C17.7132 14.228 14.228 17.7132 9.8212 19.2081C8.3068 19.7218 6.68488 20 5 20C3.68861 20 2.41509 19.8315 1.20057 19.5144L0.63365 19.3663L0.48563 18.7994C0.16853 17.5849 0 16.3114 0 15C0 13.3151 0.27818 11.6932 0.79191 10.1788C2.2868 5.77205 5.77205 2.2868 10.1788 0.79191ZM13.2071 8.2071L8.2071 13.2071L6.79289 11.7929L11.7929 6.79289L13.2071 8.2071Z" fill="#E55608"/>
</svg>
