<svg width="24" height="24" viewBox="0 0 24 24" fill="none" xmlns="http://www.w3.org/2000/svg">
<path fill-rule="evenodd" clip-rule="evenodd" d="M12 3C7.02944 3 3 7.02944 3 12C3 16.9706 7.02944 21 12 21C16.9706 21 21 16.9706 21 12C21 7.02944 16.9706 3 12 3ZM1 12C1 5.92487 5.92487 1 12 1C18.0751 1 23 5.92487 23 12C23 18.0751 18.0751 23 12 23C5.92487 23 1 18.0751 1 12Z" fill="#E55608"/>
<path fill-rule="evenodd" clip-rule="evenodd" d="M11 6.21203C9.37852 6.57784 8 7.81438 8 9.55C8 10.6419 8.59966 11.4341 9.32934 11.9577C10.0362 12.465 10.9311 12.7774 11.7728 12.9738C12.4603 13.1343 13.0696 13.3701 13.4833 13.6641C13.8822 13.9474 14 14.2035 14 14.45C14 15.071 13.3034 15.9 12 15.9C10.6966 15.9 10 15.071 10 14.45H8C8 16.1856 9.37852 17.4222 11 17.788V19H13V17.788C14.6215 17.4222 16 16.1856 16 14.45C16 13.3434 15.3678 12.5495 14.6417 12.0336C13.9304 11.5283 13.0397 11.2157 12.2272 11.0262C11.5019 10.8569 10.8968 10.6209 10.4954 10.3329C10.1168 10.0612 10 9.81121 10 9.55C10 8.92899 10.6966 8.1 12 8.1C13.3034 8.1 14 8.92899 14 9.55H16C16 7.81438 14.6215 6.57784 13 6.21203V5H11V6.21203Z" fill="#E55608"/>
</svg>
