<svg width="20" height="20" viewBox="0 0 20 20" fill="none" xmlns="http://www.w3.org/2000/svg">
<path fill-rule="evenodd" clip-rule="evenodd" d="M7.59323 0H12.4064L12.9149 3.11542C13.4865 3.35577 14.0216 3.66448 14.5101 4.03113L17.4568 2.91591L19.8634 7.08414L17.4415 9.0644C17.48 9.3712 17.4998 9.6835 17.4998 10C17.4998 10.3165 17.48 10.6288 17.4415 10.9357L19.8634 12.9159L17.4561 17.0853L14.5135 15.9663C14.0241 16.3341 13.4878 16.6437 12.9149 16.8846L12.4064 20H7.59323L7.08471 16.8846C6.51313 16.6442 5.97797 16.3355 5.48952 15.9689L2.54276 17.0841L0.13623 12.9159L2.55813 10.9356C2.51958 10.6288 2.49976 10.3165 2.49976 10C2.49976 9.6835 2.51958 9.3712 2.55813 9.0643L0.13623 7.08409L2.54345 2.91467L5.48608 4.03372C5.97545 3.66594 6.51179 3.35633 7.08471 3.11542L7.59323 0ZM9.29326 2L8.86696 4.61132L8.28766 4.79986C7.55838 5.03718 6.89549 5.42256 6.33511 5.92096L5.88195 6.324L3.42412 5.38931L2.71829 6.61184L4.74457 8.2686L4.61819 8.8646C4.5407 9.23 4.49976 9.6097 4.49976 10C4.49976 10.3903 4.5407 10.77 4.61819 11.1354L4.74456 11.7314L2.71829 13.3881L3.42481 14.6118L5.88612 13.6803L6.33838 14.0819C6.89807 14.5789 7.5598 14.9633 8.28766 15.2001L8.86696 15.3887L9.29326 18H10.7063L11.1326 15.3887L11.7119 15.2001C12.4412 14.9628 13.1041 14.5774 13.6645 14.079L14.1176 13.676L16.5755 14.6107L17.2813 13.3882L15.255 11.7314L15.3814 11.1354C15.4589 10.77 15.4998 10.3903 15.4998 10C15.4998 9.6097 15.4589 9.23 15.3814 8.8646L15.255 8.2686L17.2813 6.61188L16.5748 5.38816L14.1135 6.31966L13.6612 5.91806C13.1015 5.42107 12.4398 5.03672 11.7119 4.79986L11.1326 4.61132L10.7063 2H9.29326ZM9.99976 8C8.89516 8 7.99976 8.8954 7.99976 10C7.99976 11.1046 8.89516 12 9.99976 12C11.1044 12 11.9998 11.1046 11.9998 10C11.9998 8.8954 11.1044 8 9.99976 8ZM5.99977 10C5.99977 7.79086 7.79063 6 9.99976 6C12.209 6 13.9998 7.79086 13.9998 10C13.9998 12.2091 12.209 14 9.99976 14C7.79063 14 5.99977 12.2091 5.99977 10Z" fill="#E55608"/>
</svg>
