<svg width="24" height="24" viewBox="0 0 24 24" fill="none" xmlns="http://www.w3.org/2000/svg">
<path fill-rule="evenodd" clip-rule="evenodd" d="M21.9137 13.32C21.9706 12.8881 22 12.4475 22 12C22 11.5525 21.9706 11.1119 21.9137 10.68C21.3246 6.21296 17.787 2.67541 13.32 2.08635C12.8881 2.02939 12.4475 2 12 2C11.5525 2 11.1119 2.02939 10.68 2.08635C6.21296 2.67541 2.67541 6.21296 2.08635 10.68C2.02939 11.1119 2 11.5525 2 12C2 12.4475 2.02939 12.8881 2.08635 13.32C2.67541 17.787 6.21296 21.3246 10.68 21.9137C11.1119 21.9706 11.5525 22 12 22C12.4475 22 12.8881 21.9706 13.32 21.9137C17.787 21.3246 21.3246 17.787 21.9137 13.32ZM14.7615 19.5106C16.9583 18.7026 18.7026 16.9583 19.5106 14.7615C18.3887 15.314 17.2197 15.7355 16.0258 16.0258C15.7355 17.2197 15.314 18.3887 14.7615 19.5106ZM16.4075 13.8475C17.6548 13.4648 18.8628 12.9157 19.9975 12.2002C19.9992 12.1336 20 12.0669 20 12C20 11.9331 19.9992 11.8664 19.9975 11.7998C18.8628 11.0843 17.6548 10.5352 16.4075 10.1525C16.5412 11.3803 16.5412 12.6197 16.4075 13.8475ZM14.3269 9.67312C14.5681 11.2144 14.5681 12.7856 14.3269 14.3269C12.7856 14.5681 11.2144 14.5681 9.67312 14.3269C9.43188 12.7856 9.43188 11.2144 9.67312 9.67312C11.2144 9.43188 12.7856 9.43188 14.3269 9.67312ZM16.0258 7.97424C17.2197 8.26454 18.3887 8.68596 19.5106 9.23851C18.7026 7.04169 16.9583 5.29739 14.7615 4.48941C15.314 5.61127 15.7355 6.78035 16.0258 7.97424ZM12.2002 4.00246C12.9157 5.13718 13.4648 6.34523 13.8475 7.59251C12.6197 7.45875 11.3803 7.45875 10.1525 7.59251C10.5352 6.34523 11.0843 5.13718 11.7998 4.00246C11.8664 4.00082 11.9331 4 12 4C12.0669 4 12.1336 4.00082 12.2002 4.00246ZM9.23851 4.48941C7.04169 5.29739 5.29739 7.04169 4.48941 9.23851C5.61127 8.68596 6.78035 8.26454 7.97424 7.97424C8.26454 6.78035 8.68596 5.61127 9.23851 4.48941ZM7.59251 10.1525C6.34523 10.5352 5.13718 11.0843 4.00246 11.7998C4.00082 11.8664 4 11.9331 4 12C4 12.0669 4.00082 12.1336 4.00246 12.2002C5.13718 12.9157 6.34523 13.4648 7.59251 13.8475C7.45875 12.6197 7.45875 11.3803 7.59251 10.1525ZM7.97424 16.0258C6.78035 15.7355 5.61127 15.314 4.48941 14.7615C5.29739 16.9583 7.04169 18.7026 9.23851 19.5106C8.68596 18.3887 8.26454 17.2197 7.97424 16.0258ZM11.7998 19.9975C11.0843 18.8628 10.5352 17.6548 10.1525 16.4075C11.3803 16.5412 12.6197 16.5412 13.8475 16.4075C13.4648 17.6548 12.9157 18.8628 12.2002 19.9975C12.1336 19.9992 12.0669 20 12 20C11.9331 20 11.8664 19.9992 11.7998 19.9975Z" fill="#E55608"/>
</svg>
