<svg width="24" height="24" viewBox="0 0 24 24" fill="none" xmlns="http://www.w3.org/2000/svg">
<path d="M20.7084 4.18538L18.449 3.05567C18.3239 2.99309 18.1791 2.98286 18.0465 3.02705C17.9138 3.07128 17.8041 3.16641 17.7415 3.2915L11.674 15.4266H5.78613C5.78603 15.4266 5.78606 15.4266 5.78596 15.4266C4.2715 15.4266 3 16.6504 3 18.2138C3 19.7501 4.24987 21 5.78613 21H12.5648C12.7645 21 12.9471 20.8871 13.0364 20.7085L20.9442 4.89287C21.0745 4.63236 20.9689 4.3156 20.7084 4.18538Z" fill="#E55608"/>
<path d="M8.00002 12C10.1945 12 12 11.0696 12 9.74517V9C11.8057 9.15952 11.5865 9.30683 11.3436 9.44012C10.4456 9.93279 9.25812 10.2042 8.00002 10.2042C6.74385 10.2042 5.55753 9.93351 4.65964 9.44201C4.41544 9.30833 4.19519 9.16051 4 9.00032V9.74517C4 11.0733 5.81182 12 8.00002 12Z" fill="#E55608"/>
<path d="M8.00002 9C10.1945 9 12 8.17474 12 7.00002C12 5.82197 10.1882 5 8.00002 5C5.80557 4.99997 4 5.82526 4 6.99998C4 8.17806 5.81182 9 8.00002 9Z" fill="#E55608"/>
</svg>
