<svg width="24" height="24" viewBox="0 0 24 24" fill="none" xmlns="http://www.w3.org/2000/svg">
<path d="M23.4215 8.68633C24.5125 6.40408 24.0321 3.55647 22.2196 1.77208C19.9317 -0.590658 15.8879 -0.590564 13.6 1.77208L11.0804 4.29259C8.90781 6.4067 8.70451 10.0437 10.612 12.3891L6.84507 16.1574L6.34778 15.6599C6.07314 15.3852 5.62787 15.3852 5.35323 15.6599L0.20598 20.8091C-0.0686602 21.0839 -0.0686602 21.5293 0.20598 21.8041L2.19512 23.794C2.32703 23.9259 2.50586 24 2.69242 24C2.87893 24 3.05781 23.9259 3.18971 23.794L8.33701 18.6447C8.46892 18.5128 8.54298 18.3339 8.54298 18.1472C8.54298 17.9606 8.46887 17.7817 8.33701 17.6498L7.83971 17.1523L11.6066 13.384C13.951 15.2925 17.5865 15.089 19.7 12.9154L22.2196 10.3949C22.7302 9.88361 23.1286 9.30775 23.4215 8.68633ZM2.69237 22.3015L1.69782 21.3066L5.85053 17.1523L6.84512 18.1472L2.69237 22.3015ZM22.4814 7.1169L21.4318 6.0669L22.4752 5.02314C22.6337 5.71112 22.6359 6.42812 22.4814 7.1169ZM21.8956 3.61309L20.4373 5.07194L18.9209 3.55497L20.3792 2.09608C20.68 2.28255 20.9642 2.50605 21.225 2.76695C21.4858 3.02786 21.7092 3.31216 21.8956 3.61309ZM12.075 11.9205C11.8142 11.6596 11.5908 11.3752 11.4044 11.0743L12.854 9.62411L14.3704 11.1411L12.9207 12.5913C12.62 12.4049 12.3358 12.1814 12.075 11.9205ZM10.8154 7.58462L11.8595 8.62914L10.8249 9.66419C10.6675 8.98094 10.6642 8.26904 10.8154 7.58462ZM13.8486 8.62919L15.3902 7.087L16.9066 8.60397L15.365 10.1462L13.8486 8.62919ZM16.3848 6.09208L17.9264 4.54989L19.4428 6.06686L17.9012 7.60905L16.3848 6.09208ZM18.9698 1.51623L17.9264 2.56005L16.8767 1.51C17.5652 1.35555 18.282 1.3577 18.9698 1.51623ZM15.461 2.08356L16.9318 3.55497L15.3902 5.09715L13.8278 3.53406L14.5946 2.76695C14.8613 2.50014 15.1525 2.27256 15.461 2.08356ZM12.8332 4.52898L14.3957 6.09208L12.8541 7.63426L11.3854 6.16501C11.5756 5.8525 11.8052 5.55742 12.0751 5.28751L12.8332 4.52898ZM14.3303 13.1712L15.365 12.136L16.4093 13.1807C15.725 13.332 15.0133 13.3287 14.3303 13.1712ZM17.8283 12.6104L16.3596 11.1411L17.9012 9.59889L19.4636 11.1619L18.7054 11.9204C18.4356 12.1904 18.1407 12.4201 17.8283 12.6104ZM20.4582 10.1671L18.8957 8.60401L20.4373 7.06183L21.9081 8.53319C21.7192 8.84172 21.4917 9.13309 21.225 9.39995L20.4582 10.1671Z" fill="#E55608"/>
<path d="M14.5104 17.1992C12.6362 17.1992 11.1113 18.7246 11.1113 20.5996C11.1113 22.4746 12.6361 24 14.5104 24C16.3847 24 17.9095 22.4746 17.9095 20.5996C17.9095 18.7246 16.3847 17.1992 14.5104 17.1992ZM14.5104 22.5929C13.4117 22.5929 12.5179 21.6988 12.5179 20.5996C12.5179 19.5005 13.4117 18.6063 14.5104 18.6063C15.6091 18.6063 16.503 19.5005 16.503 20.5996C16.503 21.6987 15.6091 22.5929 14.5104 22.5929Z" fill="#E55608"/>
</svg>
