<svg width="20" height="18" viewBox="0 0 20 18" fill="none" xmlns="http://www.w3.org/2000/svg">
<path fill-rule="evenodd" clip-rule="evenodd" d="M5 3H4.5C3.11929 3 2 4.11929 2 5.5C2 6.88071 3.11929 8 4.5 8H5V3ZM5.40641 10H4.5C2.01472 10 0 7.9853 0 5.5C0 3.18372 1.75002 1.27619 4 1.02746V0H16V1.02746C18.25 1.27619 20 3.18372 20 5.5C20 7.9853 17.9853 10 15.5 10H14.5936C13.7446 11.3707 12.4134 12.1869 11 12.4471V16H15V18H5V16H9V12.4471C7.58662 12.1869 6.25542 11.3707 5.40641 10ZM15 8H15.5C16.8807 8 18 6.88071 18 5.5C18 4.11929 16.8807 3 15.5 3H15V8ZM13 2H7V8.7625C7.64236 9.9477 8.8116 10.5384 10 10.5384C11.1884 10.5384 12.3576 9.9477 13 8.7625V2Z" fill="#E55608"/>
</svg>
