<svg width="180" height="32" viewBox="0 0 180 32" fill="none" xmlns="http://www.w3.org/2000/svg">
<path fill-rule="evenodd" clip-rule="evenodd" d="M5.78517 19.2741C5.59387 23.7431 8.02717 27.8911 11.9503 29.7837C17.3065 32.361 23.6711 29.9723 26.1774 24.4441C28.0101 20.3912 27.2992 15.5967 24.3762 12.2965C21.4532 8.9963 16.8939 7.84036 12.8243 9.36775C8.75472 10.8951 5.97648 14.805 5.78517 19.2741ZM12.1834 14.9231C14.0779 13.1301 16.8319 12.6943 19.159 13.8191C22.3191 15.3532 23.6901 19.2337 22.2294 22.5103C21.1508 24.9195 18.7726 26.419 16.2056 26.3085C13.6387 26.198 11.3895 24.4993 10.5086 22.0058C9.62767 19.5123 10.2889 16.716 12.1834 14.9231Z" fill="white"/>
<path d="M11.9505 29.8272C6.59782 27.2399 4.28321 20.6635 6.77705 15.1282L10.7255 17.0348C9.26484 20.3115 10.6357 24.192 13.7959 25.7261L11.9505 29.8272Z" fill="url(#paint0_linear_619_538)"/>
<path d="M19.0483 25.7477C21.3768 24.6879 22.8612 22.2868 22.8128 19.6584L26.1724 24.4441C25.0313 26.9703 23.0061 28.9559 20.5047 30.001L19.0483 25.7477Z" fill="url(#paint1_linear_619_538)"/>
<path d="M21.4559 9.93512C23.5335 11.0535 25.1965 12.8481 26.1877 15.0412L22.8281 19.816C22.8657 17.4489 21.6582 15.2468 19.6736 14.0635L21.4559 9.93512Z" fill="url(#paint2_linear_619_538)"/>
<path fill-rule="evenodd" clip-rule="evenodd" d="M29.0059 29.7075C34.3632 32.2906 40.7328 29.8975 43.2329 24.3625C45.7298 18.8273 43.4144 12.2487 38.0594 9.66348C32.7021 7.08051 26.3325 9.4736 23.8325 15.0086C21.3324 20.5436 23.6487 27.1245 29.0059 29.7075ZM38.2161 15.2489C39.9515 17.2063 40.3734 20.0516 39.2846 22.4559C37.8019 25.7233 34.0438 27.1406 30.8725 25.6282C28.5407 24.5138 27.0893 22.0568 27.1963 19.4046C27.3032 16.7525 28.9474 14.4287 31.3608 13.5186C33.7743 12.6084 36.4807 13.2916 38.2161 15.2489Z" fill="#E55608"/>
<path d="M26.1827 11.668C29.3741 8.5434 34.0884 7.74883 38.0754 9.66357L36.2353 13.7485C33.2353 12.3111 29.6699 13.4926 28.0387 16.4645C28.0387 16.4645 25.2364 12.5969 26.1827 11.668Z" fill="url(#paint3_linear_619_538)"/>
<path fill-rule="evenodd" clip-rule="evenodd" d="M61.6875 21.7281C62.1509 21.3402 62.5245 20.8502 62.781 20.294C63.0582 19.6763 63.2 19.003 63.1964 18.3222V18.2841C63.2038 17.6556 63.0912 17.0317 62.8652 16.4481C62.6496 15.9062 62.3232 15.4189 61.9083 15.0195C61.4688 14.6067 60.9515 14.2923 60.3888 14.0961C59.7352 13.8691 59.0489 13.7588 58.3594 13.7701H53.1807V26.807H55.9619V22.8851H58.065C58.7409 22.8892 59.4138 22.7923 60.0629 22.5972C60.6536 22.4185 61.2053 22.1234 61.6875 21.7281ZM59.7524 16.8393C60.17 17.2044 60.3945 17.753 60.357 18.3168V18.3766C60.3687 18.9101 60.1604 19.4235 59.784 19.7889C59.3298 20.1822 58.7451 20.3771 58.1541 20.3321H55.9512V16.3341H58.1015C58.6919 16.2992 59.2757 16.4778 59.7524 16.8393Z" fill="white"/>
<path d="M68.1436 26.8071V13.7702H70.9248V24.2106H77.2339V26.8071H68.1436Z" fill="white"/>
<path fill-rule="evenodd" clip-rule="evenodd" d="M90.4835 23.9009L91.6402 26.807L94.5476 26.8342L89.1323 13.6778H86.5666L81.146 26.8342H83.9851L85.1418 23.9009H90.4835ZM86.1246 21.3369L87.8018 17.0999L89.4842 21.3369H86.1246Z" fill="white"/>
<path d="M105.746 21.5977V26.807H102.965V21.652L98.1067 13.743H101.356L104.374 19.012L107.444 13.7701H110.599L105.746 21.5977Z" fill="white"/>
<path fill-rule="evenodd" clip-rule="evenodd" d="M125.656 24.7918C125.432 25.241 125.103 25.6255 124.699 25.9108C124.247 26.2285 123.74 26.4551 123.206 26.5789C122.571 26.7372 121.92 26.8138 121.266 26.807H115.246V13.7702H121.109C122.196 13.7014 123.273 14.0175 124.163 14.6665C124.893 15.2586 125.305 16.1748 125.273 17.1326V17.1706C125.276 17.5055 125.23 17.8389 125.136 18.1593C125.051 18.4319 124.931 18.6914 124.778 18.9306C124.63 19.1567 124.453 19.3614 124.253 19.539C124.056 19.71 123.843 19.8593 123.616 19.9844C124.275 20.2217 124.867 20.6228 125.341 21.1523C125.789 21.7285 126.014 22.4566 125.972 23.1947V23.2328C125.989 23.771 125.881 24.3057 125.656 24.7918ZM122.544 17.6052C122.563 17.2102 122.384 16.8328 122.071 16.6057C121.665 16.3514 121.193 16.232 120.72 16.2635H117.97V19.0121H120.536C121.042 19.038 121.546 18.9256 121.997 18.6862C122.351 18.4658 122.554 18.0581 122.523 17.6324L122.544 17.6052ZM122.744 21.777C123.063 22.0178 123.246 22.4063 123.233 22.8145L123.227 22.8362C123.259 23.2707 123.057 23.688 122.702 23.9226C122.262 24.1796 121.76 24.3003 121.256 24.2703H117.949V21.3967H121.166C121.718 21.3488 122.27 21.4819 122.744 21.777Z" fill="white"/>
<path fill-rule="evenodd" clip-rule="evenodd" d="M142.165 25.0688C142.765 24.4455 143.242 23.7075 143.569 22.896C143.921 22.078 144.109 21.1946 144.121 20.2995V20.2614C144.126 19.3629 143.957 18.4725 143.622 17.6432C143.302 16.8446 142.83 16.1205 142.234 15.5139C141.627 14.9027 140.913 14.4161 140.131 14.0798C138.4 13.37 136.472 13.37 134.742 14.0798C133.147 14.746 131.875 16.0423 131.209 17.6812C130.862 18.5077 130.683 19.3988 130.683 20.2995V20.3375C130.675 21.2375 130.844 22.1297 131.177 22.9612C131.499 23.7584 131.973 24.4807 132.57 25.0851C133.175 25.7008 133.889 26.1897 134.673 26.5246C135.525 26.8894 136.438 27.0741 137.36 27.0678C138.287 27.0735 139.205 26.8889 140.062 26.5246C140.849 26.1867 141.564 25.692 142.165 25.0688ZM140.903 18.6861C141.086 19.193 141.176 19.7311 141.166 20.2722L141.187 20.3102C141.191 20.8493 141.095 21.384 140.903 21.8855C140.719 22.3669 140.448 22.8076 140.104 23.1838C139.768 23.5626 139.358 23.8627 138.9 24.0638C138.415 24.2784 137.892 24.3858 137.365 24.3788C136.835 24.3861 136.309 24.2749 135.824 24.0529C134.902 23.6338 134.179 22.8517 133.816 21.8801C133.629 21.3736 133.535 20.8359 133.537 20.2939V20.2559C133.535 19.7175 133.629 19.1833 133.816 18.6806C133.997 18.2028 134.261 17.7629 134.594 17.3824C134.934 16.9973 135.35 16.6917 135.814 16.4861C136.3 16.2686 136.825 16.1594 137.354 16.1656C138.93 16.161 140.343 17.1648 140.903 18.6861Z" fill="white"/>
<path fill-rule="evenodd" clip-rule="evenodd" d="M160.425 25.0688C161.025 24.4455 161.502 23.7075 161.829 22.896C162.172 22.076 162.351 21.1928 162.354 20.2995V20.2614C162.36 19.3629 162.19 18.4725 161.855 17.6432C161.535 16.8446 161.063 16.1205 160.467 15.5139C159.86 14.9027 159.146 14.4161 158.364 14.0798C156.633 13.37 154.706 13.37 152.975 14.0798C151.38 14.746 150.108 16.0423 149.442 17.6812C149.095 18.5077 148.916 19.3988 148.916 20.2995V20.3375C148.909 21.2375 149.077 22.1297 149.41 22.9612C149.732 23.7584 150.206 24.4807 150.803 25.0851C151.408 25.7008 152.122 26.1897 152.907 26.5246C153.758 26.8894 154.671 27.0741 155.593 27.0678C156.52 27.0735 157.438 26.8889 158.296 26.5246C159.092 26.1898 159.815 25.695 160.425 25.0688ZM159.142 18.6861C159.332 19.1916 159.428 19.7297 159.426 20.2722V20.3102C159.429 20.8493 159.333 21.384 159.142 21.8855C158.966 22.3648 158.703 22.8053 158.369 23.1838C158.033 23.5626 157.622 23.8627 157.165 24.0638C156.68 24.2784 156.157 24.3858 155.63 24.3788C155.099 24.3861 154.574 24.2749 154.089 24.0529C153.166 23.6338 152.443 22.8517 152.081 21.8801C151.894 21.3736 151.799 20.8359 151.802 20.2939V20.2559C151.8 19.7175 151.894 19.1833 152.081 18.6806C152.262 18.2028 152.526 17.7629 152.859 17.3824C153.192 17.0016 153.599 16.6964 154.052 16.4861C154.538 16.2686 155.063 16.1594 155.593 16.1656C157.168 16.161 158.581 17.1648 159.142 18.6861Z" fill="white"/>
<path d="M175.877 26.807L171.96 21.2446L170.499 22.8145V26.8124H167.717V13.7756H170.499V19.452L175.604 13.743H178.963L173.816 19.2836L179.2 26.807H175.877Z" fill="white"/>
<path d="M6.77178 15.0955L0 30.0988L0.43638 30.3106L4.08515 22.2115C4.09993 22.1778 4.12736 22.1518 4.16109 22.1395C4.19482 22.1272 4.23195 22.1297 4.26391 22.1463C4.33156 22.1784 4.36194 22.2605 4.33226 22.331L0.688745 30.4193L1.31966 30.7235L5.14193 22.2712C5.16053 22.2222 5.20394 22.188 5.25457 22.1824C5.30519 22.1768 5.35465 22.2007 5.3829 22.2445C5.41116 22.2882 5.41352 22.3446 5.38903 22.3907L1.57728 30.8538L2.20293 31.158L6.0252 22.6678C6.05624 22.5979 6.1357 22.5665 6.20396 22.5971C6.23782 22.6125 6.2642 22.6414 6.27708 22.6773C6.28996 22.7131 6.28824 22.7528 6.27231 22.7873L2.43952 31.2775L3.07043 31.5817L6.7192 23.4771C6.73506 23.4431 6.76345 23.4171 6.79803 23.4048C6.8326 23.3926 6.87049 23.3951 6.90322 23.4119C6.93579 23.4272 6.96093 23.4556 6.97284 23.4904C6.98474 23.5253 6.98239 23.5636 6.96631 23.5966L3.31754 31.7012L3.94845 32L10.7202 17.0022L6.77178 15.0955Z" fill="white"/>
<path d="M34.1426 1.62961L30.7041 9.28876C30.6893 9.32241 30.6619 9.34839 30.6282 9.36069C30.5945 9.37299 30.5573 9.37055 30.5254 9.35394C30.4577 9.32187 30.4273 9.23978 30.457 9.16926L33.8955 1.53183L33.2646 1.22764L29.6474 9.23444C29.6326 9.26809 29.6052 9.29407 29.5714 9.30637C29.5377 9.31867 29.5006 9.31623 29.4686 9.29962C29.4351 9.28539 29.4088 9.25749 29.3958 9.22253C29.3829 9.18757 29.3845 9.14864 29.4003 9.11494L33.0175 1.0864L32.3918 0.782211L28.7746 8.83247C28.7436 8.90236 28.6641 8.93375 28.5958 8.90309C28.5275 8.86882 28.4974 8.78503 28.5275 8.71297L32.1447 0.684435L31.5138 0.380242L28.0701 8.0231C28.0566 8.0579 28.0292 8.08499 27.995 8.09747C27.9608 8.10995 27.923 8.1066 27.8913 8.08828C27.8578 8.07405 27.8315 8.04615 27.8185 8.01119C27.8056 7.97623 27.8072 7.9373 27.823 7.90359L31.2614 0.260737L30.7357 0L23.9429 14.824L27.8861 16.7252L34.6684 1.90121L34.1426 1.62961Z" fill="#E55608"/>
<defs>
<linearGradient id="paint0_linear_619_538" x1="13.2404" y1="22.7912" x2="9.65592" y2="21.4967" gradientUnits="userSpaceOnUse">
<stop stop-opacity="0.01"/>
<stop offset="1" stop-color="#666666"/>
</linearGradient>
<linearGradient id="paint1_linear_619_538" x1="22.2587" y1="28.8715" x2="27.9506" y2="28.2581" gradientUnits="userSpaceOnUse">
<stop stop-opacity="0.01"/>
<stop offset="1" stop-color="#666666"/>
</linearGradient>
<linearGradient id="paint2_linear_619_538" x1="21.2469" y1="17.7086" x2="25.7517" y2="19.7344" gradientUnits="userSpaceOnUse">
<stop stop-opacity="0.01"/>
<stop offset="1" stop-color="#666666"/>
</linearGradient>
<linearGradient id="paint3_linear_619_538" x1="35.3479" y1="9.81782" x2="29.521" y2="11.6451" gradientUnits="userSpaceOnUse">
<stop stop-color="#E55608" stop-opacity="0.01"/>
<stop offset="1" stop-color="#7B0908"/>
</linearGradient>
</defs>
</svg>
