<svg width="767" height="593" viewBox="0 0 767 593" fill="none" xmlns="http://www.w3.org/2000/svg">
<g opacity="0.02">
<path fill-rule="evenodd" clip-rule="evenodd" d="M27.1126 346.024C39.605 425.851 98.2947 490.456 175.812 509.71C281.621 535.88 387.904 470.452 413.39 363.458C431.99 285.034 402.063 202.723 337.565 154.911C273.067 107.098 186.701 103.2 118.743 145.034C50.7855 186.869 14.6202 266.197 27.1126 346.024ZM127.001 245.73C154.778 207.097 202.899 189.371 248.888 200.831C311.364 216.51 349.936 280.239 335.278 343.566C324.416 390.144 286.868 425.338 240.172 432.711C193.475 440.083 146.844 418.179 122.058 377.228C97.2731 336.277 99.2245 284.362 127.001 245.73Z" fill="#101010"/>
<path d="M175.97 510.48C70.188 484.119 4.97627 376.086 30.213 269.01L108.237 288.421C93.5788 351.748 132.151 415.477 194.627 431.155L175.97 510.48Z" fill="#101010"/>
<path d="M289.445 412.45C327.665 385.223 345.874 337.311 335.624 290.948L413.297 363.476C401.727 412.354 372.281 454.873 330.888 482.469L289.445 412.45Z" fill="#101010"/>
<path d="M276.463 123.714C317.929 135.967 354.328 161.699 380.031 196.93L336.465 293.684C328.698 251.634 299.06 217.032 259.041 203.291L276.463 123.714Z" fill="#101010"/>
<path fill-rule="evenodd" clip-rule="evenodd" d="M483.192 446.381C589.041 472.648 695.398 407.127 720.749 300.035C746.042 192.951 680.808 84.8787 574.992 58.5649C469.143 32.2986 362.786 97.8207 337.436 204.913C312.086 312.005 377.343 420.114 483.192 446.381ZM597.745 156.895C636.03 185.247 653.79 234.095 642.729 280.624C627.64 343.867 564.908 382.619 502.309 367.366C456.272 356.108 421.327 317.876 413.795 270.527C406.262 223.178 427.63 176.056 467.916 151.169C508.203 126.283 559.459 128.544 597.745 156.895Z" fill="#101010"/>
<path d="M367.908 137.218C414.326 70.2938 496.529 39.0916 575.276 58.5058L556.657 137.523C497.416 122.975 437.318 156.852 418.496 215.403C418.496 215.403 354.151 157.104 367.908 137.218Z" fill="#101010"/>
<path d="M30.0015 268.453L-38.6239 558.721L-29.9967 560.886L6.92611 404.217C7.07275 403.567 7.47474 403.007 8.03932 402.667C8.60391 402.327 9.28232 402.235 9.918 402.413C11.2527 402.735 12.0936 404.078 11.8097 405.435L-25.057 561.893L-12.5915 564.986L26.2013 401.434C26.3622 400.499 27.023 399.735 27.9162 399.452C28.8094 399.168 29.7869 399.412 30.4526 400.085C31.1184 400.757 31.3621 401.746 31.085 402.652L-7.47945 566.358L4.89124 569.471L43.5484 405.246C43.859 403.895 45.1803 403.051 46.5209 403.346C47.1866 403.495 47.7656 403.911 48.1258 404.498C48.4859 405.086 48.5964 405.795 48.4321 406.464L9.5852 570.727L22.0507 573.82L58.9542 417.055C59.1189 416.395 59.5381 415.83 60.1181 415.488C60.698 415.145 61.3906 415.053 62.0409 415.232C62.683 415.384 63.2375 415.794 63.5766 416.368C63.9157 416.942 64.01 417.63 63.8378 418.273L26.9344 575.038L39.3805 578.035L108.025 287.864L30.0015 268.453Z" fill="#101010"/>
<path d="M475.675 -69.4554L440.975 78.6588C440.829 79.3085 440.427 79.868 439.862 80.2084C439.298 80.5488 438.619 80.6406 437.984 80.4627C436.649 80.1407 435.808 78.7974 436.092 77.4408L470.868 -70.2887L458.403 -73.3821L421.72 81.5375C421.573 82.1872 421.171 82.7468 420.606 83.0872C420.042 83.4276 419.363 83.5193 418.728 83.3414C418.073 83.211 417.498 82.8128 417.14 82.2408C416.782 81.6687 416.672 80.9736 416.836 80.3196L453.442 -74.9848L441.071 -78.0973L404.543 77.5918C404.232 78.9422 402.911 79.7868 401.57 79.4918C400.215 79.1335 399.373 77.7592 399.659 76.3738L436.265 -78.9305L423.799 -82.0239L388.947 65.8209C388.828 66.4861 388.431 67.0654 387.858 67.4107C387.285 67.7561 386.592 67.834 385.955 67.6247C385.3 67.4944 384.726 67.0962 384.368 66.5241C384.01 65.952 383.9 65.2569 384.064 64.6029L418.821 -83.2228L408.407 -85.9289L338.763 201.241L416.673 220.575L486.127 -66.557L475.675 -69.4554Z" fill="#101010"/>
</g>
</svg>
