<svg width="24" height="24" viewBox="0 0 24 24" fill="none" xmlns="http://www.w3.org/2000/svg">
<path fill-rule="evenodd" clip-rule="evenodd" d="M13.5697 5.2262C14.2688 5.00735 14.9996 5.52337 14.9996 6.27625V14.7355C14.9996 15.4711 14.2991 15.9858 13.6081 15.7966C11.5472 15.2325 9.76854 15.1085 8.78501 15.0399C8.75908 15.0381 8.73371 15.0363 8.7089 15.0346L7.17627 19.6325C6.90404 20.4492 6.13977 21 5.27891 21H3.38709C2.02325 21 1.05984 19.6651 1.48852 18.3712L2.75815 14.477C0.365175 12.9165 0.0287904 9.64639 1.64265 7.56471C2.21617 6.82494 2.99435 6.43887 3.75418 6.23684C4.50295 6.03776 5.29142 6.00182 5.9674 6.00137L8.01499 6.00002L8.03018 6.00049L8.03415 6.0006L8.05393 6.00105C8.07252 6.00143 8.10178 6.00192 8.14101 6.00226C8.21947 6.00294 8.33762 6.00302 8.48967 6.00039C8.79406 5.99513 9.23263 5.97907 9.75938 5.93568C10.8186 5.84842 12.2071 5.65276 13.5697 5.2262ZM7.98698 8.00004L5.96872 8.00137C5.34074 8.00178 4.76113 8.0386 4.26808 8.16969C3.78609 8.29784 3.44869 8.49936 3.22327 8.79012C2.16094 10.1604 2.56906 12.3295 4.35027 13.0629C4.83392 13.2621 5.0824 13.8003 4.92027 14.2976L3.38711 19H5.27891L6.82306 14.3676C7.09345 13.5564 7.87315 12.9704 8.78911 13.0353C8.8352 13.0386 8.88386 13.0419 8.93499 13.0455C9.76198 13.1029 11.2371 13.2054 12.9996 13.5889V7.45317C11.861 7.72086 10.7808 7.85831 9.92359 7.92893C9.34733 7.9764 8.86499 7.9942 8.52422 8.00009C8.35369 8.00304 8.2182 8.00301 8.12367 8.00219C8.0764 8.00178 8.03933 8.00117 8.0132 8.00064L7.98698 8.00004Z" fill="#E55608"/>
<path d="M22.9998 11C22.9998 7.47348 20.3921 4.55606 16.9997 4.07086V6.09999C19.282 6.56323 20.9998 8.581 20.9998 11C20.9998 13.4199 19.2807 15.4383 16.9971 15.9005V17.9295C20.3907 17.4454 22.9998 14.5274 22.9998 11Z" fill="#E55608"/>
<path d="M19 11C19 9.69379 18.1652 8.58255 17 8.17072V11V13.8293C18.1652 13.4175 19 12.3062 19 11Z" fill="#E55608"/>
</svg>
