<svg width="22" height="28" viewBox="0 0 22 28" fill="none" xmlns="http://www.w3.org/2000/svg">
<path d="M21.6663 6.66663V18.6666C21.6663 18.8434 21.5961 19.013 21.4711 19.138C21.3461 19.2631 21.1765 19.3333 20.9997 19.3333H13.6663C12.9591 19.3333 12.2808 19.0523 11.7807 18.5522C11.2806 18.0521 10.9997 17.3739 10.9997 16.6666H2.99967V26.6666C2.99967 26.8434 2.92944 27.013 2.80441 27.138C2.67939 27.2631 2.50982 27.3333 2.33301 27.3333H0.999674C0.822863 27.3333 0.653294 27.2631 0.52827 27.138C0.403246 27.013 0.333008 26.8434 0.333008 26.6666V1.33329C0.333008 1.15648 0.403246 0.986912 0.52827 0.861888C0.653294 0.736864 0.822863 0.666626 0.999674 0.666626H2.33301C2.50982 0.666626 2.67939 0.736864 2.80441 0.861888C2.92944 0.986912 2.99967 1.15648 2.99967 1.33329V3.33329H10.9997C11.7069 3.33329 12.3852 3.61424 12.8853 4.11434C13.3854 4.61444 13.6663 5.29272 13.6663 5.99996H20.9997C21.1765 5.99996 21.3461 6.0702 21.4711 6.19522C21.5961 6.32025 21.6663 6.48981 21.6663 6.66663Z" fill="#E55608"/>
</svg>
