<svg width="56" height="56" viewBox="0 0 56 56" fill="none" xmlns="http://www.w3.org/2000/svg">
<path fill-rule="evenodd" clip-rule="evenodd" d="M46.6666 9.33335C46.6666 6.75602 44.5773 4.66669 41.9999 4.66669H13.9999C11.4226 4.66669 9.33325 6.75602 9.33325 9.33335V49C9.33325 51.5774 11.4226 53.6667 13.9999 53.6667H41.9999C44.5773 53.6667 46.6666 51.5774 46.6666 49V9.33335ZM41.9999 9.33335V49H13.9999V9.33335H41.9999ZM27.9999 8.75352C28.9683 8.75352 29.7534 7.96845 29.7534 7.00002C29.7534 6.03159 28.9683 5.24652 27.9999 5.24652C27.0316 5.24652 26.2464 6.03159 26.2464 7.00002C26.2464 7.96845 27.0316 8.75352 27.9999 8.75352Z" fill="#E55608"/>
<path fill-rule="evenodd" clip-rule="evenodd" d="M37.3334 4.66665V14H18.6667V4.66665H23.9578C24.7647 3.27178 26.2727 2.33331 28.0001 2.33331C29.7274 2.33331 31.2355 3.27178 32.0423 4.66665H37.3334ZM28.0001 8.75348C28.9684 8.75348 29.7536 7.96841 29.7536 6.99998C29.7536 6.03155 28.9684 5.24648 28.0001 5.24648C27.0317 5.24648 26.2466 6.03155 26.2466 6.99998C26.2466 7.96841 27.0317 8.75348 28.0001 8.75348Z" fill="#E55608"/>
<path fill-rule="evenodd" clip-rule="evenodd" d="M38.9291 25.0355L24.889 38.1983L17.0708 30.8689L20.2625 27.4645L24.889 31.8017L35.7376 21.6311L38.9291 25.0355Z" fill="#E55608"/>
</svg>
