<svg width="245" height="127" viewBox="0 0 245 127" fill="none" xmlns="http://www.w3.org/2000/svg">
<path d="M5.62629 4.17131C5.62629 4.17131 5.8479 3.5553 6.09874 3.81838C6.71122 4.03656 7.00436 4.66218 7.45064 5.34234C7.54836 5.55088 7.22906 5.95829 6.97822 5.69521L5.62629 4.17131ZM5.64247 5.56684C5.64247 5.56684 5.62941 6.08338 5.99104 6.03847C6.35268 5.99357 6.21262 5.42249 5.64247 5.56684ZM109.672 89.0092C109.672 89.0092 109.825 89.0638 109.978 89.1183C109.629 88.6467 109.379 88.3836 109.281 88.1751L108.808 88.5279C108.808 88.5279 109.574 88.8007 109.727 88.8552L109.672 89.0092ZM31.6802 45.0704C31.6802 45.0704 31.6671 45.5869 32.1265 45.7505C32.7389 45.9687 31.9441 44.817 31.6802 45.0704ZM32.4165 44.464L32.5273 44.1561C32.1233 43.8385 32.0549 44.509 32.3611 44.618L32.5142 44.6726L32.4165 44.464ZM79.7128 76.2524C79.7128 76.2524 79.7682 76.0984 79.7128 76.2524V76.2524ZM34.6025 45.5902L34.9087 45.6993C34.9641 45.5453 34.4494 45.5356 34.6025 45.5902ZM38.4597 47.8329C37.8765 48.4938 38.7952 48.821 38.766 47.942C38.8214 47.788 38.6128 47.8874 38.4597 47.8329ZM43.3732 40.8969C43.1485 39.6007 41.5196 38.8468 40.0438 38.1473C40.6432 38.882 41.1449 39.4081 41.5065 39.3632L43.3732 40.8969ZM35.5025 34.4449C35.5025 34.4449 34.89 34.2267 34.7923 34.0182C34.0105 32.3499 32.0069 32.1573 31.1567 31.1595C30.9058 30.8965 30.5442 30.9414 30.238 30.8323C32.4532 32.8375 34.5284 34.2716 35.6426 35.016C35.6426 35.016 35.698 34.8619 35.5448 34.8074L35.5025 34.4449ZM99.9569 86.2434C99.9569 86.2434 100.569 86.4616 101.029 86.6252L99.9569 86.2434ZM36.659 35.5517C36.659 35.5517 36.3528 35.4427 36.1997 35.3881L36.659 35.5517ZM244.156 88.2721C242.586 89.2763 240.556 90.1168 238.845 90.5498C238.832 91.0664 238.862 91.9454 238.959 92.1539L239.363 92.4715C239.155 92.571 239.142 93.0876 238.627 93.0779C238.627 93.0779 238.516 93.3859 238.614 93.5944C239.311 94.5377 237.643 95.3332 237.532 95.6412L235.867 98.3489C235.867 98.3489 235.395 98.7018 235.492 98.9103C235.688 99.3274 235.215 99.6803 235.16 99.8343C235.16 99.8343 234.798 99.8792 235.049 100.142L234.938 100.45C234.632 100.341 235.065 101.538 234.16 100.694C233.505 100.113 233.811 100.222 233.254 99.8503L233.407 99.9048L233.573 99.4428C233.573 99.4428 232.208 98.4354 232.251 98.798C232.348 99.0065 232.14 99.106 233.101 99.7958L233.407 99.9048C233.407 99.9048 233.394 100.421 233.645 100.684C234.147 101.211 234.036 101.519 234.036 101.519C234.733 102.462 232.899 103.719 232.635 103.973C232.635 103.973 231.885 105.096 232.234 105.567C232.234 105.567 232.012 106.183 231.859 106.129C231.859 106.129 231.749 106.437 231.638 106.745C231.735 106.953 231.178 106.581 231.374 106.998C231.11 107.252 230.706 106.934 230.233 107.287C230.123 107.595 230.22 107.803 229.553 107.739C229.553 107.739 229.178 108.301 229.122 108.455C228.666 110.203 227.053 110.845 227.053 110.845C227.053 110.845 226.636 111.044 226.887 111.307C226.887 111.307 226.47 111.505 226.317 111.451C226.164 111.396 226.164 111.396 226.206 111.759C226.304 111.967 225.275 111.948 224.968 111.839C224.509 111.675 224.356 111.621 224.356 111.621C224.203 111.566 224.607 111.884 224.245 111.929C224.245 111.929 224.092 111.874 223.939 111.82C223.633 111.711 223.841 111.611 223.59 111.348L223.284 111.239C223.284 111.239 223.326 111.602 223.883 111.974C223.73 111.919 223.577 111.865 223.577 111.865L223.87 112.49C223.87 112.49 223.717 112.436 223.76 112.798C223.913 112.853 223.942 113.732 223.887 113.886C223.776 114.194 224.639 114.675 223.456 114.601C223.303 114.547 222.163 114.836 222.567 115.153C223.069 115.679 222.512 115.307 222.456 115.461C222.456 115.461 222.456 115.461 222.15 115.352C221.537 115.134 221.231 115.025 221.941 115.451C222.652 115.878 222.485 116.34 222.026 116.177C222.026 116.177 221.638 117.254 220.566 116.873L220.413 116.818C220.358 116.972 219.996 117.017 219.941 117.171C219.941 117.171 219.941 117.171 219.482 117.007L219.328 116.953C219.328 116.953 219.175 116.898 218.27 116.055C218.27 116.055 217.768 115.528 217.559 115.628C217.253 115.519 217.853 116.253 218.41 116.626C218.716 116.735 218.661 116.889 218.605 117.043C218.605 117.043 218.299 116.934 218.494 117.351C218.494 117.351 218.801 117.46 218.954 117.514C219.664 117.941 219.149 117.931 218.788 117.976C218.941 118.031 217.954 118.374 217.341 118.156C217.035 118.047 216.686 117.575 216.282 117.258C216.031 116.994 215.823 117.094 215.67 117.039C215.67 117.039 215.823 117.094 216.074 117.357C216.38 117.466 216.269 117.774 216.269 117.774L215.171 118.425C215.171 118.425 215.324 118.48 215.116 118.579C215.116 118.579 214.81 118.47 214.503 118.361C214.002 117.835 213.793 117.934 213.598 117.517C213.598 117.517 213.598 117.517 213.904 117.626C214.21 117.735 214.559 118.207 214.559 118.207L214.614 118.053C214.614 118.053 214.363 117.79 214.21 117.735C213.751 117.572 213.402 117.1 213.402 117.1C213.402 117.1 213.402 117.1 213.096 116.991C212.79 116.882 212.79 116.882 213.096 116.991C213.445 117.463 213.041 117.145 212.985 117.299C212.832 117.245 212.832 117.245 212.985 117.299C213.138 117.354 212.93 117.453 213.334 117.771C213.64 117.88 213.487 117.825 213.389 117.617C213.389 117.617 213.849 117.78 213.542 117.671C213.542 117.671 213.542 117.671 213.695 117.726C214.044 118.197 214.197 118.252 214.601 118.57C214.601 118.57 214.754 118.624 214.907 118.679C215.214 118.788 214.907 118.679 215.103 119.096C215.409 119.205 215.758 119.677 215.758 119.677C215.758 119.677 215.451 119.567 215.2 119.304C214.894 119.195 214.741 119.141 214.894 119.195C214.894 119.195 215.396 119.721 215.298 119.513C214.533 119.24 214.839 119.349 215.187 119.821C215.591 120.138 214.728 119.657 215.034 119.766C215.034 119.766 215.187 119.821 215.034 119.766C214.116 119.439 214.673 119.811 214.923 120.074C215.327 120.392 213.962 119.384 213.962 119.384C213.962 119.384 213.962 119.384 214.116 119.439C214.575 119.603 214.52 119.757 214.464 119.911C214.464 119.911 214.813 120.382 214.353 120.219C214.2 120.164 213.894 120.055 214.298 120.373C214.604 120.482 214.8 120.899 214.647 120.844C214.34 120.735 214.034 120.626 214.34 120.735C214.34 120.735 214.689 121.207 214.536 121.152C214.536 121.152 214.076 120.989 214.229 121.043C214.327 121.252 214.578 121.515 214.119 121.351C213.812 121.242 214.063 121.505 214.314 121.768C214.412 121.977 214.356 122.131 214.106 121.868C214.106 121.868 213.646 121.704 213.744 121.913C213.995 122.176 213.438 121.803 213.689 122.067C213.689 122.067 213.272 122.265 213.926 122.846C213.926 122.846 215.275 122.458 215.552 121.688C215.552 121.688 216.233 121.236 215.885 120.764C215.23 120.183 215.438 120.084 215.689 120.347L216.302 120.565C216.302 120.565 216.37 119.895 216.523 119.949C216.523 119.949 216.787 119.696 216.842 119.542C216.341 119.016 217.315 119.189 217.119 118.772C217.273 118.826 217.286 118.31 217.341 118.156C217.341 118.156 217.396 118.002 216.992 117.684L217.299 117.793C217.299 117.793 217.605 117.902 218.064 118.066C218.524 118.23 218.26 118.483 218.107 118.429C217.8 118.319 218.302 118.846 217.94 118.891C217.94 118.891 217.553 119.969 217.497 120.123C217.497 120.123 217.191 120.013 217.22 120.892C217.22 120.892 217.777 121.265 217.569 121.364C217.109 121.2 216.859 120.937 216.803 121.091C216.692 121.399 216.429 121.653 216.526 121.861L216.833 121.97C216.833 121.97 216.526 121.861 216.471 122.015C215.317 122.821 215.585 124.479 214.236 124.867C214.236 124.867 214.083 124.813 214.278 125.23C214.529 125.493 214.473 125.647 214.418 125.801C214.418 125.801 214.418 125.801 214.112 125.692C214.864 126.481 213.222 126.244 213.082 125.673C213.082 125.673 213.082 125.673 212.985 125.464C212.623 125.509 212.219 125.191 212.219 125.191C212.33 124.883 211.773 124.511 212.538 124.784C212.691 124.838 212.649 124.476 212.955 124.585C213.108 124.64 212.76 124.168 213.122 124.123C213.428 124.232 212.926 123.706 213.19 123.452C213.19 123.452 213.19 123.453 213.245 123.299C213.05 122.881 213.356 122.991 212.855 122.464C212.926 123.706 212.245 124.158 212.19 124.312C212.19 124.312 211.981 124.412 211.73 124.149C211.173 123.776 210.812 123.821 211.424 124.04C212.177 124.829 211.313 124.347 210.812 123.821C210.812 123.821 210.659 123.767 210.561 123.558C209.948 123.34 210.212 123.087 209.655 122.715C209.349 122.605 209 122.134 208.596 121.816C208.193 121.499 208.29 121.707 207.886 121.389C207.733 121.335 207.733 121.335 207.427 121.226C207.274 121.171 207.023 120.908 206.772 120.645L206.466 120.536C206.313 120.481 205.909 120.164 206.02 119.856C206.02 119.856 205.824 119.439 205.977 119.493C205.977 119.493 206.283 119.602 206.13 119.548C205.977 119.493 205.782 119.076 205.935 119.131C206.088 119.185 206.297 119.086 205.74 118.714C205.433 118.605 205.336 118.396 205.127 118.496C205.127 118.496 205.127 118.496 204.974 118.441C204.974 118.441 204.668 118.332 204.723 118.178C204.57 118.123 204.264 118.014 204.166 117.806C204.29 116.981 204.039 116.718 203.733 116.609C203.733 116.609 203.788 116.455 204.039 116.718L205.557 117.78C205.404 117.726 205.251 117.671 205 117.408C205 117.408 204.694 117.299 204.541 117.244C203.984 116.872 204.039 116.718 204.094 116.564C204.094 116.564 204.707 116.782 205.209 117.309C205.362 117.363 205.612 117.626 205.612 117.626C205.766 117.681 206.17 117.998 206.476 118.107C206.476 118.107 206.225 117.844 205.974 117.581C205.668 117.472 205.668 117.472 205.417 117.209C205.264 117.155 205.111 117.1 204.915 116.683C204.414 116.157 204.622 116.057 204.928 116.166L205.082 116.221C205.082 116.221 204.886 115.804 205.443 116.176L205.596 116.231C205.596 116.231 206 116.548 206.251 116.811L206.557 116.92C206.557 116.92 207.212 117.501 207.616 117.819C208.173 118.191 208.075 117.982 207.922 117.928C207.518 117.61 207.114 117.293 206.919 116.875C206.668 116.612 206.613 116.766 206.46 116.712C206.307 116.657 206.056 116.394 205.958 116.186C205.763 115.769 206.013 116.032 206.528 116.041C206.528 116.041 206.987 116.205 207.03 116.568C207.183 116.622 207.434 116.885 207.336 116.677C207.085 116.414 207.294 116.314 207.545 116.577L207.851 116.686C208.157 116.795 208.004 116.741 207.851 116.686C207.698 116.632 207.447 116.369 207.196 116.105C206.89 115.996 206.694 115.579 207.098 115.897C208.115 116.433 209.033 116.76 207.975 115.862C207.668 115.753 207.418 115.49 207.32 115.281C207.222 115.072 207.278 114.918 207.779 115.445C208.085 115.554 208.434 116.025 208.489 115.871C208.489 115.871 208.545 115.717 208.141 115.4C207.835 115.291 207.528 115.182 207.584 115.028C207.388 114.61 207.291 114.402 207.75 114.566L208.669 114.893C208.669 114.893 208.473 114.476 208.32 114.421C207.861 114.258 207.818 113.895 207.721 113.687C207.874 113.741 207.721 113.687 207.831 113.379C207.831 113.379 207.831 113.379 207.942 113.071C207.998 112.917 208.053 112.763 208.457 113.08C208.763 113.189 209.069 113.298 208.763 113.189C208.164 112.455 208.317 112.509 208.776 112.673C209.389 112.891 209.431 113.253 209.542 112.945L209.193 112.474C209.193 112.474 208.998 112.057 209.304 112.166L209.151 112.111C209.151 112.111 209.164 111.595 209.874 112.022C210.181 112.131 210.181 112.131 210.027 112.076C209.832 111.659 209.803 110.78 210.415 110.998C210.067 110.526 210.734 110.591 210.998 110.337C211.305 110.446 211.22 109.721 211.275 109.567C211.331 109.413 211.846 109.423 211.748 109.214C211.969 108.598 214.53 109.163 214.084 108.483C214.39 108.592 214.543 108.647 214.696 108.701C215.003 108.81 215.309 108.919 215.169 108.348C214.973 107.931 215.683 108.358 215.543 107.787L215.765 107.171C215.765 107.171 215.749 105.775 215.26 104.733C215.83 104.588 215.648 103.655 216.163 103.664C216.469 103.773 216.274 103.356 217.039 103.629C217.192 103.684 217.345 103.738 217.192 103.684C217.15 103.321 217.929 103.077 218.137 102.978C218.137 102.978 218.903 103.251 218.958 103.097C218.958 103.097 220.141 103.17 219.75 102.336C219.75 102.336 220.111 102.291 220.265 102.346C220.418 102.4 220.32 102.192 220.125 101.775C219.929 101.358 220.584 101.938 220.584 101.938C220.639 101.784 220.695 101.63 220.499 101.213C220.499 101.213 220.499 101.213 221.112 101.432C221.418 101.541 221.32 101.332 221.376 101.178C222.698 101.823 223.324 101.525 222.112 100.572C222.223 100.264 223.405 100.338 223.252 100.283C223.252 100.283 223.057 99.866 223.21 99.9206C223.516 100.03 223.014 99.5035 223.321 99.6126C223.627 99.7217 223.933 99.8307 223.78 99.7762C223.78 99.7762 223.376 99.4586 223.627 99.7217C223.78 99.7762 224.239 99.9398 223.989 99.6767C223.682 99.5676 223.793 99.2597 223.64 99.2051C223.542 98.9966 223.36 98.063 223.917 98.4351C224.474 98.8073 224.376 98.5988 224.78 98.9164C225.073 99.5421 225.95 99.5068 225.197 98.7175C224.891 98.6084 224.891 98.6084 224.585 98.4994L224.279 98.3903C224.279 98.3903 224.389 98.0823 224.585 98.4994C224.738 98.5539 225.044 98.663 225.197 98.7175C225.35 98.7721 225.197 98.7175 225.197 98.7175C225.197 98.7175 225.504 98.8266 225.657 98.8812C225.81 98.9357 224.904 98.0919 224.849 98.2459C224.849 98.2459 224.849 98.2459 224.793 98.3999C224.389 98.0822 224.054 97.0941 224.764 97.5208C225.07 97.6299 224.722 97.1583 224.875 97.2129C225.334 97.3765 225.181 97.322 225.139 96.9595L224.986 96.9049C223.331 97.184 221.327 96.9914 219.604 97.941C218.923 98.3933 216.03 98.7525 213.886 97.9889C212.508 97.498 211.729 97.7418 210.283 97.9214C209.866 98.1203 207.279 98.5887 204.747 98.903C202.007 99.3168 199.378 99.4226 198.766 99.2044C198.306 99.0408 196.749 99.5284 195.094 99.8074C193.592 100.141 192.035 100.629 191.826 100.728C189.448 101.097 189.598 99.2394 188.014 100.76C186.848 102.082 179.905 101.693 178.361 101.664C177.846 101.655 175.507 100.474 175.146 100.519C174.005 100.808 173.24 100.535 172.376 100.054C172.07 99.9447 171.917 99.8901 171.709 99.9896C171.083 100.288 170.568 100.278 169.998 100.423C168.705 100.657 165.919 98.7959 164.515 99.3381C163.681 99.7359 163.222 99.5722 162.554 99.508C162.094 99.3444 161.358 99.9508 161.107 99.6877C160.495 99.4695 159.993 98.9433 159.576 99.1422C157.797 100.246 157.403 97.4996 155.973 99.0748C155.445 99.5816 154.526 99.2544 154.08 98.5743C153.243 97.06 152.216 98.9527 150.464 99.0233C149.796 98.9591 149.323 99.312 149.086 98.5324C149.086 98.5324 149.196 98.2244 149.043 98.1698C148.848 97.7527 148.388 97.5892 148.222 98.0511C147.307 99.636 145.58 98.6734 143.951 97.9194C143.492 97.7558 142.407 97.8905 141.433 97.7173L140.514 97.39C140.514 97.39 139.944 97.5343 139.846 97.3258C139.693 97.2712 139.54 97.2167 139.331 97.3162C138.442 97.868 137.425 97.3322 136.618 96.6969L136.464 96.6424C135.699 96.3697 133.096 95.4424 132.415 95.8947C131.151 97.0079 129.506 94.8584 127.753 94.9289C125.541 94.8358 123.368 93.1931 124.814 93.0135C127.29 92.8532 120.973 92.1664 118.94 91.0948C118.481 90.9312 118.162 91.3386 117.592 91.483C116.868 91.5728 116.047 91.4541 115.282 91.1813C114.976 91.0723 114.669 90.9632 114.418 90.7001L114.572 90.7547C111.118 88.8296 108.792 87.1324 109.629 88.6467C108.098 88.1013 106.261 87.4467 104.772 87.2638L105.58 87.899L104.508 87.5172C104.508 87.5172 102.084 85.6115 98.6342 85.5986C98.4811 85.544 98.3279 85.4894 98.2302 85.2809C97.9794 85.0178 97.4223 84.6456 96.8521 84.79C95.7119 85.0787 95.2917 83.3655 94.096 83.8082C93.4705 84.1065 92.7179 83.3173 92.2717 82.6372C91.9654 82.5281 91.366 81.7934 91.1998 82.2554C91.1998 82.2554 91.3953 82.6724 91.3399 82.8264C91.2845 82.9804 91.1737 83.2884 90.7143 83.1248C89.3363 82.6339 86.1176 79.5764 84.9774 79.8651C84.0456 80.0543 83.3908 79.4736 82.736 78.8929C82.2766 78.7293 81.511 78.4565 81.1625 77.9849C80.7585 77.6673 81.0778 77.2599 80.6184 77.0963C80.1591 76.9326 79.6574 76.4065 79.3089 75.9348C78.9603 75.4632 78.0708 76.015 77.6669 75.6974C77.3606 75.5883 77.1098 75.3252 76.7482 75.3701C75.9695 75.6139 75.8294 75.0429 75.217 74.8247C74.9107 74.7156 74.4937 74.9145 73.7835 74.4877C73.4773 74.3787 73.0179 74.215 72.6009 74.4139C71.099 74.7475 68.7891 74.4459 68.4667 72.9412C68.1735 72.3156 68.1866 71.7991 68.255 71.1286C67.3363 70.8013 64.7887 69.7201 65.7336 69.0143C66.206 68.6614 66.2745 67.9909 66.1213 67.9363C65.3558 67.6636 65.385 68.5427 64.7302 67.962C64.5771 67.9074 63.8538 67.9972 63.6453 68.0967C63.4922 68.0421 63.5345 68.4046 63.4791 68.5586C63.1467 69.4826 59.8466 67.6122 59.3026 66.7235C59.1495 66.6689 58.4523 65.7257 57.8398 65.5075C56.4618 65.0166 56.1393 63.5119 54.1357 63.3194C54.1357 63.3194 54.0804 63.4733 54.025 63.6273C53.8588 64.0893 53.0932 63.8166 53.1062 63.3001C53.217 62.9921 53.8295 63.2103 53.4256 62.8927C52.9662 62.729 52.7708 62.312 52.6307 61.7409C52.533 61.5324 52.4352 61.3238 52.0182 61.5227C50.0569 61.6927 48.3857 60.5762 48.1479 59.7966C47.8124 58.8084 46.8676 59.5142 46.8937 58.4812C47.1153 57.8652 46.5582 57.493 46.0858 57.8459C45.3495 58.4522 44.61 57.1465 45.1378 56.6396C45.6656 56.1327 45.3725 55.5071 44.9131 55.3435C43.5905 54.6986 40.7858 49.5301 39.9355 48.5323C37.7333 46.0106 39.323 48.3141 36.9678 45.7379C36.313 45.1572 36.1891 45.9817 35.4235 45.7089C35.1173 45.5998 34.7002 45.7987 34.811 45.4907C34.9218 45.1828 34.9218 45.1828 35.1303 45.0833C35.7559 44.785 33.8077 44.4384 33.306 43.9122C33.306 43.9122 32.9997 43.8032 32.889 44.1111C32.5566 45.0351 31.2177 42.9946 30.5075 42.5679C30.5075 42.5679 30.5629 42.4139 30.6183 42.2599C30.9376 41.8525 31.1461 41.7531 30.9507 41.336C30.5467 41.0184 30.4913 41.1723 30.1297 41.2172C29.7127 41.4161 30.1428 40.7008 30.309 40.2388C30.4197 39.9308 30.1689 39.6677 29.8627 39.5586C29.501 39.6035 29.2502 39.3404 28.944 39.2313C28.6931 38.9682 28.0676 39.2666 28.1784 38.9586C28.2891 38.6506 28.3446 38.4966 27.8852 38.333C27.4258 38.1694 27.7451 37.7619 27.2304 37.7523C26.5071 37.8421 26.9111 38.1597 25.937 37.9865C25.6307 37.8774 26.0478 37.6785 26.1586 37.3705C26.214 37.2165 26.3248 36.9085 25.7677 36.5363C25.3083 36.3727 25.4614 36.4272 24.9336 36.9341L24.6274 36.825C24.7382 36.5171 25.3214 35.8562 25.0151 35.7471C24.4027 35.5289 23.6371 35.2562 23.0246 35.038C22.7184 34.9289 22.1482 35.0733 22.259 34.7653C22.5914 33.8414 21.8681 33.9312 21.3111 33.559C20.6563 32.9783 20.4347 33.5943 19.933 33.0681C19.3336 32.3334 18.8319 31.8072 18.2325 31.0725C18.1902 30.71 17.9393 30.4469 17.897 30.0844C17.897 30.0844 17.897 30.0844 17.7439 30.0298C17.5354 30.1293 17.4669 30.7998 17.5646 31.0084C17.5646 31.0084 17.3561 31.1078 16.799 30.7356C16.2419 30.3635 15.838 30.0459 16.0042 29.5839C16.0042 29.5839 16.1149 29.2759 15.9618 29.2213C15.8087 29.1668 15.6556 29.1122 15.5579 28.9037C15.5579 28.9037 15.4048 28.8491 15.2517 28.7946C14.1375 28.0503 14.079 26.2922 13.1179 25.6024C12.2546 25.1211 10.2479 23.0165 10.1502 22.808C10.2056 22.654 7.09462 17.3763 7.20541 17.0684C7.427 16.4524 6.96764 16.2888 6.41056 15.9166C6.21512 15.4995 5.60266 15.2813 5.46261 14.7102C4.85014 14.4921 4.36153 13.4494 4.38767 12.4164C4.48228 10.7128 4.90242 12.426 3.42351 9.81447C3.22807 9.3974 2.71331 9.38778 2.51787 8.97071C2.0554 6.89498 -0.179751 9.74696 1.11055 7.60071C1.27674 7.13873 -0.407563 6.53875 0.426497 6.14096C0.843528 5.94206 1.16281 5.53465 1.48212 5.12722C1.48212 5.12722 1.59292 4.81919 1.64832 4.6652C1.70372 4.5112 1.91222 4.41181 2.06534 4.46636C2.4139 4.93797 2.00996 4.62033 2.51165 5.1465C2.81788 5.25559 3.19258 4.69417 2.78862 4.37655C1.93838 3.37876 2.02303 4.10382 1.90912 2.49971C1.92219 1.98319 2.16992 0.334158 2.62928 0.497791C2.93552 0.606879 5.03996 2.92003 4.98456 3.07403C5.06921 3.79909 5.94561 3.76386 5.30699 4.57872C4.98768 4.98616 3.9289 4.08782 3.31643 3.86964C3.51187 4.28672 3.80504 4.91232 4.15361 5.38394C4.15361 5.38394 4.15363 5.38395 4.00051 5.3294C3.0818 5.00214 3.47268 5.83627 2.95792 5.82663C2.8048 5.77208 2.59628 5.87154 2.54088 6.02553C2.43009 6.33351 2.84714 6.13462 3.15337 6.24371C3.15337 6.24371 3.40421 6.5068 3.04258 6.5517C2.62555 6.7506 2.31929 6.64152 2.36162 7.00405C2.33548 8.03709 2.68407 8.50871 4.38145 8.59217C4.68768 8.70126 4.64535 8.33875 4.54763 8.13022C4.71382 7.66824 4.81154 7.87673 5.32629 7.88637C5.78565 8.05 5.64562 7.47893 6.16037 7.48857C6.92597 7.76129 6.73051 7.34423 7.24526 7.35387C7.76001 7.36351 7.48303 8.13346 8.04011 8.50563C8.65258 8.72381 8.12476 9.2307 9.19659 9.61251C10.1153 9.93978 10.4639 10.4114 10.5062 10.7739C10.6462 11.345 10.3269 11.7524 10.9948 11.8166C12.0797 11.6819 12.0697 14.1105 12.6691 14.8452C13.6725 15.8975 15.8324 18.0567 17.7837 20.3153C19.735 22.574 21.6864 24.8327 22.0088 26.3373C22.0088 26.3373 22.315 26.4464 22.4681 26.501C23.6115 28.1243 25.5467 28.9874 25.3643 28.0538C25.5174 28.1083 25.7683 28.3715 25.8106 28.734C25.7421 29.4045 26.2569 29.4141 26.7586 29.9403C27.1071 30.4119 26.8725 31.5444 27.3449 31.1915C26.8725 31.5444 28.6576 34.265 29.6056 35.4713C30.3289 35.3815 30.5666 36.1611 30.8044 36.9407C32.2509 36.7611 34.2869 39.7448 35.3849 39.0936C36.9584 40.0015 39.8415 42.0709 38.4504 42.0966L37.1831 41.2977C37.1831 41.2977 37.3101 42.3853 37.297 42.9018C30.7098 38.6443 42.053 50.329 43.5811 48.9623C44.3728 48.202 49.6181 48.5069 45.0669 47.2331C43.6465 46.3797 42.2815 45.3723 40.9165 44.3649C40.9718 44.2109 41.0273 44.0568 41.2358 43.9574C42.3076 44.3392 42.4184 44.0312 42.9624 44.9199C44.1189 46.0268 42.7246 44.1403 43.2101 43.2709C43.2101 43.2709 43.2101 43.2709 43.3633 43.3255C43.5164 43.38 43.9334 43.1811 44.0311 43.3896C44.0311 43.3896 44.2266 43.8067 44.4774 44.0698C43.9203 43.6977 43.7118 43.7971 44.7152 44.8494C44.8683 44.9039 45.1745 45.013 45.2723 45.2216C45.7185 45.9017 46.1648 46.5819 46.318 46.6364C46.7773 46.8 49.7582 49.078 49.5366 49.6939C49.3704 50.1559 49.7874 49.957 50.3022 49.9667C50.6507 50.4383 51.3609 50.865 51.7649 51.1826C51.9865 50.5667 53.0745 52.3441 53.7685 51.3752C52.1657 49.5882 51.514 50.9195 51.0254 49.8768C51.4425 49.6779 51.651 49.5785 52.1103 49.7421C52.7228 49.9603 53.3776 50.5411 53.8793 51.0672L53.7685 51.3752L55.7329 53.1173L56.5277 54.2691C57.5996 54.6509 65.0632 58.8731 69.4352 61.1254C69.9922 61.4976 70.5493 61.8697 71.0087 62.0334C71.7189 62.4601 72.276 62.8323 72.5822 62.9414C77.4851 66.5989 78.2638 66.3551 81.0068 67.8534C81.4662 68.017 84.5709 69.4704 84.9064 70.4586C85.0464 71.0296 84.8802 71.4916 85.3396 71.6553C86.1052 71.928 91.6305 73.375 92.243 73.5932C93.885 73.8307 97.1851 75.7012 98.6055 76.5546C99.9282 77.1995 100.873 76.4937 101.502 78.1074C102.587 77.9727 102.795 77.8733 103.812 78.4091C104.118 78.5182 107.793 79.8272 111.621 81.1909C115.504 82.4005 119.29 83.4015 119.498 83.3021C124.268 82.0478 123.281 82.3911 132.663 86.0808C132.51 86.0262 134.556 86.5814 136.866 86.883L141.375 87.7943C141.375 87.7943 146.412 88.1986 150.934 88.5934C155.511 88.8341 160.088 89.0749 160.395 89.184C160.952 89.5561 162.092 89.2674 162.815 89.1776C163.385 89.0333 165.083 89.1168 167.393 89.4184L175.254 90.134C178.134 90.2913 181.069 90.2946 183.49 90.2883C185.966 90.128 187.983 89.804 188.97 89.4607C190.778 89.2362 188.553 89.6597 196.955 89.3519C199.223 89.291 201.725 88.0976 203.868 88.8612C205.286 87.8026 220.807 84.9926 222.517 84.5596C223.811 84.3254 225.469 85.9585 225.091 84.6078C224.951 84.0367 225.827 84.0015 226.397 83.8571C227.176 83.6133 227.287 83.3053 227.844 83.6775C228.15 83.7866 228.401 84.0496 228.763 84.0047C228.818 83.8507 228.929 83.5428 228.929 83.5428C228.567 83.5877 229.346 83.3439 228.984 83.3888C228.984 83.3888 228.678 83.2797 229.04 83.2348C229.457 83.0359 229.874 82.837 230.027 82.8915L230.333 83.0006C230.333 83.0006 230.444 82.6926 230.388 82.8466C229.971 83.0455 229.971 83.0455 229.916 83.1995C229.916 83.1995 229.805 83.5075 230.167 83.4626C230.167 83.4626 231.349 83.5364 232.017 83.6006C232.434 83.4017 232.643 83.3022 231.711 83.4915C231.405 83.3824 232.128 83.2926 232.337 83.1932C232.545 83.0937 232.337 83.1932 231.975 83.2381L231.405 83.3824L232.03 83.0841C232.03 83.0841 232.03 83.0841 232.447 82.8852C232.656 82.7858 232.809 82.8403 233.018 82.7408C233.588 82.5965 233.796 82.4971 234.422 82.1987L234.881 82.3623C234.881 82.3623 234.728 82.3078 234.881 82.3623L235.187 82.4714C235.187 82.4714 235.298 82.1635 235.562 81.91C235.311 81.6469 235.116 81.2298 235.171 81.0758C233.78 81.1015 233.308 81.4544 233.405 81.6629L233.099 81.5538C233.099 81.5538 232.584 81.5442 232.223 81.5891C231.389 81.9869 230.972 82.1858 230.708 82.4392L230.555 82.3847C230.555 82.3847 230.555 82.3846 230.61 82.2307C230.819 82.1312 231.236 81.9323 231.027 82.0318C231.027 82.0318 231.444 81.8329 231.555 81.5249C232.347 80.7646 231.666 81.2169 231.138 81.7238C230.985 81.6693 230.776 81.7687 230.512 82.0222L230.401 82.3301C230.401 82.3301 229.359 82.8274 228.942 83.0263C228.163 83.2701 227.231 83.4593 227.44 83.3599C227.023 83.5588 226.606 83.7577 227.44 83.3599C227.648 83.2604 227.857 83.161 227.912 83.007C228.385 82.6541 227.968 82.853 227.968 82.853C227.968 82.853 227.968 82.853 228.079 82.545C228.76 82.0926 229.287 81.5858 229.079 81.6852L228.398 82.1376C227.453 82.8434 227.398 82.9973 227.245 82.9428L226.717 83.4497C226.717 83.4497 226.3 83.6486 226.355 83.4946C226.355 83.4946 225.619 84.1009 225.466 84.0464C225.883 83.8475 225.521 83.8924 225.466 84.0464C225.202 84.2998 225.049 84.2453 225.632 83.5844C226.215 82.9235 225.798 83.1224 225.632 83.5844C225.632 83.5844 225.202 84.2998 225.632 83.5844C225.798 83.1224 225.215 83.7833 224.909 83.6742C223.866 84.1714 224.296 83.456 224.198 83.2475C224.198 83.2475 223.961 82.4679 224.016 82.3139C224.071 82.1599 224.28 82.0605 224.488 81.961C224.808 81.5536 224.404 81.2359 224.016 82.3139L224.238 81.6979C224.238 81.6979 223.931 81.5889 223.821 81.8969C224.042 81.2809 224.042 81.2809 224.153 80.9729L224.042 81.2809C224.042 81.2809 223.931 81.5889 223.821 81.8969C223.765 82.0508 223.71 82.2048 223.71 82.2048C223.71 82.2048 223.82 81.8968 223.612 81.9963C223.612 81.9963 223.459 81.9417 222.986 82.2946C222.931 82.4486 221.735 82.8913 221.791 82.7373C221.902 82.4293 221.846 82.5833 221.638 82.6828C221.638 82.6828 221.012 82.9811 221.123 82.6731C221.234 82.3652 220.817 82.564 220.663 82.5095C220.663 82.5095 219.634 82.4902 218.826 81.855L218.81 80.4594L218.116 81.4283L217.963 81.3737L218.129 80.9117C219.198 79.3814 218.461 79.9878 217.517 80.6935C217.363 80.639 217.21 80.5844 217.057 80.5299C216.432 80.8282 216.598 80.3663 216.292 80.2572C215.832 80.0936 215.36 80.4465 215.054 80.3374C215.164 80.0294 214.636 80.5363 214.747 80.2283C214.858 79.9203 214.552 79.8112 214.399 79.7567L213.786 79.5385C214.008 78.9225 213.047 78.2327 212.838 78.3322C212.685 78.2776 211.92 78.0049 211.307 77.7867C211.584 77.0167 211.861 76.2468 212.5 75.4319L212.347 75.3774L212.568 74.7614C212.568 74.7614 212.36 74.8608 212.04 75.2683C212.04 75.2683 211.734 75.1592 211.581 75.1046C211.581 75.1046 211.275 74.9956 210.969 74.8865C211.245 74.1165 211.245 74.1165 211.356 73.8085C211.412 73.6545 210.884 74.1614 210.62 74.4149C210.522 74.2064 210.05 74.5592 210.092 74.9217C209.717 75.4832 209.398 75.8906 209.287 76.1986C209.134 76.144 209.036 75.9355 208.883 75.881C208.73 75.8264 208.271 75.6628 208.229 75.3003C208.284 75.1463 207.671 74.9281 207.616 75.0821L206.502 74.3378L207.183 73.8854C207.183 73.8854 207 72.9518 207.167 72.4899C206.945 73.1058 206.57 73.6673 206.251 74.0747L205.945 73.9656C205.945 73.9656 206.792 73.0513 206.013 73.2951L205.847 73.757L205.081 73.4843C205.081 73.4843 203.954 73.2565 204.287 72.3325C204.397 72.0246 204.453 71.8706 204.3 71.8161C204.244 71.97 203.994 71.707 203.84 71.6524C203.84 71.6524 204.049 71.5529 204.313 71.2995C205.049 70.6931 204.394 70.1124 203.629 69.8397C203.684 69.6857 203.586 69.4772 203.642 69.3232L203.697 69.1692C203.544 69.1147 203.697 69.1693 203.808 68.8613C203.808 68.8613 203.919 68.5533 203.808 68.8613C203.642 69.3232 203.489 69.2687 203.531 69.6312C203.309 70.2472 203.143 70.7092 202.85 70.0836C202.85 70.0836 202.919 69.413 202.765 69.3585C202.765 69.3585 202.821 69.2045 202.765 69.3585C202.765 69.3585 202.557 69.4579 202.433 70.2824C202.433 70.2824 202.114 70.6899 201.752 70.7348C201.752 70.7348 201.974 70.1188 201.863 70.4268C201.544 70.8342 201.557 70.3177 201.821 70.0642C202.098 69.2943 201.084 70.6706 201.625 69.6472C201.681 69.4932 202 69.0858 201.944 69.2398C201.889 69.3937 201.944 69.2397 202.098 69.2943C202.319 68.6783 202.319 68.6783 202.264 68.8323C201.791 69.1852 202.264 68.8323 201.736 69.3392C201.681 69.4932 201.736 69.3392 201.847 69.0312L202.401 67.4913C202.997 66.3139 203.649 64.9825 203.287 65.0274C203.287 65.0274 202.759 65.5343 202.538 66.1503C202.538 66.1503 202.538 66.1503 202.385 66.0957L202.495 65.7877L203.577 63.7409C203.577 63.7409 203.854 62.9709 204.173 62.5635C204.229 62.4095 204.229 62.4095 204.173 62.5635C204.063 62.8715 203.952 63.1795 203.896 63.3335C203.73 63.7955 204.356 63.4971 204.313 63.1346C204.424 62.8266 204.369 62.9806 204.59 62.3646C204.757 61.9026 205.174 61.7038 205.174 61.7038C205.48 61.8128 205.48 61.8128 204.675 63.0897C204.744 62.4192 203.606 64.62 204.564 63.3977C204.675 63.0897 204.786 62.7817 205.258 62.4288C205.258 62.4288 205.314 62.2748 205.369 62.1208C205.48 61.8129 205.591 61.5048 205.744 61.5594C205.744 61.5594 205.633 61.8674 205.841 61.768C205.841 61.768 206.105 61.5145 205.995 61.8225C205.939 61.9765 206.301 61.9316 206.301 61.9316C206.301 61.9316 206.552 62.1947 206.496 62.3487C206.496 62.3487 206.066 63.0641 206.219 63.1186C206.219 63.1186 206.649 62.4032 206.636 62.9197C206.526 63.2277 206.636 62.9198 207.109 62.5669C207.483 62.0054 207.887 62.323 207.721 62.785C207.666 62.939 207.721 62.785 207.874 62.8396C207.874 62.8396 207.346 63.3464 207.138 63.4459C206.972 63.9079 206.972 63.9079 207.125 63.9624C207.014 64.2704 207.014 64.2704 207.125 63.9624C207.125 63.9624 206.402 64.0522 205.942 63.8886C205.942 63.8886 206.692 62.7657 206.109 63.4266C206.109 63.4266 205.998 63.7346 205.789 63.834C205.636 63.7795 205.33 63.6704 205.177 63.6159C204.649 64.1227 204.193 65.8712 205.346 65.066C205.473 66.1536 206.806 64.3698 206.141 66.2178C206.447 66.3268 206.753 66.4359 207.226 66.083C208.197 64.3442 207.141 65.358 207.125 63.9624C207.917 63.2021 207.861 63.3561 208.083 62.7401C208.236 62.7946 208.431 63.2117 208.64 63.1123L208.363 63.8822C208.363 63.8822 208.363 63.8822 208.571 63.7828C209.21 62.9679 209.559 63.4395 209.392 63.9015C209.282 64.2095 209.06 64.8255 209.226 64.3635C209.546 63.956 209.601 63.8021 209.865 63.5487C210.337 63.1958 211.103 63.4685 210.354 64.5913C210.354 64.5913 210.396 64.9539 210.771 64.3924C211.048 63.6225 211.702 64.2032 211.689 64.7197C211.634 64.8737 211.689 64.7197 211.745 64.5657C211.745 64.5657 211.745 64.5657 211.578 65.0277C211.357 65.6436 211.885 65.1368 211.774 65.4448C211.719 65.5987 211.927 65.4993 212.191 65.2459C212.191 65.2459 212.663 64.8929 212.761 65.1015C212.748 65.618 213.54 64.8577 213.097 66.0896C213.097 66.0896 213.25 66.1442 213.305 65.9902L213.416 65.6822C213.804 64.6043 214.224 66.3174 214.905 65.8651C214.905 65.8651 215.42 65.8748 215.67 66.1378C215.823 66.1924 216.657 65.7946 216.644 66.3111L217.091 66.9913C217.091 66.9913 217.508 66.7923 217.648 67.3634C217.495 67.3089 217.022 67.6618 217.371 68.1334C217.26 68.4414 217.26 68.4414 217.26 68.4414C217.26 68.4414 217.26 68.4414 217.371 68.1334C217.482 67.8254 217.482 67.8254 217.482 67.8254C217.482 67.8254 217.26 68.4414 217.205 68.5954C217.149 68.7494 217.094 68.9034 217.511 68.7045C217.566 68.5505 217.4 69.0125 217.817 68.8136C218.456 67.9987 218.43 69.0317 218.208 69.6477C218.208 69.6477 218.208 69.6477 218.055 69.5932C218.055 69.5932 217.361 70.562 217.416 70.408L217.736 70.0006C217.736 70.0006 217.625 70.3086 217.736 70.0006C217.736 70.0006 218 69.7471 218.11 69.4391C218.221 69.1312 218.43 69.0317 218.527 69.2402C218.527 69.2402 218.417 69.5483 218.361 69.7023C218.306 69.8563 218.097 69.9557 217.986 70.2636C217.654 71.1876 218.28 70.8893 218.501 70.2733C218.667 69.8113 218.71 70.1739 219.084 69.6125C219.14 69.4585 219.14 69.4584 219.391 69.7215C219.114 70.4915 219.045 71.162 219.309 70.9086C219.198 71.2165 219.462 70.9631 219.671 70.8636C219.782 70.5556 219.671 70.8636 219.56 71.1716C219.449 71.4796 219.56 71.1716 219.977 70.9727C220.296 70.5653 219.866 71.2807 220.283 71.0818C220.283 71.0818 220.228 71.2358 220.172 71.3898C220.117 71.5438 221.577 70.8477 221.564 71.3642C221.453 71.6722 221.759 71.7813 222.023 71.5278C222.772 70.405 222.287 71.2744 222.329 71.6369C222.329 71.6369 222.525 72.054 222.635 71.746C222.802 71.284 223.163 71.2391 223.108 71.3931C222.997 71.7011 223.15 71.7556 223.248 71.9642C223.248 71.9642 223.678 71.2488 223.72 71.6113C223.554 72.0733 223.499 72.2273 223.86 72.1824C223.86 72.1824 224.333 71.8295 224.43 72.038C224.307 72.8625 225.154 71.9482 225.349 72.3653L226.128 72.1215C226.128 72.1215 225.685 73.3534 225.225 73.1897C225.561 74.1779 226.408 73.2636 226.949 72.2402C227.102 72.2947 227.255 72.3493 227.255 72.3493C227.255 72.3493 227.255 72.3493 227.408 72.4038C227.936 71.8969 228.034 72.1055 228.242 72.0061C228.868 71.7077 228.995 72.7953 229.565 72.6509C229.483 73.838 229.721 74.6176 229.917 75.0347L230.265 75.5063C230.265 75.5063 230.835 75.3619 230.878 75.7245C230.809 76.395 231.128 75.9875 231.49 75.9426C231.49 75.9426 231.852 75.8977 232.116 75.6442C231.783 76.5682 235.106 75.4935 235.706 76.2282C235.957 76.4913 236.471 76.501 236.778 76.61C236.778 76.61 237.224 77.2902 237.53 77.3993C237.836 77.5084 238.811 77.6817 238.491 78.0891C239.576 77.9544 239.759 78.888 239.439 79.2954C239.439 79.2954 239.384 79.4494 239.745 79.4045C240.524 79.1607 240.622 79.3693 240.511 79.6772C240.511 79.6772 241.124 79.8954 240.651 80.2483L240.179 80.6012C240.179 80.6012 240.485 80.7103 241.208 80.6205C241.778 80.4761 241.876 80.6847 241.042 81.0825C240.778 81.3359 241.042 81.0825 241.348 81.1915C241.918 81.0472 242.169 81.3103 242.114 81.4643C241.948 81.9262 242.101 81.9808 242.101 81.9808C242.045 82.1348 241.99 82.2888 242.143 82.3433C242.143 82.3433 242.449 82.4524 242.296 82.3978C242.241 82.5518 242.13 82.8598 241.615 82.8502C241.462 82.7957 240.837 83.094 240.99 83.1485L242.062 83.5303C242.062 83.5303 242.521 83.694 242.257 83.9474C244.163 83.9314 242.869 84.1656 243.609 85.4714C245.632 88.9716 244.729 90.0399 243.159 91.044L244.156 88.2721ZM201.508 66.131C201.508 66.131 201.619 65.823 201.508 66.131V66.131ZM202.466 64.9087C202.466 64.9087 202.007 64.7451 201.841 65.207C201.994 65.2616 202.202 65.1621 202.466 64.9087ZM203.385 65.236C203.385 65.236 203.232 65.1814 203.121 65.4894C203.121 65.4894 203.274 65.544 203.385 65.236ZM204.805 66.0894C204.805 66.0894 204.805 66.0894 204.541 66.3429L204.43 66.6508C204.43 66.6508 204.597 66.1888 204.805 66.0894ZM205.571 66.3621L205.111 66.1985C205.111 66.1985 205.056 66.3525 205.571 66.3621ZM204.684 68.826C204.684 68.826 204.365 69.2334 204.518 69.288C204.518 69.288 204.518 69.288 204.684 68.826ZM210.21 62.1082C210.21 62.1082 210.585 61.5467 210.321 61.8002L210.21 62.1082ZM207.284 67.8412L207.174 68.1491C207.174 68.1491 207.02 68.0946 206.867 68.04C207.532 66.1921 206.975 65.82 206.141 66.2178L205.919 66.8337C205.919 66.8337 206.226 66.9428 206.421 67.3599C206.421 67.3599 206.268 67.3053 206.004 67.5588C206.369 69.4259 204.893 68.7265 206.16 69.5254L206.437 68.7555C206.437 68.7555 206.271 69.2174 206.437 68.7555C207.076 67.9406 207.076 67.9406 206.923 67.886L207.284 67.8412ZM209.086 63.7924C209.086 63.7924 209.086 63.7924 208.558 64.2993C208.607 68.486 211.976 61.5211 209.086 63.7924ZM207.649 69.7083L207.538 70.0163C207.691 70.0709 207.76 69.4003 207.649 69.7083ZM208.011 69.6634C208.011 69.6634 207.955 69.8174 208.011 69.6634C208.121 69.3554 208.121 69.3554 208.011 69.6634ZM208.385 69.102L208.496 68.794C208.496 68.794 208.33 69.256 208.385 69.102ZM208.206 70.0805L208.095 70.3885L208.206 70.0805ZM211.087 62.0729C211.087 62.0729 211.142 61.9189 211.087 62.0729V62.0729ZM209.04 69.6827C209.04 69.6827 208.819 70.2987 208.929 69.9907C209.04 69.6827 209.151 69.3747 209.04 69.6827ZM209.223 70.6163C209.223 70.6163 209.486 70.3629 209.278 70.4623L209.223 70.6163ZM209.294 71.8579C209.294 71.8579 209.196 71.6494 209.043 71.5948C208.933 71.9028 209.086 71.9573 209.294 71.8579ZM209.724 71.1425C209.724 71.1425 209.392 72.0664 209.503 71.7584C209.78 70.9885 210.738 69.7662 209.724 71.1425ZM212.054 66.5868L211.705 66.1153L211.484 66.7312C211.484 66.7312 211.79 66.8403 212.054 66.5868ZM214.165 72.7243C214.165 72.7243 214.22 72.5703 214.165 72.7243V72.7243ZM215.354 68.4573L215.243 68.7653C215.354 68.4574 215.354 68.4573 215.354 68.4573ZM212.686 70.1127C212.686 70.1127 212.63 70.2667 212.575 70.4207C212.728 70.4753 212.894 70.0133 212.686 70.1127ZM212.386 73.8278C212.386 73.8278 212.76 73.2664 212.914 73.321C213.177 73.0675 213.523 71.627 213.357 72.089C213.246 72.397 213.301 72.243 213.357 72.089C213.412 71.935 213.412 71.935 213.204 72.0344C213.093 72.3424 213.259 71.8804 213.051 71.9799C213.051 71.9799 213.106 71.8259 213.051 71.9799C212.94 72.2879 212.884 72.4419 212.676 72.5413C212.357 72.9488 212.288 73.6193 212.399 73.3113C212.288 73.6193 212.552 73.3659 212.871 72.9584C212.871 72.9584 212.871 72.9584 213.191 72.5509C213.246 72.397 213.191 72.551 213.135 72.705C212.386 73.8278 212.594 73.7283 212.692 73.9369C212.692 73.9369 212.692 73.9369 212.747 73.7829L212.386 73.8278ZM213.347 74.5176C212.708 75.3325 213.598 74.7807 213.347 74.5176V74.5176ZM213.845 73.1317L213.956 72.8237L213.845 73.1317C213.845 73.1317 213.484 73.1766 213.22 73.43C213.22 73.43 213.386 72.968 213.552 72.5061C213.552 72.5061 213.386 72.968 213.233 72.9135C213.233 72.9135 212.705 73.4204 212.33 73.9818C212.22 74.2898 212.33 73.9818 212.275 74.1358C212.164 74.4438 212.262 74.6523 212.637 74.0909C212.956 73.6835 212.637 74.0909 212.47 74.5529C212.415 74.7069 212.47 74.5529 212.47 74.5529C212.47 74.5529 212.637 74.0909 212.956 73.6835C213.181 74.9796 213.692 73.0772 213.595 72.8686L213.845 73.1317ZM214.233 72.0537C214.233 72.0537 213.914 72.4612 214.012 72.6697C214.012 72.6697 214.484 72.3168 214.233 72.0537ZM214.559 75.4705C214.836 74.7005 214.836 74.7005 214.266 74.8449C214.099 75.3068 214.252 75.3614 214.559 75.4705ZM216.498 70.0807C216.498 70.0807 216.331 70.5427 216.387 70.3887C216.498 70.0807 216.553 69.9267 216.498 70.0807ZM216.292 72.0923C216.292 72.0923 216.348 71.9383 216.139 72.0378C216.028 72.3458 215.973 72.4998 216.292 72.0923ZM217.305 70.716L217.582 69.946C217.582 69.946 216.569 71.3223 217.305 70.716ZM219 68.8874C219 68.8874 218.847 68.8328 218.694 68.7783C218.583 69.0863 218.68 69.2948 219 68.8874ZM222.215 70.0328C222.215 70.0328 222.228 69.5163 222.02 69.6157C221.867 69.5612 221.909 69.9237 221.867 69.5612C221.339 70.0681 221.743 70.3857 222.215 70.0328ZM221.463 69.2436C221.463 69.2436 221.463 69.2435 221.518 69.0895L221.463 69.2436ZM220.602 70.6744C220.602 70.6744 220.824 70.0584 220.769 70.2124C220.352 70.4113 220.006 71.8518 220.602 70.6744ZM219.182 69.821L219.293 69.513L219.182 69.821ZM219.087 71.5245L219.254 71.0625C219.254 71.0625 218.253 71.9223 218.087 72.3843C218.24 72.4389 218.56 72.0314 219.087 71.5245ZM219.006 72.7116C219.615 71.0177 217.963 73.2088 218.631 73.273C218.631 73.273 218.895 73.0196 219.006 72.7116ZM217.914 77.187C218.191 76.417 217.676 76.4074 217.386 77.6939L217.914 77.187ZM220.068 75.522C221.86 73.9019 219.094 75.3487 220.566 74.1361C220.788 73.5201 221.01 72.9041 221.176 72.4421C223.245 70.0521 223.73 69.1827 221.577 70.8477L219.228 72.0956C219.228 72.0956 219.368 72.6667 219.312 72.8207C219.257 72.9747 218.784 73.3275 218.563 73.9435C218.882 73.5361 219.201 73.1286 219.009 74.6236C219.162 74.6782 219.205 75.0407 218.97 76.1732C218.97 76.1732 218.687 76.478 218.123 77.0876C218.123 77.0876 218.82 78.0308 219.152 77.1068C219.318 76.6449 219.472 76.6993 219.735 76.4459C219.902 75.9839 219.902 75.984 220.068 75.522ZM221.86 73.9019C221.86 73.9019 221.971 73.5939 221.554 73.7928C221.387 74.2548 221.596 74.1553 221.86 73.9019ZM222.912 70.9761C222.912 70.9761 223.385 70.6232 222.912 70.9761V70.9761ZM224.013 72.2369L224.069 72.0829C224.069 72.0829 223.958 72.3909 224.013 72.2369ZM224.137 71.4124C224.137 71.4124 224.137 71.4124 223.929 71.5118C223.61 71.9193 224.277 71.9835 224.137 71.4124ZM223.261 71.4477L223.15 71.7556C223.456 71.8647 224.274 70.0714 223.261 71.4477ZM223.016 75.0088C223.349 74.0848 222.57 74.3286 222.306 74.582C222.293 75.0985 222.599 75.2077 223.016 75.0088ZM220.95 79.3109L220.84 79.6189C220.84 79.6189 220.729 79.9269 220.673 80.0809C220.895 79.4649 220.95 79.3109 220.95 79.3109ZM221.589 78.496C221.589 78.496 221.478 78.804 221.423 78.958C221.423 78.958 221.423 78.958 221.257 79.42C221.035 80.036 221.146 79.728 221.257 79.42C221.367 79.112 221.534 78.6501 221.742 78.5506C222.645 77.4823 221.658 77.8255 221.589 78.496ZM224.388 71.6755C224.499 71.3675 224.499 71.3675 224.388 71.6755V71.6755ZM225.001 71.8936L225.111 71.5856C225.111 71.5856 225.001 71.8937 224.945 72.0477L224.362 72.7085C223.974 73.7865 225.6 72.6284 225.098 72.1022L225.001 71.8936ZM225.46 72.0573L224.932 72.5642C224.932 72.5642 224.6 73.4881 224.877 72.7181C225.043 72.2562 225.418 71.6947 225.154 71.9482L225.46 72.0573ZM223.703 78.3806L223.648 78.5346L223.703 78.3806ZM226.747 76.1638C226.747 76.1638 227.024 75.3939 226.606 75.5928C226.551 75.7467 226.303 77.3958 226.747 76.1638ZM227.248 76.69C227.248 76.69 227.636 75.612 226.9 76.2184C226.844 76.3724 227.095 76.6354 227.248 76.69ZM229.063 72.1248C229.171 69.9047 228.646 72.3236 227.48 73.6454C227.578 73.8539 228.995 72.7953 229.063 72.1248ZM226.489 80.2415C226.489 80.2415 226.267 80.8574 226.642 80.296C226.753 79.988 226.753 79.988 226.489 80.2415ZM228.864 77.9605C228.864 77.9605 228.809 78.1145 229.434 77.8161L228.864 77.9605ZM229.45 79.2117L228.6 78.2139C228.6 78.2139 227.909 81.0949 229.45 79.2117ZM229.118 80.1357C229.118 80.1357 229.063 80.2897 229.007 80.4437L229.118 80.1357ZM230.343 80.572C230.343 80.572 230.343 80.572 229.981 80.6169C229.509 80.9698 230.134 80.6715 230.343 80.572ZM231.705 79.6674C231.705 79.6674 230.871 80.0651 231.232 80.0202C231.232 80.0202 231.649 79.8214 231.705 79.6674ZM232.956 79.0707L232.914 78.7081C231.913 79.5679 232.484 79.4236 232.956 79.0707ZM2.04918 3.07076L1.74294 2.96167C1.74294 2.96167 1.89606 3.01622 2.04918 3.07076ZM3.65816 8.68198C3.65816 8.68198 3.71356 8.52799 3.65816 8.68198V8.68198ZM4.52148 9.16321C4.52148 9.16321 4.11754 8.8456 4.06214 8.99959C3.95135 9.30757 4.35529 9.62519 4.52148 9.16321ZM5.32629 7.88637C5.32629 7.88637 4.81153 7.87673 5.06237 8.13982C5.06237 8.13982 5.36862 8.2489 5.32629 7.88637ZM8.22559 11.3513C8.22559 11.3513 7.91937 11.2422 7.76625 11.1877C7.39155 11.7491 7.94861 12.1213 8.22559 11.3513ZM8.98122 14.0527C8.98122 14.0527 8.92582 14.2067 8.98122 14.0527V14.0527ZM23.2922 28.5318C23.2922 28.5318 22.846 27.8516 22.5397 27.7425C22.6798 28.3136 22.8198 28.8846 23.2922 28.5318ZM24.6149 29.1767C22.9013 27.6976 25.2305 31.307 24.3834 32.2213C24.5819 34.5505 26.5662 31.4353 24.6149 29.1767ZM25.8069 34.9868L25.6961 35.2947C25.6961 35.2947 25.96 35.0413 25.8069 34.9868ZM27.5335 35.9493C27.5335 35.9493 27.0742 35.7856 26.921 35.7311C25.683 35.8113 28.5531 38.3972 27.5335 35.9493ZM55.0843 56.3608L54.5957 55.3181C56.0261 53.7429 47.3437 52.9085 52.5174 51.9718C52.5174 51.9718 49.6081 50.9355 47.4775 49.6554C45.2001 52.1449 53.2861 54.1567 53.4293 56.6398C54.0417 56.858 54.5142 56.5051 55.2374 56.4153L55.0843 56.3608ZM58.2998 57.5062C58.2998 57.5062 58.1044 57.0891 57.4919 56.871C57.7428 57.134 57.8405 57.3426 58.2998 57.5062ZM59.7495 59.2387C59.7495 59.2387 58.9416 58.6034 58.3291 58.3852C58.9839 58.966 59.2347 59.229 59.7495 59.2387ZM59.1756 65.6359C59.1756 65.6359 59.6903 65.6455 59.1756 65.6359V65.6359ZM61.2508 67.07C61.2508 67.07 61.2508 67.07 61.14 67.378C61.4462 67.4871 61.4039 67.1245 61.2508 67.07ZM61.7525 67.5962C61.7525 67.5962 61.6971 67.7501 61.6417 67.9041C62.2542 68.1223 62.1695 67.3973 61.7525 67.5962ZM65.4311 62.6524C65.4311 62.6524 64.7208 62.2257 64.7078 62.7422C64.8609 62.7968 65.3203 62.9604 65.4311 62.6524ZM66.1966 62.9251L66.0858 63.2331C66.5875 63.7593 66.9068 63.3519 66.1966 62.9251ZM67.4048 70.1308C67.4048 70.1308 66.2352 69.5405 66.4861 69.8035C66.5838 70.0121 67.294 70.4388 67.4048 70.1308ZM67.8641 70.2944C67.8641 70.2944 68.0727 70.195 67.8641 70.2944V70.2944ZM82.0002 71.3343C82.0002 71.3343 80.9969 70.282 80.8307 70.744C80.7199 71.0519 81.0685 71.5236 82.0002 71.3343ZM80.6446 76.0632C80.6446 76.0632 80.7846 76.6342 81.0909 76.7433C82.3289 76.6632 80.6707 75.0302 80.6446 76.0632ZM84.4893 70.6575C82.9581 70.112 82.2218 70.7184 85.0888 71.3922C85.6589 71.2478 85.1995 71.0842 84.4893 70.6575ZM84.8927 79.14C84.8927 79.14 84.8927 79.14 85.0458 79.1946C85.1989 79.2491 85.3651 78.7871 84.8927 79.14ZM85.3359 77.908C85.3359 77.908 85.2251 78.216 85.3782 78.2706C85.5736 78.6876 85.906 77.7637 85.3359 77.908ZM86.8054 74.7833C86.8054 74.7833 86.3461 74.6197 86.2907 74.7737C86.5154 76.0698 87.4602 75.364 86.8054 74.7833ZM89.0468 75.7555C89.0468 75.7555 88.6559 74.9213 88.1281 75.4282C88.0727 75.5822 88.2681 75.9993 89.0468 75.7555ZM89.8678 75.8742L90.034 75.4122C90.034 75.4122 89.4638 75.5565 89.8678 75.8742ZM91.3405 74.6615C89.767 73.7536 88.4443 73.1087 86.8154 72.3547C87.1932 73.7054 91.3828 75.0241 91.3405 74.6615ZM96.2334 80.7477C96.2334 80.7477 96.3442 80.4397 95.8849 80.276C94.7707 79.5317 91.7507 78.8033 90.5257 78.367C91.1382 78.5852 95.621 80.5295 96.2889 80.5936L96.2334 80.7477ZM93.9435 75.5888C93.9435 75.5888 94.2236 76.7309 95.4909 77.5298C101.28 78.7234 98.3416 76.8081 93.9435 75.5888ZM103.522 79.6956C100.918 78.7684 101.42 79.2945 100.042 78.8036C98.0254 79.1275 102.534 80.0389 103.522 79.6956ZM112.637 81.7266C112.637 81.7266 112.038 80.992 111.468 81.1363C111.51 81.4988 111.663 81.5534 112.637 81.7266ZM115.656 90.6199C115.656 90.6199 115.49 91.0819 115.797 91.191C116.103 91.3001 116.269 90.8381 115.656 90.6199ZM124.812 82.9366C124.812 82.9366 124.812 82.9365 124.659 82.882C124.659 82.882 124.659 82.882 124.812 82.9366ZM124.74 89.8598L123.668 89.478C123.668 89.478 122.902 89.2053 123.055 89.2598C123.766 89.6866 124.28 89.6962 124.893 89.9144L124.74 89.8598ZM125.899 92.8788C125.899 92.8788 124.55 93.267 125.899 92.8788V92.8788ZM128.78 84.8712C128.78 84.8712 128.014 84.5985 127.806 84.6979C127.848 85.0604 128.418 84.9161 128.78 84.8712ZM131.5 89.3147C134.103 90.2419 134.979 90.2066 137.345 90.3543C136.537 89.719 132.376 89.2794 131.5 89.3147ZM130.236 90.4279C130.236 90.4279 132.129 90.9284 132.546 90.7295C131.627 90.4022 130.861 90.1295 130.236 90.4279ZM136.224 93.9507C133.428 94.5184 133.692 94.265 132.272 93.4115C131.604 93.3473 130.881 93.4372 130.268 93.219C130.268 93.219 129.962 93.1099 129.809 93.0554L129.503 92.9463C127.359 92.1827 126.72 92.9976 134.402 94.6917C133.415 95.035 132.399 94.4991 131.467 94.6884C133.542 96.1225 133.888 94.6821 135.585 94.7655C135.751 94.3036 136.168 94.1047 136.279 93.7967L136.224 93.9507ZM140.192 87.7204C140.192 87.7204 139.273 87.3932 138.856 87.5921C139.511 88.1728 139.775 87.9193 140.192 87.7204ZM139.25 90.3383C140.016 90.611 140.935 90.9383 141.7 91.211C142.841 90.9223 144.066 91.3587 144.997 91.1694C143.313 90.5694 140.586 90.4667 139.097 90.2837L139.25 90.3383ZM142.052 93.5947L142.247 94.0118C142.303 93.8578 142.205 93.6493 142.052 93.5947ZM145.284 96.1357C142.248 94.0118 135.836 95.0286 138.592 96.0104C140.107 95.1603 143.394 97.5473 145.284 96.1357ZM161.066 91.1603C161.066 91.1603 160.759 91.0512 160.955 91.4683C161.372 91.2694 161.219 91.2148 161.066 91.1603ZM169.243 89.5564C169.243 89.5564 170.468 89.9928 170.94 89.6399C170.953 89.1233 170.022 89.3126 169.243 89.5564ZM168.38 89.0751C168.38 89.0751 169.158 88.8313 168.852 88.7222C168.24 88.504 168.073 88.9661 168.38 89.0751ZM169.324 96.5343C164.636 96.6015 164.317 97.009 165.541 97.4453C168.255 98.0646 171.23 96.5183 169.324 96.5343ZM182.017 91.501C182.017 91.501 182.49 91.1481 182.086 90.8305C181.975 91.1384 181.92 91.2924 182.017 91.501ZM178.573 95.3122C178.573 95.3122 179.574 94.4525 174.009 94.555C174.97 95.2448 176.179 94.2855 178.573 95.3122ZM180.538 97.0543C180.538 97.0543 178.896 96.8169 178.326 96.9612C178.257 97.6318 179.857 97.5067 180.538 97.0543ZM185.047 89.8007C185.047 89.8007 183.907 90.0894 184.575 90.1536C184.728 90.2081 185.145 90.0093 185.047 89.8007ZM204.472 117.915C204.472 117.915 204.625 117.969 204.472 117.915V117.915ZM204.586 119.519C204.586 119.519 203.876 119.092 203.625 118.829C202.469 117.722 202.009 117.559 203.625 118.829C203.931 118.938 203.876 119.092 204.029 119.147C204.335 119.256 204.488 119.31 204.488 119.31L204.586 119.519ZM205.391 118.242C205.391 118.242 203.873 117.18 204.374 117.706L205.182 118.342C205.182 118.342 205.336 118.396 205.182 118.342L205.391 118.242ZM205.935 119.131L205.782 119.076C205.782 119.076 205.782 119.076 205.935 119.131ZM205.603 120.055C205.603 120.055 205.449 120 205.603 120.055V120.055ZM212.976 111.563C212.976 111.563 213.435 111.727 213.24 111.309C213.24 111.309 212.878 111.354 212.976 111.563ZM210.134 118.021L209.522 117.803C209.522 117.803 210.134 118.021 210.636 118.547C210.789 118.602 211.096 118.711 210.636 118.547C210.385 118.284 211.249 118.765 210.636 118.547C210.483 118.493 209.828 117.912 209.926 118.12C209.926 118.12 210.177 118.383 209.926 118.12L210.134 118.021ZM211.529 119.907C211.529 119.907 211.027 119.381 210.623 119.064C210.623 119.064 210.623 119.064 210.721 119.272C211.18 119.436 211.473 120.061 211.529 119.907C211.529 119.907 211.431 119.699 211.584 119.753L211.529 119.907ZM210.555 119.734C210.555 119.734 211.112 120.106 210.555 119.734V119.734ZM210.665 119.426C209.356 118.265 210.665 119.426 210.665 119.426V119.426ZM210.444 120.042C210.444 120.042 211.252 120.677 210.946 120.568C210.946 120.568 210.946 120.568 210.444 120.042ZM208.176 120.103C208.176 120.103 207.717 119.939 208.219 120.465C209.027 121.101 208.831 120.684 208.372 120.52L208.066 120.411L208.176 120.103ZM208.746 119.959L208.593 119.904C208.593 119.904 208.997 120.222 208.746 119.959ZM209.264 121.88C209.264 121.88 209.724 122.044 209.375 121.572L208.303 121.191C208.303 121.191 207.593 120.764 207.844 121.027C208.095 121.29 208.401 121.399 208.707 121.508C208.86 121.563 209.362 122.089 209.209 122.034C208.903 121.925 208.903 121.925 208.903 121.925C208.903 121.925 209.307 122.243 209.46 122.297L209.571 121.989L209.264 121.88ZM208.121 120.257L207.815 120.148L208.121 120.257ZM209.44 118.99C209.44 118.99 209.44 118.99 209.245 118.573C208.939 118.464 209.245 118.573 209.44 118.99ZM209.467 117.957C209.467 117.957 209.313 117.902 209.063 117.639C208.352 117.212 209.007 117.793 209.467 117.957ZM210.731 116.844C210.731 116.844 210.48 116.58 210.382 116.372L209.923 116.208C208.766 115.101 209.978 116.054 209.617 116.099C209.617 116.099 210.773 117.206 210.675 116.997L210.731 116.844ZM211.187 115.095L211.034 115.041C210.226 114.405 211.34 115.15 211.187 115.095ZM210.418 112.91L210.529 112.602C210.529 112.602 210.474 112.756 210.418 112.91ZM209.877 113.934C209.877 113.934 210.031 113.988 209.933 113.78C209.933 113.78 209.933 113.78 209.877 113.934ZM209.294 114.594C209.294 114.594 211.454 116.754 211.063 115.92C211.216 115.974 211.063 115.92 211.063 115.92L210.868 115.502C210.868 115.502 209.643 115.066 210.073 114.351C209.669 114.033 209.656 114.55 209.239 114.749L209.294 114.594ZM207.769 117.873C207.769 117.873 208.395 117.575 208.463 116.904C208.31 116.85 207.268 117.347 207.769 117.873ZM208.164 112.455L208.011 112.4L208.164 112.455ZM206.391 117.382C206.391 117.382 206.808 117.183 206.613 116.766C206.153 116.603 205.889 116.856 206.391 117.382ZM205.117 120.924C205.117 120.924 204.811 120.815 205.466 121.396C205.967 121.922 205.521 121.242 205.117 120.924ZM206.521 120.382C206.521 120.382 207.176 120.963 207.525 121.434C207.984 121.598 208.082 121.807 208.179 122.015C208.375 122.432 208.932 122.804 208.681 122.541C208.333 122.07 209.043 122.496 208.179 122.015L207.873 121.906C207.873 121.906 207.678 121.489 207.274 121.171C206.968 121.062 207.023 120.908 207.274 121.171C207.58 121.28 207.274 121.171 207.274 121.171C207.121 121.117 206.466 120.536 206.313 120.481C206.007 120.372 205.7 120.263 206.257 120.636L206.521 120.382ZM208.626 122.695L208.473 122.641C208.877 122.958 208.932 122.804 208.626 122.695ZM208.404 123.311C208.404 123.311 207.749 122.73 207.596 122.676C207.596 122.676 207.596 122.676 207.749 122.73C208.056 122.84 208.557 123.366 208.557 123.366C208.557 123.366 208.557 123.366 208.404 123.311ZM206.133 121.46C206.133 121.46 206.384 121.723 206.537 121.778L206.078 121.614L206.133 121.46ZM208.196 123.411C208.196 123.411 207.792 123.093 207.29 122.567L207.137 122.512C207.137 122.512 206.886 122.249 206.788 122.041L206.635 121.986C206.635 121.986 206.133 121.46 205.827 121.351C206.176 121.823 206.023 121.768 206.427 122.086C207.596 122.676 206.677 122.349 207.277 123.083C207.43 123.138 207.583 123.192 207.583 123.192C207.736 123.247 208.042 123.356 208.14 123.565C208.446 123.674 208.446 123.674 208.14 123.565L208.196 123.411ZM209.652 120.802C209.652 120.802 209.75 121.011 209.903 121.065C210.056 121.12 209.805 120.857 209.652 120.802ZM210.418 121.075C210.418 121.075 210.584 120.613 210.388 120.196C210.388 120.196 210.082 120.087 209.831 119.824L209.372 119.66C209.372 119.66 208.87 119.134 209.079 119.035C208.73 118.563 209.998 119.362 209.092 118.518L208.786 118.409C208.786 118.409 208.786 118.409 208.479 118.3C208.173 118.191 208.173 118.191 208.424 118.454L208.577 118.509C208.577 118.509 208.773 118.926 208.466 118.817C208.16 118.707 207.505 118.127 208.007 118.653L208.16 118.707C208.16 118.707 207.952 118.807 207.896 118.961L208.356 119.124C208.356 119.124 208.857 119.651 209.206 120.122C208.9 120.013 208.649 119.75 208.593 119.904C208.287 119.795 208.189 119.586 208.092 119.378C208.092 119.378 207.939 119.323 208.092 119.378C208.9 120.013 208.036 119.532 209.248 120.485C209.903 121.065 209.248 120.485 210.014 120.757L210.32 120.867L210.418 121.075ZM210.851 122.272C210.851 122.272 211.31 122.435 211.004 122.326C210.851 122.272 210.698 122.217 210.851 122.272ZM210.382 116.372C209.672 115.945 209.519 115.891 209.77 116.154L210.118 116.625C210.118 116.625 210.425 116.734 210.731 116.844C210.884 116.898 211.386 117.424 211.483 117.633C211.483 117.633 211.483 117.633 210.871 117.415C210.411 117.251 210.314 117.042 210.063 116.779C209.561 116.253 209.45 116.561 209.45 116.561C209.45 116.561 209.757 116.67 210.008 116.933C210.008 116.933 211.206 118.403 210.705 117.877C210.551 117.822 210.398 117.767 210.148 117.504C209.591 117.132 209.284 117.023 209.688 117.341L210.148 117.504C210.148 117.504 210.802 118.085 210.747 118.239C210.747 118.239 209.981 117.966 210.441 118.13L210.747 118.239C210.747 118.239 209.981 117.966 210.288 118.075C210.441 118.13 210.385 118.284 210.483 118.492C210.483 118.492 211.236 119.282 211.389 119.336C211.389 119.336 211.695 119.445 211.444 119.182C211.291 119.128 211.096 118.711 211.193 118.919C211.959 119.192 210.9 118.294 211.359 118.457C211.359 118.457 211.359 118.457 211.415 118.303C211.317 118.095 211.568 118.358 211.721 118.412C212.027 118.521 211.581 117.841 211.33 117.578C210.565 117.305 210.271 116.68 209.867 116.362L210.382 116.372ZM219.512 101.557C219.512 101.557 220.291 101.313 219.734 100.941C219.831 101.149 219.734 100.941 219.678 101.095C219.678 101.095 219.261 101.294 219.512 101.557ZM219.124 102.635L218.971 102.58C218.971 102.58 219.417 103.26 219.124 102.635ZM218.903 103.251C218.903 103.251 218.903 103.251 218.652 102.987C217.44 102.035 218.541 103.295 218.903 103.251ZM218.166 103.857L218.319 103.911C218.319 103.911 218.32 103.911 218.166 103.857ZM218.082 103.132C218.082 103.132 217.775 103.023 217.929 103.077C218.069 103.648 218.694 103.35 218.082 103.132ZM217.86 103.748C217.86 103.748 218.013 103.802 217.86 103.748C217.707 103.693 217.554 103.639 217.86 103.748ZM217.192 103.684C217.192 103.684 217.192 103.684 217.443 103.947L217.596 104.001C217.596 104.001 217.29 103.892 217.192 103.684ZM215.237 107.678C215.237 107.678 216.045 108.313 215.153 106.953C214.791 106.998 214.693 106.789 215.237 107.678ZM212.663 115.794C212.663 115.794 212.51 115.74 212.914 116.058C213.22 116.167 212.914 116.058 212.663 115.794ZM212.093 115.939C212.093 115.939 211.633 115.775 211.536 115.567C211.536 115.567 212.343 116.202 212.093 115.939ZM212.552 116.102C212.552 116.102 211.94 115.884 212.552 116.102C213.36 116.738 213.165 116.321 212.552 116.102ZM217.681 104.726L217.068 104.508C217.068 104.508 217.375 104.617 217.779 104.935C218.489 105.362 218.085 105.044 217.834 104.781L217.681 104.726ZM217.935 106.901C217.088 107.816 217.309 107.2 216.921 108.278C217.381 108.441 218.173 107.681 217.935 106.901ZM214.722 115.833L214.416 115.724C214.513 115.933 215.126 116.151 214.722 115.833ZM221.972 100.001L221.666 99.8916C221.666 99.8916 221.666 99.8916 221.972 100.001ZM231.622 97.1842L231.316 97.0751C231.316 97.0751 231.873 97.4473 231.622 97.1842ZM232.538 95.5993C232.538 95.5993 232.691 95.6539 232.538 95.5993C232.385 95.5448 232.231 95.4903 232.538 95.5993ZM231.495 96.0966C231.495 96.0966 231.495 96.0966 231.746 96.3597C232.052 96.4688 231.801 96.2057 231.495 96.0966ZM231.938 94.8647C231.938 94.8647 231.785 94.8101 231.938 94.8647C231.938 94.8647 232.091 94.9192 232.245 94.9737C232.398 95.0283 232.245 94.9738 232.147 94.7652L231.938 94.8647ZM229.025 100.081C229.889 100.562 229.081 99.9271 229.944 100.408C230.556 100.627 230.055 100.1 229.498 99.7283C229.345 99.6737 229.192 99.6191 228.941 99.3561C228.634 99.247 228.941 99.3561 228.941 99.3561C228.788 99.3015 229.136 99.7732 228.885 99.5101C228.579 99.401 228.579 99.401 228.83 99.6641C228.83 99.6641 228.983 99.7186 228.83 99.6641C228.371 99.5004 229.319 100.707 229.472 100.761C229.472 100.761 229.778 100.87 230.182 101.188L230.335 101.243C230.39 101.089 230.446 100.935 229.54 100.091C229.234 99.9817 229.234 99.9817 229.54 100.091L229.025 100.081ZM225.141 107.036C225.141 107.036 224.78 107.081 224.822 107.444C224.975 107.498 225.184 107.399 225.141 107.036ZM218.918 112.811C218.765 112.756 218.765 112.756 218.918 112.811V112.811ZM225.423 83.6839L226.147 83.594C226.147 83.594 225.27 83.6293 225.423 83.6839ZM227.981 82.3365L227.411 82.4808L227.717 82.5899L227.828 82.2819L227.981 82.3365ZM229.385 81.7943L230.261 81.759L230.832 81.6147C230.832 81.6147 230.261 81.7591 230.525 81.5057C230.887 81.4608 231.513 81.1624 230.636 81.1977C230.066 81.342 229.649 81.5409 229.232 81.7398L229.385 81.7943ZM237.67 86.1353L238.24 85.9909L237.934 85.8818C237.934 85.8818 237.168 85.6091 237.266 85.8176L237.725 85.9813L237.67 86.1353ZM235.878 79.5905C235.878 79.5905 236.24 79.5456 235.878 79.5905V79.5905ZM231.027 82.0318L231.486 82.1954L231.653 81.7334C231.653 81.7334 231.236 81.9323 231.027 82.0318ZM227.844 83.6775L228.72 83.6423C228.72 83.6423 228.206 83.6326 227.844 83.6775ZM227.955 83.3695C227.955 83.3695 227.648 83.2604 226.772 83.2957L226.202 83.44C226.202 83.44 226.355 83.4946 227.078 83.4048L227.231 83.4593C227.231 83.4593 226.925 83.3502 227.231 83.4593C227.231 83.4593 227.231 83.4593 227.385 83.5138C227.691 83.6229 227.691 83.623 227.899 83.5235L227.955 83.3695ZM239.651 81.1081C239.651 81.1081 240.179 80.6012 240.54 80.5563C240.54 80.5563 240.026 80.5466 239.804 81.1626L239.651 81.1081ZM240.384 78.5896C240.384 78.5896 241.218 78.1918 240.606 77.9737C240.286 78.3811 239.661 78.6794 240.384 78.5896ZM238.628 76.7481C238.628 76.7481 239.254 76.4497 238.628 76.7481V76.7481ZM235.572 79.4814C235.572 79.4814 235.572 79.4814 235.725 79.5359C236.087 79.491 236.504 79.2922 236.351 79.2376C235.891 79.074 237.546 78.7949 235.891 79.074L235.738 79.0194L235.627 79.3274L235.572 79.4814ZM234.917 78.9007C234.917 78.9007 234.556 78.9456 234.917 78.9007V78.9007ZM234.679 78.1211C234.679 78.1211 235.973 77.8869 234.679 78.1211V78.1211ZM232.193 80.71C232.193 80.71 232.972 80.4662 233.389 80.2674L233.5 79.9594L232.93 80.1037C232.93 80.1037 231.526 80.6459 232.04 80.6555L232.193 80.71ZM231.887 80.6009C231.887 80.6009 232.568 80.1486 231.428 80.4373C230.955 80.7902 230.747 80.8896 231.887 80.6009ZM225.951 83.177C225.951 83.177 226.521 83.0326 227.398 82.9973C227.551 83.0519 227.759 82.9524 227.968 82.853L227.815 82.7984L227.508 82.6893C227.508 82.6893 226.619 83.2411 226.202 83.44L225.951 83.177ZM223.113 83.3822C224.254 83.0935 224.824 82.9491 225.603 82.7053C224.726 82.7406 224.726 82.7406 223.113 83.3822ZM222.892 83.9982C222.892 83.9982 223.462 83.8538 223.67 83.7543C223.156 83.7447 222.947 83.8442 222.892 83.9982ZM200.874 87.0998C200.874 87.0998 200.93 86.9458 200.874 87.0998V87.0998ZM194.463 88.1167C194.463 88.1167 194.463 88.1167 194.616 88.1712C194.616 88.1712 194.616 88.1712 194.463 88.1167ZM190.8 94.456L188.324 94.6163C188.324 94.6163 189.341 95.1521 190.8 94.456ZM192.602 90.4073C191.573 90.388 190.85 90.4778 190.279 90.6221C190.947 90.6863 191.671 90.5965 192.602 90.4073ZM194.264 93.9524L192.566 93.8689C192.566 93.8689 192.192 94.4303 193.166 94.6036L194.319 93.7984L194.264 93.9524ZM194.026 93.1728C194.026 93.1728 193.566 93.0091 193.664 93.2177C193.97 93.3268 194.179 93.2273 194.026 93.1728ZM217.65 85.6054C220.194 84.7745 221.96 84.1875 222.169 84.088C219.165 84.7552 222.139 83.2089 217.37 84.4632C217.37 84.4632 217.425 84.3092 217.272 84.2546C217.272 84.2546 217.063 84.3541 217.008 84.5081C213.796 85.2748 207.511 87.3792 194.16 89.9197C194.466 90.0288 196.219 89.9583 198.903 89.6985C201.588 89.4387 205.009 88.5725 208.319 88.0144C211.74 87.1483 215.105 86.4362 217.65 85.6054ZM218.699 88.9323C218.699 88.9323 218.754 88.7783 218.448 88.6692C218.448 88.6692 218.545 88.8777 218.699 88.9323ZM220.444 93.2025C220.444 93.2025 218.747 93.119 218.219 93.6259C218.219 93.6259 218.832 93.8441 218.985 93.8986C218.985 93.8986 220.181 93.4559 220.444 93.2025ZM221.735 91.0562C221.735 91.0562 221.288 90.3761 221.122 90.8381C221.011 91.146 221.582 91.0017 221.735 91.0562ZM221.07 92.9041C221.07 92.9041 220.861 93.0036 221.07 92.9041V92.9041ZM223.458 90.1066C223.458 90.1066 224.667 89.1474 224.514 89.0929C223.582 89.2821 222.65 89.4714 223.458 90.1066ZM218.293 113.109C218.293 113.109 217.986 113 218.237 113.263C218.739 113.79 219.003 113.536 218.293 113.109ZM218.824 114.515L218.517 114.406L218.824 114.515ZM223.268 109.844C223.268 109.844 222.962 109.734 223.017 109.58C223.017 109.58 222.711 109.471 222.613 109.263C222.32 108.637 221.235 108.772 222.613 109.263C222.766 109.317 223.17 109.635 223.421 109.898C223.727 110.007 224.033 110.116 223.421 109.898L223.268 109.844ZM223.978 110.27C223.978 110.27 224.033 110.116 223.629 109.799L223.323 109.69C223.323 109.69 223.323 109.69 223.825 110.216L223.978 110.27ZM227.553 101.294C227.553 101.294 227.706 101.348 227.553 101.294V101.294ZM227.817 101.04L227.51 100.931C227.51 100.931 227.51 100.931 227.817 101.04ZM228.471 101.621L228.165 101.512C228.165 101.512 228.165 101.512 228.318 101.566L228.471 101.621ZM228.918 102.301C228.918 102.301 229.781 102.783 228.918 102.301V102.301ZM229.335 102.102C229.335 102.102 228.582 101.313 229.139 101.685C229.696 102.057 229.599 101.849 229.501 101.64C229.501 101.64 229.807 101.749 229.501 101.64C228.944 101.268 228.289 100.687 228.387 100.896L227.927 100.732C228.331 101.05 228.68 101.522 228.527 101.467L229.53 102.519L229.335 102.102ZM229.4 99.5197C229.4 99.5197 229.651 99.7828 229.749 99.9913C229.999 100.254 230.361 100.209 230.361 100.209C230.361 100.209 230.361 100.209 230.013 99.7379C229.706 99.6288 229.4 99.5197 229.4 99.5197ZM230.941 97.6365C229.465 96.9371 230.788 97.582 231.234 98.2621C231.541 98.3712 231.094 97.6911 230.941 97.6365ZM232.316 96.2153C232.316 96.2153 232.316 96.2154 232.218 96.0068C232.065 95.9523 232.218 96.0068 232.218 96.0068L232.525 96.1159L232.316 96.2153ZM233.092 94.0594C233.092 94.0594 232.798 93.4338 232.743 93.5878C232.743 93.5878 232.59 93.5333 232.688 93.7418L232.535 93.6873C232.535 93.6873 232.479 93.8413 233.287 94.4765C233.593 94.5856 233.287 94.4765 233.343 94.3225L233.092 94.0594ZM0.911985 5.27158C0.911985 5.27158 0.690418 5.88751 0.843537 5.94205C1.14977 6.05114 1.46907 5.64375 1.06511 5.32613C1.06511 5.32613 0.911981 5.27158 0.758862 5.21704L0.911985 5.27158ZM25.8529 29.0965L25.6998 29.0419C25.6998 29.0419 25.6998 29.0419 26.0061 29.151L25.8529 29.0965ZM197.556 65.5919C197.556 65.5919 198.084 65.085 198.237 65.1395C198.237 65.1395 198.237 65.1395 198.348 64.8315C198.195 64.777 197.889 64.6679 197.736 64.6134L197.625 64.9214C197.625 64.9214 197.348 65.6914 197.403 65.5374L197.556 65.5919ZM199.111 63.1922C199.111 63.1922 199.111 63.1922 199.166 63.0382C199.166 63.0382 199.166 63.0382 199.277 62.7302C199.221 62.8842 198.86 62.9291 198.651 63.0285L198.54 63.3365L198.889 63.8082C198.889 63.8082 199 63.5002 199.111 63.1922ZM201.649 58.5371L201.538 58.8451L201.649 58.5371ZM204.853 121.178L205.006 121.232C205.814 121.867 205.967 121.922 205.006 121.232C205.006 121.232 204.853 121.178 205.006 121.232L204.853 121.178ZM219.143 71.3705C219.143 71.3705 219.837 70.4017 219.143 71.3705V71.3705ZM228.817 100.181L229.123 100.29C228.719 99.972 228.664 100.126 228.817 100.181ZM211.353 71.8964C211.353 71.8964 211.575 71.2804 211.353 71.8964V71.8964ZM206.785 120.129C206.785 120.129 206.381 119.811 206.632 120.074L206.785 120.129ZM201.44 66.8015L201.329 67.1095C201.329 67.1095 201.648 66.7021 201.44 66.8015ZM208.968 119.343C208.968 119.343 209.274 119.452 209.121 119.397C208.968 119.343 208.815 119.288 208.968 119.343ZM237.93 92.1347C237.93 92.1347 237.93 92.1347 237.777 92.0801C237.624 92.0256 237.777 92.0801 237.93 92.1347ZM201.137 68.6045C201.137 68.6045 200.97 69.0665 201.081 68.7585C201.137 68.6045 201.247 68.2965 201.137 68.6045ZM209.645 125.143C209.645 125.143 209.645 125.143 209.798 125.198C209.798 125.198 209.798 125.198 209.645 125.143ZM217.436 116.452C217.436 116.452 218.146 116.879 217.895 116.616C217.895 116.616 217.491 116.298 217.436 116.452ZM225.697 81.0018C225.697 81.0018 225.906 80.9023 226.17 80.6489C226.17 80.6489 225.753 80.8478 225.697 81.0018ZM208.46 72.2557L208.571 71.9477C208.571 71.9477 208.571 71.9477 208.473 71.7392C207.89 72.4 208.085 72.8171 208.405 72.4096L208.46 72.2557ZM232.011 79.7765L232.581 79.6321C232.581 79.6321 232.428 79.5775 232.275 79.523L232.164 79.831C232.164 79.831 231.594 79.9753 231.122 80.3282C230.969 80.2737 230.398 80.418 230.037 80.4629C230.343 80.572 230.649 80.6811 230.802 80.7357C230.802 80.7357 230.747 80.8896 230.802 80.7357L231.109 80.8447C231.109 80.8447 232.207 80.1935 232.151 80.3475C232.151 80.3475 232.721 80.2031 233.138 80.0042L232.832 79.8951L231.79 80.3924C231.79 80.3924 231.789 80.3924 231.636 80.3379C231.636 80.3379 231.9 80.0844 232.262 80.0395L232.011 79.7765Z" fill="#DEE1E5"/>
</svg>
