<svg width="24" height="24" viewBox="0 0 24 24" fill="none" xmlns="http://www.w3.org/2000/svg">
<path fill-rule="evenodd" clip-rule="evenodd" d="M14.7696 6.08984C14.7738 5.47827 15.2772 4.98814 15.8886 5.00022L19.7981 5.07742L20.0578 5.654C21.2564 8.31459 21.3092 11.3689 20.229 14.0852C19.693 15.433 18.8783 16.6972 17.7877 17.7877C16.6972 18.8783 15.433 19.693 14.0852 20.229C11.3689 21.3092 8.31459 21.2564 5.654 20.0578L5.07742 19.7981L5.00022 15.8886C4.98814 15.2772 5.47827 14.7738 6.08984 14.7696L10.11 14.742C10.4037 14.74 10.6859 14.8558 10.8935 15.0634L13.9393 18.1092C14.8168 17.6838 15.6415 17.1055 16.3735 16.3735C17.1055 15.6415 17.6838 14.8168 18.1092 13.9393L15.0634 10.8935C14.8558 10.6859 14.74 10.4037 14.742 10.11L14.7696 6.08984ZM18.8231 11.8248C19.1455 10.2326 19.0271 8.57584 18.4691 7.05156L16.7633 7.01788L16.7446 9.74623L18.8231 11.8248ZM11.8248 18.8231L9.74623 16.7446L7.01788 16.7633L7.05156 18.4691C8.57584 19.0271 10.2326 19.1455 11.8248 18.8231Z" fill="#E55608"/>
<path fill-rule="evenodd" clip-rule="evenodd" d="M13 9C10.7909 9 9 10.7909 9 13H7C7 9.68629 9.68629 7 13 7V9Z" fill="#E55608"/>
<path fill-rule="evenodd" clip-rule="evenodd" d="M13 5C8.58172 5 5 8.58172 5 13H3C3 7.47715 7.47715 3 13 3V5Z" fill="#E55608"/>
</svg>
