<svg width="21" height="21" viewBox="0 0 21 21" fill="none" xmlns="http://www.w3.org/2000/svg">
<path d="M1.18011 8.86C1.09762 8.79994 1.03593 8.71563 1.00366 8.61882C0.971392 8.52202 0.970151 8.41755 1.00011 8.32L1.08011 8.07C1.10866 7.97356 1.1662 7.88824 1.24492 7.82562C1.32364 7.76301 1.41971 7.72613 1.52011 7.72001L7.91011 7.21L10.3601 1.32C10.4002 1.21945 10.4712 1.13424 10.5629 1.07672C10.6545 1.01919 10.7621 0.992322 10.8701 1H11.1301C11.232 0.997843 11.332 1.0275 11.4163 1.08486C11.5005 1.14222 11.5648 1.22441 11.6001 1.32L14.0601 7.21L20.4501 7.72001C20.5505 7.72613 20.6466 7.76301 20.7253 7.82562C20.804 7.88824 20.8616 7.97356 20.8901 8.07L20.9701 8.32C21.0033 8.41455 21.0068 8.51701 20.9799 8.61357C20.9531 8.71012 20.8973 8.79613 20.8201 8.86L16.0001 13L17.4801 19.21C17.504 19.3072 17.4987 19.4094 17.4649 19.5036C17.4311 19.5978 17.3703 19.6801 17.2901 19.74L17.0001 19.9C16.9174 19.9559 16.8199 19.9858 16.7201 19.9858C16.6203 19.9858 16.5228 19.9559 16.4401 19.9L11.0001 16.6L5.53011 19.93C5.44743 19.9859 5.34991 20.0158 5.25011 20.0158C5.15031 20.0158 5.05279 19.9859 4.97011 19.93L4.75011 19.78C4.66991 19.7201 4.60913 19.6378 4.57535 19.5436C4.54156 19.4494 4.53626 19.3472 4.56011 19.25L6.00011 13L1.18011 8.86Z" fill="#E55608"/>
</svg>
