<svg width="24" height="24" viewBox="0 0 24 24" fill="none" xmlns="http://www.w3.org/2000/svg">
<path fill-rule="evenodd" clip-rule="evenodd" d="M22.5494 1.45056L22.4988 2.5461C22.3906 4.8928 21.8911 7.2256 20.9996 9.43819C20.0527 11.7884 18.6643 14.0014 16.836 15.9494C17.1174 16.7856 17.2364 17.8784 16.923 19.0435C16.503 20.6047 15.3422 22.169 13.0474 23.3838L12.3947 23.7294L8.98324 20.318L10.5258 18.7755L8.71251 17.9327L5.9979 20.6473L3.35258 18.002L6.06719 15.2874L5.22444 13.4742L3.68194 15.0167L0.270508 11.6053L0.61608 10.9525C1.83094 8.65778 3.39525 7.49694 4.95639 7.077C6.12156 6.76358 7.21431 6.8826 8.05049 7.16395C9.99853 5.33564 12.2116 3.94722 14.5618 3.00033C16.7743 2.10889 19.1071 1.60932 21.4538 1.50109L22.5494 1.45056ZM6.40458 8.89142C6.11337 8.88781 5.79999 8.92117 5.47591 9.00835C4.65143 9.23013 3.65859 9.82752 2.74999 11.2563L3.68194 12.1883L4.74496 11.1252C5.24272 10.353 5.79597 9.6065 6.40458 8.89142ZM6.67017 11.8396L8.10101 14.9181L9.08183 15.8989L12.1604 17.3297C13.1433 16.6631 14.0781 15.894 14.9501 15.0221C16.6547 13.3175 17.967 11.3717 18.8887 9.2953L14.7047 5.11128C12.6283 6.03294 10.6824 7.34527 8.97784 9.04986C8.10587 9.92182 7.33677 10.8567 6.67017 11.8396ZM16.7602 4.33841L19.6615 7.23973C20.0333 6.04473 20.2845 4.82003 20.4152 3.58476C19.1799 3.7154 17.9552 3.96666 16.7602 4.33841ZM12.8747 19.255L11.8117 20.318L12.7436 21.2499C14.1724 20.3413 14.7698 19.3485 14.9916 18.524C15.0788 18.1999 15.1121 17.8865 15.1085 17.5953C14.3934 18.2039 13.6469 18.7572 12.8747 19.255ZM14.95 9.04986C14.6607 8.76048 14.1915 8.76048 13.9021 9.04986C13.6128 9.33923 13.6128 9.80839 13.9021 10.0978C14.1915 10.3872 14.6608 10.3872 14.9501 10.0978C15.2394 9.80849 15.2395 9.33927 14.95 9.04986ZM12.4879 7.63564C13.5583 6.56522 15.2938 6.56522 16.3643 7.63564C17.4346 8.70602 17.4348 10.4416 16.3643 11.512C15.2938 12.5825 13.5583 12.5824 12.4879 11.512C11.4175 10.4416 11.4175 8.70606 12.4879 7.63564Z" fill="#E55608"/>
</svg>
