<svg width="19" height="18" viewBox="0 0 19 18" fill="none" xmlns="http://www.w3.org/2000/svg">
<path d="M18.8499 16.44L14.8499 12.44C14.7203 12.3074 14.5761 12.19 14.4199 12.09L13.4199 11.4C14.4186 10.1643 14.9671 8.62567 14.9755 7.0369C14.9839 5.44813 14.4515 3.90378 13.4659 2.65764C12.4803 1.41151 11.1001 0.537731 9.55211 0.179908C8.00414 -0.177915 6.38049 0.00150388 4.94799 0.68868C3.51549 1.37586 2.35938 2.5299 1.66964 3.96117C0.979896 5.39244 0.79757 7.01576 1.15262 8.56437C1.50767 10.113 2.37898 11.4947 3.62334 12.4826C4.86771 13.4704 6.41111 14.0055 7.99989 14C9.58794 14.0005 11.1289 13.461 12.3699 12.47L13.1199 13.47C13.2088 13.5988 13.3093 13.7193 13.4199 13.83L17.4199 17.83C17.4664 17.8769 17.5217 17.9141 17.5826 17.9395C17.6435 17.9649 17.7089 17.9779 17.7749 17.9779C17.8409 17.9779 17.9062 17.9649 17.9672 17.9395C18.0281 17.9141 18.0834 17.8769 18.1299 17.83L18.8299 17.13C18.9213 17.0396 18.9743 16.9175 18.9781 16.789C18.9818 16.6605 18.9359 16.5356 18.8499 16.44ZM7.99989 12C7.01098 12 6.04428 11.7068 5.22204 11.1574C4.39979 10.608 3.75893 9.82707 3.38049 8.91344C3.00205 7.99981 2.90304 6.99448 3.09596 6.02457C3.28889 5.05467 3.76509 4.16375 4.46436 3.46449C5.16362 2.76523 6.05453 2.28903 7.02444 2.0961C7.99434 1.90317 8.99968 2.00219 9.91331 2.38063C10.8269 2.75907 11.6078 3.39993 12.1572 4.22217C12.7066 5.04442 12.9999 6.01112 12.9999 7.00003C12.9999 8.32611 12.4731 9.59788 11.5354 10.5356C10.5977 11.4732 9.32597 12 7.99989 12Z" fill="#E55608"/>
</svg>
