<svg width="24" height="24" viewBox="0 0 24 24" fill="none" xmlns="http://www.w3.org/2000/svg">
<path fill-rule="evenodd" clip-rule="evenodd" d="M12 5C9.23858 5 7 7.23858 7 10C7 11.7577 7.90649 13.3047 9.28158 14.1973H14.7184C16.0935 13.3047 17 11.7577 17 10C17 7.23858 14.7614 5 12 5ZM14 16.1973H10V19H14V16.1973ZM8 15.7452C6.18818 14.4814 5 12.38 5 10C5 6.13401 8.13401 3 12 3C15.866 3 19 6.13401 19 10C19 12.38 17.8118 14.4814 16 15.7452V21H14.2359C13.6875 21.6127 12.8893 22 12 22C11.1107 22 10.3125 21.6127 9.76406 21H8V15.7452Z" fill="#E55608"/>
<path fill-rule="evenodd" clip-rule="evenodd" d="M12 10.2929L10.3536 8.64648L9.64645 9.35358L11.5 11.2071V15H12.5V11.2071L14.3536 9.35358L13.6464 8.64648L12 10.2929ZM15 17V18H9V17H15Z" fill="#E55608"/>
</svg>
