<svg width="20" height="20" viewBox="0 0 20 20" fill="none" xmlns="http://www.w3.org/2000/svg">
<path fill-rule="evenodd" clip-rule="evenodd" d="M9 3.41421L7.87173 2.28594C6.07643 2.78008 4.5318 3.88552 3.47771 5.36628L4.13286 6.96365L5.09411 7.32827L9 4.49047V3.41421ZM10 6.23607L6.42029 8.8369L7.78762 13.0451H12.2124L13.5797 8.8369L10 6.23607ZM15.5582 9.2199L14.0604 13.8296L14.7066 14.6066L16.4818 14.6901C17.4372 13.3723 18 11.753 18 10C18 9.8727 17.997 9.7463 17.9912 9.6206L16.5541 8.8421L15.5582 9.2199ZM16.5223 5.36628C15.4682 3.88552 13.9236 2.78008 12.1283 2.28594L11 3.41421V4.49047L14.9059 7.32827L15.8671 6.96365L16.5223 5.36628ZM13.187 15.9073L13.0552 17.3962C12.1149 17.7851 11.0836 18 10 18C8.933 18 7.91661 17.7916 6.98786 17.4138L6.96122 16.0061L7.59804 15.0451H12.47L13.187 15.9073ZM5.96086 13.895L4.44181 9.2199L3.44593 8.8421L2.00882 9.6206C2.00296 9.7463 2 9.8727 2 10C2 11.7633 2.56944 13.3914 3.53521 14.7134H5.41854L5.96086 13.895ZM7.98263 0.20378C8.6351 0.0700599 9.3099 0 10 0C10.6901 0 11.3649 0.0700599 12.0174 0.20378C14.751 0.76406 17.0749 2.4376 18.4981 4.7268C18.882 5.34427 19.2006 6.00694 19.4442 6.70512C19.6873 7.40189 19.8554 8.1335 19.939 8.8901C19.9793 9.2549 20 9.6252 20 10C20 12.4095 19.1466 14.6222 17.7265 16.3487C16.8339 17.4339 15.7167 18.328 14.445 18.96C13.1049 19.626 11.5947 20 10 20C8.4053 20 6.89511 19.626 5.55497 18.96C5.10894 18.7383 4.68195 18.4844 4.27703 18.2014C3.5274 17.6774 2.85314 17.0534 2.27346 16.3487C0.85341 14.6222 0 12.4095 0 10C0 9.6252 0.0206601 9.2549 0.0609801 8.8901C0.14462 8.1335 0.31274 7.40189 0.5558 6.70512C0.79937 6.00694 1.11801 5.34427 1.50189 4.7268C2.92508 2.4376 5.24902 0.76406 7.98263 0.20378Z" fill="#E55608"/>
</svg>
