<svg width="20" height="20" viewBox="0 0 20 20" fill="none" xmlns="http://www.w3.org/2000/svg">
<path fill-rule="evenodd" clip-rule="evenodd" d="M4.99983 3.75466C6.82762 5.21985 8 7.47253 8 10C8 12.5275 6.82762 14.7802 4.99984 16.2453C6.36994 17.344 8.1079 18 10 18C11.8921 18 13.6301 17.344 15.0002 16.2453C13.1724 14.7802 12 12.5275 12 10C12 7.47253 13.1724 5.21985 15.0002 3.75466C13.6301 2.65603 11.8921 2 10 2C8.1079 2 6.36994 2.65603 4.99983 3.75466ZM16.4002 5.19929C14.9413 6.29495 14 8.0381 14 10C14 11.9619 14.9413 13.705 16.4002 14.8007C17.4052 13.4633 18 11.8019 18 10C18 8.1981 17.4052 6.53674 16.4002 5.19929ZM3.59985 14.8007C5.05866 13.705 6 11.9619 6 10C6 8.0381 5.05866 6.29495 3.59985 5.19929C2.59477 6.53674 2 8.1981 2 10C2 11.8019 2.59476 13.4633 3.59985 14.8007ZM2.66778 3.20005C4.49272 1.23308 7.10312 0 10 0C12.8969 0 15.5073 1.23308 17.3322 3.20005C18.9869 4.98353 20 7.37458 20 10C20 12.6254 18.9869 15.0165 17.3322 16.7999C15.5073 18.7669 12.8969 20 10 20C7.10312 20 4.49272 18.7669 2.66778 16.7999C1.01307 15.0165 0 12.6254 0 10C0 7.37458 1.01307 4.98353 2.66778 3.20005Z" fill="#E55608"/>
</svg>
