<svg width="24" height="24" viewBox="0 0 24 24" fill="none" xmlns="http://www.w3.org/2000/svg">
<path d="M18 15H10C9.44771 15 9 14.5523 9 14C9 13.4477 9.44771 13 10 13H18C18.5523 13 19 13.4477 19 14C19 14.5523 18.5523 15 18 15Z" fill="#E55608"/>
<path d="M9 18C9 17.4477 9.44771 17 10 17H13C13.5523 17 14 17.4477 14 18C14 18.5523 13.5523 19 13 19H10C9.44771 19 9 18.5523 9 18Z" fill="#E55608"/>
<path fill-rule="evenodd" clip-rule="evenodd" d="M10 5C9.44771 5 9 5.44772 9 6V10C9 10.5523 9.44771 11 10 11H18C18.5523 11 19 10.5523 19 10V6C19 5.44772 18.5523 5 18 5H10ZM11 9V7H17V9H11Z" fill="#E55608"/>
<path fill-rule="evenodd" clip-rule="evenodd" d="M5 4C5 2.34315 6.34315 1 8 1H20C21.6569 1 23 2.34315 23 4V20C23 21.6569 21.6569 23 20 23H4C2.34315 23 1 21.6569 1 20V14C1 12.3431 2.34315 11 4 11H5V4ZM20 21H6.82929C6.93985 20.6872 7 20.3506 7 20V4C7 3.44772 7.44772 3 8 3H20C20.5523 3 21 3.44772 21 4V20C21 20.5523 20.5523 21 20 21ZM3 14C3 13.4477 3.44772 13 4 13H5V20C5 20.5523 4.55228 21 4 21C3.44772 21 3 20.5523 3 20V14Z" fill="#E55608"/>
</svg>
