<svg width="20" height="19" viewBox="0 0 20 19" fill="none" xmlns="http://www.w3.org/2000/svg">
<path fill-rule="evenodd" clip-rule="evenodd" d="M9.99997 0C10.3994 0 10.7605 0.23765 10.9185 0.60447L13.117 5.70978L18.6519 6.22312C19.0496 6.26 19.3872 6.52999 19.5106 6.90983C19.634 7.28967 19.5196 7.70653 19.2195 7.97012L15.0435 11.6387L16.2656 17.0613C16.3534 17.4509 16.201 17.8554 15.8779 18.0902C15.5547 18.3249 15.1229 18.3449 14.7795 18.141L9.99997 15.303L5.22047 18.141C4.87706 18.3449 4.44524 18.3249 4.12213 18.0902C3.79901 17.8554 3.64657 17.4509 3.73438 17.0613L4.95652 11.6387L0.780479 7.97012C0.480429 7.70653 0.365999 7.28967 0.489409 6.90983C0.612829 6.52999 0.950429 6.26 1.34812 6.22312L6.88295 5.70978L9.08157 0.60447C9.23947 0.23765 9.60057 0 9.99997 0ZM9.99997 3.52827L8.48497 7.0462C8.34027 7.38237 8.02337 7.61259 7.6589 7.6464L3.845 8.0001L6.72259 10.5281C6.99758 10.7696 7.11861 11.1421 7.03814 11.4992L6.19599 15.2357L9.48937 13.2802C9.80417 13.0933 10.1958 13.0933 10.5106 13.2802L13.804 15.2357L12.9619 11.4992C12.8814 11.1421 13.0024 10.7696 13.2774 10.5281L16.155 8.0001L12.3411 7.6464C11.9766 7.61259 11.6598 7.38237 11.515 7.0462L9.99997 3.52827Z" fill="#E55608"/>
</svg>
