<svg width="94" height="18" viewBox="0 0 94 18" fill="none" xmlns="http://www.w3.org/2000/svg">
<path d="M7.5246 2.45356C8.12812 1.18215 9.87187 1.18215 10.4754 2.45356L11.5184 4.65088C11.758 5.15576 12.2213 5.5057 12.7572 5.58666L15.0895 5.93902C16.439 6.1429 16.9778 7.86712 16.0013 8.85682L14.3137 10.5672C13.9259 10.9602 13.749 11.5264 13.8405 12.0813L14.2389 14.4964C14.4694 15.8938 13.0587 16.9594 11.8516 16.2997L9.7656 15.1594C9.28627 14.8975 8.71372 14.8975 8.2344 15.1594L6.14832 16.2997C4.94129 16.9594 3.53056 15.8938 3.76109 14.4964L4.15949 12.0813C4.25103 11.5264 4.07408 10.9602 3.68631 10.5672L1.99866 8.85682C1.02215 7.86712 1.56099 6.1429 2.91049 5.93902L5.24277 5.58666C5.77866 5.5057 6.24192 5.15576 6.48158 4.65088L7.5246 2.45356Z" fill="#E55608"/>
<path d="M26.5246 2.45356C27.1281 1.18215 28.8719 1.18215 29.4754 2.45356L30.5184 4.65088C30.758 5.15576 31.2213 5.5057 31.7572 5.58666L34.0895 5.93902C35.439 6.1429 35.9778 7.86712 35.0013 8.85682L33.3137 10.5672C32.9259 10.9602 32.749 11.5264 32.8405 12.0813L33.2389 14.4964C33.4694 15.8938 32.0587 16.9594 30.8516 16.2997L28.7656 15.1594C28.2863 14.8975 27.7137 14.8975 27.2344 15.1594L25.1483 16.2997C23.9413 16.9594 22.5306 15.8938 22.7611 14.4964L23.1595 12.0813C23.251 11.5264 23.0741 10.9602 22.6863 10.5672L20.9987 8.85682C20.0221 7.86712 20.561 6.1429 21.9105 5.93902L24.2428 5.58666C24.7787 5.5057 25.2419 5.15576 25.4816 4.65088L26.5246 2.45356Z" fill="#E55608"/>
<path d="M45.5246 2.45356C46.1281 1.18215 47.8719 1.18215 48.4754 2.45356L49.5184 4.65088C49.758 5.15576 50.2213 5.5057 50.7572 5.58666L53.0895 5.93902C54.439 6.1429 54.9778 7.86712 54.0013 8.85682L52.3137 10.5672C51.9259 10.9602 51.749 11.5264 51.8405 12.0813L52.2389 14.4964C52.4694 15.8938 51.0587 16.9594 49.8516 16.2997L47.7656 15.1594C47.2863 14.8975 46.7137 14.8975 46.2344 15.1594L44.1483 16.2997C42.9413 16.9594 41.5306 15.8938 41.7611 14.4964L42.1595 12.0813C42.251 11.5264 42.0741 10.9602 41.6863 10.5672L39.9987 8.85682C39.0221 7.86712 39.561 6.1429 40.9105 5.93902L43.2428 5.58666C43.7787 5.5057 44.2419 5.15576 44.4816 4.65088L45.5246 2.45356Z" fill="#E55608"/>
<path d="M64.5246 2.45356C65.1281 1.18215 66.8719 1.18215 67.4754 2.45356L68.5184 4.65088C68.758 5.15576 69.2213 5.5057 69.7572 5.58666L72.0895 5.93902C73.439 6.1429 73.9778 7.86712 73.0013 8.85682L71.3137 10.5672C70.9259 10.9602 70.749 11.5264 70.8405 12.0813L71.2389 14.4964C71.4694 15.8938 70.0587 16.9594 68.8516 16.2997L66.7656 15.1594C66.2863 14.8975 65.7137 14.8975 65.2344 15.1594L63.1483 16.2997C61.9413 16.9594 60.5306 15.8938 60.7611 14.4964L61.1595 12.0813C61.251 11.5264 61.0741 10.9602 60.6863 10.5672L58.9987 8.85682C58.0221 7.86712 58.561 6.1429 59.9105 5.93902L62.2428 5.58666C62.7787 5.5057 63.2419 5.15576 63.4816 4.65088L64.5246 2.45356Z" fill="#E55608"/>
<path d="M83.5246 2.45356C84.1281 1.18215 85.8719 1.18215 86.4754 2.45356L87.5184 4.65088C87.758 5.15576 88.2213 5.5057 88.7572 5.58666L91.0895 5.93902C92.439 6.1429 92.9778 7.86712 92.0013 8.85682L90.3137 10.5672C89.9259 10.9602 89.749 11.5264 89.8405 12.0813L90.2389 14.4964C90.4694 15.8938 89.0587 16.9594 87.8516 16.2997L85.7656 15.1594C85.2863 14.8975 84.7137 14.8975 84.2344 15.1594L82.1483 16.2997C80.9413 16.9594 79.5306 15.8938 79.7611 14.4964L80.1595 12.0813C80.251 11.5264 80.0741 10.9602 79.6863 10.5672L77.9987 8.85682C77.0221 7.86712 77.561 6.1429 78.9105 5.93902L81.2428 5.58666C81.7787 5.5057 82.2419 5.15576 82.4816 4.65088L83.5246 2.45356Z" fill="#E55608"/>
</svg>
