<svg width="21" height="24" viewBox="0 0 21 24" fill="none" xmlns="http://www.w3.org/2000/svg">
<path fill-rule="evenodd" clip-rule="evenodd" d="M13.7332 3.02413C12.4985 3.18518 11.1521 3.82735 10.0254 4.95411C8.45568 6.52386 7.84777 8.48814 8.1169 9.99325C8.14544 10.1032 8.17012 10.2125 8.19118 10.3209C8.33629 10.8451 8.5956 11.3024 8.96477 11.6716C9.33393 12.0408 9.79133 12.3001 10.3154 12.4452C10.4239 12.4662 10.5331 12.4909 10.6431 12.5195C12.1482 12.7886 14.1125 12.1807 15.6823 10.6109C16.809 9.48421 17.4512 8.13786 17.6122 6.90318C17.7731 5.66988 17.4544 4.60493 16.7429 3.89345C16.0314 3.18196 14.9665 2.86327 13.7332 3.02413ZM9.88073 14.399C9.99943 14.4295 10.1192 14.4561 10.2401 14.4789C12.5197 14.9079 15.1424 13.9792 17.0965 12.0252C18.5081 10.6135 19.3726 8.87031 19.5954 7.16186C19.8184 5.45206 19.3983 3.72036 18.1571 2.47922C16.916 1.23809 15.1843 0.817911 13.4745 1.04093C11.766 1.26377 10.0228 2.12824 8.61121 3.53989C6.65717 5.49394 5.72842 8.11668 6.15748 10.3963C6.18023 10.5171 6.20683 10.637 6.23733 10.7556C6.47703 12.127 5.80215 13.3576 5.40624 13.8159L0.479492 18.7427L1.8937 20.1569L6.82045 15.2301C7.27881 14.8342 8.50933 14.1593 9.88073 14.399ZM18.1571 18.0356C17.3761 17.2545 16.1097 17.2545 15.3287 18.0356C14.5476 18.8166 14.5476 20.0829 15.3287 20.864C16.1097 21.645 17.3761 21.645 18.1571 20.864C18.9382 20.0829 18.9382 18.8166 18.1571 18.0356ZM13.9145 16.6213C15.4766 15.0593 18.0092 15.0593 19.5713 16.6213C21.1334 18.1834 21.1334 20.7161 19.5713 22.2782C18.0092 23.8403 15.4766 23.8403 13.9145 22.2782C12.3524 20.7161 12.3524 18.1834 13.9145 16.6213Z" fill="#E55608"/>
</svg>
