<svg width="130" height="237" viewBox="0 0 130 237" fill="none" xmlns="http://www.w3.org/2000/svg">
<path d="M10.7566 5.49936C10.7566 5.49936 11.3394 5.20662 11.34 5.56874C11.6325 6.14661 11.4148 6.79954 11.2703 7.59696C11.1978 7.81461 10.6876 7.88967 10.687 7.52755L10.7566 5.49936ZM9.81056 6.51818C9.81056 6.51818 9.44664 6.8822 9.73859 7.09796C10.0305 7.31371 10.3213 6.80522 9.81056 6.51818ZM27.6661 138.165C27.6661 138.165 27.7392 138.309 27.8124 138.453C27.8843 137.874 27.8838 137.512 27.9563 137.294L27.373 137.225C27.373 137.225 27.7387 137.947 27.8118 138.091L27.6661 138.165ZM1.50222 52.9127C1.50222 52.9127 1.13834 53.2767 1.35774 53.7101C1.65028 54.288 1.86672 52.9108 1.50222 52.9127ZM2.45009 52.9802L2.74141 52.8339C2.66768 52.3273 2.15811 52.7645 2.30438 53.0534L2.37752 53.1979L2.45009 52.9802ZM14.7873 108.393C14.7873 108.393 14.933 108.32 14.7873 108.393V108.393ZM3.25574 55.2936L3.40202 55.5825C3.5477 55.5093 3.18261 55.1491 3.25574 55.2936ZM4.50194 59.5601C3.62726 59.6371 4.06607 60.5039 4.64821 59.8491C4.79389 59.7759 4.57507 59.7046 4.50194 59.5601ZM12.81 57.9236C13.5372 56.8335 12.8784 55.1711 12.2927 53.6533C12.2214 54.5952 12.2226 55.3194 12.5145 55.5351L12.81 57.9236ZM11.5544 47.8632C11.5544 47.8632 11.2618 47.2853 11.3344 47.0677C11.9147 45.3265 10.6001 43.8124 10.6708 42.5084C10.6703 42.1463 10.3783 41.9306 10.232 41.6416C10.4556 44.6098 10.9698 47.0696 11.2636 48.3717C11.2636 48.3717 11.4093 48.2985 11.3361 48.154L11.5544 47.8632ZM22.549 129.5C22.549 129.5 22.8416 130.078 23.061 130.512L22.549 129.5ZM11.6298 49.4561C11.6298 49.4561 11.4836 49.1672 11.4104 49.0227L11.6298 49.4561ZM125.283 229.925C123.46 229.573 121.418 228.786 119.885 227.925C119.521 228.289 118.939 228.944 118.867 229.162L118.941 229.668C118.722 229.597 118.358 229.961 117.993 229.601C117.993 229.601 117.701 229.747 117.629 229.965C117.485 231.124 115.734 230.554 115.443 230.701L112.382 231.513C112.382 231.513 111.799 231.444 111.727 231.661C111.581 232.097 110.998 232.027 110.852 232.1C110.852 232.1 110.56 231.885 110.561 232.247L110.27 232.393C110.123 232.104 109.615 233.266 109.54 232.035C109.466 231.166 109.612 231.455 109.465 230.804L109.538 230.949L109.975 230.729C109.975 230.729 109.681 229.065 109.463 229.356C109.39 229.573 109.172 229.502 109.392 230.66L109.538 230.949C109.538 230.949 109.174 231.313 109.175 231.675C109.176 232.399 108.885 232.545 108.885 232.545C108.741 233.705 106.553 233.354 106.189 233.356C106.189 233.356 104.877 233.652 104.805 234.232C104.805 234.232 104.222 234.525 104.149 234.38C104.149 234.38 103.858 234.527 103.567 234.673C103.494 234.891 103.347 234.24 103.202 234.675C102.838 234.677 102.764 234.17 102.181 234.101C101.889 234.247 101.817 234.465 101.378 233.96C101.378 233.96 100.723 234.109 100.577 234.182C99.0475 235.131 97.4426 234.488 97.4426 234.488C97.4426 234.488 97.005 234.345 97.0056 234.707C97.0056 234.707 96.5679 234.565 96.4948 234.42C96.4217 234.276 96.4216 234.276 96.2034 234.567C96.1309 234.784 95.4007 234.064 95.2544 233.775C95.035 233.341 94.9619 233.197 94.9619 233.197C94.8888 233.053 94.9625 233.559 94.6705 233.343C94.6705 233.343 94.5974 233.199 94.5243 233.054C94.378 232.766 94.5968 232.837 94.5962 232.475L94.4499 232.186C94.4499 232.186 94.2317 232.477 94.3786 233.128C94.3054 232.983 94.2323 232.839 94.2323 232.839L94.0147 233.492C94.0147 233.492 93.9415 233.347 93.7233 233.638C93.7964 233.782 93.2142 234.437 93.0686 234.51C92.7772 234.657 93.0704 235.597 92.267 234.732C92.1939 234.587 91.1724 234.013 91.2461 234.52C91.2473 235.244 91.1004 234.593 90.9547 234.666C90.9547 234.666 90.9547 234.666 90.8084 234.377C90.5159 233.8 90.3697 233.511 90.5897 234.306C90.8097 235.102 90.3726 235.321 90.1532 234.888C90.1532 234.888 89.1334 235.4 88.6215 234.389L88.5483 234.244C88.4026 234.317 88.1107 234.102 87.965 234.175C87.965 234.175 87.965 234.175 87.7456 233.741L87.6725 233.597C87.6725 233.597 87.5993 233.453 87.5244 232.222C87.5244 232.222 87.5232 231.498 87.3044 231.426C87.1582 231.137 87.0868 232.079 87.2337 232.73C87.3799 233.019 87.2343 233.092 87.0886 233.166C87.0886 233.166 86.9423 232.877 86.7972 233.312C86.7972 233.312 86.9435 233.601 87.0166 233.745C87.2366 234.541 86.8715 234.181 86.5796 233.965C86.6527 234.109 85.7043 233.68 85.4118 233.102C85.2655 232.813 85.3374 232.233 85.2637 231.727C85.2631 231.364 85.0443 231.293 84.9712 231.149C84.9712 231.149 85.0443 231.293 85.0449 231.655C85.1912 231.944 84.8998 232.091 84.8998 232.091L83.66 231.807C83.66 231.807 83.7332 231.952 83.5143 231.88C83.5143 231.88 83.3681 231.592 83.2218 231.303C83.2207 230.578 83.0018 230.507 83.1469 230.072C83.1469 230.072 83.1469 230.072 83.2932 230.361C83.4394 230.65 83.3675 231.229 83.3675 231.229L83.5132 231.156C83.5132 231.156 83.5126 230.794 83.4394 230.65C83.22 230.216 83.292 229.637 83.292 229.637C83.292 229.637 83.292 229.637 83.1457 229.348C82.9995 229.059 82.9995 229.059 83.1457 229.348C83.0738 229.927 83 229.421 82.8544 229.494C82.7812 229.349 82.7812 229.349 82.8544 229.494C82.9275 229.638 82.7087 229.567 82.7824 230.074C82.9287 230.363 82.8556 230.218 82.9281 230C82.9281 230 83.1475 230.434 83.0012 230.145C83.0012 230.145 83.0012 230.145 83.0744 230.289C83.0024 230.869 83.0755 231.014 83.1492 231.52C83.1492 231.52 83.2224 231.665 83.2955 231.809C83.4418 232.098 83.2955 231.809 83.1504 232.245C83.2967 232.533 83.2247 233.113 83.2247 233.113C83.2247 233.113 83.0785 232.824 83.0779 232.462C82.9316 232.173 82.8585 232.029 82.9316 232.173C82.9316 232.173 82.9328 232.897 83.0053 232.68C82.6396 231.957 82.786 232.246 82.714 232.826C82.7877 233.333 82.4946 232.393 82.6409 232.682C82.6409 232.682 82.714 232.826 82.6409 232.682C82.202 231.815 82.3489 232.466 82.3495 232.828C82.4232 233.335 82.1289 231.67 82.1289 231.67C82.1289 231.67 82.1289 231.67 82.2021 231.815C82.4215 232.248 82.2758 232.321 82.1301 232.395C82.1301 232.395 82.0581 232.974 81.8387 232.541C81.7656 232.397 81.6193 232.108 81.693 232.614C81.8393 232.903 81.6942 233.338 81.6211 233.194C81.4748 232.905 81.3285 232.616 81.4748 232.905C81.4748 232.905 81.4028 233.485 81.3297 233.34C81.3297 233.34 81.1103 232.907 81.1834 233.051C81.1109 233.269 81.1115 233.631 80.8921 233.198C80.7458 232.909 80.7464 233.271 80.747 233.633C80.6744 233.851 80.5287 233.924 80.5281 233.562C80.5281 233.562 80.3087 233.128 80.2362 233.346C80.2368 233.708 80.0899 233.057 80.0905 233.419C80.0905 233.419 79.6529 233.277 79.7272 234.145C79.7272 234.145 80.9675 234.791 81.6959 234.425C81.6959 234.425 82.4981 234.565 82.57 233.986C82.4957 233.117 82.7146 233.188 82.7151 233.55L83.0077 234.128C83.0077 234.128 83.5172 233.691 83.5904 233.836C83.5904 233.836 83.9549 233.834 84.1006 233.76C84.0994 233.036 84.6839 233.83 84.829 233.395C84.9022 233.539 85.2661 233.175 85.4118 233.102C85.4118 233.102 85.5574 233.029 85.4837 232.522L85.63 232.811C85.63 232.811 85.7763 233.1 85.9957 233.533C86.2151 233.967 85.8506 233.969 85.7774 233.824C85.6312 233.535 85.6323 234.259 85.3403 234.044C85.3403 234.044 84.3206 234.556 84.1749 234.629C84.1749 234.629 84.0287 234.34 83.4465 234.995C83.4465 234.995 83.5934 235.646 83.3745 235.575C83.1551 235.141 83.1546 234.779 83.0089 234.852C82.7175 234.999 82.353 235.001 82.2805 235.218L82.4267 235.507C82.4267 235.507 82.2804 235.218 82.1348 235.292C80.7493 235.082 79.8038 236.462 78.5635 235.817C78.5635 235.817 78.4903 235.673 78.3452 236.108C78.3458 236.47 78.2002 236.543 78.0545 236.616C78.0545 236.616 78.0545 236.616 77.9082 236.327C77.91 237.414 76.8873 236.116 77.178 235.607C77.178 235.607 77.178 235.607 77.2505 235.389C76.9586 235.174 76.8849 234.667 76.8849 234.667C77.1762 234.521 77.0294 233.87 77.3951 234.592C77.4682 234.736 77.6865 234.446 77.8327 234.735C77.9059 234.879 77.9778 234.299 78.2698 234.515C78.416 234.804 78.4149 234.08 78.7794 234.078C78.7794 234.078 78.7794 234.078 78.925 234.005C79.0701 233.569 79.2164 233.858 79.2152 233.134C78.4149 234.08 77.6127 233.939 77.4671 234.012C77.4671 234.012 77.2483 233.941 77.2477 233.579C77.1008 232.928 76.8088 232.712 77.1014 233.29C77.1032 234.376 76.81 233.436 76.8088 232.712C76.8088 232.712 76.7357 232.568 76.8082 232.35C76.5157 231.772 76.8802 231.77 76.7333 231.119C76.587 230.83 76.6591 230.25 76.5853 229.744C76.5116 229.237 76.439 229.455 76.3653 228.948C76.2922 228.804 76.2922 228.804 76.1459 228.515C76.0728 228.37 76.0722 228.008 76.0716 227.646L75.9253 227.357C75.8522 227.213 75.7784 226.706 76.0698 226.56C76.0698 226.56 76.2149 226.125 76.2881 226.269C76.2881 226.269 76.4343 226.558 76.3612 226.413C76.288 226.269 76.4331 225.834 76.5063 225.978C76.5794 226.123 76.7983 226.194 76.6514 225.543C76.5051 225.254 76.5777 225.036 76.3589 224.965C76.3589 224.965 76.3588 224.965 76.2857 224.82C76.2857 224.82 76.1394 224.532 76.2851 224.458C76.212 224.314 76.0657 224.025 76.1383 223.807C76.7936 223.297 76.7929 222.935 76.6467 222.646C76.6467 222.646 76.7923 222.573 76.7929 222.935L77.1604 224.744C77.0872 224.599 77.0141 224.455 77.0136 224.092C77.0136 224.092 76.8673 223.804 76.7942 223.659C76.6473 223.008 76.793 222.935 76.9386 222.862C76.9386 222.862 77.2312 223.44 77.2324 224.164C77.3055 224.308 77.3061 224.67 77.3061 224.67C77.3792 224.815 77.4529 225.321 77.5992 225.61C77.5992 225.61 77.5986 225.248 77.598 224.886C77.4518 224.597 77.4517 224.597 77.4511 224.235C77.378 224.091 77.3049 223.946 77.45 223.511C77.4488 222.787 77.6677 222.858 77.8139 223.147L77.8871 223.291C77.8871 223.291 78.0321 222.856 78.179 223.507L78.2521 223.652C78.2521 223.652 78.3258 224.158 78.3264 224.52L78.4727 224.809C78.4727 224.809 78.547 225.678 78.6208 226.184C78.7676 226.835 78.8402 226.618 78.767 226.473C78.6933 225.967 78.6196 225.46 78.7647 225.025C78.7641 224.663 78.6184 224.736 78.5453 224.592C78.4722 224.447 78.4715 224.085 78.5441 223.867C78.6892 223.432 78.6897 223.794 79.0548 224.154C79.0548 224.154 79.2742 224.588 79.056 224.879C79.1291 225.023 79.1297 225.385 79.2023 225.167C79.2017 224.805 79.4205 224.877 79.4211 225.239L79.5674 225.528C79.7137 225.817 79.6405 225.672 79.5674 225.528C79.4943 225.383 79.4937 225.021 79.4931 224.659C79.3468 224.37 79.4919 223.935 79.5656 224.441C79.9319 225.526 80.3707 226.393 80.2227 225.017C80.0764 224.728 80.0758 224.366 80.1484 224.149C80.2209 223.931 80.3666 223.858 80.3678 224.582C80.514 224.871 80.4421 225.451 80.5878 225.378C80.5878 225.378 80.7334 225.304 80.6597 224.798C80.5134 224.509 80.3672 224.22 80.5129 224.147C80.658 223.711 80.7305 223.494 80.9499 223.927L81.3887 224.794C81.3887 224.794 81.5338 224.359 81.4607 224.214C81.2413 223.781 81.4595 223.49 81.532 223.272C81.6052 223.417 81.532 223.272 81.8234 223.126C81.8234 223.126 81.8234 223.126 82.1148 222.98C82.2605 222.906 82.4062 222.833 82.4799 223.34C82.6262 223.629 82.7724 223.918 82.6262 223.629C82.6975 222.687 82.7707 222.831 82.9901 223.265C83.2826 223.843 83.0644 224.133 83.3557 223.987L83.4277 223.407C83.4277 223.407 83.5728 222.972 83.7191 223.261L83.6459 223.116C83.6459 223.116 84.0099 222.752 84.2299 223.548C84.3761 223.837 84.3761 223.837 84.303 223.692C84.4481 223.257 85.0302 222.602 85.3227 223.18C85.3947 222.6 85.8329 223.105 86.1974 223.103C86.3437 223.392 86.7801 222.81 86.9258 222.737C87.0715 222.664 87.4366 223.024 87.5091 222.807C88.0919 222.514 89.5534 224.679 89.6979 223.882C89.8442 224.171 89.9173 224.315 89.9904 224.46C90.1367 224.749 90.283 225.037 90.5738 224.529C90.7189 224.094 90.9389 224.889 91.2296 224.381L91.8124 224.088C91.8124 224.088 92.7584 223.069 93.1212 221.981C93.6319 222.268 94.1409 221.469 94.506 221.829C94.6523 222.118 94.7974 221.683 95.1631 222.405C95.2362 222.549 95.3093 222.694 95.2362 222.549C95.4544 222.258 96.184 222.617 96.4029 222.688C96.4029 222.688 96.7685 223.41 96.9142 223.337C96.9142 223.337 97.7175 224.202 98.0077 223.332C98.0077 223.332 98.2997 223.547 98.3728 223.692C98.4459 223.836 98.5185 223.619 98.6636 223.183C98.8087 222.748 98.883 223.617 98.883 223.617C99.0287 223.543 99.1744 223.47 99.3195 223.035C99.3195 223.035 99.3195 223.035 99.612 223.613C99.7583 223.902 99.8308 223.684 99.9765 223.611C100.489 224.984 101.146 225.198 100.924 223.678C101.216 223.532 102.019 224.397 101.946 224.253C101.946 224.253 102.091 223.817 102.164 223.962C102.31 224.251 102.309 223.526 102.455 223.815C102.602 224.104 102.748 224.393 102.675 224.249C102.675 224.249 102.601 223.742 102.602 224.104C102.675 224.249 102.894 224.682 102.894 224.32C102.747 224.031 103.039 223.885 102.966 223.74C103.038 223.523 103.547 222.723 103.694 223.374C103.841 224.025 103.913 223.808 103.987 224.314C103.77 224.967 104.427 225.543 104.425 224.457C104.279 224.168 104.279 224.168 104.132 223.879L103.986 223.59C103.986 223.59 104.277 223.444 104.132 223.879C104.205 224.024 104.352 224.312 104.425 224.457C104.498 224.601 104.425 224.457 104.425 224.457C104.425 224.457 104.571 224.746 104.644 224.89C104.717 225.035 104.642 223.804 104.497 223.877C104.497 223.877 104.497 223.877 104.351 223.95C104.277 223.444 104.713 222.5 104.933 223.296C105.08 223.584 105.151 223.005 105.225 223.149C105.444 223.583 105.371 223.438 105.589 223.147L105.516 223.003C104.129 222.069 102.815 220.554 100.918 220.057C100.116 219.917 97.7807 218.191 96.7568 216.168C96.0986 214.868 95.369 214.51 94.2012 213.646C93.7635 213.504 91.5742 212.067 89.5305 210.557C87.268 208.975 85.2969 207.247 85.0043 206.669C84.7849 206.236 83.3258 205.519 81.9391 204.585C80.6256 203.795 79.1665 203.078 78.9477 203.007C76.9771 201.641 78.3602 200.403 76.1732 200.414C74.4238 200.568 69.6771 195.523 68.5818 194.443C68.2167 194.082 67.3379 191.624 67.046 191.409C66.0244 190.835 65.6588 190.112 65.3656 189.172C65.2194 188.883 65.1463 188.739 64.9275 188.668C64.271 188.454 63.9059 188.094 63.3951 187.806C62.3005 187.088 61.5662 183.833 60.1801 183.26C59.3049 182.975 59.0855 182.542 58.6473 182.037C58.4278 181.604 57.48 181.536 57.4794 181.174C57.1869 180.596 57.1857 179.872 56.7481 179.73C54.7062 179.306 56.3063 177.052 54.1925 177.208C53.4635 177.212 53.0246 176.345 53.1691 175.548C53.6038 173.88 51.5637 174.542 50.2496 173.39C49.8114 172.885 49.2281 172.816 49.5914 172.09C49.5914 172.09 49.8828 171.943 49.8096 171.799C49.9547 171.364 49.7353 170.93 49.2982 171.15C47.5495 171.666 46.9632 169.786 46.3044 168.124C46.085 167.69 45.2092 167.043 44.6247 166.249L44.1859 165.382C44.1859 165.382 43.6751 165.095 43.7477 164.878C43.6745 164.733 43.6014 164.589 43.3825 164.518C42.3616 164.306 41.9953 163.221 41.8479 162.208L41.7747 162.064C41.4091 161.341 40.1658 158.885 39.3637 158.745C37.6868 158.681 37.9741 156 36.66 154.848C35.1265 153.262 34.6848 150.585 35.8526 151.448C37.7506 153.031 33.6603 148.2 32.9278 146.031C32.7084 145.598 32.1981 145.673 31.6874 145.386C31.1035 144.955 30.5921 144.305 30.2265 143.583C30.0802 143.294 29.9339 143.005 29.9333 142.643L30.0064 142.788C28.8339 139.028 28.319 136.206 27.8843 137.874C27.153 136.429 26.2754 134.695 25.3258 133.542L25.4733 134.555L24.9613 133.543C24.9613 133.543 24.519 130.504 22.0365 128.127C21.9634 127.982 21.8902 127.838 21.9628 127.62C21.9622 127.258 21.8153 126.607 21.3046 126.32C20.283 125.746 21.1554 124.221 19.9881 123.72C19.3317 123.506 19.3299 122.419 19.4744 121.622C19.3281 121.333 19.3995 120.391 18.9625 120.611C18.9625 120.611 18.8174 121.046 18.6717 121.119C18.526 121.192 18.2346 121.339 18.0152 120.905C17.357 119.605 17.1311 115.189 16.1096 114.614C15.3069 114.112 15.2326 113.243 15.1583 112.374C14.9389 111.941 14.5732 111.218 14.6452 110.639C14.5714 110.132 15.0816 110.057 14.8622 109.624C14.6428 109.19 14.6416 108.466 14.7136 107.886C14.7855 107.306 13.7646 107.095 13.6908 106.588C13.5446 106.299 13.544 105.937 13.252 105.721C12.5225 105.363 12.8132 104.854 12.5207 104.276C12.3744 103.988 11.9368 103.845 11.7168 103.049C11.5705 102.76 11.3511 102.327 10.9135 102.185C9.6 101.395 8.13906 99.5917 8.93884 98.2839C9.15649 97.6309 9.52038 97.2669 10.03 96.8297C9.59117 95.9629 8.49354 93.4338 9.66018 93.5726C10.2435 93.642 10.7531 93.2048 10.68 93.0603C10.3143 92.3379 9.73216 92.9928 9.65785 92.1241C9.58471 91.9796 9.00081 91.5481 8.78199 91.4768C8.70886 91.3324 8.49065 91.6232 8.34497 91.6964C7.47087 92.1354 6.37145 88.52 6.58851 87.5049C6.51537 87.3605 6.6593 86.2009 6.36676 85.6231C5.70854 84.3228 6.50832 83.0151 5.19365 81.501C5.19365 81.501 5.04801 81.5741 4.90233 81.6473C4.46528 81.8669 4.09961 81.1445 4.46352 80.7805C4.75489 80.6342 5.04741 81.2121 4.97369 80.7055C4.75429 80.2721 4.89937 79.8368 5.19015 79.3283C5.26269 79.1106 5.33524 78.893 4.8976 78.7504C3.3647 77.5272 2.92413 75.574 3.28746 74.8479C3.72333 73.9041 2.55669 73.7653 3.28452 73.0373C3.86725 72.7446 3.72039 72.0935 3.13707 72.0241C2.18925 71.9566 2.55139 70.5063 3.28039 70.5025C4.00939 70.4987 4.22704 69.8458 4.00763 69.4124C3.4951 68.039 5.01685 62.382 5.08763 61.078C5.22803 57.7458 4.79507 60.5001 4.86233 57.0234C4.78802 56.1547 4.13276 56.6651 3.76709 55.9428C3.62082 55.6538 3.18318 55.5112 3.47454 55.3649C3.76591 55.2185 3.76589 55.2185 3.98471 55.2898C4.64116 55.5037 3.47221 53.9164 3.47104 53.1922C3.47104 53.1922 3.32476 52.9032 3.0334 53.0496C2.1593 53.4887 2.59284 51.0964 2.37284 50.3009C2.37284 50.3009 2.51853 50.2277 2.66421 50.1546C3.1744 50.0795 3.39318 50.1508 3.53828 49.7155C3.46455 49.2089 3.31889 49.2821 3.02693 49.0663C2.5893 48.9237 3.39082 48.7023 3.82787 48.4828C4.11924 48.3364 4.11868 47.9743 3.97241 47.6853C3.68046 47.4696 3.67987 47.1075 3.5336 46.8185C3.53302 46.4564 2.87655 46.2425 3.16792 46.0962C3.45928 45.9498 3.60496 45.8767 3.38555 45.4433C3.16614 45.0099 3.67633 44.9348 3.31124 44.5745C2.72733 44.143 2.80105 44.6496 2.21655 43.856C2.07028 43.5671 2.50793 43.7096 2.7993 43.5633C2.94498 43.4901 3.23637 43.3437 3.08951 42.6927C2.8701 42.2593 2.94322 42.4037 2.21421 42.4075L2.06794 42.1186C2.35931 41.9722 3.23399 41.8953 3.08772 41.6063C2.79518 41.0285 2.42951 40.3061 2.13697 39.7283C1.9907 39.4393 1.47993 39.1523 1.7713 39.0059C2.64539 38.5668 2.06148 38.1353 1.91462 37.4843C1.84031 36.6156 1.25758 36.9083 1.2564 36.1841C1.32778 35.2422 1.32662 34.5179 1.39799 33.576C1.61622 33.2852 1.61563 32.9231 1.83386 32.6323C1.83386 32.6323 1.83386 32.6323 1.76072 32.4878C1.54191 32.4165 1.03229 32.8537 0.959744 33.0714C0.959744 33.0714 0.740916 33.0001 0.59406 32.349C0.447201 31.698 0.373469 31.1914 0.810519 30.9719C0.810519 30.9719 1.10189 30.8255 1.02875 30.681C0.955619 30.5366 0.882523 30.3921 0.955069 30.1744C0.955069 30.1744 0.881931 30.03 0.808796 29.8855C0.515081 28.5834 1.67935 27.2737 1.45877 26.1161C1.16565 25.1761 1.16093 22.2792 1.23347 22.0615C1.37916 21.9883 2.75462 16.0424 3.04599 15.896C3.62872 15.6033 3.4093 15.1699 3.26245 14.5189C3.40754 14.0836 3.11505 13.5057 3.40583 12.9972C3.11328 12.4193 3.47598 11.3311 4.20381 10.6031C5.44123 9.43789 4.56891 10.9633 5.29321 8.06259C5.43831 7.62729 5.0732 7.26708 5.2183 6.83178C6.30886 5.01551 2.73762 5.54102 5.14226 4.8767C5.57931 4.65716 4.77482 3.06802 5.65009 3.35316C6.08773 3.49574 6.59788 3.42066 7.10806 3.34558C7.10806 3.34558 7.39946 3.1992 7.54515 3.12602C7.69083 3.05284 7.9096 3.12416 7.98274 3.26863C7.91078 3.84839 7.83708 3.34181 7.83825 4.06604C7.98452 4.35498 8.64038 4.20673 8.56666 3.70014C8.63744 2.39614 8.20098 2.9778 9.21959 1.7413C9.5835 1.37729 10.8941 0.35653 11.1135 0.789933C11.2597 1.07887 11.1919 4.19342 11.0462 4.2666C10.6098 4.84826 11.2668 5.42427 10.2464 5.57442C9.73624 5.6495 9.5882 4.2742 9.29566 3.69633C9.15056 4.13162 8.93293 4.78457 8.86097 5.36433C8.86097 5.36433 8.86098 5.36436 8.78784 5.21989C8.34903 4.35308 8.05884 5.22366 7.69376 4.86344C7.62062 4.71897 7.40179 4.64768 7.25611 4.72086C6.96475 4.86722 7.40239 5.00981 7.54866 5.29874C7.54866 5.29874 7.54924 5.66086 7.25729 5.44511C6.81965 5.30254 6.67336 5.0136 6.45513 5.30443C5.7273 6.03245 5.65537 6.61223 6.82377 7.83737C6.97004 8.1263 7.18825 7.83548 7.2608 7.61783C7.69785 7.39829 7.62533 7.6159 7.99042 7.97613C8.20982 8.40953 8.50062 7.90106 8.86571 8.26128C9.23138 8.98362 9.37646 8.54832 9.74154 8.90854C10.1066 9.26876 9.37823 9.63466 9.52509 10.2857C9.81763 10.8636 9.08861 10.8674 9.60056 11.8787C10.0394 12.7455 9.9674 13.3252 9.74917 13.6161C9.45839 14.1245 8.94821 14.1996 9.38644 14.7043C10.2623 15.3516 8.58842 17.0984 8.51705 18.0403C8.5194 19.4888 8.59725 22.5302 8.45626 25.5003C8.31528 28.4704 8.17428 31.4405 7.37449 32.7483C7.37449 32.7483 7.52075 33.0373 7.59388 33.1817C7.30546 35.1387 8.11055 37.0899 8.61956 36.2906C8.6927 36.4351 8.69326 36.7972 8.47502 37.0881C7.96543 37.5253 8.33053 37.8855 8.3317 38.6097C8.25974 39.1895 7.31313 39.8462 7.89645 39.9156C7.31313 39.8462 6.73509 43.0358 6.59175 44.5575C7.17566 44.989 6.81231 45.7151 6.44899 46.4413C7.6168 47.3043 7.03937 50.856 8.27914 51.1393C8.79226 52.8748 9.454 56.3477 8.43186 55.4115L8.06503 53.965C8.06503 53.965 7.41033 54.8374 7.04642 55.2015C5.21158 47.6065 5.38368 63.8286 7.425 63.8904C8.51851 63.8847 12.0969 67.7046 9.68458 63.6614C9.24459 62.0703 8.95025 60.4061 8.65595 58.7419C8.80163 58.6687 8.94735 58.5955 9.16617 58.6668C9.67812 59.6781 9.96948 59.5317 9.75243 60.5468C9.82791 62.1397 10.1157 59.8206 11.063 59.526C11.063 59.526 11.063 59.526 11.1361 59.6705C11.2092 59.815 11.6469 59.9575 11.5743 60.1752C11.5743 60.1752 11.4292 60.6105 11.4298 60.9726C11.2829 60.3215 11.0642 60.2502 11.0665 61.6987C11.1396 61.8432 11.2859 62.1321 11.2133 62.3498C11.0688 63.1472 10.9244 63.9446 10.9975 64.0891C11.2169 64.5225 11.8061 68.213 11.2234 68.5057C10.7863 68.7253 11.2239 68.8678 11.589 69.2281C11.5171 69.8078 11.7371 70.6034 11.8108 71.11C12.3935 70.8172 11.9594 72.8474 13.1254 72.6241C13.1945 70.2337 11.8102 70.7478 12.1729 69.6596C12.6106 69.8022 12.8294 69.8734 13.0488 70.3069C13.3413 70.8847 13.4156 71.7535 13.4168 72.4777L13.1254 72.6241L13.3484 75.2301L13.1319 76.6073C13.6438 77.6186 16.1357 85.7895 17.7471 90.4163C17.8939 91.0673 18.0408 91.7184 18.2602 92.1518C18.4802 92.9473 18.627 93.5984 18.7733 93.8873C19.8037 99.8931 20.5332 100.251 21.4857 103.216C21.7052 103.649 22.9496 106.829 22.5138 107.773C22.223 108.282 21.7859 108.501 22.0053 108.935C22.371 109.657 25.3678 114.494 25.6604 115.072C26.6831 116.37 27.7824 119.986 28.2224 121.577C28.735 122.95 29.9016 123.089 29.2481 124.685C30.124 125.333 30.3428 125.404 30.709 126.488C30.8553 126.777 32.6105 130.245 34.4389 133.856C36.413 137.395 38.4596 140.716 38.6784 140.787C42.9834 143.155 42.035 142.725 46.278 151.828C46.2049 151.684 47.3013 153.489 48.7622 155.292L51.3927 159.044C51.3927 159.044 54.7523 162.793 57.7467 166.181C60.8868 169.496 64.0269 172.811 64.1732 173.1C64.32 173.751 65.3416 174.325 65.9255 174.757C66.4362 175.044 67.6046 176.269 69.0656 178.072L74.2512 183.984C76.2229 186.074 78.3403 188.091 80.0926 189.748C81.9905 191.331 83.6691 192.481 84.6175 192.911C86.0773 193.989 84.1799 192.768 90.4583 198.312C92.1375 199.824 94.7633 200.68 95.7872 202.702C97.5372 202.91 110.673 211.533 112.206 212.394C113.3 213.113 113.377 215.43 114.031 214.195C114.322 213.687 114.979 214.263 115.49 214.55C116.219 214.908 116.511 214.762 116.657 215.413C116.804 215.702 116.804 216.064 117.096 216.28C117.242 216.206 117.533 216.06 117.533 216.06C117.241 215.844 117.971 216.203 117.679 215.987C117.679 215.987 117.533 215.698 117.825 215.914C118.262 216.056 118.7 216.199 118.773 216.343L118.919 216.632C118.919 216.632 119.211 216.486 119.065 216.559C118.627 216.416 118.627 216.416 118.482 216.49C118.482 216.49 118.19 216.636 118.482 216.852C118.482 216.852 119.286 217.717 119.724 218.221C120.161 218.364 120.38 218.435 119.578 217.932C119.431 217.643 120.015 218.075 120.234 218.146C120.453 218.218 120.234 218.146 119.942 217.931L119.431 217.644L120.088 217.857C120.088 217.857 120.088 217.857 120.525 218C120.744 218.071 120.817 218.216 121.036 218.287C121.547 218.574 121.766 218.645 122.422 218.859L122.642 219.293C122.642 219.293 122.568 219.148 122.642 219.293L122.788 219.581C122.788 219.581 123.079 219.435 123.444 219.433C123.443 219.071 123.588 218.636 123.734 218.563C122.712 217.626 122.128 217.557 122.056 217.775L121.91 217.486C121.91 217.486 121.545 217.126 121.253 216.91C120.377 216.625 119.94 216.482 119.575 216.484L119.502 216.339C119.502 216.339 119.502 216.339 119.648 216.266C119.867 216.338 120.304 216.48 120.085 216.409C120.085 216.409 120.523 216.551 120.814 216.405C121.908 216.399 121.106 216.259 120.377 216.263C120.304 216.118 120.085 216.047 119.72 216.049L119.429 216.195C119.429 216.195 118.335 215.839 117.897 215.696C117.168 215.338 116.365 214.835 116.584 214.906C116.146 214.764 115.708 214.621 116.584 214.906C116.803 214.977 117.021 215.049 117.167 214.976C117.75 215.045 117.313 214.902 117.313 214.902C117.313 214.902 117.313 214.902 117.604 214.756C118.406 214.897 119.135 214.893 118.916 214.822L118.114 214.681C116.948 214.542 116.802 214.615 116.729 214.471L116 214.475C116 214.475 115.562 214.332 115.708 214.259C115.708 214.259 114.76 214.191 114.687 214.047C115.125 214.19 114.833 213.974 114.687 214.047C114.322 214.049 114.249 213.904 115.124 213.827C115.999 213.75 115.561 213.608 115.124 213.827C115.124 213.827 114.322 214.049 115.124 213.827C115.561 213.608 114.686 213.685 114.54 213.396C113.446 213.039 114.247 212.818 114.32 212.6C114.32 212.6 114.683 211.874 114.829 211.801C114.975 211.728 115.194 211.799 115.412 211.87C115.923 211.795 115.849 211.289 114.829 211.801L115.412 211.508C115.412 211.508 115.266 211.219 114.974 211.366C115.557 211.073 115.557 211.073 115.848 210.927L115.557 211.073C115.557 211.073 115.266 211.219 114.974 211.366C114.828 211.439 114.683 211.512 114.683 211.512C114.683 211.512 114.974 211.366 114.755 211.294C114.755 211.294 114.682 211.15 114.099 211.081C113.953 211.154 112.786 210.653 112.932 210.58C113.223 210.433 113.077 210.507 112.859 210.435C112.859 210.435 112.202 210.221 112.493 210.075C112.785 209.929 112.347 209.786 112.274 209.642C112.274 209.642 111.544 208.921 111.396 207.908L112.343 206.889L111.176 207.113L111.103 206.968L111.54 206.748C113.362 206.377 112.414 206.309 111.248 206.171C111.175 206.026 111.102 205.882 111.028 205.737C110.372 205.523 110.809 205.304 110.663 205.015C110.443 204.581 109.86 204.512 109.714 204.223C110.005 204.077 109.276 204.081 109.567 203.934C109.859 203.788 109.713 203.499 109.639 203.354L109.347 202.777C109.93 202.484 109.709 201.326 109.49 201.255C109.417 201.11 109.051 200.388 108.759 199.81C109.487 199.444 110.216 199.078 111.236 198.928L111.163 198.784L111.746 198.491C111.746 198.491 111.527 198.42 111.017 198.495C111.017 198.495 110.87 198.206 110.797 198.061C110.797 198.061 110.651 197.773 110.505 197.484C111.233 197.118 111.233 197.118 111.524 196.971C111.67 196.898 110.941 196.902 110.577 196.904C110.649 196.686 110.066 196.617 109.848 196.908C109.192 197.056 108.682 197.131 108.39 197.277C108.317 197.133 108.39 196.915 108.316 196.771C108.243 196.626 108.024 196.193 108.242 195.902C108.388 195.829 108.095 195.251 107.95 195.324L107.656 194.022L108.458 194.163C108.458 194.163 108.967 193.363 109.404 193.144C108.821 193.437 108.166 193.585 107.655 193.66L107.509 193.371C107.509 193.371 108.748 193.292 108.019 192.934L107.582 193.153L107.216 192.431C107.216 192.431 106.558 191.493 107.432 191.054C107.724 190.907 107.869 190.834 107.796 190.69C107.651 190.763 107.65 190.401 107.577 190.256C107.577 190.256 107.796 190.328 108.16 190.326C109.108 190.393 109.034 189.525 108.668 188.802C108.814 188.729 108.886 188.511 109.032 188.438L109.178 188.365C109.105 188.221 109.178 188.365 109.469 188.219C109.469 188.219 109.76 188.072 109.469 188.219C109.032 188.438 108.959 188.294 108.741 188.585C108.158 188.877 107.721 189.097 107.938 188.444C107.938 188.444 108.448 188.007 108.375 187.862C108.375 187.862 108.521 187.789 108.375 187.862C108.375 187.862 108.156 187.791 107.501 188.301C107.501 188.301 106.991 188.376 106.699 188.161C106.699 188.161 107.281 187.868 106.99 188.014C106.48 188.089 106.844 187.725 107.208 187.724C107.937 187.358 106.26 187.656 107.353 187.288C107.499 187.215 108.009 187.14 107.864 187.213C107.718 187.286 107.864 187.213 107.937 187.358C108.519 187.065 108.519 187.065 108.374 187.138C107.79 187.069 108.374 187.138 107.645 187.142C107.499 187.215 107.645 187.142 107.936 186.996L109.393 186.264C110.632 185.823 112.016 185.309 111.724 185.093C111.724 185.093 110.995 185.097 110.412 185.389C110.412 185.389 110.412 185.389 110.339 185.245L110.63 185.098L112.816 184.363C112.816 184.363 113.545 183.997 114.055 183.922C114.201 183.849 114.201 183.849 114.055 183.922C113.763 184.068 113.472 184.215 113.326 184.288C112.889 184.507 113.546 184.721 113.764 184.43C114.055 184.284 113.91 184.357 114.492 184.064C114.93 183.845 115.367 183.987 115.367 183.987C115.513 184.276 115.513 184.276 114.056 184.646C114.566 184.209 112.234 185.018 113.765 184.792C114.056 184.646 114.347 184.5 114.931 184.569C114.931 184.569 115.076 184.496 115.222 184.423C115.513 184.276 115.805 184.13 115.878 184.275C115.878 184.275 115.587 184.421 115.805 184.492C115.805 184.492 116.17 184.49 115.878 184.637C115.733 184.71 116.025 184.926 116.025 184.926C116.025 184.926 116.025 185.288 115.88 185.361C115.88 185.361 115.078 185.582 115.151 185.727C115.151 185.727 115.953 185.505 115.589 185.869C115.298 186.016 115.589 185.869 116.172 185.939C116.828 185.791 116.902 186.297 116.465 186.517C116.319 186.59 116.465 186.517 116.538 186.661C116.538 186.661 115.809 186.665 115.59 186.594C115.153 186.813 115.153 186.813 115.226 186.958C114.935 187.104 114.935 187.104 115.226 186.958C115.226 186.958 114.642 186.526 114.423 186.093C114.423 186.093 115.735 185.796 114.86 185.873C114.86 185.873 114.569 186.019 114.35 185.948C114.277 185.804 114.13 185.515 114.057 185.37C113.328 185.374 111.799 186.324 113.184 186.534C112.53 187.406 114.716 187.033 112.968 187.911C113.114 188.2 113.26 188.489 113.844 188.558C115.738 187.969 114.28 187.976 115.226 186.958C116.32 186.952 116.174 187.025 116.757 186.732C116.83 186.877 116.685 187.312 116.904 187.383L116.175 187.749C116.175 187.749 116.175 187.749 116.394 187.821C117.414 187.67 117.342 188.25 116.905 188.47C116.614 188.616 116.031 188.909 116.468 188.689C116.978 188.614 117.124 188.541 117.489 188.539C118.072 188.609 118.438 189.331 117.126 189.627C117.126 189.627 116.908 189.918 117.564 189.77C118.292 189.404 118.366 190.273 118.002 190.637C117.857 190.71 118.002 190.637 118.148 190.564C118.148 190.564 118.148 190.564 117.711 190.783C117.128 191.076 117.857 191.072 117.566 191.218C117.42 191.292 117.639 191.363 118.004 191.361C118.004 191.361 118.587 191.43 118.514 191.648C118.15 192.012 119.244 192.006 118.078 192.592C118.078 192.592 118.152 192.736 118.297 192.663L118.589 192.517C119.608 192.005 118.736 193.53 119.538 193.671C119.538 193.671 119.903 194.031 119.904 194.393C119.977 194.537 120.852 194.823 120.488 195.187L120.344 195.984C120.344 195.984 120.782 196.127 120.491 196.635C120.418 196.491 119.834 196.421 119.762 197.001C119.471 197.147 119.471 197.147 119.471 197.147C119.471 197.147 119.471 197.147 119.762 197.001C120.054 196.855 120.054 196.855 120.054 196.855C120.054 196.855 119.471 197.147 119.325 197.221C119.18 197.294 119.034 197.367 119.472 197.509C119.617 197.436 119.18 197.656 119.618 197.798C120.638 197.648 119.91 198.376 119.328 198.669C119.328 198.669 119.328 198.669 119.254 198.525C119.254 198.525 118.088 198.748 118.234 198.675L118.744 198.6C118.744 198.6 118.453 198.746 118.744 198.6C118.744 198.6 119.109 198.598 119.4 198.451C119.692 198.305 119.91 198.376 119.838 198.594C119.838 198.594 119.546 198.74 119.401 198.813C119.255 198.887 119.036 198.815 118.745 198.962C117.871 199.401 118.527 199.615 119.11 199.322C119.547 199.102 119.329 199.393 119.985 199.245C120.13 199.172 120.13 199.172 120.131 199.534C119.402 199.9 118.893 200.337 119.257 200.335C118.966 200.481 119.331 200.48 119.549 200.551C119.841 200.404 119.549 200.551 119.258 200.697C118.967 200.844 119.258 200.697 119.696 200.84C120.206 200.765 119.404 200.986 119.842 201.129C119.842 201.129 119.696 201.202 119.551 201.275C119.405 201.348 120.937 201.847 120.573 202.211C120.281 202.358 120.428 202.647 120.792 202.645C122.104 202.348 121.157 202.643 120.938 202.934C120.938 202.934 120.793 203.369 121.085 203.223C121.522 203.003 121.814 203.219 121.668 203.292C121.377 203.438 121.45 203.583 121.377 203.8C121.377 203.8 122.179 203.579 121.96 203.87C121.523 204.089 121.378 204.163 121.67 204.378C121.67 204.378 122.253 204.448 122.18 204.665C121.525 205.176 122.764 205.097 122.619 205.532L123.349 205.89C123.349 205.89 122.183 206.476 121.964 206.042C121.528 206.986 122.767 206.907 123.86 206.54C123.933 206.684 124.007 206.829 124.007 206.829C124.007 206.829 124.006 206.829 124.08 206.973C124.809 206.969 124.736 207.187 124.955 207.258C125.611 207.472 124.957 208.345 125.467 208.632C124.594 209.433 124.231 210.159 124.085 210.594L124.014 211.174C124.014 211.174 124.524 211.461 124.306 211.752C123.796 212.189 124.307 212.114 124.599 212.33C124.599 212.33 124.891 212.545 125.255 212.544C124.381 212.983 127.518 214.487 127.447 215.429C127.447 215.791 127.812 216.151 127.959 216.44C127.959 216.44 127.814 217.238 127.96 217.527C128.107 217.816 128.691 218.609 128.181 218.684C129.057 219.332 128.548 220.131 128.038 220.206C128.038 220.206 127.892 220.279 128.184 220.495C128.914 220.853 128.841 221.071 128.55 221.217C128.55 221.217 128.842 221.795 128.259 221.726L127.676 221.656C127.676 221.656 127.822 221.945 128.406 222.377C128.917 222.664 128.844 222.882 127.969 222.596C127.604 222.598 127.969 222.596 128.115 222.885C128.626 223.172 128.626 223.534 128.481 223.608C128.044 223.827 128.117 223.972 128.117 223.972C127.971 224.045 127.825 224.118 127.899 224.262C127.899 224.262 128.045 224.551 127.972 224.407C127.826 224.48 127.535 224.627 127.17 224.266C127.096 224.122 126.44 223.908 126.513 224.052L127.025 225.064C127.025 225.064 127.244 225.497 126.88 225.499C128.267 226.795 127.172 226.077 126.81 227.527C125.869 231.443 124.484 231.595 122.661 231.242L125.283 229.925ZM109.682 184.669C109.682 184.669 109.973 184.523 109.682 184.669V184.669ZM111.213 184.444C111.213 184.444 110.993 184.01 110.556 184.23C110.629 184.374 110.848 184.446 111.213 184.444ZM111.651 185.31C111.651 185.31 111.578 185.166 111.287 185.312C111.287 185.312 111.36 185.457 111.651 185.31ZM112.091 186.901C112.091 186.901 112.091 186.902 111.727 186.903L111.436 187.05C111.436 187.05 111.873 186.83 112.091 186.901ZM112.457 187.624L112.238 187.19C112.238 187.19 112.092 187.264 112.457 187.624ZM110.126 188.795C110.126 188.795 109.616 188.87 109.689 189.014C109.689 189.014 109.689 189.014 110.126 188.795ZM118.727 187.736C118.727 187.736 119.383 187.588 119.018 187.59L118.727 187.736ZM112.679 189.868L112.388 190.014C112.388 190.014 112.315 189.87 112.242 189.725C113.99 188.847 113.843 188.196 112.968 187.911L112.385 188.204C112.385 188.204 112.531 188.492 112.386 188.928C112.386 188.928 112.313 188.783 111.949 188.785C110.931 190.384 110.345 188.866 110.712 190.313L111.44 189.947C111.44 189.947 111.003 190.166 111.44 189.947C112.461 189.797 112.461 189.797 112.387 189.652L112.679 189.868ZM116.759 188.181C116.759 188.181 116.759 188.181 116.03 188.185C113.192 191.241 120.405 188.524 116.759 188.181ZM111.661 191.466L111.37 191.613C111.443 191.757 111.953 191.32 111.661 191.466ZM111.953 191.682C111.953 191.682 111.808 191.755 111.953 191.682C112.245 191.536 112.245 191.536 111.953 191.682ZM112.609 191.534L112.901 191.388C112.901 191.388 112.463 191.607 112.609 191.534ZM111.808 192.117L111.517 192.264L111.808 192.117ZM119.384 188.312C119.384 188.312 119.529 188.239 119.384 188.312V188.312ZM112.683 192.403C112.683 192.403 112.101 192.695 112.392 192.549C112.683 192.403 112.975 192.256 112.683 192.403ZM112.174 193.202C112.174 193.202 112.539 193.2 112.32 193.129L112.174 193.202ZM111.374 194.148C111.374 194.148 111.447 193.93 111.374 193.786C111.082 193.932 111.155 194.076 111.374 194.148ZM112.176 193.926C112.176 193.926 111.302 194.365 111.593 194.219C112.321 193.853 113.852 193.628 112.176 193.926ZM116.984 192.235L117.056 191.656L116.474 191.948C116.474 191.948 116.62 192.237 116.984 192.235ZM114.297 198.116C114.297 198.116 114.442 198.043 114.297 198.116V198.116ZM118.084 195.851L117.792 195.997C118.084 195.851 118.084 195.851 118.084 195.851ZM115.021 195.215C115.021 195.215 114.875 195.288 114.729 195.361C114.803 195.506 115.24 195.286 115.021 195.215ZM112.255 197.692C112.255 197.692 112.91 197.544 112.984 197.688C113.348 197.686 114.586 196.883 114.149 197.103C113.858 197.249 114.003 197.176 114.149 197.103C114.295 197.029 114.295 197.029 114.076 196.958C113.785 197.104 114.222 196.885 114.003 196.814C114.003 196.814 114.149 196.74 114.003 196.814C113.711 196.96 113.566 197.033 113.347 196.962C112.837 197.037 112.327 197.474 112.619 197.328C112.327 197.474 112.692 197.472 113.202 197.397C113.202 197.397 113.202 197.397 113.712 197.322C113.858 197.249 113.712 197.322 113.566 197.395C112.255 197.692 112.473 197.763 112.401 197.981C112.401 197.981 112.401 197.981 112.547 197.908L112.255 197.692ZM112.475 198.849C111.455 199 112.476 199.212 112.475 198.849V198.849ZM113.786 198.191L114.078 198.044L113.786 198.191C113.786 198.191 113.494 197.975 113.13 197.977C113.13 197.977 113.567 197.757 114.004 197.538C114.004 197.538 113.567 197.757 113.494 197.613C113.494 197.613 112.765 197.617 112.109 197.765C111.818 197.911 112.109 197.765 111.963 197.838C111.672 197.984 111.599 198.202 112.255 198.054C112.765 197.979 112.255 198.054 111.818 198.273C111.673 198.347 111.818 198.273 111.818 198.273C111.818 198.273 112.255 198.054 112.765 197.979C112.038 199.069 113.713 198.046 113.786 197.829L113.786 198.191ZM114.806 197.679C114.806 197.679 114.296 197.754 114.223 197.971C114.223 197.971 114.807 198.041 114.806 197.679ZM112.696 200.369C113.425 200.003 113.425 200.003 112.914 199.716C112.477 199.936 112.55 200.08 112.696 200.369ZM117.795 197.808C117.795 197.808 117.358 198.027 117.504 197.954C117.795 197.808 117.941 197.735 117.795 197.808ZM116.266 199.119C116.266 199.119 116.412 199.046 116.193 198.975C115.902 199.121 115.756 199.195 116.266 199.119ZM117.943 198.821L118.671 198.455C118.671 198.455 116.995 198.754 117.943 198.821ZM120.421 198.663C120.421 198.663 120.348 198.519 120.275 198.374C119.983 198.521 119.911 198.738 120.421 198.663ZM121.957 201.697C121.957 201.697 122.321 201.333 122.102 201.262C122.029 201.117 121.811 201.408 122.029 201.117C121.3 201.121 121.374 201.628 121.957 201.697ZM121.955 200.611C121.955 200.611 121.955 200.611 122.101 200.538L121.955 200.611ZM120.352 201.054C120.352 201.054 120.935 200.761 120.789 200.834C120.351 200.691 119.113 201.495 120.352 201.054ZM119.912 199.463L120.203 199.316L119.912 199.463ZM118.675 200.628L119.112 200.408C119.112 200.408 117.799 200.343 117.362 200.562C117.435 200.707 117.946 200.632 118.675 200.628ZM117.801 201.429C119.404 200.624 116.707 201.073 117.145 201.577C117.145 201.577 117.51 201.575 117.801 201.429ZM113.941 203.912C114.67 203.546 114.305 203.185 113.212 203.915L113.941 203.912ZM116.639 204.187C119.045 204.247 116.055 203.394 117.95 203.529C118.533 203.236 119.116 202.943 119.553 202.724C122.687 202.418 123.634 202.123 120.937 201.847L118.384 201.136C118.384 201.136 118.093 201.645 117.947 201.718C117.802 201.791 117.218 201.722 116.636 202.014C117.146 201.939 117.656 201.864 116.491 202.812C116.564 202.956 116.346 203.247 115.399 203.904C115.399 203.904 114.986 203.93 114.16 203.983C114.16 203.983 114.016 205.142 114.89 204.703C115.327 204.484 115.401 204.628 115.765 204.626C116.202 204.407 116.202 204.407 116.639 204.187ZM119.045 204.247C119.045 204.247 119.336 204.101 118.899 203.958C118.462 204.178 118.681 204.249 119.045 204.247ZM121.813 202.857C121.813 202.857 122.396 202.926 121.813 202.857V202.857ZM121.743 204.523L121.889 204.45C121.889 204.45 121.597 204.596 121.743 204.523ZM122.398 204.012C122.398 204.012 122.398 204.012 122.179 203.941C121.669 204.016 122.107 204.521 122.398 204.012ZM121.741 203.436L121.45 203.583C121.596 203.872 123.417 203.138 121.741 203.436ZM119.121 205.84C119.995 205.401 119.265 205.043 118.901 205.044C118.537 205.408 118.683 205.697 119.121 205.84ZM114.676 207.529L114.385 207.675C114.385 207.675 114.094 207.822 113.948 207.895C114.531 207.602 114.676 207.529 114.676 207.529ZM115.697 207.379C115.697 207.379 115.405 207.525 115.26 207.598C115.26 207.598 115.26 207.598 114.823 207.818C114.24 208.111 114.531 207.964 114.823 207.818C115.114 207.671 115.551 207.452 115.77 207.523C117.155 207.371 116.206 206.942 115.697 207.379ZM122.399 204.374C122.69 204.228 122.69 204.228 122.399 204.374V204.374ZM122.691 204.952L122.983 204.806C122.983 204.806 122.691 204.952 122.546 205.026L121.671 205.103C120.651 205.615 122.62 205.894 122.619 205.17L122.691 204.952ZM122.911 205.386L122.182 205.39C122.182 205.39 121.308 205.829 122.036 205.463C122.473 205.243 123.129 205.095 122.764 205.097L122.911 205.386ZM117.303 208.746L117.157 208.82L117.303 208.746ZM121.021 209.234C121.021 209.234 121.75 208.868 121.312 208.726C121.167 208.799 119.856 209.819 121.021 209.234ZM121.023 209.958C121.023 209.958 122.042 209.446 121.095 209.379C120.949 209.452 120.95 209.814 121.023 209.958ZM125.466 207.907C127.068 206.378 125.029 207.765 123.279 207.919C123.207 208.136 124.957 208.345 125.466 207.907ZM118.037 212.002C118.037 212.002 117.454 212.294 118.11 212.146C118.402 212 118.402 212 118.037 212.002ZM121.318 211.985C121.318 211.985 121.172 212.058 121.828 212.272L121.318 211.985ZM120.882 213.291L120.953 211.987C120.953 211.987 118.477 213.593 120.882 213.291ZM120.008 213.73C120.008 213.73 119.862 213.803 119.717 213.876L120.008 213.73ZM120.593 214.885C120.593 214.885 120.593 214.885 120.301 214.67C119.718 214.6 120.374 214.814 120.593 214.885ZM122.197 215.167C122.197 215.167 121.322 214.882 121.614 215.097C121.614 215.097 122.052 215.24 122.197 215.167ZM123.51 215.594L123.729 215.304C122.416 215.238 122.927 215.525 123.51 215.594ZM8.92883 2.24978L8.78256 1.96083C8.78256 1.96083 8.85569 2.10531 8.92883 2.24978ZM6.23985 7.40585C6.23985 7.40585 6.38553 7.33267 6.23985 7.40585V7.40585ZM6.533 8.34582C6.533 8.34582 6.45928 7.83925 6.3136 7.91243C6.02224 8.05879 6.09595 8.56536 6.533 8.34582ZM7.99042 7.97613C7.99042 7.97613 7.62532 7.6159 7.62591 7.97802C7.62591 7.97802 7.77219 8.26696 7.99042 7.97613ZM7.70611 12.4679C7.70611 12.4679 7.55985 12.179 7.48671 12.0345C6.83085 12.1828 6.97769 12.8338 7.70611 12.4679ZM6.39786 14.9371C6.39786 14.9371 6.25218 15.0103 6.39786 14.9371V14.9371ZM6.7953 35.2137C6.7953 35.2137 6.93979 34.4163 6.79352 34.1274C6.50274 34.6359 6.21198 35.1443 6.7953 35.2137ZM7.3078 36.5871C7.08546 34.3432 6.29038 38.5479 5.05119 38.6268C3.59613 40.4449 7.16682 39.5573 7.3078 36.5871ZM4.18124 41.6006L3.88987 41.747C3.88987 41.747 4.25438 41.7451 4.18124 41.6006ZM4.7675 43.4806C4.7675 43.4806 4.54809 43.0472 4.47495 42.9027C3.52596 42.111 3.82379 45.9479 4.7675 43.4806ZM10.6541 77.1271L11.0169 76.0389C13.1307 75.8831 7.43385 69.3221 11.8126 72.1963C11.8126 72.1963 10.423 69.4514 9.76299 67.0649C6.40994 67.2996 10.8683 74.3015 9.26751 76.1928C9.56006 76.7707 10.1434 76.8401 10.7273 77.2716L10.6541 77.1271ZM12.19 80.161C12.19 80.161 12.3351 79.7257 12.0425 79.1478C12.0431 79.5099 11.9706 79.7276 12.19 80.161ZM12.0478 82.4068C12.0478 82.4068 11.9004 81.3937 11.6078 80.8158C11.6822 81.6845 11.6827 82.0466 12.0478 82.4068ZM7.24321 86.6324C7.24321 86.6324 7.6083 86.9926 7.24321 86.6324V86.6324ZM7.75749 89.0922C7.75749 89.0922 7.75748 89.0922 7.46612 89.2385C7.61239 89.5275 7.83063 89.2366 7.75749 89.0922ZM7.75866 89.8164C7.75866 89.8164 7.61303 89.8896 7.46735 89.9628C7.75989 90.5406 8.1963 89.959 7.75866 89.8164ZM13.8077 88.771C13.8077 88.771 13.5877 87.9755 13.2238 88.3395C13.297 88.484 13.5164 88.9174 13.8077 88.771ZM14.1734 89.4934L13.882 89.6397C13.8832 90.364 14.3934 90.2889 14.1734 89.4934ZM10.1008 95.5257C10.1008 95.5257 9.66137 94.2968 9.66196 94.6589C9.58941 94.8766 9.8094 95.6721 10.1008 95.5257ZM10.3202 95.9591C10.3202 95.9591 10.539 96.0304 10.3202 95.9591V95.9591ZM19.8142 106.411C19.8142 106.411 19.8119 104.963 19.3749 105.182C19.0835 105.329 19.0115 105.908 19.8142 106.411ZM15.59 108.896C15.59 108.896 15.2993 109.404 15.4455 109.693C16.3945 110.485 16.3179 108.168 15.59 108.896ZM22.0761 107.631C21.3448 106.186 20.397 106.119 22.0048 108.573C22.5155 108.86 22.2961 108.426 22.0761 107.631ZM16.5461 114.033C16.5461 114.033 16.5461 114.033 16.6192 114.177C16.6923 114.322 17.1294 114.102 16.5461 114.033ZM17.7116 113.447C17.7116 113.447 17.4202 113.594 17.4933 113.738C17.3482 114.173 18.2223 113.734 17.7116 113.447ZM20.9172 112.199C20.9172 112.199 20.6977 111.766 20.552 111.839C19.8248 112.929 20.9915 113.068 20.9172 112.199ZM21.8685 114.44C21.8685 114.44 22.1587 113.569 21.4297 113.573C21.284 113.646 21.1389 114.081 21.8685 114.44ZM22.3798 115.089L22.8169 114.869C22.8169 114.869 22.3061 114.582 22.3798 115.089ZM24.2755 115.224C23.7623 113.488 23.2498 112.115 22.591 110.453C21.9369 111.687 24.0572 115.515 24.2755 115.224ZM23.6319 122.976C23.6319 122.976 23.9233 122.83 23.7039 122.397C23.4102 121.095 21.7293 118.496 21.1442 117.34C21.4367 117.918 23.3394 122.399 23.7777 122.903L23.6319 122.976ZM25.5188 117.68C25.5188 117.68 24.9372 118.697 25.3041 120.143C28.6654 124.978 27.8579 121.578 25.5188 117.68ZM29.6167 127.218C28.3734 124.762 28.3746 125.487 27.7164 124.186C26.0378 123.036 28.6683 126.789 29.6167 127.218ZM34.8052 134.941C34.8052 134.941 34.8765 133.999 34.3658 133.712C34.1475 134.003 34.2207 134.147 34.8052 134.941ZM30.8823 143.435C30.8823 143.435 30.4452 143.654 30.5915 143.943C30.7378 144.232 31.1749 144.013 30.8823 143.435ZM42.7663 144.17C42.7663 144.17 42.7663 144.17 42.6932 144.025C42.6932 144.025 42.6932 144.025 42.7663 144.17ZM37.9629 149.119L37.451 148.108C37.451 148.108 37.0853 147.386 37.1584 147.53C37.3784 148.326 37.7435 148.686 38.036 149.264L37.9629 149.119ZM36.7284 152.095C36.7284 152.095 35.4881 151.45 36.7284 152.095V152.095ZM44.3039 148.29C44.3039 148.29 43.9383 147.567 43.7194 147.496C43.5012 147.787 44.012 148.074 44.3039 148.29ZM43.2186 153.365C44.4619 155.821 45.119 156.397 46.7256 158.127C46.5782 157.114 43.8757 153.941 43.2186 153.365ZM41.5418 153.301C41.5418 153.301 42.5651 154.962 43.0028 155.104C42.564 154.238 42.1983 153.515 41.5418 153.301ZM43.4481 159.955C41.0399 158.446 41.4044 158.444 40.9644 156.853C40.5262 156.348 39.9422 155.917 39.6497 155.339C39.6497 155.339 39.5034 155.05 39.4303 154.906L39.284 154.617C38.2601 152.594 37.2398 152.744 41.6243 159.24C40.6759 158.81 40.3097 157.726 39.507 157.223C40.0213 159.683 41.2593 158.88 42.4277 160.105C42.8647 159.885 43.3023 160.028 43.5937 159.881L43.4481 159.955ZM50.5894 158.179C50.5894 158.179 50.1506 157.312 49.713 157.17C49.7873 158.039 50.1518 158.037 50.5894 158.179ZM48.1128 159.423C48.4785 160.146 48.9173 161.012 49.283 161.735C50.3045 162.309 50.8896 163.465 51.6924 163.967C50.8879 162.378 48.9893 160.433 48.0397 159.279L48.1128 159.423ZM47.901 163.697L47.756 164.133C47.9016 164.06 47.9742 163.842 47.901 163.697ZM48.4909 167.75C47.756 164.133 42.4283 160.467 43.7447 163.067C45.4221 163.493 46.1576 167.473 48.4909 167.75ZM63.3014 174.988C63.3014 174.988 63.1551 174.699 63.0101 175.134C63.4477 175.277 63.3746 175.132 63.3014 174.988ZM70.3071 179.442C70.3071 179.442 70.8922 180.598 71.4755 180.667C71.8394 180.303 71.0367 179.8 70.3071 179.442ZM70.014 178.502C70.014 178.502 70.7436 178.86 70.5973 178.571C70.3048 177.993 69.8677 178.213 70.014 178.502ZM65.5768 184.536C62.1453 181.367 61.6352 181.442 62.2203 182.598C63.7549 184.908 66.964 185.832 65.5768 184.536ZM78.1969 189.613C78.1969 189.613 78.7802 189.682 78.7065 189.175C78.4151 189.322 78.2694 189.395 78.1969 189.613ZM73.0945 190.001C73.0945 190.001 74.4068 190.067 70.3183 186.322C70.5389 187.48 72.07 187.617 73.0945 190.001ZM73.3174 192.607C73.3174 192.607 72.2947 191.309 71.7839 191.022C71.2743 191.459 72.5153 192.467 73.3174 192.607ZM81.5517 190.464C81.5517 190.464 80.5302 189.89 80.9684 190.395C81.0415 190.539 81.4791 190.682 81.5517 190.464ZM76.2846 224.096C76.2846 224.096 76.3577 224.241 76.2846 224.096V224.096ZM75.2659 225.333C75.2659 225.333 75.0459 224.537 75.0454 224.175C74.9699 222.582 74.7505 222.149 75.0454 224.175C75.1916 224.464 75.0459 224.537 75.1191 224.682C75.2653 224.971 75.3385 225.115 75.3385 225.115L75.2659 225.333ZM76.7234 224.963C76.7234 224.963 76.3559 223.154 76.3571 223.879L76.5045 224.892C76.5045 224.892 76.5777 225.036 76.5045 224.892L76.7234 224.963ZM76.5063 225.978L76.4332 225.834C76.4332 225.834 76.4331 225.834 76.5063 225.978ZM75.6322 226.417C75.6322 226.417 75.559 226.273 75.6322 226.417V226.417ZM86.7843 225.345C86.7843 225.345 87.0037 225.779 87.1488 225.343C87.1488 225.343 86.8568 225.128 86.7843 225.345ZM80.3005 228.059L80.008 227.481C80.008 227.481 80.3005 228.059 80.3017 228.783C80.3748 228.927 80.5211 229.216 80.3017 228.783C80.3011 228.421 80.5942 229.361 80.3017 228.783C80.2286 228.638 80.1542 227.77 80.0817 227.987C80.0817 227.987 80.0823 228.35 80.0817 227.987L80.3005 228.059ZM80.0127 230.378C80.0127 230.378 80.0115 229.654 79.9377 229.147C79.9377 229.147 79.9378 229.147 79.8652 229.365C80.0846 229.798 79.867 230.451 80.0127 230.378C80.0127 230.378 80.0852 230.16 80.1584 230.305L80.0127 230.378ZM79.4282 229.584C79.4282 229.584 79.5751 230.235 79.4282 229.584V229.584ZM79.7196 229.438C79.571 227.7 79.7196 229.438 79.7196 229.438V229.438ZM79.1368 229.731C79.1368 229.731 79.2843 230.744 79.138 230.455C79.138 230.455 79.138 230.455 79.1368 229.731ZM77.4577 228.218C77.4577 228.218 77.2382 227.785 77.2394 228.509C77.3869 229.522 77.532 229.087 77.3126 228.654L77.1663 228.365L77.4577 228.218ZM77.9684 228.505L77.8952 228.361C77.8952 228.361 77.969 228.867 77.9684 228.505ZM77.0235 230.248C77.0235 230.248 77.2429 230.682 77.3149 230.102L76.8029 229.091C76.8029 229.091 76.583 228.295 76.5835 228.657C76.5841 229.02 76.7304 229.309 76.8767 229.597C76.9498 229.742 76.951 230.466 76.8779 230.322C76.7316 230.033 76.7316 230.033 76.7316 230.033C76.7316 230.033 76.8053 230.539 76.8784 230.684L77.1698 230.537L77.0235 230.248ZM77.3119 228.292L77.1657 228.003L77.3119 228.292ZM79.1345 228.282C79.1345 228.282 79.1344 228.282 79.2795 227.847C79.1332 227.558 79.2796 227.847 79.1345 228.282ZM79.8623 227.554C79.8623 227.554 79.7892 227.41 79.7886 227.047C79.5686 226.252 79.6429 227.121 79.8623 227.554ZM81.5391 227.618C81.5391 227.618 81.5385 227.256 81.6111 227.038L81.3917 226.605C81.3162 225.012 81.5373 226.531 81.2454 226.316C81.2454 226.316 81.3209 227.909 81.3935 227.691L81.5391 227.618ZM83.0685 226.668L82.9954 226.524C82.8479 225.511 83.1416 226.813 83.0685 226.668ZM84.0128 224.563L84.3042 224.417C84.3042 224.417 84.1585 224.49 84.0128 224.563ZM82.9199 224.931C82.9199 224.931 82.993 225.075 83.0655 224.858C83.0655 224.858 83.0656 224.858 82.9199 224.931ZM82.0452 225.008C82.0452 225.008 82.123 228.049 82.4132 227.179C82.4864 227.323 82.4132 227.179 82.4132 227.179L82.5583 226.743C82.5583 226.743 81.9732 225.588 82.7748 225.366C82.7011 224.86 82.3371 225.224 81.8995 225.081L82.0452 225.008ZM78.6939 226.329C78.6939 226.329 79.3503 226.543 79.8599 226.106C79.7868 225.961 78.6927 225.605 78.6939 226.329ZM82.6975 222.687L82.6244 222.542L82.6975 222.687ZM78.0357 225.029C78.0357 225.029 78.4733 225.171 78.6184 224.736C78.399 224.303 78.0345 224.304 78.0357 225.029ZM74.685 226.712C74.685 226.712 74.5387 226.423 74.613 227.292C74.6142 228.016 74.7587 227.218 74.685 226.712ZM76.071 227.284C76.071 227.284 76.1454 228.153 76.0734 228.733C76.2928 229.166 76.2202 229.384 76.1477 229.601C76.0026 230.037 76.1495 230.688 76.1489 230.325C76.2208 229.746 76.4408 230.541 76.1477 229.601L76.0014 229.312C76.0014 229.312 76.1465 228.877 76.0728 228.37C75.9265 228.081 76.0722 228.008 76.0728 228.37C76.219 228.659 76.0728 228.37 76.0728 228.37C75.9996 228.226 75.9253 227.357 75.8522 227.213C75.7059 226.924 75.5596 226.635 75.7065 227.286L76.071 227.284ZM76.0031 230.399L75.93 230.254C76.0037 230.761 76.1494 230.688 76.0031 230.399ZM75.4205 230.691C75.4205 230.691 75.3461 229.823 75.273 229.678C75.273 229.678 75.273 229.678 75.3461 229.823C75.4924 230.112 75.4936 230.836 75.4936 230.836C75.4936 230.836 75.4936 230.836 75.4205 230.691ZM75.0512 227.796C75.0512 227.796 75.0518 228.158 75.1249 228.303L74.9056 227.869L75.0512 227.796ZM75.2016 230.62C75.2016 230.62 75.1279 230.113 75.1267 229.389L75.0536 229.245C75.0536 229.245 75.053 228.883 75.1255 228.665L75.0524 228.521C75.0524 228.521 75.0512 227.796 74.9049 227.507C74.833 228.087 74.7599 227.943 74.8336 228.449C75.273 229.678 74.8341 228.811 74.7628 229.753C74.8359 229.898 74.909 230.042 74.909 230.042C74.9822 230.187 75.1285 230.476 75.0559 230.693C75.2022 230.982 75.2022 230.982 75.0559 230.693L75.2016 230.62ZM78.0433 229.736C78.0433 229.736 77.9708 229.954 78.0439 230.098C78.117 230.243 78.1164 229.881 78.0433 229.736ZM78.409 230.459C78.409 230.459 78.846 230.239 78.9911 229.804C78.9911 229.804 78.8449 229.515 78.8443 229.153L78.6249 228.719C78.6249 228.719 78.6237 227.995 78.8425 228.066C78.9145 227.487 79.2813 228.933 79.2064 227.702L79.0601 227.413C79.0601 227.413 79.0601 227.413 78.9139 227.124C78.7676 226.835 78.7676 226.835 78.7682 227.198L78.8413 227.342C78.8413 227.342 78.6962 227.777 78.55 227.488C78.4037 227.2 78.3294 226.331 78.3305 227.055L78.4037 227.2C78.4037 227.2 78.1849 227.128 78.0392 227.201L78.2586 227.635C78.2586 227.635 78.2598 228.359 78.1878 228.939C78.0415 228.65 78.0409 228.288 77.8952 228.361C77.749 228.072 77.8215 227.854 77.8941 227.637C77.8941 227.637 77.8209 227.492 77.8941 227.637C78.0415 228.65 77.7484 227.71 77.9696 229.23C78.0439 230.098 77.9696 229.23 78.3353 229.952L78.4815 230.241L78.409 230.459ZM77.9005 231.62C77.9005 231.62 78.1199 232.053 77.9737 231.764C77.9005 231.62 77.8274 231.476 77.9005 231.62ZM81.6111 227.038C81.3911 226.242 81.3179 226.098 81.3185 226.46L81.2466 227.04C81.2466 227.04 81.3928 227.329 81.5391 227.618C81.6122 227.762 81.6134 228.486 81.5409 228.704C81.5409 228.704 81.5409 228.704 81.2483 228.126C81.0289 227.693 81.1015 227.475 81.1009 227.113C81.0997 226.389 80.8084 226.535 80.8084 226.535C80.8084 226.535 80.9546 226.824 80.9552 227.186C80.9552 227.186 80.8124 229.07 80.8112 228.346C80.7381 228.201 80.665 228.057 80.6644 227.695C80.5176 227.044 80.3713 226.755 80.445 227.261L80.6644 227.695C80.6644 227.695 80.7388 228.563 80.5931 228.637C80.5931 228.637 80.2274 227.914 80.4468 228.348L80.5931 228.637C80.5931 228.637 80.2274 227.914 80.3737 228.203C80.4468 228.348 80.3011 228.421 80.2285 228.638C80.2285 228.638 80.2303 229.725 80.3034 229.869C80.3034 229.869 80.4497 230.158 80.4491 229.796C80.376 229.652 80.5211 229.216 80.4485 229.434C80.8142 230.156 80.6662 228.781 80.8856 229.214C80.8856 229.214 80.8856 229.214 81.0313 229.141C81.1038 228.924 81.1044 229.286 81.1775 229.43C81.3238 229.719 81.4683 228.922 81.4678 228.56C81.1021 227.837 81.3197 227.184 81.246 226.678L81.6111 227.038ZM98.3711 222.605C98.3711 222.605 99.1007 222.964 98.9538 222.313C98.8813 222.53 98.9538 222.313 98.8081 222.386C98.8081 222.386 98.3705 222.243 98.3711 222.605ZM97.3513 223.118L97.2781 222.973C97.2781 222.973 97.1336 223.771 97.3513 223.118ZM96.7685 223.41C96.7685 223.41 96.7685 223.41 96.7679 223.048C96.5467 221.529 96.4766 223.195 96.7685 223.41ZM95.8207 223.343L95.8939 223.487C95.8939 223.487 95.8939 223.487 95.8207 223.343ZM96.2571 222.761C96.2571 222.761 96.1109 222.472 96.184 222.617C95.8932 223.125 96.5497 223.339 96.2571 222.761ZM95.6745 223.054C95.6745 223.054 95.7476 223.198 95.6745 223.054C95.6013 222.909 95.5282 222.765 95.6745 223.054ZM95.2362 222.549C95.2362 222.549 95.2362 222.549 95.2368 222.911L95.3099 223.056C95.3099 223.056 95.1636 222.767 95.2362 222.549ZM91.0834 224.092C91.0834 224.092 91.2308 225.105 91.5198 223.51C91.2279 223.294 91.3004 223.077 91.0834 224.092ZM83.6542 228.186C83.6542 228.186 83.581 228.042 83.6547 228.548C83.801 228.837 83.6548 228.548 83.6542 228.186ZM83.1434 227.899C83.1434 227.899 82.9239 227.466 82.9965 227.248C82.9965 227.248 83.144 228.261 83.1434 227.899ZM83.3628 228.333C83.3628 228.333 83.0703 227.755 83.3628 228.333C83.5103 229.346 83.6554 228.91 83.3628 228.333ZM94.8735 223.638L94.5809 223.06C94.5809 223.06 94.7272 223.349 94.801 223.855C95.021 224.651 94.9472 224.144 94.9466 223.782L94.8735 223.638ZM93.5641 225.383C92.3249 225.461 92.9076 225.169 91.8878 225.681C92.1072 226.114 93.2008 226.109 93.5641 225.383ZM85.1145 229.627L84.9682 229.338C84.8957 229.556 85.1882 230.134 85.1145 229.627ZM101.215 223.17L101.069 222.881C101.069 222.881 101.069 222.881 101.215 223.17ZM110.116 227.759L109.97 227.47C109.97 227.47 110.117 228.121 110.116 227.759ZM111.865 227.243C111.865 227.243 111.938 227.387 111.865 227.243C111.792 227.098 111.719 226.954 111.865 227.243ZM110.771 226.886C110.771 226.886 110.771 226.886 110.772 227.248C110.918 227.537 110.917 227.175 110.771 226.886ZM111.937 226.301C111.937 226.301 111.863 226.156 111.937 226.301C111.937 226.301 112.01 226.445 112.083 226.59C112.156 226.734 112.083 226.59 112.155 226.372L111.937 226.301ZM106.253 228.069C106.546 229.009 106.399 227.995 106.692 228.935C106.985 229.513 106.983 228.789 106.836 228.138C106.763 227.994 106.69 227.849 106.69 227.487C106.543 227.198 106.69 227.487 106.69 227.487C106.617 227.343 106.545 227.922 106.544 227.56C106.398 227.271 106.398 227.271 106.398 227.633C106.398 227.633 106.471 227.778 106.398 227.633C106.179 227.2 106.036 228.722 106.109 228.866C106.109 228.866 106.255 229.155 106.329 229.662L106.402 229.806C106.547 229.733 106.693 229.66 106.618 228.429C106.472 228.14 106.472 228.14 106.618 228.429L106.253 228.069ZM98.6753 230.426C98.6753 230.426 98.3834 230.21 98.1652 230.501C98.2383 230.645 98.4571 230.716 98.6753 230.426ZM90.2187 230.325C90.1456 230.18 90.1456 230.18 90.2187 230.325V230.325ZM114.905 213.756L115.489 214.188C115.489 214.188 114.832 213.612 114.905 213.756ZM117.677 214.538L117.166 214.251L117.312 214.54L117.603 214.394L117.677 214.538ZM119.063 215.111L119.72 215.687L120.23 215.974C120.23 215.974 119.72 215.687 120.084 215.685C120.376 215.9 121.033 216.114 120.376 215.538C119.865 215.251 119.427 215.109 118.99 214.966L119.063 215.111ZM122.066 223.931L122.577 224.218L122.43 223.929C122.43 223.929 122.065 223.206 121.992 223.424L122.212 223.858L122.066 223.931ZM125.264 217.975C125.264 217.975 125.556 218.191 125.264 217.975V217.975ZM120.085 216.409L120.305 216.842L120.742 216.623C120.742 216.623 120.304 216.48 120.085 216.409ZM116.657 215.413L117.314 215.989C117.314 215.989 116.949 215.629 116.657 215.413ZM116.949 215.266C116.949 215.266 116.803 214.977 116.146 214.402L115.635 214.114C115.635 214.114 115.708 214.259 116.292 214.69L116.365 214.835C116.365 214.835 116.219 214.546 116.365 214.835C116.365 214.835 116.365 214.835 116.438 214.979C116.584 215.268 116.584 215.268 116.803 215.34L116.949 215.266ZM126.947 221.66C126.947 221.66 127.676 221.656 127.968 221.872C127.968 221.872 127.602 221.512 127.02 221.805L126.947 221.66ZM129.204 220.345C129.204 220.345 130.08 220.63 129.787 220.052C129.277 220.127 128.62 219.913 129.204 220.345ZM129.2 217.81C129.2 217.81 129.857 218.024 129.2 217.81V217.81ZM125.118 217.686C125.118 217.686 125.118 217.686 125.191 217.831C125.483 218.047 125.92 218.189 125.847 218.045C125.628 217.611 127.014 218.546 125.628 217.611L125.555 217.467L125.263 217.613L125.118 217.686ZM125.043 216.818C125.043 216.818 124.751 216.602 125.043 216.818V216.818ZM125.407 216.092C125.407 216.092 126.501 216.81 125.407 216.092V216.092ZM121.835 216.255C121.835 216.255 122.564 216.613 123.002 216.756L123.293 216.61L122.783 216.322C122.783 216.322 121.397 215.75 121.762 216.111L121.835 216.255ZM121.688 215.966C121.688 215.966 122.491 216.107 121.469 215.533C120.886 215.463 120.667 215.392 121.688 215.966ZM115.634 213.752C115.634 213.752 116.145 214.039 116.802 214.615C116.875 214.76 117.094 214.831 117.313 214.902L117.24 214.758L117.093 214.469C117.093 214.469 116.072 214.257 115.635 214.114L115.634 213.752ZM113.444 211.953C114.466 212.527 114.977 212.814 115.706 213.173C115.049 212.597 115.049 212.597 113.444 211.953ZM112.861 212.246C112.861 212.246 113.372 212.533 113.591 212.604C113.226 212.244 113.007 212.173 112.861 212.246ZM94.8341 199.376C94.8341 199.376 94.9798 199.302 94.8341 199.376V199.376ZM89.5064 195.71C89.5064 195.71 89.5064 195.71 89.5795 195.854C89.5795 195.854 89.5795 195.854 89.5064 195.71ZM82.5113 197.774L80.6133 196.191C80.6133 196.191 80.9796 197.275 82.5113 197.774ZM86.591 196.087C85.8608 195.367 85.2769 194.935 84.7661 194.648C85.2043 195.153 85.7883 195.584 86.591 196.087ZM85.3577 199.787L84.1893 198.562C84.1893 198.562 83.5334 198.71 84.1179 199.504L85.5034 199.714L85.3577 199.787ZM85.721 199.061C85.721 199.061 85.5016 198.628 85.4291 198.845C85.5753 199.134 85.7941 199.205 85.721 199.061ZM107.973 209.809C110.381 210.955 112.059 211.743 112.278 211.814C109.651 210.235 112.86 211.16 108.555 208.792C108.555 208.792 108.7 208.719 108.627 208.574C108.627 208.574 108.408 208.503 108.263 208.576C105.417 206.925 99.4346 204.132 88.0502 196.804C88.1964 197.093 89.5105 198.245 91.6273 199.899C93.7441 201.554 96.8088 203.276 99.582 205.145C102.647 206.867 105.566 208.663 107.973 209.809ZM106.447 212.931C106.447 212.931 106.593 212.858 106.447 212.569C106.447 212.569 106.374 212.787 106.447 212.931ZM104.778 217.213C104.778 217.213 103.609 215.988 102.88 215.991C102.88 215.991 103.173 216.569 103.246 216.714C103.246 216.714 104.413 217.215 104.778 217.213ZM107.182 216.548C107.182 216.548 107.327 215.751 106.89 215.971C106.598 216.117 107.109 216.404 107.182 216.548ZM105.434 217.427C105.434 217.427 105.215 217.355 105.434 217.427V217.427ZM109.078 217.046C109.078 217.046 110.61 217.182 110.536 217.038C109.734 216.535 108.931 216.032 109.078 217.046ZM89.5622 230.111C89.5622 230.111 89.416 229.822 89.4165 230.184C89.4177 230.908 89.7822 230.906 89.5622 230.111ZM88.9812 231.49L88.835 231.201L88.9812 231.49ZM95.396 231.167C95.396 231.167 95.2497 230.878 95.3954 230.805C95.3954 230.805 95.2491 230.516 95.3217 230.298C95.5393 229.645 94.6635 228.998 95.3217 230.298C95.3948 230.443 95.4685 230.949 95.4691 231.311C95.6154 231.6 95.7617 231.889 95.4691 231.311L95.396 231.167ZM95.616 231.962C95.616 231.962 95.7617 231.889 95.688 231.383L95.5417 231.094C95.5417 231.094 95.5417 231.094 95.5429 231.818L95.616 231.962ZM104.358 227.934C104.358 227.934 104.431 228.078 104.358 227.934V227.934ZM104.722 227.932L104.576 227.643C104.576 227.643 104.576 227.643 104.722 227.932ZM104.796 228.8L104.65 228.512C104.65 228.512 104.65 228.511 104.723 228.656L104.796 228.8ZM104.652 229.598C104.652 229.598 104.945 230.538 104.652 229.598V229.598ZM105.089 229.74C105.089 229.74 105.088 228.654 105.235 229.305C105.381 229.956 105.454 229.739 105.527 229.521C105.527 229.521 105.673 229.81 105.527 229.521C105.38 228.87 105.305 228.001 105.233 228.219L105.013 227.785C105.087 228.292 105.015 228.872 104.942 228.727L104.944 230.176L105.089 229.74ZM106.909 227.92C106.909 227.92 106.91 228.283 106.837 228.5C106.838 228.862 107.13 229.078 107.13 229.078C107.13 229.078 107.13 229.078 107.202 228.498C107.055 228.209 106.909 227.92 106.909 227.92ZM109.314 227.618C108.729 226.1 109.241 227.474 109.097 228.271C109.243 228.56 109.387 227.763 109.314 227.618ZM111.282 227.536C111.282 227.536 111.282 227.536 111.355 227.318C111.282 227.173 111.355 227.318 111.355 227.318L111.501 227.607L111.282 227.536ZM113.322 226.511C113.322 226.511 113.54 225.858 113.394 225.931C113.394 225.931 113.321 225.787 113.248 226.004L113.175 225.86C113.175 225.86 113.029 225.933 113.177 226.946C113.323 227.235 113.177 226.946 113.323 226.873L113.322 226.511ZM6.59729 3.05856C6.59729 3.05856 6.01461 3.35127 6.08774 3.49574C6.23401 3.78468 6.74415 3.70962 6.67043 3.20304C6.67043 3.20304 6.59729 3.05856 6.52416 2.91409L6.59729 3.05856ZM8.25683 37.3788L8.18371 37.2344C8.18371 37.2344 8.1837 37.2344 8.32997 37.5233L8.25683 37.3788ZM107.198 181.568C107.198 181.568 107.927 181.564 108 181.708C108 181.708 108 181.708 108.292 181.562C108.219 181.417 108.072 181.128 107.999 180.984L107.708 181.13C107.708 181.13 106.98 181.496 107.125 181.423L107.198 181.568ZM109.968 180.901C109.968 180.901 109.967 180.901 110.113 180.828C110.113 180.828 110.113 180.828 110.405 180.682C110.259 180.755 109.967 180.539 109.748 180.468L109.457 180.614L109.385 181.194C109.385 181.194 109.676 181.048 109.968 180.901ZM114.995 179.282L114.704 179.428L114.995 179.282ZM74.3205 226.714L74.3936 226.858C74.5411 227.871 74.6142 228.016 74.3936 226.858C74.3936 226.858 74.3205 226.714 74.3936 226.858L74.3205 226.714ZM118.82 200.555C118.82 200.555 119.986 200.331 118.82 200.555V200.555ZM106.034 227.997L106.181 228.286C106.107 227.78 105.961 227.853 106.034 227.997ZM112.834 195.588C112.834 195.588 113.417 195.296 112.834 195.588V195.588ZM76.4355 227.282C76.4355 227.282 76.3618 226.776 76.3624 227.138L76.4355 227.282ZM109.172 185.106L108.881 185.252C108.881 185.252 109.391 185.177 109.172 185.106ZM78.5511 228.213C78.5511 228.213 78.6974 228.502 78.6243 228.357C78.5511 228.213 78.478 228.068 78.5511 228.213ZM118.137 228.441C118.137 228.441 118.137 228.441 118.063 228.297C117.99 228.152 118.063 228.297 118.137 228.441ZM107.716 186.2C107.716 186.2 107.279 186.42 107.57 186.273C107.716 186.2 108.008 186.054 107.716 186.2ZM75.0594 232.866C75.0594 232.866 75.0595 232.866 75.1326 233.01C75.1326 233.01 75.1326 233.01 75.0594 232.866ZM86.6491 231.937C86.6491 231.937 86.8692 232.732 86.8686 232.37C86.8686 232.37 86.7948 231.863 86.6491 231.937ZM116.944 212.007C116.944 212.007 117.162 212.079 117.527 212.077C117.527 212.077 117.089 211.934 116.944 212.007ZM110.499 193.862L110.79 193.716C110.79 193.716 110.79 193.716 110.863 193.498C109.988 193.575 109.843 194.011 110.353 193.936L110.499 193.862ZM122.344 215.456L122.855 215.743C122.855 215.743 122.781 215.598 122.708 215.454L122.417 215.6C122.417 215.6 121.906 215.313 121.323 215.244C121.25 215.099 120.739 214.812 120.447 214.596C120.593 214.885 120.74 215.174 120.813 215.319C120.813 215.319 120.667 215.392 120.813 215.319L120.959 215.608C120.959 215.608 122.199 215.891 122.053 215.964C122.053 215.964 122.564 216.251 123.001 216.394L122.855 216.105L121.761 215.748C121.761 215.748 121.761 215.748 121.688 215.604C121.688 215.604 122.052 215.602 122.344 215.818L122.344 215.456Z" fill="#DEE1E5"/>
</svg>
