<svg width="24" height="24" viewBox="0 0 24 24" fill="none" xmlns="http://www.w3.org/2000/svg">
<path fill-rule="evenodd" clip-rule="evenodd" d="M8.50036 5C6.77004 5 5.3337 6.43631 5.3337 8.25C5.3337 10.0637 6.77004 11.5 8.50036 11.5C10.2307 11.5 11.6671 10.0637 11.6671 8.25C11.6671 6.43631 10.2307 5 8.50036 5ZM3.3337 8.25C3.3337 5.36927 5.62831 3 8.50036 3C11.3724 3 13.6671 5.36927 13.6671 8.25C13.6671 11.1307 11.3724 13.5 8.50036 13.5C5.62831 13.5 3.3337 11.1307 3.3337 8.25ZM18.0004 10C17.0091 10 16.2226 10.793 16.2226 11.75C16.2226 12.707 17.0091 13.5 18.0004 13.5C18.9917 13.5 19.7782 12.707 19.7782 11.75C19.7782 10.793 18.9917 10 18.0004 10ZM14.2226 11.75C14.2226 9.66948 15.9235 8 18.0004 8C20.0773 8 21.7782 9.66948 21.7782 11.75C21.7782 13.8305 20.0773 15.5 18.0004 15.5C15.9235 15.5 14.2226 13.8305 14.2226 11.75ZM8.50036 16.05C5.48227 16.05 2.85462 18.2009 1.96068 21.2789L0.0400391 20.7211C1.1492 16.902 4.47976 14.05 8.50036 14.05C11.0405 14.05 13.3136 15.194 14.9166 16.998C15.8241 16.4598 16.8768 16.15 18.0004 16.15C20.828 16.15 23.1757 18.0976 23.9584 20.7133L22.0424 21.2867C21.4896 19.4395 19.8653 18.15 18.0004 18.15C17.3124 18.15 16.6614 18.3236 16.0841 18.6348C16.4508 19.2842 16.7466 19.9838 16.9607 20.7211L15.0401 21.2789C14.7907 20.4203 14.4041 19.6304 13.9101 18.939C12.6406 17.162 10.6777 16.05 8.50036 16.05Z" fill="#E55608"/>
</svg>
