<svg width="20" height="14" viewBox="0 0 20 14" fill="none" xmlns="http://www.w3.org/2000/svg">
<path d="M11.9999 4.5C11.9999 4.00555 12.1465 3.5222 12.4212 3.11108C12.6959 2.69995 13.0864 2.37952 13.5432 2.1903C14 2.00108 14.5027 1.95157 14.9876 2.04804C15.4726 2.1445 15.918 2.3826 16.2677 2.73223C16.6173 3.08187 16.8554 3.52732 16.9519 4.01227C17.0483 4.49723 16.9988 4.99989 16.8096 5.45671C16.6204 5.91353 16.3 6.30397 15.8888 6.57868C15.4777 6.85338 14.9944 7 14.4999 7C13.8369 7 13.201 6.73661 12.7321 6.26777C12.2633 5.79893 11.9999 5.16304 11.9999 4.5ZM6.9999 6C7.59325 6 8.17327 5.82405 8.66661 5.49441C9.15996 5.16477 9.54448 4.69623 9.77154 4.14805C9.99861 3.59987 10.058 2.99667 9.94226 2.41473C9.8265 1.83279 9.54078 1.29824 9.12122 0.878681C8.70167 0.459123 8.16712 0.173401 7.58517 0.0576455C7.00323 -0.0581102 6.40003 0.00129986 5.85185 0.228363C5.30368 0.455426 4.83514 0.839943 4.5055 1.33329C4.17585 1.82664 3.9999 2.40666 3.9999 3C3.9999 3.79565 4.31597 4.55871 4.87858 5.12132C5.44119 5.68393 6.20425 6 6.9999 6ZM12.4499 9.66C12.2005 9.16035 11.8165 8.74025 11.3413 8.44698C10.866 8.1537 10.3184 7.9989 9.7599 8H4.2399C3.68145 7.9989 3.13378 8.1537 2.65854 8.44698C2.1833 8.74025 1.79934 9.16035 1.5499 9.66L0.109903 12.55C0.0331935 12.7022 -0.00332835 12.8715 0.00380602 13.0419C0.0109404 13.2122 0.0614942 13.3778 0.150667 13.5231C0.239839 13.6684 0.364669 13.7885 0.513303 13.8719C0.661937 13.9554 0.82944 13.9995 0.999904 14H12.9999C13.1704 13.9995 13.3379 13.9554 13.4865 13.8719C13.6351 13.7885 13.76 13.6684 13.8491 13.5231C13.9383 13.3778 13.9889 13.2122 13.996 13.0419C14.0031 12.8715 13.9666 12.7022 13.8899 12.55L12.4499 9.66ZM19.8899 12.55L18.9399 10.65C18.6898 10.1537 18.3068 9.73669 17.8336 9.44535C17.3604 9.15401 16.8156 8.99983 16.2599 9H14.3499L15.6799 11.66C15.8607 12.02 15.9672 12.4127 15.993 12.8147C16.0188 13.2168 15.9633 13.6199 15.8299 14H18.9999C19.1704 13.9995 19.3379 13.9554 19.4865 13.8719C19.6351 13.7885 19.76 13.6684 19.8491 13.5231C19.9383 13.3778 19.9889 13.2122 19.996 13.0419C20.0031 12.8715 19.9666 12.7022 19.8899 12.55Z" fill="#E55608"/>
</svg>
