<svg width="28" height="28" viewBox="0 0 28 28" fill="none" xmlns="http://www.w3.org/2000/svg">
<path fill-rule="evenodd" clip-rule="evenodd" d="M15.0003 1.6665C15.0003 1.11421 14.5526 0.666504 14.0003 0.666504C13.4481 0.666504 13.0003 1.11421 13.0003 1.6665V4.33317C13.0003 4.88545 13.4481 5.33317 14.0003 5.33317C14.5526 5.33317 15.0003 4.88545 15.0003 4.33317V1.6665ZM2.70743 4.9594C2.31691 4.56886 1.68374 4.56886 1.29322 4.9594C0.902699 5.34992 0.902699 5.98308 1.29322 6.37361L3.29322 8.37361C3.68374 8.76413 4.31691 8.76413 4.70743 8.37361C5.09795 7.98308 5.09795 7.34992 4.70743 6.9594L2.70743 4.9594ZM26.7074 6.37361C27.0979 5.98308 27.0979 5.34992 26.7074 4.9594C26.3169 4.56886 25.6838 4.56886 25.2933 4.9594L23.2933 6.9594C22.9027 7.34992 22.9027 7.98308 23.2933 8.37361C23.6838 8.76413 24.3169 8.76413 24.7074 8.37361L26.7074 6.37361ZM25.8366 14.4281C27.8327 16.3389 27.8327 19.6611 25.8366 21.5719C23.0849 24.206 18.8059 27.3333 14.0003 27.3333C9.19473 27.3333 4.91581 24.206 2.16407 21.5719C0.167966 19.6611 0.167966 16.3389 2.16407 14.4281C4.91581 11.794 9.19473 8.66666 14.0003 8.66666C18.8059 8.66666 23.0849 11.794 25.8366 14.4281ZM18.0003 18C18.0003 20.2092 16.2094 22 14.0003 22C11.7911 22 10.0003 20.2092 10.0003 18C10.0003 15.7908 11.7911 14 14.0003 14C16.2094 14 18.0003 15.7908 18.0003 18Z" fill="#E55608"/>
</svg>
