<svg width="20" height="20" viewBox="0 0 20 20" fill="none" xmlns="http://www.w3.org/2000/svg">
<path fill-rule="evenodd" clip-rule="evenodd" d="M6 3.07006V11.1543L9 9.4226V2.0618C7.91742 2.19663 6.90298 2.54757 6 3.07006ZM11 2.0619V3.42733L17.5151 7.25019C16.5038 4.48732 14.0116 2.43751 11 2.0619ZM17.9987 9.8528L11 5.74621V9.4152L17.41 13.0208C17.7904 12.0887 18 11.0688 18 10C18 9.9508 17.9996 9.9018 17.9987 9.8528ZM16.4281 14.7632L15.0091 13.965L8.3766 17.8354C8.9005 17.9433 9.4433 18 10 18C12.6338 18 14.9704 16.7272 16.4281 14.7632ZM5.98001 16.9183L12.9886 12.8284L10.0064 11.1509L3.62524 14.8343C4.26358 15.6746 5.06422 16.3849 5.98001 16.9183ZM2.6238 13.1031L4 12.3087V4.70816C2.75451 6.11907 2 7.97153 2 10C2 11.1016 2.22215 12.1496 2.6238 13.1031ZM4.44374 1.68454C6.0333 0.62053 7.9457 0 10 0C15.2478 0 19.5507 4.04167 19.967 9.1828C19.9889 9.4525 20 9.7251 20 10C20 15.5228 15.5228 20 10 20C8.4053 20 6.89511 19.626 5.55497 18.96C3.78967 18.0827 2.32138 16.6999 1.33843 15.0007C0.48699 13.5288 0 11.8198 0 10C0 6.53192 1.76629 3.47677 4.44374 1.68454Z" fill="#E55608"/>
</svg>
